<?xml version="1.0" encoding="utf-8"?>
<!-- Generator: Adobe Illustrator 23.0.3, SVG Export Plug-In . SVG Version: 6.00 Build 0)  -->
<svg version="1.1" id="Capa_1" xmlns="http://www.w3.org/2000/svg" xmlns:xlink="http://www.w3.org/1999/xlink" x="0px" y="0px"
	 viewBox="0 0 1200 1200" enable-background="new 0 0 1200 1200" xml:space="preserve">
<path fill="#2E2E2E" d="M897.212,86.981c0-3.089-1.203-5.993-3.387-8.177c-2.184-2.184-5.088-3.387-8.177-3.387h-0.02H600h-0.02
	H314.352h-0.02c-3.089,0-5.993,1.203-8.177,3.387c-2.185,2.185-3.388,5.089-3.388,8.178V600v428.592
	c0.083,4.429,3.685,7.997,8.134,7.997h0.02h577.899h0.02c4.501,0,8.411-3.911,8.411-8.411L897.212,600V86.981z M312.319,1027.058
	V600V86.981c0-0.559,0.201-1.043,0.596-1.438c0.395-0.395,0.878-0.595,1.437-0.595H599.98H600h285.628
	c0.559,0,1.042,0.2,1.438,0.596c0.395,0.395,0.595,0.878,0.595,1.437v513.02l0.04,427.057H312.319z M911.797,60.831
	C904.813,53.847,895.525,50,885.648,50H600H314.352c-9.879,0-19.165,3.847-26.149,10.832c-6.985,6.984-10.831,16.271-10.831,26.149
	V600v513.019c0,9.878,3.847,19.165,10.831,26.15c6.984,6.984,16.271,10.831,26.149,10.831H600h285.647
	c9.878,0,19.165-3.847,26.15-10.831c6.985-6.985,10.831-16.272,10.831-26.15V600V86.981
	C922.628,77.103,918.782,67.816,911.797,60.831z M913.097,600v513.019c0,7.58-3.072,14.443-8.04,19.41
	c-4.968,4.968-11.83,8.04-19.41,8.04H600H314.352c-7.58,0-14.442-3.072-19.41-8.04c-4.968-4.967-8.04-11.83-8.04-19.41V600V86.981
	c0-7.58,3.072-14.442,8.04-19.41c4.967-4.968,11.83-8.04,19.41-8.04H600h285.647c7.58,0,14.443,3.072,19.41,8.04
	c4.967,4.967,8.04,11.83,8.04,19.41V600z M562.376,153.155l13.611-16.347l-13.611-16.344c-0.934-1.114-1.334-2.392-1.201-3.838
	c0.133-1.446,0.757-2.634,1.868-3.568s2.389-1.334,3.838-1.201c1.443,0.133,2.634,0.757,3.568,1.868l12.376,14.877l12.376-14.877
	c0.934-1.111,2.122-1.734,3.568-1.868c1.446-0.133,2.724,0.267,3.838,1.201c1.111,0.934,1.734,2.122,1.868,3.568
	c0.133,1.446-0.267,2.724-1.201,3.838l-13.611,16.344l13.611,16.347c0.934,1.111,1.334,2.389,1.201,3.835
	c-0.133,1.446-0.757,2.625-1.868,3.537c-0.98,0.822-2.1,1.235-3.369,1.235c-1.623,0-2.969-0.636-4.036-1.902l-12.376-14.846
	l-12.376,14.846c-1.067,1.266-2.414,1.902-4.036,1.902c-1.291,0-2.414-0.413-3.369-1.235c-1.111-0.912-1.734-2.091-1.868-3.537
	C561.042,155.544,561.442,154.265,562.376,153.155z M620.587,160.225c-1.024-1.021-1.536-2.268-1.536-3.736v-39.397
	c0-1.446,0.512-2.681,1.536-3.704c1.021-1.042,2.268-1.567,3.736-1.567c1.446,0,2.681,0.524,3.701,1.567
	c1.024,1.024,1.536,2.259,1.536,3.704v39.397c0,1.468-0.512,2.715-1.536,3.736c-1.021,1.024-2.256,1.536-3.701,1.536
	C622.855,161.761,621.607,161.249,620.587,160.225z M463.841,1066.066c1.024,1.024,1.536,2.255,1.536,3.701v22.984
	c0,5.985-2.125,11.089-6.373,15.314c-4.226,4.247-9.329,6.37-15.311,6.37c-5.982,0-11.086-2.122-15.311-6.37
	c-4.247-4.226-6.373-9.329-6.373-15.314c0-1.443,0.512-2.677,1.536-3.701c1.021-1.024,2.268-1.536,3.736-1.536
	c1.446,0,2.681,0.512,3.701,1.536c1.024,1.024,1.536,2.259,1.536,3.701c0,3.093,1.089,5.727,3.27,7.909
	c2.178,2.178,4.815,3.267,7.905,3.267c3.068,0,5.693-1.089,7.871-3.267c2.203-2.181,3.304-4.815,3.304-7.909v-17.747h-11.175
	c-1.446,0-2.69-0.509-3.736-1.533c-1.024-1.024-1.536-2.259-1.536-3.704s0.512-2.677,1.536-3.701
	c1.046-1.046,2.29-1.567,3.736-1.567h16.413C461.552,1064.5,462.796,1065.021,463.841,1066.066z M524.388,1066.066
	c1.024,1.024,1.536,2.255,1.536,3.701v22.984c0,5.985-2.125,11.089-6.373,15.314c-4.226,4.247-9.329,6.37-15.311,6.37
	c-5.982,0-11.086-2.122-15.311-6.37c-4.251-4.226-6.373-9.329-6.373-15.314v-22.984c0-1.446,0.512-2.677,1.536-3.701
	c1.021-1.046,2.268-1.567,3.736-1.567c1.446,0,2.681,0.521,3.701,1.567c1.024,1.024,1.536,2.255,1.536,3.701v22.984
	c0,3.093,1.089,5.727,3.27,7.909c2.178,2.178,4.812,3.267,7.905,3.267c3.068,0,5.693-1.089,7.871-3.267
	c2.203-2.181,3.304-4.815,3.304-7.909v-22.984c0-1.446,0.512-2.677,1.533-3.701c1.024-1.046,2.259-1.567,3.704-1.567
	S523.342,1065.021,524.388,1066.066z M552.342,1076.373c-0.912,0.89-1.368,1.97-1.368,3.236c0,1.269,0.456,2.358,1.368,3.27
	c0.887,0.89,1.967,1.334,3.236,1.334h13.143c4.157,0,7.716,1.48,10.676,4.437c2.957,2.957,4.437,6.515,4.437,10.676
	c0,4.157-1.48,7.716-4.437,10.673c-2.96,2.96-6.518,4.437-10.676,4.437h-22.984c-1.468,0-2.715-0.512-3.735-1.533
	c-1.024-1.024-1.536-2.268-1.536-3.739c0-1.443,0.512-2.678,1.536-3.701c1.021-1.024,2.268-1.536,3.735-1.536h22.984
	c1.269,0,2.346-0.444,3.236-1.334c0.912-0.912,1.368-2.001,1.368-3.267c0-1.269-0.456-2.349-1.368-3.236
	c-0.89-0.912-1.967-1.368-3.236-1.368h-13.143c-4.161,0-7.719-1.48-10.676-4.437c-2.957-2.935-4.437-6.494-4.437-10.676
	c0-4.157,1.48-7.716,4.437-10.673c2.957-2.96,6.515-4.437,10.676-4.437h22.984c1.446,0,2.69,0.521,3.736,1.567
	c1.024,1.024,1.536,2.255,1.536,3.701s-0.512,2.681-1.536,3.704c-1.046,1.024-2.29,1.533-3.736,1.533h-22.984
	C554.309,1075.005,553.23,1075.461,552.342,1076.373z M636.239,1066.066c1.024,1.024,1.536,2.255,1.536,3.701
	s-0.512,2.681-1.536,3.704c-1.046,1.024-2.29,1.533-3.736,1.533h-11.175v34.159c0,1.471-0.512,2.715-1.536,3.739
	c-1.021,1.021-2.256,1.533-3.701,1.533s-2.693-0.512-3.736-1.533c-1.024-1.024-1.536-2.268-1.536-3.739v-34.159h-11.141
	c-1.468,0-2.715-0.509-3.735-1.533c-1.024-1.024-1.536-2.259-1.536-3.704s0.512-2.677,1.536-3.701
	c1.021-1.046,2.268-1.567,3.735-1.567h32.825C633.949,1064.5,635.193,1065.021,636.239,1066.066z M659.989,1066.066
	c1.024,1.024,1.536,2.255,1.536,3.701v39.397c0,1.471-0.512,2.715-1.536,3.739c-1.021,1.021-2.256,1.533-3.701,1.533
	c-1.467,0-2.715-0.512-3.735-1.533c-1.024-1.024-1.536-2.268-1.536-3.739v-39.397c0-1.446,0.512-2.677,1.536-3.701
	c1.021-1.046,2.268-1.567,3.735-1.567C657.734,1064.5,658.969,1065.021,659.989,1066.066z M690.848,1079.243
	c-2.826,2.823-4.238,6.239-4.238,10.242c0,3.981,1.412,7.384,4.238,10.208c2.823,2.823,6.224,4.235,10.207,4.235
	c3.981,0,7.381-1.412,10.208-4.235c1.021-1.024,2.268-1.536,3.735-1.536c1.446,0,2.681,0.512,3.701,1.536
	c1.024,1.024,1.536,2.255,1.536,3.701c0,1.468-0.512,2.715-1.536,3.739c-4.868,4.868-10.75,7.303-17.644,7.303
	c-6.894,0-12.776-2.436-17.647-7.303c-4.871-4.871-7.307-10.754-7.307-17.647c0-6.916,2.435-12.798,7.307-17.647
	c4.871-4.893,10.754-7.338,17.647-7.338c6.894,0,12.776,2.445,17.644,7.338c1.024,1.024,1.536,2.259,1.536,3.701
	c0,1.446-0.512,2.681-1.536,3.704c-1.021,1.046-2.256,1.567-3.701,1.567c-1.468,0-2.715-0.521-3.735-1.567
	c-2.826-2.823-6.227-4.238-10.208-4.238C697.071,1075.005,693.671,1076.42,690.848,1079.243z M744.519,1075.005v9.208h21.017
	c1.446,0,2.69,0.512,3.735,1.536c1.024,1.021,1.536,2.268,1.536,3.735c0,1.446-0.512,2.681-1.536,3.701
	c-1.046,1.024-2.29,1.536-3.735,1.536h-21.017v9.205h27.588c1.446,0,2.693,0.512,3.739,1.536c1.021,1.024,1.533,2.259,1.533,3.701
	c0,1.471-0.512,2.715-1.533,3.739c-1.046,1.021-2.293,1.533-3.739,1.533h-32.825c-1.468,0-2.712-0.512-3.735-1.533
	c-1.024-1.024-1.533-2.268-1.533-3.739v-39.397c0-1.446,0.509-2.677,1.533-3.701c1.024-1.046,2.268-1.567,3.735-1.567h32.825
	c1.446,0,2.693,0.521,3.739,1.567c1.021,1.024,1.533,2.255,1.533,3.701s-0.512,2.681-1.533,3.704
	c-1.046,1.024-2.293,1.533-3.739,1.533H744.519z M840.873,645.627c0.007-0.025,0.005-0.051,0.011-0.077
	c0.08-0.323,0.133-0.654,0.142-0.991c0-0.002,0-0.004,0.001-0.006c0.01-0.333-0.023-0.67-0.086-1.006
	c-0.022-0.114-0.063-0.221-0.093-0.333c-0.046-0.175-0.078-0.352-0.146-0.525l-73.863-189.362
	c21.526-4.34,37.009-20.715,38.413-35.674c0.003-0.028,0.006-0.059,0.009-0.09c0.059-0.67,0.096-1.331,0.096-1.979
	c0-11.11-9.041-20.151-20.151-20.151c-11.11,0-20.151,9.041-20.151,20.151c0,3.425,0.862,6.736,2.463,9.661
	c-2.665,0.512-6.646,0.959-12.413,0.959c-10.819,0-26.961-9.364-37.644-15.559c-4.542-2.634-8.467-4.908-11.321-6.134
	c-22.897-9.811-46.565-15.427-74.394-17.504V259.739c1.385,0.319,2.874,0.072,4.043-0.864l16.987-13.589
	c1.517-1.213,2.144-3.23,1.585-5.091c-0.388-1.291-10.012-31.609-54.214-31.609c-44.311,0-53.541,32.534-53.631,32.859
	c-0.49,1.831,0.149,3.773,1.626,4.955l16.987,13.589c0.872,0.698,1.924,1.046,2.978,1.046c0.265,0,0.52-0.09,0.782-0.134v126.2
	c-28.019,2.177-52.147,7.847-74.459,17.41c-2.854,1.226-6.779,3.5-11.321,6.134c-10.682,6.196-26.825,15.559-37.644,15.559
	c-5.768,0-9.748-0.447-12.413-0.959c1.601-2.926,2.463-6.236,2.463-9.661c0-11.11-9.041-20.151-20.151-20.151
	c-11.11,0-20.151,9.041-20.151,20.151c0,0.658,0.037,1.328,0.102,2.007c0,0.022,0.003,0.04,0.006,0.062
	c1.402,14.959,16.882,31.335,38.41,35.674l-73.863,189.362c-0.067,0.174-0.1,0.35-0.147,0.526c-0.029,0.112-0.071,0.219-0.092,0.332
	c-0.127,0.678-0.101,1.358,0.057,2.004c0.006,0.025,0.004,0.051,0.011,0.076c8.963,34.2,42.316,58.086,81.104,58.086
	c39.384,0,73.723-25.37,81.651-60.327c0.002-0.007,0.001-0.014,0.002-0.021c0.074-0.331,0.11-0.67,0.111-1.014
	c0-0.086-0.017-0.169-0.021-0.254c-0.012-0.247-0.035-0.493-0.087-0.741c-0.028-0.133-0.074-0.259-0.113-0.39
	c-0.041-0.138-0.065-0.277-0.119-0.413l-74.811-186.21c11.224-0.599,22.558-4.878,35.538-9.836
	c18.978-7.251,40.489-15.466,69.544-15.466h16.391v493.139l27.064,60.094l4.347-1.958l4.344,1.961l27.104-60.097V429.042h16.326
	c29.056,0,50.566,8.216,69.544,15.466c12.98,4.957,24.314,9.237,35.538,9.836l-74.81,186.21c-0.055,0.136-0.078,0.275-0.119,0.413
	c-0.039,0.13-0.085,0.257-0.113,0.39c-0.052,0.246-0.074,0.491-0.086,0.737c-0.004,0.087-0.022,0.171-0.021,0.258
	c0.001,0.343,0.037,0.682,0.111,1.013c0.002,0.007,0.001,0.014,0.002,0.021c7.933,34.957,42.273,60.327,81.654,60.327
	C798.56,703.713,831.909,679.826,840.873,645.627z M371.319,639.558l64.252-164.721v163.847L371.319,639.558z M445.102,638.554
	V474.151l65.691,163.51L445.102,638.554z M764.999,638.684V474.837l64.252,164.721L764.999,638.684z M755.468,638.554l-65.691-0.894
	l65.691-163.51V638.554z M578.419,429.042h17.132V958.17l-17.132-38.037V429.042z M622.215,920.134l-17.132,37.985V429.042h17.132
	V920.134z M755.183,162.002c0-2.428,1.969-4.397,4.397-4.397c5.617,0,10.188-4.571,10.188-10.189c0-2.428,1.969-4.397,4.397-4.397
	s4.397,1.969,4.397,4.397c0,5.618,4.57,10.189,10.189,10.189c2.428,0,4.396,1.969,4.396,4.397c0,2.428-1.969,4.397-4.396,4.397
	c-5.619,0-10.189,4.57-10.189,10.188c0,2.428-1.969,4.397-4.397,4.397s-4.397-1.969-4.397-4.397c0-5.618-4.57-10.188-10.188-10.188
	C757.152,166.399,755.183,164.431,755.183,162.002z M406.853,160.605c0-2.428,1.969-4.397,4.397-4.397
	c5.617,0,10.188-4.571,10.188-10.189c0-2.428,1.969-4.397,4.397-4.397c2.428,0,4.397,1.969,4.397,4.397
	c0,5.618,4.571,10.189,10.189,10.189c2.429,0,4.397,1.969,4.397,4.397c0,2.428-1.969,4.397-4.397,4.397
	c-5.618,0-10.189,4.57-10.189,10.188c0,2.428-1.969,4.397-4.397,4.397c-2.428,0-4.397-1.969-4.397-4.397
	c0-5.618-4.571-10.188-10.188-10.188C408.821,165.001,406.853,163.033,406.853,160.605z M850.017,245.05
	c0,2.428-1.969,4.397-4.397,4.397c-5.618,0-10.189,4.57-10.189,10.188c0,2.428-1.969,4.397-4.397,4.397
	c-2.428,0-4.396-1.969-4.396-4.397c0-5.618-4.571-10.188-10.188-10.188c-2.428,0-4.397-1.969-4.397-4.397
	c0-2.428,1.969-4.397,4.397-4.397c5.617,0,10.188-4.571,10.188-10.188c0-2.428,1.969-4.397,4.396-4.397
	c2.429,0,4.397,1.969,4.397,4.397c0,5.618,4.571,10.188,10.189,10.188C848.048,240.653,850.017,242.622,850.017,245.05z
	 M349.984,245.05c0-2.428,1.969-4.397,4.397-4.397c5.617,0,10.188-4.571,10.188-10.188c0-2.428,1.969-4.397,4.397-4.397
	c2.428,0,4.397,1.969,4.397,4.397c0,5.618,4.57,10.188,10.189,10.188c2.428,0,4.397,1.969,4.397,4.397
	c0,2.428-1.969,4.397-4.397,4.397c-5.618,0-10.189,4.57-10.189,10.188c0,2.428-1.969,4.397-4.397,4.397
	c-2.428,0-4.397-1.969-4.397-4.397c0-5.618-4.57-10.188-10.188-10.188C351.952,249.447,349.984,247.478,349.984,245.05z
	 M448.345,320.734c0-2.428,1.969-4.397,4.397-4.397c5.617,0,10.188-4.571,10.188-10.188c0-2.428,1.969-4.397,4.396-4.397
	c2.429,0,4.397,1.969,4.397,4.397c0,5.618,4.57,10.188,10.189,10.188c2.428,0,4.397,1.969,4.397,4.397
	c0,2.428-1.969,4.397-4.397,4.397c-5.618,0-10.189,4.57-10.189,10.188c0,2.428-1.969,4.397-4.397,4.397
	c-2.428,0-4.396-1.969-4.396-4.397c0-5.618-4.571-10.188-10.188-10.188C450.313,325.131,448.345,323.162,448.345,320.734z
	 M713.691,320.734c0-2.428,1.969-4.397,4.397-4.397c5.617,0,10.188-4.571,10.188-10.188c0-2.428,1.969-4.397,4.397-4.397
	c2.428,0,4.397,1.969,4.397,4.397c0,5.618,4.57,10.188,10.189,10.188c2.428,0,4.397,1.969,4.397,4.397
	c0,2.428-1.969,4.397-4.397,4.397c-5.618,0-10.189,4.57-10.189,10.188c0,2.428-1.969,4.397-4.397,4.397
	c-2.428,0-4.397-1.969-4.397-4.397c0-5.618-4.57-10.188-10.188-10.188C715.66,325.131,713.691,323.162,713.691,320.734z
	 M354.381,777.589c-2.429,0-4.397-1.969-4.397-4.397c0-2.428,1.969-4.397,4.397-4.397c5.617,0,10.188-4.571,10.188-10.188
	c0-2.428,1.969-4.397,4.397-4.397c2.428,0,4.397,1.969,4.397,4.397c0,5.618,4.57,10.188,10.189,10.188
	c2.428,0,4.397,1.969,4.397,4.397c0,2.428-1.969,4.397-4.397,4.397c-5.618,0-10.189,4.57-10.189,10.188
	c0,2.428-1.969,4.397-4.397,4.397c-2.428,0-4.397-1.969-4.397-4.397C364.568,782.159,359.998,777.589,354.381,777.589z
	 M479.071,855.141c0,2.428-1.969,4.397-4.397,4.397c-5.618,0-10.189,4.57-10.189,10.188c0,2.428-1.969,4.397-4.397,4.397
	c-2.428,0-4.397-1.969-4.397-4.397c0-5.618-4.57-10.188-10.188-10.188c-2.429,0-4.397-1.969-4.397-4.397
	c0-2.428,1.969-4.397,4.397-4.397c5.617,0,10.188-4.571,10.188-10.188c0-2.428,1.969-4.397,4.397-4.397
	c2.428,0,4.397,1.969,4.397,4.397c0,5.618,4.57,10.188,10.189,10.188C477.102,850.744,479.071,852.712,479.071,855.141z
	 M759.464,855.141c0,2.428-1.969,4.397-4.397,4.397c-5.619,0-10.189,4.57-10.189,10.188c0,2.428-1.969,4.397-4.397,4.397
	s-4.397-1.969-4.397-4.397c0-5.618-4.57-10.188-10.188-10.188c-2.428,0-4.397-1.969-4.397-4.397c0-2.428,1.969-4.397,4.397-4.397
	c5.618,0,10.188-4.571,10.188-10.188c0-2.428,1.969-4.397,4.397-4.397s4.397,1.969,4.397,4.397c0,5.618,4.57,10.188,10.189,10.188
	C757.495,850.744,759.464,852.712,759.464,855.141z M846.18,772.266c0,2.428-1.969,4.397-4.396,4.397
	c-5.619,0-10.189,4.57-10.189,10.188c0,2.428-1.969,4.397-4.397,4.397c-2.428,0-4.397-1.969-4.397-4.397
	c0-5.618-4.57-10.188-10.188-10.188c-2.428,0-4.397-1.969-4.397-4.397s1.969-4.397,4.397-4.397c5.617,0,10.188-4.571,10.188-10.188
	c0-2.428,1.969-4.397,4.397-4.397c2.428,0,4.397,1.969,4.397,4.397c0,5.618,4.57,10.188,10.189,10.188
	C844.212,767.869,846.18,769.838,846.18,772.266z M716.307,973.303c0,2.428-1.969,4.397-4.397,4.397
	c-5.618,0-10.189,4.57-10.189,10.188c0,2.428-1.969,4.397-4.396,4.397c-2.429,0-4.397-1.969-4.397-4.397
	c0-5.618-4.57-10.188-10.188-10.188c-2.428,0-4.396-1.969-4.396-4.397s1.969-4.397,4.396-4.397c5.618,0,10.188-4.571,10.188-10.189
	c0-2.428,1.969-4.397,4.397-4.397c2.428,0,4.396,1.969,4.396,4.397c0,5.618,4.571,10.189,10.189,10.189
	C714.338,968.906,716.307,970.874,716.307,973.303z M521.096,973.303c0,2.428-1.969,4.397-4.397,4.397
	c-5.618,0-10.189,4.57-10.189,10.188c0,2.428-1.969,4.397-4.396,4.397c-2.429,0-4.397-1.969-4.397-4.397
	c0-5.618-4.571-10.188-10.188-10.188c-2.428,0-4.396-1.969-4.396-4.397s1.969-4.397,4.396-4.397c5.617,0,10.188-4.571,10.188-10.189
	c0-2.428,1.969-4.397,4.397-4.397c2.428,0,4.396,1.969,4.396,4.397c0,5.618,4.571,10.189,10.189,10.189
	C519.128,968.906,521.096,970.874,521.096,973.303z M391.784,957.058c0,2.428-1.969,4.397-4.397,4.397
	c-5.618,0-10.189,4.57-10.189,10.188c0,2.428-1.969,4.397-4.397,4.397c-2.428,0-4.397-1.969-4.397-4.397
	c0-5.618-4.571-10.188-10.188-10.188c-2.428,0-4.397-1.969-4.397-4.397c0-2.428,1.969-4.397,4.397-4.397
	c5.617,0,10.188-4.571,10.188-10.189c0-2.428,1.969-4.397,4.397-4.397c2.428,0,4.397,1.969,4.397,4.397
	c0,5.618,4.571,10.189,10.189,10.189C389.815,952.661,391.784,954.63,391.784,957.058z M846.18,957.058
	c0,2.428-1.969,4.397-4.396,4.397c-5.619,0-10.189,4.57-10.189,10.188c0,2.428-1.969,4.397-4.397,4.397
	c-2.428,0-4.397-1.969-4.397-4.397c0-5.618-4.57-10.188-10.188-10.188c-2.428,0-4.397-1.969-4.397-4.397
	c0-2.428,1.969-4.397,4.397-4.397c5.617,0,10.188-4.571,10.188-10.189c0-2.428,1.969-4.397,4.397-4.397
	c2.428,0,4.397,1.969,4.397,4.397c0,5.618,4.57,10.189,10.189,10.189C844.212,952.661,846.18,954.63,846.18,957.058z"/>
</svg>
