<?xml version="1.0" encoding="utf-8"?>
<!-- Generator: Adobe Illustrator 23.0.3, SVG Export Plug-In . SVG Version: 6.00 Build 0)  -->
<svg version="1.1" id="Capa_1" xmlns="http://www.w3.org/2000/svg" xmlns:xlink="http://www.w3.org/1999/xlink" x="0px" y="0px"
	 viewBox="0 0 1200 1200" enable-background="new 0 0 1200 1200" xml:space="preserve">
<path fill="#2E2E2E" d="M407.403,1066.145c1.024,1.024,1.536,2.259,1.536,3.704v39.397c0,1.468-0.512,2.715-1.536,3.735
	c-1.042,1.024-2.29,1.536-3.735,1.536c-1.446,0-2.681-0.512-3.704-1.536c-1.021-1.021-1.533-2.268-1.533-3.735v-14.446H376.08
	v14.446c0,1.468-0.512,2.715-1.533,3.735c-1.024,1.024-2.259,1.536-3.704,1.536c-1.468,0-2.712-0.512-3.736-1.536
	c-1.024-1.021-1.533-2.268-1.533-3.735v-39.397c0-1.446,0.509-2.681,1.533-3.704c1.024-1.042,2.268-1.567,3.736-1.567
	c1.446,0,2.681,0.524,3.704,1.567c1.021,1.024,1.533,2.259,1.533,3.704v14.443h22.351v-14.443c0-1.446,0.512-2.681,1.533-3.704
	c1.024-1.042,2.259-1.567,3.704-1.567C405.114,1064.578,406.361,1065.103,407.403,1066.145z M827.424,1071.916
	c4.89,4.871,7.338,10.753,7.338,17.647c0,6.872-2.448,12.755-7.338,17.647c-4.871,4.871-10.754,7.307-17.647,7.307
	c-6.872,0-12.755-2.436-17.647-7.307c-4.871-4.893-7.303-10.775-7.303-17.647c0-6.894,2.432-12.776,7.303-17.647
	c4.893-4.89,10.775-7.338,17.647-7.338C816.67,1064.578,822.553,1067.026,827.424,1071.916z M824.253,1089.564
	c0-3.981-1.412-7.381-4.235-10.208c-2.848-2.845-6.261-4.269-10.242-4.269c-3.984,0-7.384,1.424-10.207,4.269
	c-2.823,2.826-4.238,6.227-4.238,10.208c0,3.981,1.415,7.384,4.238,10.207c2.823,2.826,6.224,4.238,10.207,4.238
	c3.981,0,7.393-1.412,10.242-4.238C822.841,1096.948,824.253,1093.544,824.253,1089.564z M764.916,883.642
	c2.411,1.39,6.193,2.78,10.114,2.78c4.285,0,8.737-1.657,11.743-6.779c4.663-7.936-1.756-16.509-7.303-21.234l-0.757-8.417
	c-0.236-2.622-2.544-4.545-5.175-4.319c-2.622,0.236-4.555,2.553-4.319,5.175l0.94,10.446c0.121,1.35,0.822,2.591,1.911,3.4
	c2.923,2.175,7.995,7.549,6.487,10.121c-2.38,4.052-8.203,0.952-8.895,0.562c-2.274-1.3-5.181-0.521-6.491,1.756
	C761.857,879.414,762.639,882.327,764.916,883.642z M352.063,1064.578h-32.825c-1.468,0-2.715,0.524-3.736,1.567
	c-1.024,1.024-1.536,2.259-1.536,3.704s0.512,2.681,1.536,3.701c1.021,1.024,2.268,1.536,3.736,1.536h11.141v34.159
	c0,1.468,0.512,2.715,1.536,3.735c1.046,1.024,2.29,1.536,3.736,1.536s2.681-0.512,3.701-1.536c1.024-1.021,1.536-2.268,1.536-3.735
	v-34.159h11.175c1.446,0,2.69-0.512,3.739-1.536c1.021-1.021,1.533-2.256,1.533-3.701s-0.512-2.681-1.533-3.704
	C354.753,1065.103,353.508,1064.578,352.063,1064.578z M877.425,1064.578H844.6c-1.464,0-2.712,0.524-3.736,1.567
	c-1.024,1.024-1.533,2.259-1.533,3.704s0.509,2.681,1.533,3.701c1.024,1.024,2.271,1.536,3.736,1.536h11.144v34.159
	c0,1.468,0.509,2.715,1.533,3.735c1.046,1.024,2.29,1.536,3.735,1.536s2.681-0.512,3.704-1.536c1.024-1.021,1.533-2.268,1.533-3.735
	v-34.159h11.175c1.446,0,2.693-0.512,3.739-1.536c1.021-1.021,1.536-2.256,1.536-3.701s-0.515-2.681-1.536-3.704
	C880.118,1065.103,878.871,1064.578,877.425,1064.578z M747.629,1098.505l7.04,7.037c1.024,1.024,1.533,2.259,1.533,3.704
	c0,1.468-0.509,2.715-1.533,3.735c-1.046,1.024-2.29,1.536-3.735,1.536s-2.681-0.512-3.705-1.536l-11.61-11.61h-12.274v7.874
	c0,1.468-0.515,2.715-1.536,3.735c-1.021,1.024-2.256,1.536-3.701,1.536c-1.471,0-2.715-0.512-3.735-1.536
	c-1.024-1.021-1.536-2.268-1.536-3.735v-39.397c0-1.446,0.512-2.681,1.536-3.704c1.021-1.042,2.265-1.567,3.735-1.567h19.683
	c5.07,0,9.407,1.803,13.006,5.405c3.605,3.602,5.405,7.939,5.405,13.009c0,3.202-0.788,6.193-2.367,8.973
	C752.323,1094.658,750.254,1096.836,747.629,1098.505z M745.696,1082.992c0-2.178-0.782-4.036-2.336-5.569
	c-1.536-1.557-3.391-2.336-5.569-2.336h-14.446v15.78h14.446c2.178,0,4.033-0.769,5.569-2.302
	C744.914,1087.007,745.696,1085.149,745.696,1082.992z M459.21,1075.087c1.446,0,2.693-0.512,3.736-1.536
	c1.024-1.021,1.536-2.256,1.536-3.701s-0.512-2.681-1.536-3.704c-1.042-1.042-2.29-1.567-3.736-1.567h-32.825
	c-1.468,0-2.712,0.524-3.736,1.567c-1.024,1.024-1.533,2.259-1.533,3.704v39.397c0,1.468,0.509,2.715,1.533,3.735
	c1.024,1.024,2.268,1.536,3.736,1.536h32.825c1.446,0,2.693-0.512,3.736-1.536c1.024-1.021,1.536-2.268,1.536-3.735
	c0-1.446-0.512-2.681-1.536-3.704c-1.042-1.021-2.29-1.533-3.736-1.533h-27.588v-9.208h21.017c1.446,0,2.69-0.509,3.736-1.533
	c1.024-1.024,1.536-2.259,1.536-3.704c0-1.468-0.512-2.712-1.536-3.736c-1.046-1.024-2.29-1.536-3.736-1.536h-21.017v-9.205H459.21z
	 M771.013,1064.578c-1.467,0-2.712,0.524-3.735,1.567c-1.024,1.024-1.533,2.259-1.533,3.704v39.397c0,1.468,0.509,2.715,1.533,3.735
	c1.024,1.024,2.268,1.536,3.735,1.536c1.446,0,2.681-0.512,3.705-1.536c1.021-1.021,1.533-2.268,1.533-3.735v-39.397
	c0-1.446-0.512-2.681-1.533-3.704C773.694,1065.103,772.459,1064.578,771.013,1064.578z M693.054,1098.505l7.04,7.037
	c1.024,1.024,1.533,2.259,1.533,3.704c0,1.468-0.509,2.715-1.533,3.735c-1.046,1.024-2.29,1.536-3.735,1.536
	s-2.681-0.512-3.704-1.536l-11.61-11.61h-12.274v7.874c0,1.468-0.515,2.715-1.536,3.735c-1.021,1.024-2.256,1.536-3.701,1.536
	c-1.471,0-2.715-0.512-3.735-1.536c-1.024-1.021-1.536-2.268-1.536-3.735v-39.397c0-1.446,0.512-2.681,1.536-3.704
	c1.021-1.042,2.265-1.567,3.735-1.567h19.683c5.07,0,9.407,1.803,13.006,5.405c3.605,3.602,5.405,7.939,5.405,13.009
	c0,3.202-0.788,6.193-2.367,8.973C697.749,1094.658,695.679,1096.836,693.054,1098.505z M691.122,1082.992
	c0-2.178-0.782-4.036-2.336-5.569c-1.536-1.557-3.391-2.336-5.569-2.336h-14.446v15.78h14.446c2.178,0,4.033-0.769,5.569-2.302
	C690.34,1087.007,691.122,1085.149,691.122,1082.992z M647.788,1106.91c0.667,1.291,0.766,2.625,0.301,4.005
	c-0.469,1.377-1.347,2.389-2.637,3.034c-0.732,0.379-1.514,0.568-2.333,0.568c-0.98,0-1.893-0.258-2.737-0.769
	c-0.869-0.534-1.523-1.254-1.967-2.166l-3.506-6.94H611.86l-3.472,6.94c-0.645,1.312-1.657,2.19-3.034,2.634
	c-1.378,0.468-2.712,0.378-4.002-0.267c-1.312-0.645-2.19-1.657-2.637-3.034c-0.465-1.381-0.378-2.715,0.267-4.005l19.717-39.431
	c0.444-0.887,1.089-1.601,1.933-2.135c0.847-0.512,1.768-0.766,2.771-0.766c1.002,0,1.924,0.254,2.771,0.766
	c0.844,0.534,1.489,1.247,1.933,2.135L647.788,1106.91z M629.672,1094.134l-6.27-12.541l-6.27,12.541H629.672z M518.556,1075.087
	c3.981,0,7.384,1.412,10.208,4.235c1.024,1.046,2.268,1.57,3.735,1.57c1.446,0,2.681-0.524,3.704-1.57
	c1.024-1.021,1.533-2.255,1.533-3.701s-0.509-2.681-1.533-3.704c-4.871-4.89-10.753-7.338-17.647-7.338
	c-6.894,0-12.776,2.448-17.647,7.338c-4.871,4.849-7.303,10.732-7.303,17.647c0,6.894,2.432,12.776,7.303,17.647
	c4.871,4.871,10.754,7.307,17.647,7.307c6.894,0,12.776-2.436,17.647-7.307c1.024-1.024,1.533-2.268,1.533-3.735
	c0-1.446-0.509-2.681-1.533-3.704c-1.024-1.021-2.259-1.533-3.704-1.533c-1.468,0-2.712,0.512-3.735,1.533
	c-2.823,2.826-6.227,4.238-10.208,4.238c-3.984,0-7.384-1.412-10.207-4.238c-2.823-2.823-4.238-6.227-4.238-10.207
	c0-4.002,1.415-7.415,4.238-10.242C511.172,1076.499,514.572,1075.087,518.556,1075.087z M586.273,1064.578
	c-1.446,0-2.681,0.524-3.704,1.567c-1.021,1.024-1.533,2.259-1.533,3.704v14.443h-22.351v-14.443c0-1.446-0.512-2.681-1.533-3.704
	c-1.024-1.042-2.259-1.567-3.704-1.567c-1.468,0-2.712,0.524-3.735,1.567c-1.024,1.024-1.533,2.259-1.533,3.704v39.397
	c0,1.468,0.509,2.715,1.533,3.735c1.024,1.024,2.268,1.536,3.735,1.536c1.446,0,2.681-0.512,3.704-1.536
	c1.021-1.021,1.533-2.268,1.533-3.735v-14.446h22.351v14.446c0,1.468,0.512,2.715,1.533,3.735c1.024,1.024,2.259,1.536,3.704,1.536
	s2.693-0.512,3.736-1.536c1.024-1.021,1.536-2.268,1.536-3.735v-39.397c0-1.446-0.512-2.681-1.536-3.704
	C588.966,1065.103,587.719,1064.578,586.273,1064.578z M832.893,134.317c5.618,0,10.188,4.57,10.188,10.188
	c0,2.428,1.969,4.397,4.397,4.397c2.428,0,4.396-1.969,4.396-4.397c0-5.618,4.571-10.188,10.19-10.188
	c2.428,0,4.396-1.969,4.396-4.397c0-2.428-1.969-4.397-4.396-4.397c-5.619,0-10.19-4.571-10.19-10.188
	c0-2.428-1.969-4.397-4.396-4.397c-2.429,0-4.397,1.969-4.397,4.397c0,5.618-4.57,10.188-10.188,10.188
	c-2.428,0-4.396,1.969-4.396,4.397C828.497,132.348,830.465,134.317,832.893,134.317z M580.301,367.302
	c2.631,0,4.766-2.133,4.766-4.766v-0.679c1.638,0.836,2.434,1.882,2.584,2.107c1.368,2.204,4.26,2.907,6.481,1.584
	c2.265-1.343,3.01-4.268,1.666-6.531c-1.716-2.887-6.931-7.773-15.597-7.773c-8.79,0-13.9,5.229-15.535,8.318
	c-1.229,2.327-0.341,5.211,1.986,6.441c0.711,0.375,1.474,0.554,2.225,0.554c1.71,0,3.36-0.923,4.216-2.539
	c0.009-0.02,0.737-1.201,2.442-2.132v0.652C575.535,365.169,577.67,367.302,580.301,367.302z M617.744,161.761
	c1.446,0,2.681-0.512,3.701-1.534c1.024-1.022,1.536-2.268,1.536-3.737v-39.397c0-1.446-0.512-2.679-1.536-3.703
	c-1.021-1.044-2.256-1.567-3.701-1.567c-1.468,0-2.715,0.523-3.735,1.567c-1.024,1.024-1.536,2.257-1.536,3.703v39.397
	c0,1.469,0.512,2.715,1.536,3.737C615.029,161.249,616.276,161.761,617.744,161.761z M569.577,158.859
	c0.444,0.89,1.086,1.59,1.933,2.102c0.847,0.534,1.768,0.8,2.771,0.8c0.999,0,1.924-0.267,2.768-0.8
	c0.844-0.512,1.489-1.212,1.936-2.102l19.683-39.431c0.664-1.289,0.763-2.623,0.298-4.002s-1.346-2.391-2.637-3.036
	c-1.288-0.645-2.622-0.745-4.002-0.299c-1.378,0.467-2.389,1.345-3.034,2.634l-15.01,30.024l-15.013-29.957
	c-0.645-1.311-1.657-2.19-3.037-2.634c-1.378-0.468-2.724-0.379-4.033,0.267c-1.291,0.645-2.159,1.657-2.603,3.034
	c-0.469,1.381-0.379,2.726,0.267,4.036L569.577,158.859z M446.06,138.12c5.619,0,10.19,4.57,10.19,10.188
	c0,2.428,1.969,4.397,4.396,4.397c2.429,0,4.397-1.969,4.397-4.397c0-5.618,4.571-10.188,10.188-10.188
	c2.428,0,4.397-1.969,4.397-4.397c0-2.428-1.969-4.397-4.397-4.397c-5.617,0-10.188-4.571-10.188-10.189
	c0-2.428-1.969-4.397-4.397-4.397c-2.428,0-4.396,1.969-4.396,4.397c0,5.618-4.571,10.189-10.19,10.189
	c-2.428,0-4.396,1.969-4.396,4.397C441.663,136.152,443.632,138.12,446.06,138.12z M861.823,223.218
	c0-2.428-1.969-4.397-4.397-4.397c-2.428,0-4.396,1.969-4.396,4.397c0,5.618-4.571,10.188-10.189,10.188
	c-2.428,0-4.396,1.969-4.396,4.397c0,2.428,1.969,4.397,4.396,4.397c5.618,0,10.189,4.57,10.189,10.188
	c0,2.428,1.969,4.397,4.396,4.397c2.428,0,4.397-1.969,4.397-4.397c0-5.618,4.571-10.188,10.189-10.188
	c2.428,0,4.397-1.969,4.397-4.397c0-2.428-1.969-4.397-4.397-4.397C866.394,233.406,861.823,228.835,861.823,223.218z
	 M725.58,138.12c5.617,0,10.188,4.57,10.188,10.188c0,2.428,1.969,4.397,4.396,4.397c2.429,0,4.397-1.969,4.397-4.397
	c0-5.618,4.571-10.188,10.189-10.188c2.429,0,4.397-1.969,4.397-4.397c0-2.428-1.969-4.397-4.397-4.397
	c-5.618,0-10.189-4.571-10.189-10.189c0-2.428-1.969-4.397-4.397-4.397c-2.428,0-4.396,1.969-4.396,4.397
	c0,5.618-4.571,10.189-10.188,10.189c-2.429,0-4.397,1.969-4.397,4.397C721.182,136.152,723.151,138.12,725.58,138.12z
	 M645.466,161.761c1.446,0,2.681-0.512,3.704-1.534c1.021-1.022,1.533-2.268,1.533-3.737v-39.397c0-1.446-0.512-2.679-1.533-3.703
	c-1.024-1.044-2.259-1.567-3.704-1.567c-1.468,0-2.712,0.523-3.736,1.567c-1.024,1.024-1.533,2.257-1.533,3.703v39.397
	c0,1.469,0.509,2.715,1.533,3.737C642.754,161.249,643.998,161.761,645.466,161.761z M631.608,793.36
	c-8.405,6.953-14.008,9.559-18.513,11.656c-3.881,1.806-6.447,3-9.708,6.515c-0.937,1.015-2.215,1.526-3.493,1.526
	c-0.036,0-0.07-0.019-0.106-0.019c-0.036,0.001-0.07,0.019-0.105,0.019c-1.278,0-2.557-0.512-3.497-1.526
	c-3.314-3.577-5.774-4.778-9.497-6.593c-4.291-2.094-9.63-4.697-17.952-11.579c-15.026-12.432-12.904-40.505-11.114-52.848
	c-3.04,0.937-5.875,1.333-8.466,1.333c-10.079,0-16.485-5.707-17.76-6.946c-5.71,2.292-10.829,3.288-15.286,3.288
	c-11.929,0-19.335-6.636-22.069-11.495c-0.683-1.207-0.8-2.653-0.332-3.957c0.472-1.303,1.489-2.338,2.783-2.833
	c2.088-0.797,51.335-19.577,69.687-25.063c13.822-4.135,22.111,0.72,26.153,5.904c2.211-1.157,4.685-1.875,7.348-1.875
	c3.212,0,6.194,0.972,8.7,2.61c3.811-5.441,12.216-10.97,26.706-6.639c18.352,5.485,67.596,24.265,69.684,25.063
	c1.294,0.495,2.311,1.53,2.783,2.833c0.468,1.305,0.351,2.749-0.332,3.957c-2.73,4.851-10.121,11.476-22.059,11.479
	c-4.455,0-9.575-0.995-15.29-3.275c-1.27,1.234-7.68,6.948-17.762,6.948c-2.864,0-6.032-0.509-9.443-1.676
	C644.47,752.322,646.779,780.809,631.608,793.36z M605.388,729.711c3.214,1.83,9.201,4.482,16.686,4.256
	c2.495-0.079,4.433-0.245,6.01-0.44c-1.897-1.041-2.987-1.723-3.085-1.786c-2.218-1.419-2.864-4.365-1.446-6.582
	c1.424-2.22,4.375-2.864,6.584-1.444c0.047,0.029,5.253,3.317,14.34,6.995c6.537,2.648,11.66,1.474,14.893-0.061l-14.704-6.001
	c-2.435-0.994-3.605-3.776-2.609-6.213c0.996-2.435,3.76-3.604,6.214-2.611l23.552,9.615c11.371,4.99,18.56,3.217,22.652,0.754
	c-14.536-5.487-48.124-18.04-62.117-22.222c-13.322-3.987-16.651,3.622-16.987,4.503c-0.164,0.428-0.399,0.805-0.663,1.156
	c0.572,1.642,0.945,3.376,0.945,5.21C615.654,721.631,611.377,727.406,605.388,729.711z M593.241,714.84
	c0,3.551,2.889,6.439,6.441,6.439s6.441-2.888,6.441-6.439s-2.889-6.441-6.441-6.441S593.241,711.29,593.241,714.84z
	 M571.139,723.711c2.206-1.41,5.163-0.763,6.577,1.455c1.415,2.217,0.769,5.158-1.446,6.576c-0.101,0.065-1.254,0.787-3.258,1.88
	c1.436,0.154,3.161,0.279,5.256,0.346c7.15,0.195,13.004-2.262,16.313-4.069c-6.298-2.142-10.871-8.046-10.871-15.059
	c0-2.598,0.683-5.016,1.787-7.187c-1.202-2.123-5.322-7.047-16.586-3.683c-14.024,4.192-47.724,16.788-62.213,22.256
	c4.052,2.512,11.191,4.288,22.63-0.74l23.673-9.663c2.439-0.993,5.219,0.175,6.211,2.611c0.996,2.437-0.174,5.219-2.612,6.213
	l-14.678,5.991c3.249,1.538,8.365,2.709,14.868,0.073C565.88,727.032,571.086,723.745,571.139,723.711z M633.37,742.298
	c-2.898,0.658-6.553,1.055-10.992,1.194c-10.066,0.383-17.99-3.257-22.214-5.77c-4.237,2.508-12.166,6.137-22.199,5.77
	c-4.44-0.14-8.095-0.537-10.989-1.194c-1.818,12.826-2.535,35.137,7.837,43.715c7.446,6.159,12.019,8.389,16.056,10.36
	c2.968,1.447,5.817,2.843,8.937,5.457c3.181-2.616,6.162-4.008,9.269-5.454c4.216-1.964,8.997-4.188,16.459-10.363
	C635.905,777.435,635.188,755.121,633.37,742.298z M897.192,600l0.04,428.177c0,4.501-3.911,8.411-8.412,8.411H310.901
	c-4.448,0-8.05-3.568-8.133-7.997V600V86.981c0-3.089,1.203-5.993,3.387-8.178c2.184-2.184,5.088-3.387,8.177-3.387H599.98h285.647
	c3.089,0,5.993,1.203,8.177,3.387c2.185,2.184,3.387,5.088,3.387,8.177V600z M887.663,624.464h-51.639v145.457
	c9.094,9.261,16.608,21.708,20.728,38.515c5.656,23.077,7.487,38.429,8.821,49.638c0.005,0.047,0.011,0.087,0.016,0.134
	c0.01,0.035,0.027,0.066,0.036,0.101c0.103,0.412,0.13,0.822,0.124,1.227c1.414,11.817,2.456,19.282,7.365,28.048
	c3.652,6.518,10.847,19.457,14.576,37.824l-0.009-84.735h-10.559c-2.631,0-4.766-2.135-4.766-4.766s2.135-4.766,4.766-4.766h10.558
	l-0.002-17.495h-15.124c-2.631,0-4.766-2.135-4.766-4.766s2.135-4.766,4.766-4.766h15.123l-0.002-17.495h-22.235
	c-2.631,0-4.766-2.135-4.766-4.766s2.135-4.766,4.766-4.766h22.235l-0.002-17.495H862.25c-2.631,0-4.766-2.135-4.766-4.766
	s2.135-4.766,4.766-4.766h25.424l-0.002-17.495H862.25c-2.631,0-4.766-2.133-4.766-4.766c0-2.633,2.135-4.766,4.766-4.766h25.422
	l-0.002-17.495h-25.42c-2.631,0-4.766-2.133-4.766-4.766c0-2.633,2.135-4.766,4.766-4.766h25.419l-0.002-17.495H862.25
	c-2.631,0-4.766-2.133-4.766-4.766c0-2.633,2.135-4.766,4.766-4.766h25.416l-0.002-17.495H862.25c-2.631,0-4.766-2.133-4.766-4.766
	c0-2.633,2.135-4.766,4.766-4.766h25.414L887.663,624.464z M726.936,951.411c-1.185-5.515-2.446-10.787-3.743-15.761
	c-9.976-1.722-45.599-7.415-82.002-7.665c1.488,7.242,3.599,14.24,6.462,20.808C673.601,948.052,712.836,950.46,726.936,951.411z
	 M652.494,958.23c2.791,4.65,6.039,9.003,9.86,12.936c0.736,0.76,2.485,2.716,3.984,4.398c15.648-0.547,51.094,0.108,64.499,0.388
	c-0.621-4.728-1.364-10.157-2.101-14.863C718.211,960.365,679.417,957.864,652.494,958.23z M735.744,753.934
	c-8.892,0.428-16.733,1.148-23.702,2.179c6.809,8.167,17.854,24.636,26.718,52.789c3.83-0.716,7.934-1.316,12.295-1.739
	C747.876,784.873,738.771,761.339,735.744,753.934z M760.58,806.581c1.26-0.035,2.508-0.084,3.8-0.084
	c2.325,0,4.562,0.032,6.748,0.08c0.658-14.166,1.025-42.177-2.815-53.471c-5.315-0.084-8.854,0.246-9.471,0.309
	c-0.168,0.019-0.338,0.028-0.506,0.028c-4.359,0-8.47,0.058-12.449,0.15C749.88,763.726,757.69,785.447,760.58,806.581z
	 M701.045,758.168c-14.298,3.323-24.04,8.537-31.223,16.003c27.348,6.284,38.897,31.105,42.789,42.346
	c3.789-1.572,9.528-3.667,16.808-5.547C718.878,777.954,705.262,762.388,701.045,758.168z M663.254,782.669
	c-2.812,4.503-5.172,9.584-7.297,15.318c25.953,11.313,40.795,22.041,48.681,29.057l0.183-3.511
	C703.637,818.707,694.607,786.759,663.254,782.669z M652.916,807.06c-1.555,5.052-3.051,10.498-4.6,16.405
	c-0.652,2.484-1.349,5.282-2.058,8.295c30.769,5.473,48.275,13.821,57.126,19.36l0.585-11.228
	C701.276,836.637,688.239,822.579,652.916,807.06z M644.201,841.075c-1.166,5.669-2.291,11.891-3.251,18.48
	c33.893,5.294,53.201,11.439,63.13,15.449c-0.641-4.185-0.984-8.395-1.091-12.524C698.879,859.156,682.58,847.852,644.201,841.075z
	 M639.727,869.007c-0.727,6.477-1.248,13.203-1.462,20.023c26.959,0.766,58.64,7.828,73.997,11.65
	c-0.824-2.231-1.557-4.145-2.183-5.734c-1.302-2.662-2.391-5.421-3.293-8.245C702.635,884.493,684.522,876.027,639.727,869.007z
	 M638.188,898.564c0.094,6.655,0.534,13.324,1.402,19.883c33.47,0.095,66.547,4.775,80.814,7.078
	c-1.489-5.131-2.964-9.841-4.355-14.027C705.597,908.75,668.28,899.465,638.188,898.564z M765.859,914.749
	c33.713,0,50.1-12.168,50.1-37.203c0-12.03-0.461-22.194-1.108-30.549c-0.209-0.114-0.434-0.183-0.629-0.331
	c-4.099-3.11-8.139-4.295-11.756-4.484v4.273c0,2.631-2.135,4.766-4.766,4.766s-4.766-2.135-4.766-4.766v-2.568
	c-2.388,0.987-3.902,2.046-4.074,2.174c-2.131,1.539-5.104,1.086-6.652-1.027c-1.551-2.113-1.12-5.073,0.987-6.639
	c5.385-4.006,17.775-8.86,30.519-3.058c-0.859-7.221-1.772-12.228-2.357-15.03c-6.23-1.328-22.813-4.278-46.979-4.278
	c-24.65,0-43.669,7.319-50.153,10.176l-1.753,33.511c0.002,9.737,1.25,18.127,3.695,25.258c0.171,0.246,0.324,0.507,0.45,0.791
	c0.13,0.295,1.049,2.397,2.456,5.97C727.126,907.115,742.599,914.749,765.859,914.749z M780.655,806.938
	c4.506,0.247,8.595,0.583,12.306,0.961c-0.29-23.818,6.24-41,9.775-48.502c-8.645-3.272-17.182-4.906-24.416-5.675
	C781.963,769.297,781.152,796.346,780.655,806.938z M825.629,773.024c-4.469-3.961-9.264-7.155-14.176-9.716
	c-3.084,6.57-9.432,23.028-8.921,45.758c3.538,0.514,6.415,1.026,8.646,1.466C812.505,800.367,816.186,781.13,825.629,773.024z
	 M787.204,679.478v6.262c0,0.16-0.072,0.297-0.092,0.452c0.091,0.011,0.172,0.054,0.267,0.054c1.316,0,2.383-1.067,2.383-2.383
	v-3.272c0.164-1.73,0.18-3.858,0-6.205v-3.628c0-0.002-0.001-0.003-0.001-0.005c-0.002-6.489-3.93-17.617-16.316-21.434
	c-2.874-1.032-5.972-1.413-9.201-1.328c-0.095-0.001-0.179-0.013-0.275-0.013c-1.139,0-2.045,0.081-2.777,0.221
	c-6.072,0.651-12.465,2.635-18.565,4.781c-1.979,0.696-3.651,1.273-5.139,1.696c-0.232,0.138-0.47,0.267-0.73,0.367
	c-2.105,0.805-4.265,1.914-6.058,3.028h7.037c4.185-0.382,10.204,1.739,11.676,9.596c0.053,0.279,0.078,0.563,0.081,0.847
	c0,0.068,0.029,4.358,0.134,10.913c0.039,0.161,0.04,0.333,0.064,0.498c-0.054,0.199-0.123,0.393-0.123,0.609v13.105
	c0,1.315,1.067,2.383,2.383,2.383s2.383-1.067,2.383-2.383v-6.342c0-0.002-0.002-0.004-0.002-0.006v-5.796
	c0-2.168,1.774-3.941,3.941-3.941c1.935,0,3.482,1.438,3.808,3.283c0.042,0.048,0.093,0.087,0.133,0.137v0.521v5.796v6.348
	c0,1.315,1.067,2.383,2.383,2.383c1.315,0,2.383-1.067,2.383-2.383v-3.951c0.001-0.115,0.006-0.225,0.005-0.341
	c-0.002-0.012-0.003-0.023-0.005-0.035v-1.726v-4.935v-0.676c0-2.218,1.815-4.033,4.033-4.033c2.094,0,3.774,1.635,3.962,3.683
	c0.022,0.027,0.05,0.047,0.071,0.074v0.276v5.611v3.414c0,1.315,1.067,2.383,2.383,2.383s2.383-1.067,2.383-2.383v-5.146
	c-0.002-0.041-0.023-0.075-0.023-0.116v-6.262c0-2.04,1.668-3.708,3.708-3.708C785.536,675.77,787.204,677.438,787.204,679.478z
	 M446.024,681.532v0.073v5.578v6.457c0,1.315,1.067,2.383,2.383,2.383c1.316,0,2.383-1.067,2.383-2.383v-9.82
	c0.169-8.971,0.211-15.223,0.211-15.306c0.003-0.284,0.028-0.568,0.081-0.847c1.472-7.857,7.492-9.978,11.677-9.596h7.112
	c-1.797-1.105-3.973-2.222-6.093-3.027c-0.246-0.094-0.47-0.218-0.691-0.346c-1.507-0.425-3.205-1.011-5.219-1.719
	c-7.694-2.707-15.854-5.168-23.243-4.992c-0.119-0.002-0.218-0.011-0.343-0.011c-19.951,0-25.786,14.844-25.793,22.768
	c0,0.004-0.002,0.008-0.002,0.012v13.105c0,1.315,1.067,2.383,2.383,2.383c1.291,0,2.332-1.033,2.369-2.315v-4.452
	c0-2.04,1.669-3.708,3.708-3.708c2.013,0,3.649,1.629,3.693,3.632c0.005,0.005,0.011,0.007,0.016,0.012v0.065v6.262v5.262
	c0,1.315,1.067,2.383,2.383,2.383s2.383-1.067,2.383-2.383v-9.271c0.009-0.012,0.022-0.02,0.03-0.032
	c0.067-2.073,1.762-3.755,3.851-3.755c2.131,0,3.875,1.744,3.875,3.875v0.316v5.611v5.895c0,1.315,1.067,2.383,2.383,2.383
	s2.383-1.067,2.383-2.383v-6.37c-0.001-0.031-0.018-0.057-0.018-0.088v-5.578c0-0.031,0.017-0.057,0.018-0.088v-0.09
	c0.007-0.011,0.017-0.02,0.025-0.031c0.115-2.126,1.854-3.842,4.007-3.842c2.193,0,3.974,1.771,4.03,3.951
	C446.009,681.515,446.019,681.522,446.024,681.532z M423.271,753.635c-6.746,0.671-14.711,2.11-22.854,4.928
	c2.833,7.987,7.93,25.798,7.469,49.334c3.742-0.381,7.872-0.718,12.42-0.965C420.157,795.331,420.166,767.567,423.271,753.635z
	 M389.47,820.303c-0.583,2.808-1.494,7.823-2.353,15.029c12.741-5.795,25.128-0.94,30.508,3.062
	c2.113,1.573,2.553,4.558,0.984,6.667c-1.573,2.11-4.548,2.547-6.652,0.996c-0.189-0.137-1.699-1.187-4.071-2.166v2.564
	c0,2.631-2.135,4.766-4.766,4.766c-2.631,0-4.766-2.135-4.766-4.766v-4.269c-3.618,0.188-7.657,1.371-11.756,4.479
	c-0.193,0.146-0.415,0.214-0.621,0.327c-0.652,8.37-1.116,18.538-1.116,30.553c0,25.035,16.388,37.203,50.1,37.203
	c23.386,0,38.898-7.719,46.909-23.336c1.34-3.388,2.205-5.362,2.332-5.649c0.094-0.211,0.216-0.399,0.335-0.589
	c2.515-7.231,3.804-15.765,3.804-25.708l-1.747-33.263c-6.478-2.854-25.5-10.176-50.15-10.176
	C412.287,816.028,395.703,818.978,389.47,820.303z M534.483,975.568c1.499-1.685,3.248-3.643,3.985-4.402
	c3.822-3.933,7.07-8.287,9.861-12.938c-26.921-0.372-65.716,2.135-76.242,2.86c-0.738,4.705-1.481,10.133-2.1,14.861
	C483.506,975.668,518.939,975.016,534.483,975.568z M469.16,985.5c-0.351,7.456,0.379,19.94,6.146,26.524
	c2.795,3.189,6.537,4.741,11.436,4.741c17.868,0,33.877-20.738,41.156-31.82C510.356,984.696,480.261,985.267,469.16,985.5z
	 M553.17,948.791c2.863-6.567,4.973-13.564,6.461-20.805c-36.39,0.266-72.023,5.944-82.001,7.663
	c-1.297,4.973-2.558,10.245-3.742,15.759C487.987,950.457,527.22,948.047,553.17,948.791z M561.234,918.441
	c0.866-6.557,1.308-13.225,1.401-19.878c-30.093,0.902-67.41,10.186-77.86,12.934c-1.391,4.184-2.864,8.892-4.353,14.02
	C494.713,923.199,527.862,918.486,561.234,918.441z M562.558,889.03c-0.214-6.82-0.735-13.546-1.462-20.023
	c-44.926,7.041-63.013,15.537-67.093,17.715c-0.866,2.704-1.904,5.346-3.134,7.9c-0.649,1.644-1.433,3.686-2.308,6.058
	C503.917,896.858,535.597,889.796,562.558,889.03z M559.873,859.555c-0.959-6.589-2.085-12.811-3.251-18.48
	c-38.861,6.848-54.817,18.091-58.802,21.388c-0.112,4.145-0.459,8.363-1.105,12.552C506.638,871.005,525.95,864.853,559.873,859.555
	z M554.565,831.76c-0.709-3.013-1.406-5.811-2.058-8.295c-1.55-5.906-3.045-11.352-4.6-16.405
	c-35.3,15.51-48.346,29.561-51.051,32.827l0.588,11.23C506.297,845.578,523.802,837.232,554.565,831.76z M544.866,797.987
	c-2.125-5.734-4.486-10.814-7.297-15.317c-31.338,4.087-40.373,36.005-41.567,40.861l0.183,3.514
	C504.072,820.027,518.915,809.299,544.866,797.987z M531.001,774.171c-7.184-7.466-16.925-12.68-31.224-16.003
	c-4.219,4.224-17.834,19.789-28.374,52.801c7.28,1.881,13.02,3.976,16.809,5.547C492.104,805.276,503.652,780.455,531.001,774.171z
	 M488.781,756.113c-7.081-1.047-15.071-1.772-24.139-2.197c-2.807,6.995-11.715,30.486-14.691,53.267
	c4.293,0.421,8.337,1.014,12.112,1.719C470.927,780.748,481.971,764.28,488.781,756.113z M454.52,753.584
	c-3.853-0.086-7.825-0.141-12.033-0.141c-0.168,0-0.338-0.009-0.506-0.028c-0.588-0.06-3.827-0.361-8.723-0.318
	c-2.777,7.273-3.657,33.905-3.423,53.476c2.142-0.046,4.335-0.076,6.611-0.076c1.349,0,2.654,0.049,3.97,0.087
	C443.122,785.095,450.7,763.485,454.52,753.584z M391.566,762.186c-5.673,2.732-11.237,6.288-16.372,10.839
	c9.442,8.107,13.123,27.343,14.449,37.508c2.235-0.441,5.116-0.954,8.663-1.469C398.939,786.892,394.185,769.777,391.566,762.186z
	 M375.239,944.008c0.792-5.164,1.664-10.077,2.543-14.599c-30.099-11.877-47.155-14.39-51.973-14.885
	c-1.83,5.431-3.403,11.635-4.408,18.568C337.625,933.439,363.96,940.685,375.239,944.008z M320.432,942.617
	c-0.366,6.715-0.1,14.031,0.968,21.888c16.074,0.539,41.018,4.136,51.019,5.661c0.309-5.567,0.836-11.152,1.505-16.608
	C360.535,949.556,334.279,942.627,320.432,942.617z M379.741,919.939c1.189-5.415,2.264-9.8,2.984-12.605
	c-13.471-7.781-36.89-15.082-45.408-17.604c-0.419,0.834-0.816,1.661-1.295,2.517c-1.773,3.164-4.219,7.571-6.655,13.107
	C336.849,906.378,353.38,909.659,379.741,919.939z M354.235,807.474c-0.306,1.073-0.634,2.117-0.907,3.233
	c-1.689,6.89-2.998,13.003-4.081,18.588c5.799,2.082,18.468,7.058,27.5,13.589c0.366-4.161,0.769-7.862,1.183-11.072
	C375.278,826.395,363.559,815.393,354.235,807.474z M380.037,818.819c0.265-1.284,0.479-2.227,0.63-2.844
	c-1.229-13.144-5.634-31.569-12.137-36.114c-4.233,5.015-7.96,10.957-10.934,17.991
	C362.553,801.943,372.862,810.748,380.037,818.819z M347.522,838.817c-1.096,6.636-1.824,12.253-2.415,17.135
	c6.895,1.948,20.425,6.222,30.332,12.125c0.097-4.749,0.261-9.169,0.477-13.261C370.672,848.435,356.198,842.06,347.522,838.817z
	 M343.929,865.54c-0.733,5.625-1.554,10.532-3.013,15.309c7.532,2.242,23.567,7.29,36.928,13.353
	c-1.597-4.796-2.322-9.762-2.477-14.573C368.537,873.668,353.4,868.328,343.929,865.54z M378.497,434.302v17.893v11.726h25.41
	l-4.251-12.758c-0.026-0.077-0.013-0.155-0.034-0.232c-0.023-0.082-0.078-0.146-0.096-0.23l-15.19-67.602
	c-0.577-2.567,1.039-5.116,3.605-5.693c2.597-0.588,5.119,1.038,5.696,3.605l13.783,61.339l20.044-11.33l-34.094-91.332
	c-0.546-1.463-0.341-3.101,0.549-4.384c0.89-1.283,2.355-2.048,3.915-2.048c130.848,0,187.284-114.978,199.071-142.951
	c-27.306-0.195-136.219,1.413-213.336,2.71v143.738c0,0.394-0.05,0.786-0.146,1.168L357.75,439.408l11.216,5.277v-10.383
	c0-2.633,2.135-4.766,4.766-4.766C376.362,429.537,378.497,431.67,378.497,434.302z M821.393,336.753V193.038
	c-28.497-0.33-177.303-2.06-209.049-2.42c11.03,28.213,63.863,142.638,194.786,142.638c1.561,0,3.025,0.765,3.915,2.048
	c0.89,1.283,1.095,2.921,0.549,4.384l-34.097,91.332l20.045,11.33l13.75-61.219c0.574-2.567,3.118-4.181,5.69-3.611
	c2.569,0.574,4.185,3.123,3.611,5.69l-15.158,67.486c-0.019,0.084-0.072,0.148-0.095,0.229c-0.022,0.079-0.009,0.159-0.036,0.238
	l-4.25,12.758h25.413v-11.726v-29.178c0-2.633,2.135-4.766,4.766-4.766s4.766,2.133,4.766,4.766v21.668l11.216-5.277
	l-25.677-101.485C821.442,337.539,821.393,337.147,821.393,336.753z M855.716,855.952c-0.591-4.882-1.319-10.498-2.415-17.133
	c-8.68,3.248-23.161,9.63-28.393,16c0.216,4.091,0.38,8.51,0.477,13.257C835.291,862.175,848.821,857.9,855.716,855.952z
	 M825.456,879.629c-0.156,4.811-0.88,9.777-2.477,14.573c13.361-6.062,29.396-11.111,36.928-13.353
	c-1.46-4.776-2.28-9.682-3.013-15.306C847.422,868.334,832.279,873.677,825.456,879.629z M851.576,829.295
	c-1.084-5.584-2.392-11.698-4.081-18.588c-0.273-1.116-0.601-2.159-0.906-3.232c-9.325,7.921-21.043,18.926-23.695,24.338
	c0.413,3.209,0.817,6.91,1.183,11.072C833.106,836.353,845.777,831.377,851.576,829.295z M843.227,797.851
	c-2.974-7.034-6.701-12.976-10.933-17.991c-6.504,4.545-10.909,22.97-12.138,36.115c0.15,0.617,0.365,1.559,0.63,2.844
	C827.961,810.748,838.271,801.943,843.227,797.851z M767.836,436.02v178.913h52.303V473.452h-25.696
	c-1.533,0-2.969-0.737-3.866-1.979s-1.139-2.839-0.655-4.292l5.101-15.307l-25.761-14.56
	C768.678,436.983,768.219,436.528,767.836,436.02z M800.301,342.688c-11.4-0.335-22.211-1.512-32.465-3.392v90.35L800.301,342.688z
	 M576,247.031c-4.199,5.88-8.849,11.912-13.983,17.959c-22.895,26.973-58.97,57.88-110.573,71.163v278.843
	c0.209-0.028,0.416-0.064,0.633-0.064h13.163c2.786-31.709,7.731-69.5,9.614-83.465c-2.492,0.233-5.03,0.395-7.67,0.395
	c-1.7,0-3.27-0.904-4.123-2.375c-0.853-1.471-0.856-3.284-0.012-4.758l5.454-9.531c-1.843-6.564-4.983-25.762,12.817-46.593
	c19.372-22.674,45.738-17.733,52.027-16.143l9.692-2.311c1.421-0.337,2.913-0.008,4.058,0.895c1.145,0.903,1.812,2.282,1.812,3.74
	c0,0.908-0.102,2.053-0.298,3.373c5.739-1.43,9.807-4.669,11.985-6.826c4.766-4.722,6.9-10.138,6.9-13.411v-8.853
	c-26.167-0.378-40.771-4.414-47.057-12.961c-6.512-8.858-3-20.099,0.717-31.998c2.37-7.578,4.818-15.414,5.116-23.376
	c2.339-62.1,38.804-70.827,40.355-71.168c2.584-0.568,5.113,1.06,5.678,3.63c0.565,2.56-1.046,5.093-3.599,5.672
	c-1.331,0.316-30.868,7.991-32.909,62.225c-0.347,9.233-3.106,18.066-5.541,25.86c-3.109,9.947-5.792,18.538-2.138,23.51
	c4.188,5.697,17.434,8.746,39.378,9.081v-2.903c-8.876-10.347-13.292-23.714-14.582-32.728c-0.022-0.16-0.037-0.323-0.043-0.484
	l-1.551-38.664c-0.09-2.229,1.381-4.223,3.537-4.797c28.701-7.63,41.929-22.335,42.276-22.727c0.003-0.004,0.007-0.007,0.01-0.011
	c0.002-0.001,0.013-0.015,0.014-0.015c0.064-0.073,0.14-0.125,0.206-0.193c0.151-0.154,0.297-0.313,0.473-0.449
	c0.005-0.004,0.01-0.006,0.015-0.009c0.176-0.135,0.367-0.239,0.555-0.346c0.598-0.34,1.242-0.546,1.898-0.608
	c0.04-0.004,0.079-0.017,0.119-0.019c0.22-0.015,0.439,0.002,0.659,0.017c0.086,0.006,0.172-0.003,0.258,0.008
	c0.244,0.03,0.483,0.092,0.72,0.159c0.058,0.017,0.119,0.021,0.176,0.04c0.59,0.192,1.145,0.503,1.63,0.923
	c0.005,0.004,0.009,0.006,0.014,0.01c0.116,0.1,0.204,0.219,0.307,0.327c0.108,0.113,0.225,0.213,0.323,0.338
	c0.223,0.278,12.19,15.006,40.594,22.556c2.156,0.574,3.627,2.567,3.537,4.797l-1.551,38.664c-0.006,0.161-0.022,0.324-0.043,0.484
	c-1.155,8.07-4.817,19.629-11.939,29.388v6.248c22.297-0.288,35.754-3.338,39.98-9.086c3.655-4.972,0.971-13.563-2.138-23.51
	c-2.436-7.794-5.197-16.627-5.544-25.86c-2.063-54.812-32.571-62.151-32.878-62.219c-2.569-0.565-4.195-3.107-3.63-5.678
	c0.568-2.57,3.103-4.201,5.678-3.63c1.551,0.341,38.019,9.069,40.355,71.168c0.301,7.961,2.749,15.797,5.116,23.375
	c3.72,11.9,7.232,23.141,0.72,31.998c-6.333,8.613-21.118,12.643-47.659,12.968v8.848c0,5.23,5.486,15.194,15.653,19.213
	c-0.102-0.881-0.168-1.689-0.168-2.348c0-1.427,0.639-2.778,1.744-3.684c1.101-0.906,2.55-1.274,3.953-0.99l10.875,2.163
	c6.01-1.54,31.59-6.399,51.019,16.33c17.986,21.048,15.283,40.212,13.735,46.405l4.716,10.065c0.692,1.475,0.58,3.203-0.295,4.578
	c-0.875,1.376-2.392,2.209-4.021,2.209c-2.284,0-4.492-0.119-6.664-0.294c1.042,7.731,3.001,22.611,5.02,39.731
	c0.029,0.187,0.06,0.373,0.067,0.566c0.878,7.461,1.762,15.321,2.587,23.188c0.025,0.157,0.041,0.316,0.05,0.477
	c0.684,6.555,1.323,13.097,1.877,19.403h16.697V335.705c-58.291-15.666-96.6-54.599-120.036-88.674H576z M736.038,624.464
	c0.569,7.498,0.972,14.43,1.125,20.327c0.766-0.262,1.564-0.541,2.299-0.8c3.253-1.144,7.615-2.447,12.489-3.423v-16.104H736.038z
	 M516.177,627.292c0.433-4.265,0.828-8.738,1.191-13.299c-12.112,4.544-31.883,8.666-42.077,8.666c-0.396,0-0.755-0.016-1.122-0.029
	c-0.376,4.715-0.69,9.208-0.922,13.38c0.117,0.035,0.237,0.054,0.353,0.099C478.159,636.98,504.615,632.252,516.177,627.292z
	 M475.288,645.628c-0.901,0-1.697-0.044-2.436-0.111c-0.026,1.114-0.042,2.18-0.048,3.208c3.854,2.094,8.207,5.254,9.846,9.346
	h28.227c1.579-4.073,2.937-11.321,4.095-20.248C502.78,642.013,484.835,645.628,475.288,645.628z M518.144,603.406
	c0.281-4.168,0.534-8.333,0.763-12.414c-18.609,5.655-35.34,8.188-42.662,9.11c-0.453,4.437-0.88,8.837-1.271,13.14
	C482.507,613.314,508.682,608.313,518.144,603.406z M477.826,518.1l-2.144,3.743c18.927-2.218,32.945-11.734,42.94-23.033
	c0.345-0.711,0.871-1.304,1.505-1.76c6.84-8.185,11.656-17.125,14.756-24.84c0.097-0.379,0.24-0.737,0.424-1.076
	c0.994-2.566,1.793-4.975,2.412-7.16c-0.009-0.123-0.035-0.24-0.033-0.365c0.009-0.952,0.303-1.832,0.79-2.572l-4.11,0.98
	c-0.835,0.2-1.716,0.168-2.532-0.088c-0.437-0.135-5.122-1.52-11.703-1.52c-8.97,0-21.467,2.572-31.566,14.39
	c-17.772,20.793-10.552,38.926-10.474,39.106C478.657,515.27,478.558,516.818,477.826,518.1z M484.682,529.918
	c-0.337,2.485-0.895,6.641-1.594,12.005c9.034-1.652,20.82-4.683,25.512-8.222c1.139-1.707,5.373-8.595,7.83-19.801
	C507.855,521.197,497.341,527.045,484.682,529.918z M519.431,580.832c0.296-6.204,0.527-11.989,0.7-17.027
	c-13.321,7.092-33.125,10.992-41.268,12.374c-0.536,4.624-1.071,9.377-1.59,14.16C485.666,589.175,502.085,586.402,519.431,580.832z
	 M521.731,551.269c1.388-1.741,15.636-20.767,14.315-60.922c-2.438,4.072-5.25,8.16-8.474,12.108
	c-1.396,23.517-11.227,36.843-11.653,37.409c-0.214,0.281-0.456,0.537-0.726,0.765c-7.685,6.504-26.285,10.035-33.372,11.182
	c-0.563,4.458-1.167,9.323-1.789,14.486C492.606,563.98,513.728,558.795,521.731,551.269z M529.443,570.212l6.792,50.944
	c11.161-4.037,36.65-12.339,59.808-13.308V488.202c-31.887-1.125-43.22-14.523-46.686-20.438c-1.066,0.212-2.143,0.378-3.23,0.487
	c-0.531,1.654-1.139,3.387-1.832,5.194c6.273,50.793-9.83,76.668-14.396,82.837C529.827,559.019,529.684,563.911,529.443,570.212z
	 M571.504,453.131c1.151,3.024,7.829,8.943,29.305,8.943c19.664,0,26.012-4.412,28.047-7.041c1.328-1.717,1.17-3.262,1.167-3.276
	c-0.029-0.11-0.03-0.219-0.051-0.329c-2.849-4.6-4.395-9.428-4.395-13.504v-14.691c-6.563,5.096-14.825,8.504-25.072,8.676
	c-0.083,0.004-0.161,0.025-0.245,0.025c-0.095,0-0.185-0.008-0.279-0.009c-0.095,0.001-0.185,0.009-0.279,0.009
	c-0.084,0-0.162-0.02-0.245-0.025c-8.916-0.15-16.33-2.747-22.429-6.778v12.792C577.027,442.73,574.984,448.203,571.504,453.131z
	 M574.74,410.634c0.749,0.459,1.352,1.117,1.753,1.903c5.531,5.617,13.125,9.78,23.487,9.855
	c12.199-0.089,20.556-5.845,26.233-12.963c0.23-0.407,0.508-0.781,0.844-1.102c7.868-10.546,10.193-23.494,10.52-25.546l1.39-34.643
	c-20.688-6.181-32.828-15.718-38.362-21.015c-5.854,5.208-18.71,14.799-39.612,21.018l1.39,34.64
	C562.729,384.961,565.372,399.758,574.74,410.634z M564.77,460.391c-1.946,1.604-4.03,2.968-6.21,4.107
	c3.452,4.755,13.829,14.253,41.827,14.253c26.716,0,38.09-9.444,42.443-14.887c-2.082-1.192-3.987-2.575-5.723-4.086
	c-0.236,0.362-0.434,0.721-0.715,1.085c-5.51,7.127-17.483,10.741-35.583,10.741C578.363,471.605,568.822,465.652,564.77,460.391z
	 M600.266,617.283c-24.842,0.034-55.095,10.687-63.747,13.938l-1.437,7.95c11.703-5.592,35.52-14.796,65.727-14.796
	c29.426,0,52.544,8.022,64.341,13.159l-1.14-6.312C655.353,627.973,625.073,617.318,600.266,617.283z M531.668,658.071h137.193
	l-1.628-9.014c-6.648-3.377-32.259-15.151-66.424-15.151c-36.222,0-63.285,14.5-67.867,17.113L531.668,658.071z M671.11,570.023
	c0.009-0.07,0.036-0.132,0.048-0.201c-0.23-6.421-0.354-11.17-0.404-13.291c-4.808-5.971-22.653-32.063-16.097-83.738
	c0.022-0.169,0.074-0.324,0.113-0.486c-0.588-1.585-1.101-3.103-1.559-4.561c-0.423-0.084-0.841-0.176-1.257-0.275
	c-4.45,6.638-16.786,19.334-46.38,20.681v119.755c22.863,1.177,47.732,9.275,58.719,13.249L671.11,570.023z M722.374,513.75
	c0.251-0.707,6.208-18.304-11.439-38.951c-17.61-20.615-41.894-13.167-42.136-13.088c-0.766,0.244-1.589,0.29-2.38,0.135
	l-5.464-1.086c3.922,17.404,22.134,56.796,63.68,61.175l-2.11-4.505C721.983,516.274,721.93,514.948,722.374,513.75z
	 M715.844,530.164c-12.691-2.69-23.231-8.388-31.878-15.539c2.399,11.549,6.87,17.76,7.816,18.965
	c4.586,3.58,16.499,6.655,25.622,8.325C716.727,536.716,716.184,532.671,715.844,530.164z M678.731,551.214
	c7.953,7.548,29.121,12.75,41.73,15.077c-0.622-5.163-1.226-10.027-1.789-14.485c-7.113-1.154-25.664-4.683-33.336-11.177
	c-0.168-0.141-0.323-0.293-0.468-0.456c-0.438-0.487-10.631-12.142-11.838-36.402c-3.927-4.637-7.283-9.499-10.106-14.318
	C661.594,530.821,677.703,550.041,678.731,551.214z M680.496,563.856c0.159,4.97,0.38,10.761,0.667,16.996
	c17.324,5.559,33.673,8.323,42.058,9.485c-0.519-4.785-1.054-9.539-1.591-14.164C713.485,574.789,693.798,570.905,680.496,563.856z
	 M681.673,591.006c0.222,4.075,0.469,8.24,0.745,12.416c9.474,4.896,35.542,9.884,43.103,9.821
	c-0.392-4.305-0.818-8.706-1.271-13.145C716.914,599.172,700.23,596.641,681.673,591.006z M683.18,614.001
	c0.358,4.553,0.748,9.028,1.177,13.294c11.564,4.958,38.01,9.676,42.571,8.814c0.105-0.041,0.213-0.057,0.319-0.09
	c-0.233-4.174-0.546-8.67-0.923-13.388c-0.356,0.012-0.702,0.028-1.087,0.028C715.049,622.66,695.294,618.542,683.18,614.001z
	 M685.554,637.822c1.151,8.909,2.509,16.16,4.096,20.249h28.228c1.634-4.08,5.965-7.233,9.812-9.326
	c-0.006-1.032-0.022-2.104-0.049-3.224c-0.73,0.065-1.515,0.108-2.401,0.108C715.695,645.628,697.749,642.013,685.554,637.822z
	 M452.077,624.464c-0.217,0-0.423-0.036-0.633-0.064v16.8c3.69,0.87,6.997,1.878,9.587,2.789c0.735,0.259,1.533,0.538,2.299,0.8
	c0.154-5.896,0.557-12.829,1.125-20.327H452.077z M414.384,471.473c-0.897,1.243-2.333,1.979-3.866,1.979h-25.621v141.481h50.662
	V437.392l-25.621,14.481l5.101,15.307C415.523,468.634,415.281,470.23,414.384,471.473z M404.664,342.686l30.895,82.762v-85.896
	C425.764,341.264,415.482,342.366,404.664,342.686z M384.897,675.77h15.728c-0.029-3.056,0.192-5.936,0.443-8.168h-16.171V675.77z
	 M403.82,658.071c1.748-3.484,3.844-6.714,4.186-7.21c6.708-9.147,17.233-11.839,27.553-11.729v-14.668h-50.662v33.607H403.82z
	 M460.453,675.77h279.588c-0.046-3.358-0.068-5.747-0.076-6.714c-0.388-1.632-1.011-1.568-1.347-1.533
	c-0.03,0.006-0.06,0.002-0.091,0.007c-0.234,0.035-0.468,0.072-0.712,0.072h-63.238c-0.005,0-0.012,0.002-0.017,0.002
	c-0.003,0-0.005-0.002-0.009-0.002H525.977c-0.003,0-0.005,0.002-0.008,0.002c-0.005,0-0.012-0.002-0.017-0.002h-63.843
	c-0.202,0-0.394-0.035-0.59-0.06c-0.325,0.068-0.714,0.358-0.989,1.513C460.521,670.023,460.498,672.412,460.453,675.77z
	 M792.487,650.861c0.342,0.496,2.439,3.726,4.187,7.21h23.465v-33.607h-52.303v14.73
	C777.192,639.602,786.409,642.572,792.487,650.861z M799.426,667.602c0.251,2.231,0.472,5.112,0.443,8.168h20.271v-8.168H799.426z
	 M818.098,907.334c0.72,2.805,1.795,7.19,2.984,12.605c26.362-10.28,42.892-13.561,50.374-14.586
	c-2.436-5.536-4.882-9.943-6.655-13.107c-0.479-0.855-0.876-1.682-1.295-2.517C854.987,892.251,831.568,899.553,818.098,907.334z
	 M823.041,929.409c0.88,4.522,1.751,9.435,2.543,14.599c11.281-3.322,37.623-10.566,53.838-10.915
	c-1.004-6.934-2.578-13.138-4.408-18.569C870.196,915.02,853.14,917.532,823.041,929.409z M826.9,953.559
	c0.669,5.456,1.195,11.041,1.505,16.608c10.001-1.526,34.944-5.123,51.019-5.661c1.068-7.858,1.335-15.175,0.968-21.89
	C866.552,942.621,840.29,949.555,826.9,953.559z M312.299,614.933h56.713V469.148c-0.015-0.154-0.047-0.303-0.047-0.461V455.22
	l-18.83-8.861c-2.063-0.973-3.149-3.27-2.591-5.481l26.493-104.72v-147.83c0-2.6,2.085-4.721,4.685-4.766
	c0,0,14.971-0.253,37.166-0.607l-0.002,0c0,0,70.211-1.349,135.675-1.945c19.746-0.233,32.267-0.319,40.287-0.257
	c4.285-0.013,8.482-0.021,12.53-0.021c72.836,0,169.612,2.223,169.612,2.223c28.276,0.328,49.513,0.575,52.224,0.607
	c2.609,0.031,4.71,2.155,4.71,4.766v147.83l26.496,104.718c0.558,2.212-0.527,4.51-2.591,5.482L836,455.22v9.499h0.025v150.214
	h51.638l-0.002-14.932V86.981c0-0.559-0.2-1.042-0.594-1.436c-0.397-0.397-0.88-0.597-1.439-0.597H599.98H314.332
	c-0.558,0-1.042,0.2-1.437,0.595c-0.395,0.395-0.596,0.879-0.596,1.438V600V614.933z M312.299,929.922
	c3.372-20.784,11.463-35.295,15.408-42.337c4.91-8.766,5.952-16.231,7.366-28.048c-0.006-0.405,0.021-0.815,0.124-1.227
	c0.009-0.036,0.026-0.066,0.036-0.102c0.005-0.047,0.011-0.087,0.016-0.134c1.334-11.21,3.165-26.561,8.821-49.638
	c4.742-19.342,13.968-32.935,24.942-42.503V624.464h-56.713v17.494h26.149c2.631,0,4.766,2.133,4.766,4.766
	c0,2.633-2.135,4.766-4.766,4.766h-26.149v17.495h26.149c2.631,0,4.766,2.133,4.766,4.766c0,2.633-2.135,4.766-4.766,4.766h-26.149
	v17.495h26.149c2.631,0,4.766,2.133,4.766,4.766c0,2.633-2.135,4.766-4.766,4.766h-26.149v17.495h26.149
	c2.631,0,4.766,2.133,4.766,4.766c0,2.633-2.135,4.766-4.766,4.766h-26.149v17.495h26.149c2.631,0,4.766,2.135,4.766,4.766
	s-2.135,4.766-4.766,4.766h-26.149v17.495h23.081c2.631,0,4.766,2.135,4.766,4.766s-2.135,4.766-4.766,4.766h-23.081v17.495h12.309
	c2.631,0,4.766,2.135,4.766,4.766s-2.135,4.766-4.766,4.766h-12.309v17.495h7.18c2.631,0,4.766,2.135,4.766,4.766
	s-2.135,4.766-4.766,4.766h-7.18V929.922z M331.488,1027.058l-2.854-14.903c-10.059-10.712-13.346-26.043-13.548-27.03
	l-1.788-12.483c-0.257-0.457-0.458-0.952-0.555-1.497c-0.183-1.035-0.289-2.023-0.444-3.042v58.955H331.488z M337.131,1006.972
	c3.812,3.491,8.607,5.979,14.649,5.979c16.959,0,19.103-15.842,19.844-32.068c0.019-0.406,0.034-0.8,0.053-1.185
	c-8.92-1.362-32.729-4.831-48.543-5.585l1.34,9.382c0.006,0.006,2.797,12.729,10.645,21.45
	C335.974,1005.395,336.678,1006.093,337.131,1006.972z M516.213,1013.327c-8.361,7.273-18.425,12.969-29.471,12.969
	c-7.71,0-13.974-2.696-18.622-8.011c-9.326-10.666-8.852-28.917-8.32-35.574c-0.115-0.522-0.162-1.066-0.091-1.626
	c1.362-10.62,2.929-22.509,4.313-29.164c2.985-14.378,6.506-27.133,9.767-37.517c-9.268,6.101-21.845,9.876-38.826,9.876
	c-20.846,0-34.706-4.556-43.784-11.415c-2.989,12.251-9.035,39.869-9.513,64.519c-0.013,0.664-0.165,1.292-0.422,1.862
	c-0.035,0.655-0.068,1.339-0.102,2.073c-0.562,12.317-1.877,41.165-29.363,41.165c-4.461,0-8.413-0.867-11.908-2.333l1.322,6.907
	h52.116l-4.479-25.406c-0.456-2.594,1.275-5.063,3.866-5.523c2.575-0.447,5.063,1.272,5.523,3.866l4.771,27.062h43.658l1.647-10.374
	c0.416-2.597,2.854-4.368,5.454-3.959c2.6,0.413,4.372,2.854,3.959,5.454l-1.409,8.878h55.933L516.213,1013.327z M577.878,1027.058
	c-0.302-37.673-8.036-66.502-13.111-81.409c-4.249,11.957-10.515,22.949-19.461,32.157c-0.788,0.81-2.817,3.099-4.309,4.781
	l-1.374,1.54c-1.398,2.44-4.486,7.552-8.908,13.404l-8.56,29.527H577.878z M613.153,1027.058
	c0.441-57.988,17.62-95.194,18.362-96.768c0.053-0.113,0.127-0.207,0.188-0.314c-7.853-37.717,0.085-81.094,7.391-108.931
	c14.985-57.094,28.333-77.102,119.027-77.133c3.403-0.292,34.899-2.435,62.017,13.606v-72.217h-21.474
	c-0.548,1.89-1.305,3.616-2.37,4.997c-1.759,2.287-4.282,3.545-7.099,3.545c-0.549,0-1.067-0.034-1.557-0.098
	c-0.4,1.205-0.959,2.35-1.731,3.348c-1.632,2.11-3.925,3.315-6.63,3.484c-1.849,0.123-3.568-0.174-5.116-0.849
	c-1.471,2.414-3.67,4.142-6.723,4.719c-0.844,0.16-1.635,0.231-2.373,0.231c-3.245,0-5.488-1.379-6.875-2.678
	c-0.074-0.068-0.149-0.138-0.22-0.209c-0.074,0.062-0.149,0.121-0.226,0.182c-3.01,2.341-7.884,2.774-11.582,1.019
	c-3.565-1.689-5.672-5.082-5.777-9.305c-0.073-2.949-0.133-5.767-0.185-8.386H460.294c-0.05,2.619-0.112,5.437-0.185,8.386
	c-0.105,4.223-2.212,7.615-5.777,9.305c-3.698,1.755-8.572,1.322-11.582-1.019c-0.078-0.061-0.152-0.119-0.227-0.182
	c-0.071,0.071-0.146,0.141-0.22,0.209c-1.387,1.298-3.63,2.678-6.875,2.678c-0.738,0-1.53-0.071-2.373-0.231
	c-3.053-0.577-5.253-2.305-6.723-4.719c-1.548,0.675-3.267,0.971-5.116,0.849c-2.705-0.169-4.998-1.374-6.63-3.484
	c-0.773-0.997-1.331-2.142-1.731-3.348c-0.49,0.064-1.008,0.098-1.557,0.098c-2.817,0-5.34-1.258-7.099-3.545
	c-1.065-1.381-1.821-3.107-2.369-4.997h-16.932v69.883c2.142-1.108,4.299-2.1,6.458-3.009c0.293-0.229,0.609-0.437,0.963-0.597
	c0.432-0.195,0.878-0.297,1.325-0.358c23.348-9.123,46.187-7.549,49.058-7.308c90.695,0.031,104.042,20.04,119.027,77.133
	c7.328,27.916,15.291,71.462,7.327,109.254c0.777,1.652,17.914,38.836,18.354,96.759H613.153z M681.311,1027.058l-6.995-24.133
	c-7.009-8.263-11.757-16.209-13.412-19.128l-0.951-1.07c-1.505-1.691-3.627-4.086-4.437-4.921
	c-9.036-9.301-15.334-20.423-19.585-32.52c-5.071,14.829-12.942,43.879-13.247,81.772H681.311z M713.975,1016.765
	c4.905,0,8.647-1.554,11.442-4.753c5.786-6.618,6.503-19.075,6.143-26.508c-11.092-0.236-41.202-0.807-58.744-0.558
	c2.311,3.518,5.505,8.008,9.356,12.499c0.054,0.062,0.112,0.119,0.162,0.183C690.599,1007.224,701.854,1016.765,713.975,1016.765z
	 M863.87,1018.713c-4.175,2.316-9.072,3.77-14.827,3.77c-27.476,0-28.798-28.839-29.363-41.153
	c-0.034-0.739-0.067-1.425-0.102-2.084c-0.257-0.57-0.409-1.198-0.423-1.863c-0.479-24.673-6.524-52.274-9.513-64.519
	c-9.077,6.86-22.937,11.416-43.784,11.416c-16.978,0-29.554-3.774-38.822-9.865c3.259,10.381,6.78,23.133,9.763,37.506
	c1.384,6.655,2.951,18.544,4.313,29.164c0.087,0.686,0.016,1.354-0.171,1.976c0.517,6.944,0.808,24.751-8.348,35.224
	c-4.648,5.315-10.912,8.011-18.619,8.011c-9.501,0-18.276-4.215-25.866-10.02l3.125,10.782h55.933l-1.409-8.878
	c-0.413-2.6,1.359-5.042,3.959-5.454c2.622-0.413,5.042,1.362,5.454,3.959l1.647,10.374h43.657l4.769-27.062
	c0.459-2.594,2.916-4.316,5.523-3.866c2.591,0.459,4.322,2.929,3.866,5.523l-4.476,25.406h52.116L863.87,1018.713z M876.398,983.213
	l1.294-9.1c-15.814,0.754-39.626,4.223-48.546,5.585c0.019,0.388,0.037,0.785,0.056,1.194c0.742,16.223,2.885,32.059,19.841,32.059
	C870.072,1012.952,876.339,983.511,876.398,983.213z M887.701,1027.058l-0.005-54.747c-0.052,0.112-0.109,0.222-0.168,0.329
	l-1.741,12.203c-0.209,1.042-2.85,13.367-10.531,23.635c0.072,0.506,0.083,1.028-0.018,1.558l-3.259,17.022H887.701z
	 M922.628,86.981V600v513.019c0,9.878-3.846,19.164-10.831,26.15c-6.985,6.985-16.271,10.831-26.149,10.831H600H314.352
	c-9.878,0-19.165-3.847-26.149-10.832c-6.985-6.985-10.831-16.271-10.831-26.149V600V86.981c0-9.878,3.846-19.164,10.831-26.149
	C295.188,53.847,304.474,50,314.352,50H600h285.648c9.878,0,19.165,3.847,26.149,10.832
	C918.782,67.816,922.628,77.103,922.628,86.981z M913.097,86.981c0-7.58-3.072-14.442-8.04-19.41
	c-4.967-4.968-11.83-8.04-19.41-8.04H600H314.352c-7.58,0-14.443,3.072-19.41,8.04c-4.967,4.967-8.04,11.83-8.04,19.41V600v513.019
	c0,7.58,3.072,14.443,8.04,19.41c4.967,4.968,11.829,8.04,19.41,8.04H600h285.648c7.58,0,14.443-3.072,19.41-8.04
	c4.967-4.967,8.04-11.83,8.04-19.41V600V86.981z M338.746,134.317c5.619,0,10.189,4.57,10.189,10.188
	c0,2.428,1.969,4.397,4.397,4.397c2.429,0,4.397-1.969,4.397-4.397c0-5.618,4.57-10.188,10.187-10.188
	c2.429,0,4.397-1.969,4.397-4.397c0-2.428-1.969-4.397-4.397-4.397c-5.617,0-10.187-4.571-10.187-10.188
	c0-2.428-1.969-4.397-4.397-4.397c-2.429,0-4.397,1.969-4.397,4.397c0,5.618-4.57,10.188-10.189,10.188
	c-2.428,0-4.396,1.969-4.396,4.397C334.35,132.348,336.319,134.317,338.746,134.317z M357.969,242.2
	c2.429,0,4.397-1.969,4.397-4.397c0-2.428-1.969-4.397-4.397-4.397c-5.617,0-10.188-4.571-10.188-10.188
	c0-2.428-1.969-4.397-4.396-4.397c-2.429,0-4.397,1.969-4.397,4.397c0,5.618-4.571,10.188-10.189,10.188
	c-2.429,0-4.397,1.969-4.397,4.397c0,2.428,1.969,4.397,4.397,4.397c5.618,0,10.189,4.57,10.189,10.188
	c0,2.428,1.969,4.397,4.397,4.397c2.428,0,4.396-1.969,4.396-4.397C347.781,246.77,352.352,242.2,357.969,242.2z M611.019,755.307
	h-4.983v-0.478c0-3.509-2.845-6.354-6.354-6.354s-6.354,2.845-6.354,6.354v0.478h-4.719c-3.509,0-6.354,2.845-6.354,6.354
	s2.845,6.354,6.354,6.354h4.719v9.627c0,3.509,2.845,6.354,6.354,6.354s6.354-2.845,6.354-6.354v-9.627h4.983
	c3.509,0,6.354-2.845,6.354-6.354S614.528,755.307,611.019,755.307z M443.43,848.047c2.228,1.393,5.172,0.714,6.568-1.517
	c0.023-0.04,2.059-3.07,6.373-4.526v3.115c0,2.631,2.135,4.766,4.766,4.766s4.766-2.135,4.766-4.766v-3.143
	c5.554,1.626,9.248,5.464,9.28,5.498c0.94,1.033,2.231,1.557,3.525,1.557c1.145,0,2.293-0.41,3.208-1.241
	c1.945-1.772,2.088-4.784,0.316-6.733c-0.347-0.382-8.659-9.357-21.094-9.357c-12.966,0-18.972,9.382-19.224,9.779
	C440.52,843.712,441.2,846.65,443.43,848.047z M414.049,879.643c3.006,5.122,7.459,6.779,11.743,6.779
	c3.922,0,7.704-1.39,10.114-2.78c2.277-1.315,3.059-4.229,1.744-6.509c-1.315-2.284-4.235-3.062-6.509-1.744
	c-0.258,0.149-6.397,3.627-8.876-0.574c-1.508-2.572,3.565-7.946,6.478-10.114c1.098-0.807,1.796-2.048,1.921-3.407l0.94-10.446
	c0.236-2.622-1.697-4.939-4.319-5.175c-2.628-0.227-4.942,1.697-5.175,4.319l-0.757,8.417
	C415.805,863.134,409.386,871.707,414.049,879.643z M393.069,316.088c0,2.633,2.135,4.766,4.766,4.766
	c110.778,0,152.873-82.474,153.286-83.307c1.167-2.358,0.202-5.211-2.153-6.38c-2.352-1.159-5.212-0.208-6.388,2.147
	c-0.388,0.78-40.073,78.01-144.745,78.01C395.204,311.322,393.069,313.455,393.069,316.088z M588.746,383.271
	c-1.576,2.107-1.145,5.093,0.962,6.671c1.449,1.083,3.31,1.219,4.843,0.515c1.66,0.746,3.875,1.544,5.783,1.544
	c1.911,0,4.03-0.731,5.51-1.364c0.766,0.343,1.638,0.482,2.532,0.375c2.612-0.326,4.465-2.707,4.139-5.318
	c-0.199-1.599-1.077-3.03-2.405-3.926c-2.256-1.517-5.004-1.011-6.09-0.723c-0.335,0.09-0.673,0.222-0.98,0.382
	c-0.946,0.493-2.293,1.001-2.569,1.049c-0.54-0.07-2.119-0.715-3.248-1.326c-0.819-0.447-1.75-0.642-2.674-0.565
	C592.705,380.736,590.201,381.327,588.746,383.271z M757.393,848.047c2.231-1.396,2.91-4.334,1.517-6.568
	c-0.251-0.397-6.258-9.779-19.224-9.779c-12.435,0-20.744,8.976-21.091,9.357c-1.772,1.948-1.629,4.961,0.316,6.733
	c0.915,0.831,2.063,1.241,3.208,1.241c1.294,0,2.584-0.524,3.525-1.557c0.044-0.051,3.733-3.876,9.277-5.499v3.144
	c0,2.631,2.135,4.766,4.766,4.766s4.766-2.135,4.766-4.766v-3.123c4.213,1.419,6.249,4.348,6.401,4.575
	C752.255,848.773,755.18,849.433,757.393,848.047z M786.997,899.692c2.432-0.968,3.611-3.708,2.665-6.146
	c-0.94-2.439-3.686-3.652-6.149-2.727c-0.093,0.034-9.668,3.537-25.016-0.586c-2.538-0.676-5.156,0.822-5.839,3.363
	c-0.686,2.541,0.822,5.156,3.363,5.839c6.559,1.765,12.277,2.342,16.956,2.342C781.586,901.777,786.675,899.819,786.997,899.692z
	 M445.59,890.232c-15.243,4.092-24.777,0.676-25.013,0.586c-2.436-0.946-5.188,0.248-6.159,2.684
	c-0.971,2.448,0.226,5.219,2.671,6.19c0.323,0.127,5.411,2.085,14.024,2.085c4.676,0,10.394-0.577,16.952-2.342
	c2.541-0.683,4.049-3.298,3.363-5.839C450.746,891.051,448.14,889.553,445.59,890.232z M396.259,301.917
	c81.592,0,114.296-49.559,115.649-51.669c1.418-2.212,0.776-5.15-1.433-6.574c-2.218-1.427-5.16-0.78-6.584,1.421
	c-0.307,0.473-31.497,47.291-107.632,47.291c-2.631,0-4.766,2.133-4.766,4.766S393.628,301.917,396.259,301.917z M806.73,311.322
	c-104.672,0-144.357-77.229-144.745-78.01c-1.173-2.356-4.033-3.309-6.388-2.147c-2.355,1.17-3.32,4.022-2.153,6.38
	c0.413,0.833,42.508,83.307,153.286,83.307c2.631,0,4.766-2.133,4.766-4.766S809.361,311.322,806.73,311.322z M608.863,398.123
	c-0.031,0.014-3.338,1.433-8.16,1.433c-4.716,0-8.439-1.488-8.492-1.508c-2.423-1.002-5.203,0.149-6.211,2.57
	c-1.015,2.428,0.13,5.219,2.56,6.233c0.549,0.228,5.547,2.235,12.143,2.235c6.922,0,11.625-2.066,12.137-2.302
	c2.392-1.098,3.441-3.928,2.342-6.32C614.085,398.077,611.267,397.028,608.863,398.123z M605.965,366.001
	c0.714,0.377,1.474,0.555,2.228,0.555c1.706,0,3.36-0.923,4.216-2.538c0.009-0.02,0.738-1.2,2.442-2.132v0.651
	c0,2.633,2.135,4.766,4.766,4.766s4.766-2.133,4.766-4.766v-0.679c1.638,0.836,2.434,1.882,2.584,2.107
	c1.368,2.204,4.257,2.907,6.481,1.584c2.265-1.343,3.01-4.268,1.666-6.531c-1.716-2.887-6.931-7.773-15.597-7.773
	c-8.786,0-13.9,5.228-15.535,8.316C602.754,361.887,603.641,364.77,605.965,366.001z M579.317,297.519
	c0.527,1.222,1.709,1.983,3.09,1.917l7.915-0.424l-0.413,8.489c-0.065,1.354,0.738,2.603,1.998,3.104
	c1.247,0.5,2.699,0.15,3.587-0.88l5.259-6.118l5.259,6.118c0.617,0.717,1.505,1.106,2.411,1.106c0.394,0,0.794-0.073,1.176-0.226
	c1.26-0.501,2.063-1.75,1.998-3.104l-0.413-8.489l7.915,0.424c1.374,0.076,2.563-0.695,3.09-1.917
	c0.524-1.222,0.233-2.645-0.732-3.56l-6.065-5.749l6.065-5.751c0.965-0.917,1.257-2.338,0.732-3.56
	c-0.531-1.224-1.731-2.014-3.09-1.917l-7.915,0.424l0.413-8.489c0.065-1.354-0.738-2.603-1.998-3.104
	c-1.253-0.507-2.699-0.154-3.587,0.88l-5.259,6.118l-5.259-6.118c-0.884-1.03-2.327-1.388-3.587-0.88
	c-1.26,0.501-2.063,1.75-1.998,3.104l0.413,8.489l-7.915-0.424c-1.421-0.068-2.563,0.695-3.09,1.917
	c-0.524,1.222-0.233,2.643,0.732,3.56l6.066,5.751l-6.066,5.749C579.084,294.874,578.793,296.297,579.317,297.519z M808.306,292.386
	c-76.088,0-107.287-46.76-107.632-47.289c-1.421-2.209-4.362-2.85-6.577-1.432c-2.215,1.419-2.861,4.367-1.44,6.584
	c1.353,2.11,34.057,51.669,115.649,51.669c2.631,0,4.766-2.133,4.766-4.766S810.937,292.386,808.306,292.386z"/>
</svg>
