<?xml version="1.0" encoding="utf-8"?>
<!-- Generator: Adobe Illustrator 23.0.3, SVG Export Plug-In . SVG Version: 6.00 Build 0)  -->
<svg version="1.1" id="Capa_1" xmlns="http://www.w3.org/2000/svg" xmlns:xlink="http://www.w3.org/1999/xlink" x="0px" y="0px"
	 viewBox="0 0 1200 1200" enable-background="new 0 0 1200 1200" xml:space="preserve">
<path fill="#2E2E2E" d="M911.797,60.832C904.813,53.847,895.526,50,885.648,50H600H314.352c-9.878,0-19.165,3.847-26.149,10.832
	c-6.985,6.984-10.831,16.271-10.831,26.149V600v513.019c0,9.878,3.846,19.165,10.831,26.15c6.985,6.985,16.272,10.831,26.149,10.831
	H600h285.648c9.878,0,19.165-3.847,26.149-10.831c6.985-6.985,10.831-16.272,10.831-26.15V600V86.981
	C922.628,77.103,918.782,67.816,911.797,60.832z M913.097,600v513.019c0,7.58-3.072,14.443-8.04,19.41
	c-4.967,4.968-11.83,8.04-19.41,8.04H600H314.352c-7.58,0-14.442-3.072-19.41-8.04c-4.967-4.967-8.04-11.83-8.04-19.41V600V86.981
	c0-7.58,3.072-14.442,8.04-19.41c4.968-4.968,11.83-8.04,19.41-8.04H600h285.648c7.58,0,14.443,3.072,19.41,8.04
	c4.967,4.967,8.04,11.83,8.04,19.41V600z M897.192,86.981c0-3.089-1.203-5.993-3.387-8.177c-2.184-2.184-5.088-3.387-8.178-3.387
	H599.98H314.333c-3.089,0-5.993,1.203-8.177,3.387c-2.185,2.185-3.387,5.089-3.387,8.178V600v428.592
	c0.083,4.429,3.685,7.997,8.134,7.997h537.616c0.213,0.074,0.424,0.152,0.651,0.197c0.307,0.062,0.617,0.09,0.922,0.09
	c0.561,0,1.107-0.101,1.617-0.287h37.113c4.5,0,8.411-3.911,8.411-8.411L897.192,600V86.981z M882.904,874.135
	c2.095-3.742,3.054-8.471,2.686-13.988c-0.496-7.412-3.351-16.146-7.84-23.961c-3.599-6.27-2.51-15.268-1.458-23.967
	c0.99-8.175,1.924-15.901-1.07-21.78c-1.064-2.091-1.868-6.357-2.718-10.875c-2.605-13.85-6.501-34.376-26.086-38.233
	c-0.364-0.294-0.763-0.536-1.197-0.714c-1.687-2.584-4.691-6.666-9.067-10.843c-0.006-0.006-0.012-0.012-0.018-0.018
	c-5.283-5.038-12.543-10.179-21.919-12.887c-3.742-1.081-7.573-1.697-11.483-1.87c-0.421-0.052-0.841-0.048-1.254,0.012
	c-1.958-0.038-3.937,0.038-5.934,0.225c0.463-9.668-5.528-19.205-11.383-28.488c-2.201-3.491-4.185-6.73-5.847-9.792l4.596-4.807
	c3.36,2.389,9.969,10.536,19.689,24.282c1.756,2.485,3.025,4.28,3.779,5.203c0.943,1.151,2.311,1.747,3.692,1.747
	c1.061,0,2.128-0.352,3.016-1.078c2.035-1.666,2.336-4.669,0.67-6.706c-0.543-0.662-1.855-2.518-3.376-4.668
	c-1.133-1.602-2.204-3.098-3.245-4.542c2.724-3.355,8.976-11.043,13.735-16.804c2.802-3.391,4.697-6.174,6.218-8.409
	c1.66-2.44,2.926-4.303,4.734-6.075c1.911,1.921,5.38,7.671,8.271,15.702c3.183,8.845,27.095,32.195,31.857,36.786
	c0.925,0.892,2.116,1.336,3.307,1.336c1.247,0,2.494-0.487,3.431-1.458c1.827-1.894,1.772-4.911-0.124-6.737
	c-3.475-3.351-7.469-7.343-11.376-11.403c4.286-6.257,9.232-11.694,11.664-12.735c2.445,3.11,6.744,6.981,8.814,8.785l0.022,237.516
	l-4.756-12.572C884.038,903.88,886.794,884.748,882.904,874.135z M731.061,1027.058c-0.44-0.169-0.902-0.296-1.397-0.328
	l-6.835-0.437c-151.383-25.41-281.424-131.483-300.905-147.985c3.729-3.21,7.377-6.455,10.94-9.717
	c0.097,1.242,0.67,2.445,1.704,3.302c1.483,1.229,150.131,123.16,302.669,143.072c0.211,0.028,0.419,0.04,0.624,0.04
	c2.358,0,4.406-1.75,4.719-4.148c0.341-2.609-1.499-5.001-4.108-5.343C588.698,985.962,442.111,865.765,440.65,864.552
	c-0.696-0.574-1.506-0.901-2.336-1.025c23.883-22.543,42.954-45.064,51.053-59.013c4.76-8.197,7.554-15.754,9.01-22.579
	c3.742,5.244,8.99,11.994,16.022,19.82l-21.092,21.269c-1.852,1.871-1.84,4.887,0.028,6.742c0.931,0.921,2.144,1.381,3.357,1.381
	c1.226,0,2.451-0.472,3.385-1.409l20.819-20.994c3.031,3.153,6.324,6.438,9.895,9.833l-19.054,20.056
	c-1.812,1.908-1.734,4.924,0.174,6.739c0.921,0.875,2.104,1.309,3.283,1.309c1.26,0,2.519-0.496,3.456-1.483l19.144-20.15
	c3.738,3.358,7.747,6.805,12.019,10.317l-18.166,22.281c-1.666,2.042-1.359,5.042,0.679,6.705c0.887,0.723,1.952,1.073,3.01,1.073
	c1.384,0,2.755-0.599,3.695-1.753l18.222-22.349c2.578,2.015,5.221,4.042,7.979,6.089c1.745,1.295,3.552,2.607,5.398,3.929
	l-16.571,22.44c-1.564,2.116-1.114,5.101,1.005,6.664c0.85,0.627,1.843,0.931,2.826,0.931c1.461,0,2.901-0.67,3.838-1.936
	l16.721-22.643c4.351,2.967,8.926,5.98,13.779,9.03l-15.092,24.795c-1.368,2.249-0.655,5.181,1.592,6.55
	c0.776,0.472,1.629,0.695,2.476,0.695c1.607,0,3.177-0.813,4.074-2.287l15.079-24.773c4.684,2.812,9.585,5.643,14.707,8.481
	l-13.118,25.351c-1.21,2.336-0.295,5.212,2.042,6.422c0.701,0.363,1.449,0.534,2.187,0.534c1.725,0,3.388-0.937,4.235-2.575
	l13.033-25.186c5.503,2.918,11.227,5.835,17.211,8.739l-12.153,26.701c-1.089,2.395-0.031,5.222,2.364,6.311
	c0.639,0.292,1.309,0.428,1.97,0.428c1.812,0,3.543-1.036,4.341-2.792l12.09-26.563c6.112,2.84,12.481,5.656,19.077,8.442
	l-11.445,26.519c-1.042,2.417,0.071,5.222,2.485,6.264c0.617,0.267,1.257,0.391,1.886,0.391c1.846,0,3.602-1.077,4.378-2.876
	l11.504-26.658c5.085,2.056,10.278,4.095,15.642,6.102l-9.775,28.592c-0.853,2.491,0.475,5.2,2.966,6.05
	c0.512,0.177,1.03,0.258,1.542,0.258c1.983,0,3.832-1.244,4.508-3.224l9.71-28.402c5.355,1.917,10.874,3.797,16.499,5.651
	l-9.691,28.314c-0.853,2.488,0.475,5.2,2.966,6.05c0.509,0.177,1.03,0.258,1.542,0.258c1.983,0,3.832-1.244,4.508-3.224l9.72-28.401
	c0.009-0.026,0.01-0.052,0.018-0.078c5.799,1.826,11.71,3.622,17.788,5.37l-8.325,30.654c-0.692,2.541,0.81,5.16,3.348,5.848
	c0.419,0.115,0.841,0.168,1.253,0.168c2.097,0,4.021-1.396,4.595-3.515l8.306-30.583c5.686,1.558,11.513,3.071,17.439,4.55
	c-0.002,0.008-0.006,0.016-0.008,0.024l-7.626,30.88c-0.633,2.553,0.928,5.138,3.484,5.768c0.382,0.096,0.766,0.14,1.145,0.14
	c2.141,0,4.086-1.452,4.623-3.624l7.626-30.88c0.004-0.015,0.003-0.03,0.007-0.046c6.025,1.43,12.188,2.81,18.456,4.15l-5.826,31.96
	c-0.472,2.588,1.244,5.07,3.835,5.541c0.289,0.053,0.574,0.078,0.859,0.078c2.256,0,4.263-1.61,4.682-3.912l5.783-31.725
	c5.948,1.204,11.997,2.368,18.16,3.485l-3.662,31.185c-0.304,2.612,1.564,4.983,4.179,5.29c0.189,0.022,0.375,0.031,0.562,0.031
	c2.383,0,4.443-1.784,4.728-4.21l3.599-30.649c6.408,1.093,12.909,2.146,19.547,3.138c-2.366,22.323-5.63,49.382-9.678,71.259
	H731.061z M486.689,1027.058c-79.459-36.445-115.725-94.854-122.798-107.378c17.038-9.362,34.388-21.739,50.645-35.149
	c1.443,1.236,3.937,3.342,7.424,6.184l-14.312,16.994c-1.694,2.01-1.436,5.017,0.577,6.714c0.894,0.754,1.983,1.12,3.065,1.12
	c1.359,0,2.705-0.577,3.649-1.697l14.461-17.171c3.373,2.66,7.231,5.646,11.554,8.911l-13.341,17.344
	c-1.607,2.085-1.216,5.076,0.872,6.68c0.866,0.667,1.886,0.99,2.901,0.99c1.427,0,2.842-0.639,3.779-1.862l13.429-17.458
	c4.135,3.042,8.602,6.263,13.366,9.62l-13.193,18.57c-1.523,2.147-1.021,5.122,1.123,6.646c0.838,0.596,1.803,0.881,2.758,0.881
	c1.489,0,2.96-0.698,3.888-2.004l13.249-18.649c4.1,2.818,8.391,5.712,12.865,8.666l-11.784,19.638
	c-1.356,2.256-0.624,5.184,1.635,6.537c0.766,0.462,1.613,0.679,2.448,0.679c1.616,0,3.196-0.825,4.089-2.315l11.598-19.329
	c4.758,3.063,9.692,6.174,14.803,9.313l-11.202,19.172c-1.328,2.274-0.562,5.191,1.71,6.518c0.757,0.444,1.582,0.652,2.401,0.652
	c1.638,0,3.233-0.844,4.117-2.361l11.127-19.046c4.857,2.906,9.848,5.824,14.975,8.742l-9.879,19.196
	c-1.204,2.339-0.282,5.215,2.057,6.419c0.698,0.357,1.443,0.527,2.178,0.527c1.728,0,3.394-0.943,4.241-2.584l9.724-18.893
	c5.851,3.236,11.859,6.457,18.012,9.646l-9.279,18.393c-1.185,2.352-0.242,5.215,2.107,6.401c0.689,0.347,1.421,0.512,2.144,0.512
	c1.741,0,3.419-0.959,4.257-2.619l9.258-18.351c5.887,2.954,11.903,5.865,18.026,8.723l-8.252,18.306
	c-1.083,2.398-0.016,5.222,2.386,6.301c0.636,0.289,1.3,0.422,1.955,0.422c1.818,0,3.552-1.042,4.347-2.808l8.225-18.247
	c5.708,2.567,11.516,5.073,17.401,7.517l-6.539,16.171c-0.987,2.442,0.192,5.219,2.631,6.205c0.586,0.236,1.191,0.348,1.784,0.348
	c1.886,0,3.67-1.123,4.421-2.978l6.532-16.152c6.007,2.388,12.1,4.693,18.264,6.913l-5.045,14.478H486.689z M353.916,1027.058
	c-5.536-29.111-9.367-65.002-12.385-96.891c4.562-1.739,9.195-3.779,13.875-6.078c6.827,12.4,38.867,64.939,109.876,102.969H353.916
	z M317.915,910.318l-5.615,14.832V682.369c0.989-1.151,3.728-4.357,7.585-9.038c2.55-3.098,5.197-5.45,7.995-7.938
	c1.182-1.052,2.389-2.125,3.587-3.259c0.757,1.868,1.827,4.018,3.478,6.024c4.842,5.88,14.422,14.86,17.806,17.896
	c2.033,3.718,10.771,18.18,25.409,21.646c0.369,0.088,0.738,0.13,1.101,0.13c2.159,0,4.114-1.477,4.635-3.669
	c0.605-2.561-0.977-5.129-3.54-5.735c-7.096-1.681-12.554-7.361-15.878-11.8c2.523-0.922,5.427-2.184,8.903-3.745
	c2.1-0.943,4.834-2.17,6.326-2.699c2.898,1.59,10.555,6.328,15.842,9.599c3.264,2.018,6.357,3.932,8.653,5.322
	c0.709,0.429,1.368,0.825,1.993,1.184c-3.417,6.142-5.824,12.388-5.317,18.738c-0.513-0.005-1.028-0.025-1.539-0.014
	c-0.392-0.054-0.79-0.057-1.188-0.011c-3.924,0.17-7.769,0.785-11.522,1.869c-17.168,4.959-27.288,18.052-31.009,23.754
	c-0.42,0.175-0.807,0.413-1.161,0.699c-19.61,3.841-23.509,24.38-26.115,38.234c-0.85,4.52-1.654,8.79-2.721,10.881
	c-2.994,5.879-2.06,13.602-1.07,21.777c1.055,8.7,2.144,17.697-1.458,23.971c-7.393,12.879-10.554,28.305-5.162,37.968
	C314.058,884.77,316.812,903.881,317.915,910.318z M419.54,637.662c-7.604-5.893-11.542-11.428-11.706-16.448
	c-0.261-7.964,8.855-16.031,17.672-23.832c12.15-10.754,27.272-24.137,16.894-40.819c-25.484-40.956,33.078-94.29,49.56-108.098
	l3.081,8.411c-10.221,8.548-45.185,40.263-47.149,75.633c-0.621,11.157,3.571,18.417,6.63,23.718c3.413,5.91,4.359,7.984,1.57,12.26
	c-1.436,2.204-0.813,5.158,1.39,6.595c0.804,0.524,1.706,0.774,2.6,0.774c1.554,0,3.081-0.762,3.996-2.163
	c6.115-9.382,2.175-16.209-1.3-22.232c-2.867-4.966-5.833-10.1-5.367-18.423c2.007-36.206,45.751-70.495,46.191-70.838
	c0.072-0.056,0.126-0.125,0.194-0.184c0.066-0.058,0.125-0.117,0.188-0.178c0.381-0.369,0.696-0.781,0.928-1.235
	c0.012-0.024,0.037-0.04,0.048-0.064c6.267-4.128,43.439-27.078,94.66-27.078c55.899,0,93.949,28.472,94.325,28.759
	c0.892,0.676,1.976,0.988,3.061,0.95c9.434,7.988,41.901,37.639,43.627,68.725c0.462,8.321-2.501,13.456-5.367,18.422
	c-3.478,6.024-7.418,12.849-1.303,22.233c0.915,1.401,2.442,2.163,3.996,2.163c0.894,0,1.796-0.25,2.6-0.774
	c2.203-1.436,2.826-4.39,1.39-6.595c-2.789-4.275-1.843-6.349,1.57-12.261c3.059-5.301,7.251-12.559,6.633-23.715
	c-1.994-35.864-37.9-67.96-47.553-75.968c0.507-1.85,1.166-4.235,1.96-7.062c15.6,14.54,72.93,71.805,50.169,108.219
	c-10.418,16.67,4.713,30.058,16.869,40.816c8.824,7.806,17.945,15.877,17.685,23.848c-0.161,5.02-4.099,10.553-11.7,16.444
	c-23.939,18.553-11.486,38.301-1.483,54.169c5.8,9.197,11.283,17.92,9.587,25.169c-0.424,0.114-0.85,0.235-1.276,0.358
	c-0.332,0.07-0.65,0.178-0.956,0.315c-0.287,0.087-0.576,0.193-0.864,0.284l-14.257-25.182c-1.3-2.291-4.21-3.095-6.497-1.798
	c-2.29,1.297-3.096,4.204-1.799,6.495l13.574,23.974c-2.406,1.116-4.827,2.334-7.272,3.738c-2.688,1.543-5.209,3.138-7.571,4.782
	c-3.802-20.327-13.179-35.831-20.889-48.549c-11.734-19.346-16.419-28.389-4.539-40.017c22.925-22.435,11.38-36.075-0.838-50.516
	c-2.851-3.371-5.153-6.489-6.838-9.264c-1.365-2.253-4.297-2.965-6.55-1.598c-2.249,1.365-2.963,4.297-1.598,6.546
	c1.945,3.199,4.536,6.722,7.707,10.471c12.01,14.193,18.038,21.315,1.452,37.55c-17.787,17.405-8.129,33.331,3.053,51.77
	c8.349,13.769,17.727,29.371,20.438,50.494c-1.738,1.606-3.335,3.254-4.805,4.94l-10.683-0.749
	c1.052-16.454-11.549-37.938-20.999-54.003c-1.049-1.781-2.054-3.492-2.994-5.112c-13.965-24.122-5.879-36.32-5.439-36.953
	c1.545-2.097,1.12-5.051-0.965-6.626c-2.097-1.584-5.085-1.171-6.674,0.929c-0.164,0.217-1.464,1.998-2.634,5.265
	c3.258-20.537,3.272-39.181,2.849-50.061c0.449-0.265,0.875-0.582,1.231-1.003c15.907-18.813,20.39-33.032,13.71-43.469
	c-3.527-5.513-9.009-9.239-13.65-10.993l0.116-2.841c0.259-0.617,0.402-1.293,0.376-2.006c-0.035-0.993-0.386-1.904-0.945-2.65
	c-0.792-1.356-2.23-2.298-3.917-2.366c-0.733-0.037-1.435,0.122-2.078,0.406c-13.174-0.185-27.555-6.568-40.859-15.002
	c-0.466-0.473-1.039-0.841-1.685-1.089c-25.295-16.468-46.235-39.673-46.563-40.04c-0.862-0.968-2.085-1.542-3.382-1.59
	c-1.281-0.003-2.557,0.437-3.49,1.34c-16.456,15.938-64.683,56.642-90.307,53.713c-1.384-0.157-2.746,0.289-3.763,1.219
	c-1.018,0.932-1.582,2.26-1.545,3.641l0.111,4.195c-4.752,1.654-10.547,5.465-14.221,11.205
	c-9.451,14.766,8.838,39.478,15.137,47.24c-0.198,10.542,0.146,28.535,3.449,48.494c-1.479-3.757-3.086-5.888-3.284-6.143
	c-1.61-2.057-4.558-2.422-6.636-0.833c-2.076,1.587-2.473,4.57-0.906,6.661c0.447,0.599,10.788,14.934-4.365,39.221
	c-12.434,19.924-25.295,42.281-24.095,59.244l-10.769,0.755c-1.444-1.656-3.008-3.277-4.711-4.856
	c2.696-21.167,12.09-36.79,20.451-50.578c11.182-18.439,20.84-34.364,3.053-51.77c-16.586-16.237-10.561-23.359,1.446-37.549
	c3.124-3.692,5.693-7.173,7.632-10.349c1.371-2.246,0.664-5.18-1.582-6.551c-2.243-1.368-5.178-0.664-6.553,1.584
	c-1.685,2.758-3.962,5.839-6.773,9.159c-12.218,14.439-23.76,28.08-0.835,50.516c11.88,11.628,7.195,20.671-4.539,40.017
	c-7.718,12.731-17.106,28.257-20.901,48.617c-2.39-1.668-4.94-3.287-7.665-4.851c-2.484-1.426-4.943-2.658-7.387-3.787
	l11.591-23.427c1.167-2.358,0.202-5.217-2.159-6.384c-2.361-1.174-5.219-0.202-6.385,2.158l-11.971,24.193
	c-0.299-0.096-0.601-0.206-0.9-0.297c-0.161-0.067-0.329-0.115-0.498-0.164c-2.057-0.608-4.098-1.107-6.119-1.493
	c-1.62-7.197,3.973-15.758,9.888-24.782C430.247,676.443,443.498,656.228,419.54,637.662z M598.465,316.843l-4.8-4.629l5.243-10.108
	l5.65,8.833L598.465,316.843z M598.487,329.834c37.982,32.026,100.018,35.179,122.977,35.179c0.276,0,0.543,0,0.807-0.002
	c-2.952,6.54-6.033,14.592-9.051,23.166c-13.127-7.614-53.583-27.725-114.745-27.725c-61.987,0-103.9,23.411-116.949,31.815
	l-9.772-26.682C542.569,371.565,586.452,339.93,598.487,329.834z M502.872,450.551l-11.849-32.351
	c6.858-5.12,44.402-30.839,106.307-30.839c59.682,0,97.984,22.153,106.985,27.953c-4.486,14.526-8.238,27.827-10.325,35.408
	c-13.074-8.31-47.432-26.792-94.371-26.792C550.881,423.929,514.966,443.111,502.872,450.551z M484.9,401.48
	c9.255-6.147,51.215-31.498,113.575-31.498c61.323,0,101.678,21.524,111.581,27.421c-0.941,2.819-1.865,5.65-2.773,8.48
	c-12.857-7.945-51.194-28.054-109.953-28.054c-60.187,0-98.053,22.847-109.718,31.057L484.9,401.48z M797.911,736.267
	c0.248,0.039,0.493,0.056,0.735,0.056c2.311,0,4.341-1.683,4.703-4.038c0.484-3.128,1.221-5.679,1.847-7.469
	c1.976,0.228,3.927,0.564,5.834,1.086c-1.1,1.634-2.323,3.627-3.589,6.078c-1.207,2.339-0.289,5.214,2.048,6.419
	c0.701,0.363,1.446,0.534,2.184,0.534c1.725,0,3.391-0.942,4.238-2.581c1.564-3.029,3.053-5.255,4.155-6.73
	c1.835,1.03,3.533,2.155,5.093,3.333c-1.756,1.52-3.758,3.524-5.807,6.155c-1.616,2.076-1.244,5.073,0.831,6.689
	c0.872,0.676,1.902,1.005,2.926,1.005c1.418,0,2.823-0.63,3.763-1.837c2-2.569,3.908-4.339,5.377-5.509
	c1.2,1.323,2.226,2.575,3.076,3.697c-2.29,1.337-4.812,3.269-7.119,6.069c-1.672,2.029-1.381,5.032,0.652,6.708
	c0.887,0.729,1.958,1.086,3.025,1.086c1.374,0,2.74-0.593,3.683-1.737c2.322-2.821,4.979-4.257,6.74-4.96
	c14.143,1.352,17.685,14.265,20.83,31.006c1.021,5.433,1.905,10.127,3.59,13.437c1.679,3.295,0.878,9.913,0.102,16.31
	c-1.182,9.77-2.519,20.84,2.656,29.859c3.791,6.599,6.193,13.834,6.596,19.847c0.199,2.988-0.039,6.666-1.811,9.285
	c-0.337,0.3-0.617,0.641-0.849,1.011c-0.448,0.461-0.941,0.886-1.534,1.227c-0.831,0.484-1.511,0.537-2.429,0.186
	c-5.203-1.973-11.604-13.754-14.989-23.837c-0.518-1.542-0.875-2.783-1.173-3.819c-2.1-7.263-3.345-8.011-15.265-15.144
	c-1.852-1.108-4.002-2.395-6.503-3.912c-19.897-12.057-13.658-29.99-11.269-35.199c4.502-9.832,1.79-19.422,1.272-21.057
	c-2.982-11.393-8.858-19.006-17.464-22.627c-11.787-4.961-24.244-0.438-27.684,1.539c-7.766,4.458-13.118,9.736-15.907,15.69
	c-3.646,7.784-2.873,16.301,2.299,25.311c5.969,10.4,13.049,16.704,21.035,18.733c3.267,0.828,6.199,0.81,8.594,0.456
	c-0.922,1.722-3.118,4.278-8.299,7.251c-5.966,3.425-11.852,3.394-17.983-0.084c-5.259-2.982-10.511-8.588-14.415-15.389
	c-1.601-2.79-3.391-6.183-4.949-9.981l0.227-0.041c2.591-0.465,4.316-2.941,3.85-5.532c-0.469-2.594-2.96-4.303-5.532-3.85
	l-1.413,0.254c-0.37-1.709-0.663-3.452-0.825-5.245l1.317,0.148c0.183,0.022,0.36,0.031,0.54,0.031c2.392,0,4.455-1.799,4.728-4.232
	c0.295-2.615-1.585-4.973-4.201-5.268l-2.029-0.228c0.365-2.081,0.906-4.125,1.654-6.121l1.743,1.199
	c0.825,0.568,1.765,0.841,2.699,0.841c1.514,0,3.006-0.72,3.928-2.063c1.492-2.169,0.946-5.138-1.222-6.627l-2.629-1.809
	c0.934-1.336,1.955-2.652,3.083-3.943l1.43,1.889c0.937,1.238,2.361,1.889,3.804,1.889c1.002,0,2.014-0.313,2.873-0.965
	c2.097-1.589,2.513-4.576,0.925-6.677l-2.107-2.785c2.028-1.662,4.25-3.276,6.643-4.845c0.466,1.243,0.956,2.527,1.415,3.678
	c0.745,1.868,2.535,3.003,4.427,3.003c0.589,0,1.185-0.109,1.762-0.338c2.445-0.974,3.639-3.745,2.665-6.19
	c-0.626-1.574-1.315-3.404-1.906-5.004c1.9-0.979,3.782-1.86,5.644-2.635c0.055,1.49,0.175,3.159,0.413,5.034
	c0.307,2.408,2.358,4.165,4.722,4.165c0.202,0,0.403-0.012,0.608-0.037c2.609-0.332,4.458-2.718,4.126-5.329
	c-0.379-2.976-0.414-5.301-0.349-6.94c1.837-0.431,3.651-0.757,5.441-0.972c-0.479,1.739-0.936,3.719-1.282,5.955
	C793.528,733.431,795.312,735.865,797.911,736.267z M775.719,834.916l-7.321-7.92c6.87,1.892,13.829,0.946,20.454-2.858
	c7.756-4.452,12.286-9.525,13.465-15.079c1.157-5.454-1.443-9.212-1.741-9.621c-1.474-2.007-4.232-2.544-6.348-1.244
	c-0.034,0.022-3.394,1.921-8.073,0.732c-5.315-1.35-10.543-6.273-15.116-14.241c-3.583-6.242-4.216-11.647-1.933-16.521
	c1.942-4.145,5.988-8.002,12.023-11.467c1.505-0.869,10.915-4.524,19.242-1.018c5.758,2.423,9.786,7.93,11.97,16.375
	c0.034,0.127,0.071,0.251,0.115,0.375c0.025,0.068,2.342,7.176-0.863,14.179c-6.63,14.464-6.171,34.491,14.995,47.32
	c2.519,1.526,4.682,2.82,6.546,3.937c9.944,5.951,9.944,5.951,11.002,9.612c0.329,1.139,0.726,2.507,1.297,4.207
	c1.405,4.185,9.004,25.295,20.641,29.713c1.486,0.565,2.982,0.847,4.462,0.847c1.497,0,2.972-0.3,4.404-0.871
	c0.866,6.172,0.286,15.485-0.785,23.292C862.278,900.521,828.331,885.328,775.719,834.916z M680.364,817.638
	c0.459,0.102,6.214,1.343,14.253,1.343c6.858,0,15.381-0.905,23.695-4.186c23.813,32.707,82.033,89.378,133.296,112.18
	c-49.221-6.937-122.706-28.891-127.423-30.575c-2.082-0.912-4.576-0.223-5.87,1.734c-1.458,2.194-0.862,5.15,1.331,6.605
	c2.795,1.857,89.155,26.957,138.091,32.634c-0.275,2.811-0.572,5.796-0.89,8.93c-146.849-22.009-236.19-69.784-285.33-106.098
	c-49.441-36.537-69.142-69.018-71.958-73.946c-0.36-5.292-1.472-9.827-2.803-13.529c-1.614-13.1,5.354-16.884,11.534-20.208
	c3.385-1.821,6.581-3.542,7.76-6.902c2.731-7.798,9.756-10.871,14.123-11.803c-2.468,7.811-7.706,15.972-14.769,22.874
	c-1.883,1.838-1.921,4.857-0.081,6.737c0.32,0.327,0.711,0.521,1.089,0.737c2.548,3.34,19.689,25.283,43.324,43.768
	c0.215,0.298,0.457,0.583,0.748,0.833c67.5,58.124,112.462,69.923,137.841,69.923c16.431,0,24.656-4.946,25.472-5.467
	c2.218-1.415,2.87-4.359,1.455-6.581c-1.418-2.218-4.362-2.864-6.581-1.455c-0.384,0.241-34.577,20.582-112.244-32.804
	c5.189,1.231,10.431,1.94,15.685,1.94c38.677,0,53.219-17.601,58.608-32.366c7.522-20.608,0.593-46.156-4.744-50.866
	c-1.631-2.148-3.035-4.344-4.164-6.558c4.289,0.689,10.589,4.119,15.588,16.882c1.79,4.579,2.637,10.868,2.395,14.07
	c-0.199,2.625,1.768,4.914,4.393,5.113c0.124,0.009,0.245,0.012,0.366,0.012c1.302,0,2.476-0.552,3.344-1.421
	c1.331,0.577,2.693,1.106,4.053,1.6c-1.919,10.824-0.916,25.736,9.53,43.723c0.393,0.677,0.86,1.411,1.303,2.126
	c-14.726,4.981-30.192,1.732-30.362,1.693c-2.584-0.577-5.104,1.058-5.678,3.621C676.176,814.523,677.795,817.067,680.364,817.638z
	 M326.694,904.668c-1.072-7.807-1.653-17.121-0.787-23.293c1.431,0.571,2.906,0.87,4.403,0.87c1.48,0,2.978-0.282,4.465-0.847
	c11.641-4.421,19.236-25.528,20.641-29.713c0.571-1.7,0.968-3.068,1.297-4.21c1.055-3.658,1.055-3.658,11.008-9.612
	c1.862-1.117,4.024-2.411,6.54-3.934c21.16-12.826,21.619-32.853,14.998-47.317c-3.183-6.953-0.912-14.039-0.856-14.207
	c0.04-0.115,0.074-0.233,0.105-0.351c2.184-8.445,6.211-13.952,11.97-16.375c8.321-3.506,17.731,0.149,19.242,1.018
	c6.035,3.466,10.08,7.322,12.022,11.467c2.284,4.874,1.651,10.279-1.933,16.521c-4.902,8.541-10.515,13.546-16.223,14.474
	c-4.092,0.648-6.906-0.931-6.965-0.965c-2.116-1.297-4.877-0.76-6.345,1.244c-0.301,0.41-2.901,4.164-1.744,9.618
	c1.176,5.557,5.709,10.629,13.465,15.082c7.168,4.114,14.07,4.677,20.373,2.955l-7.038,7.618
	C372.54,885.304,338.555,900.523,326.694,904.668z M334.017,811.07c-0.776-6.401-1.576-13.015,0.102-16.307
	c1.685-3.31,2.569-8.005,3.593-13.443c3.148-16.737,6.686-29.647,20.825-31c1.76,0.701,4.418,2.135,6.748,4.963
	c0.94,1.142,2.305,1.734,3.68,1.734c1.067,0,2.141-0.357,3.028-1.089c2.029-1.672,2.321-4.676,0.645-6.708
	c-2.313-2.806-4.841-4.739-7.135-6.076c0.847-1.124,1.871-2.377,3.071-3.703c1.472,1.169,3.389,2.941,5.402,5.525
	c0.94,1.207,2.346,1.837,3.763,1.837c1.024,0,2.054-0.329,2.926-1.005c2.076-1.616,2.448-4.614,0.831-6.689
	c-2.056-2.639-4.064-4.649-5.824-6.17c1.563-1.176,3.264-2.298,5.105-3.327c1.102,1.475,2.596,3.707,4.161,6.739
	c0.847,1.64,2.513,2.581,4.238,2.581c0.735,0,1.483-0.171,2.184-0.534c2.336-1.205,3.255-4.08,2.048-6.419
	c-1.267-2.455-2.493-4.451-3.594-6.087c1.906-0.521,3.848-0.89,5.823-1.118c0.63,1.791,1.375,4.357,1.861,7.509
	c0.363,2.355,2.392,4.04,4.703,4.04c0.242,0,0.487-0.017,0.732-0.056c2.6-0.4,4.384-2.834,3.984-5.436
	c-0.347-2.251-0.807-4.241-1.291-5.988c1.795,0.216,3.607,0.511,5.448,0.943c0.069,1.642,0.039,3.987-0.344,7.002
	c-0.332,2.611,1.517,4.997,4.126,5.329c0.205,0.025,0.406,0.037,0.608,0.037c2.364,0,4.415-1.758,4.722-4.165
	c0.239-1.884,0.361-3.562,0.415-5.057c1.867,0.778,3.75,1.636,5.657,2.619c-0.595,1.608-1.289,3.456-1.921,5.043
	c-0.974,2.445,0.22,5.215,2.665,6.19c0.577,0.23,1.173,0.338,1.762,0.338c1.893,0,3.683-1.135,4.427-3.003
	c0.458-1.15,0.949-2.435,1.415-3.677c2.394,1.57,4.615,3.184,6.643,4.846l-2.107,2.787c-1.589,2.097-1.173,5.088,0.928,6.674
	c0.859,0.652,1.868,0.965,2.87,0.965c1.443,0,2.867-0.652,3.804-1.893l1.426-1.887c1.129,1.29,2.149,2.607,3.083,3.943l-2.626,1.806
	c-2.169,1.492-2.718,4.458-1.229,6.627c0.925,1.343,2.417,2.066,3.931,2.066c0.931,0,1.871-0.273,2.696-0.838l1.746-1.201
	c0.291,0.776,0.546,1.56,0.779,2.349l-0.092,3.88l-1.059,0.119c-2.615,0.295-4.496,2.653-4.201,5.268
	c0.273,2.436,2.336,4.232,4.728,4.232c0.101,0,0.202-0.011,0.303-0.017l-0.117,4.931l-0.565-0.101
	c-2.597-0.453-5.07,1.257-5.535,3.847c-0.465,2.591,1.257,5.07,3.847,5.535l0.23,0.041c-1.557,3.798-3.348,7.192-4.949,9.98
	c-2.457,4.282-15.578,25.134-32.397,15.473c-5.181-2.972-7.378-5.529-8.302-7.251c2.408,0.354,5.327,0.369,8.594-0.456
	c7.986-2.029,15.066-8.33,21.039-18.733c5.172-9.01,5.945-17.526,2.299-25.311c-2.789-5.954-8.141-11.231-15.907-15.69
	c-3.441-1.976-15.898-6.494-27.684-1.539c-8.607,3.621-14.483,11.234-17.464,22.627c-0.518,1.635-3.23,11.225,1.272,21.057
	c2.386,5.209,8.622,23.145-11.269,35.199c-2.498,1.514-4.648,2.802-6.497,3.909c-11.923,7.136-13.17,7.881-15.268,15.144
	c-0.301,1.036-0.658,2.28-1.176,3.822c-3.385,10.08-9.786,21.861-14.992,23.837c-0.906,0.351-1.595,0.298-2.429-0.186
	c-0.592-0.34-1.092-0.778-1.553-1.259c-0.221-0.346-0.482-0.668-0.795-0.953c-4.069-5.957-1.15-18.877,4.749-29.158
	C336.54,831.913,335.199,820.84,334.017,811.07z M465.576,752.683l0.434,0.062l-0.043,1.421L465.576,752.683z M475.719,740.377
	c-1.133-15.311,14.225-39.925,22.719-53.536c7.7-12.34,9.849-22.82,9.658-30.958c3.817,16.748,9.956,33.973,19.73,48.695
	c-7.178,1.605-16.619,6.528-20.641,17.526c-0.583,0.506-2.203,1.376-3.41,2.026c-0.754,0.405-1.587,0.858-2.456,1.356
	c1.101-7.459,7.414-18.031,12.053-24.062c1.604-2.085,1.216-5.076-0.869-6.681c-2.082-1.604-5.079-1.216-6.68,0.864
	c-1.821,2.36-17.555,23.34-13.472,37.152c-1.592,1.954-2.971,4.285-3.936,7.099c-0.581-0.19-1.185-0.297-1.784-0.245
	L475.719,740.377z M546.445,523.736c0.062-0.01,0.123-0.006,0.185-0.019c3.888-0.797,15.398-2.615,21.864-1.499
	c4.601,0.802,13.077,2.615,13.161,2.634c0.332,0.071,0.667,0.105,0.999,0.105c0.984,0,1.955-0.306,2.771-0.887
	c1.089-0.779,1.803-1.981,1.961-3.312l1.142-9.531c0.292-2.423-1.297-4.674-3.677-5.214c-0.8-0.181-4.864-1.076-9.792-1.735
	c10.996-8.514,19.983-16.54,24.712-20.911c4.259,4.482,12.257,12.538,22.45,21.156c-4.058,0.651-7.063,1.481-7.306,1.549
	c-2.262,0.636-3.723,2.825-3.444,5.156l1.145,9.531c0.158,1.331,0.872,2.532,1.961,3.31c0.816,0.582,1.787,0.887,2.771,0.887
	c0.332,0,0.667-0.034,0.999-0.105c0.084-0.019,8.554-1.832,13.158-2.633c5.985-1.04,12.211-0.265,14.743,0.14
	c13.761,8.735,28.88,15.616,43.324,16.643l-1.131,27.78c-0.007,0.009-0.016,0.016-0.023,0.025
	c-14.042,19.151-32.403,40.034-38.413,41.981c-6.479-1.417-34.35-6.813-49.973,1.335c-15.239-9.137-43.56-2.994-50.277-1.351
	c-6.036-2.038-24.234-22.731-38.224-41.778l-0.804-30.472C521.558,535.998,534.125,530.79,546.445,523.736z M625.25,513.699
	c-1.288,0.254-2.594,0.518-3.791,0.763l-0.016-0.123C622.569,514.118,623.866,513.888,625.25,513.699z M687.72,585.601
	c0.081,0.788,7.373,79.243-27.944,121.422c-0.004,0.005-0.009,0.008-0.013,0.013c-14.622,17.46-34.784,26.371-59.919,26.512
	c-22.654-0.142-41.308-7.927-55.438-23.168c-31.286-33.747-33.121-95.209-32.714-116.976c0.044-0.354,0.059-0.709,0.023-1.065
	c0.098-4.2,0.27-6.707,0.281-6.847c0.012-0.161,0.016-0.326,0.009-0.487l-0.044-1.684c11.094,14.136,28.269,34.117,37.405,35.078
	c0.574,0.059,1.145,0.017,1.703-0.129c9.367-2.442,35.813-7.007,45.605,1.095c0.647,0.536,1.404,0.804,2.177,0.947
	c0.072,0.018,0.145,0.023,0.218,0.037c0.214,0.029,0.424,0.109,0.64,0.109c0.052,0,0.102-0.015,0.154-0.016
	c0.047,0.001,0.094,0.016,0.141,0.016c0.237,0,0.469-0.072,0.704-0.107c0.009-0.002,0.018-0.002,0.027-0.004
	c0.707-0.11,1.404-0.327,2.027-0.77c10.418-7.406,36.815-3.433,46.101-1.277c0.515,0.119,1.049,0.149,1.579,0.098
	c9.113-0.959,26.224-20.84,37.32-34.969l-0.061,1.506C687.692,585.157,687.699,585.381,687.72,585.601z M525.338,740.094
	c6.1-6.757,10.722-14.381,13.377-21.904c15.637,16.162,35.869,24.524,60.19,24.869c0.113,0.008,0.221,0.034,0.336,0.034
	c0.203,0,0.4-0.013,0.603-0.014c0.209,0.001,0.413,0.014,0.623,0.014c0.12,0,0.233-0.027,0.35-0.035
	c23.886-0.32,43.777-7.87,59.276-22.502c1.641,5.953,4.748,11.946,9.189,17.491c0.176,0.22,0.381,0.4,0.586,0.58
	c2.821,4.704,8.702,26.352,0.448,43.518c-7.226,15.029-23.443,22.649-48.202,22.649
	C579.286,804.793,534.236,751.227,525.338,740.094z M698.688,549.415c2.102,1.279,4.398,3.165,6.043,5.738
	c3.334,5.205,0.797,13.759-7.293,24.957L698.688,549.415z M502.301,578.422c-6.601-10.393-10.574-21.033-7.312-26.128
	c1.757-2.748,4.254-4.706,6.465-5.982L502.301,578.422z M710.248,741.287c-0.32,0.378-3.28,3.984-5.737,10.311
	c-1.69-0.636-3.364-1.356-5.015-2.148c0.178-0.241,0.368-0.471,0.501-0.751l5.718-12.007c0.105-0.225,0.195-0.458,0.267-0.697
	c5.246-17.714-12.209-38.455-12.953-39.328c-1.706-2.001-4.719-2.243-6.72-0.534c-2.001,1.708-2.24,4.716-0.534,6.717
	c4.105,4.812,14.008,19.497,11.16,30.106l-1.461,3.068c-8.139-18.993-20.166-21.371-26.852-21.006
	c-0.185-1.154-0.303-2.297-0.323-3.417c13.124-16.366,20.615-36.923,24.776-56.725c-0.285,7.829,1.642,18.5,9.361,31.83
	c0.946,1.638,1.964,3.368,3.025,5.17c8.341,14.183,20.64,35.106,19.746,48.505l-10.988-0.771
	C712.764,739.487,711.232,740.13,710.248,741.287z M738.498,751.663v-0.795l0.43,0.03
	C738.788,751.154,738.634,751.406,738.498,751.663z M326.415,914.786c9.865-2.816,46.143-16.302,105.715-73.398l34.941-37.811
	c16.029-17.97,13.077-43.1,10.843-53.801l6.699-0.47c3.506,5.653,11.936,23.859-3.487,50.423
	c-19.695,33.914-102.463,114.919-158.979,126.328L326.415,914.786z M643.557,1015.736c12.264,4.188,24.8,7.998,37.557,11.322
	h-41.502L643.557,1015.736z M719.723,799.73c-15.494-26.682-7.052-44.767-3.503-50.423l6.713,0.47
	c-2.232,10.703-5.173,35.844,10.901,53.865l35.087,37.951c59.398,56.92,95.652,70.381,105.514,73.194l4.264,11.271
	C822.18,914.65,739.415,833.644,719.723,799.73z M312.3,86.981c0-0.559,0.201-1.043,0.596-1.438
	c0.395-0.395,0.878-0.595,1.437-0.595H599.98h285.647c0.559,0,1.042,0.2,1.438,0.596c0.396,0.395,0.596,0.879,0.596,1.438v513.02
	l0.006,72.217c-0.593-0.642-1.132-1.257-1.522-1.784c-1.765-2.391-4.31-3.646-7.151-3.532c-6.588,0.266-13.81,8.695-18.487,15.303
	c-5.854-6.414-10.541-12.117-11.447-14.632c-2.705-7.514-8.315-20.399-15.482-22.273c-2.498-0.656-4.992-0.062-6.999,1.679
	c-3.317,2.875-5.197,5.636-7.372,8.833c-1.483,2.181-3.165,4.652-5.684,7.704c-4.022,4.869-9.103,11.105-12.244,14.968
	c-9.032-11.796-14.059-16.093-18.493-16.43c-2.066-0.151-3.934,0.555-5.33,2.009l-3.214,3.363
	c-2.206-7.962-0.289-14.893,9.177-22.23c10.09-7.82,15.125-15.563,15.389-23.666c0.403-12.449-10.425-22.03-20.896-31.297
	c-14.439-12.778-20.638-19.767-15.1-28.626c29.574-47.318-47.813-116.919-55.335-123.512c6.531-22.566,17.152-56.974,25.678-73.76
	l12.727-3.061c1.874-0.45,3.289-1.983,3.593-3.884l3.155-19.816c0.279-1.747-0.434-3.504-1.849-4.564
	c-1.421-1.06-3.304-1.25-4.902-0.49l-17.644,8.379c-1.458,0.693-2.467,2.077-2.681,3.68l-1.438,10.856
	c-18.994,0.127-81.677-1.876-118.59-32.157l8.465-8.202c1.626-1.576,1.921-4.081,0.698-5.991l-12.199-19.062
	c-0.918-1.435-2.479-2.263-4.232-2.192c-1.7,0.078-3.23,1.056-4.015,2.567l-10.676,20.589c-0.971,1.872-0.596,4.161,0.925,5.625
	l6.901,6.654c-12.391,9.915-55.074,39.017-121.666,32.53l-1.486-11.217c-0.214-1.603-1.222-2.986-2.681-3.68l-17.644-8.379
	c-1.601-0.76-3.487-0.569-4.902,0.49c-1.415,1.06-2.128,2.817-1.849,4.564l3.155,19.816c0.304,1.902,1.719,3.435,3.593,3.884
	l13.281,3.194l27.286,74.496c-13.075,10.438-85.776,71.842-54.171,122.635c5.52,8.875-0.679,15.867-15.119,28.646
	c-10.465,9.261-21.287,18.837-20.883,31.28c0.267,8.104,5.302,15.848,15.395,23.671c16.177,12.536,10.121,23.665-1.098,40.782
	c-0.477,0.727-0.954,1.456-1.43,2.187c-2.193-1.281-6.774-4.116-10.608-6.488c-14.083-8.714-17.253-10.569-18.851-11.025
	c-2.535-0.72-4.964,0.271-12.233,3.537c-3.041,1.364-8.392,3.768-10.85,4.336c-3.85-3.487-12.351-11.599-16.326-16.425
	c-1.402-1.7-2.135-3.799-2.78-5.65c-0.884-2.538-1.986-5.698-5.454-6.424c-3.49-0.731-6.038,1.998-6.872,2.895
	c-1.737,1.874-3.639,3.562-5.65,5.35c-2.947,2.622-5.997,5.332-9.022,9.002c-0.079,0.096-0.148,0.179-0.226,0.274V600V86.981z
	 M733.874,354.358l0.788-5.963l7.133-3.386l-1.235,7.741L733.874,354.358z M453.234,352.75l-1.235-7.741l7.133,3.386l0.788,5.963
	L453.234,352.75z M312.3,935.94c0.754,0.476,1.618,0.763,2.528,0.763c0.137,0,0.273-0.006,0.41-0.019
	c5.457-0.472,11.16-1.648,17.02-3.368c2.944,30.892,6.66,65.274,11.961,93.742H312.3V935.94z M855.878,1027.058
	c5.561-30.727,9.597-70.622,11.851-93.975c6.165,1.864,12.153,3.106,17.879,3.602c0.136,0.012,0.273,0.019,0.41,0.019
	c0.582,0,1.141-0.135,1.674-0.337l0.009,90.692H855.878z M527.835,544.619c0.245-0.62,6.242-15.173,27.048-15.173
	c20.744,0,27.036,14.495,27.293,15.113c1.015,2.429-0.13,5.22-2.56,6.235c-0.599,0.25-1.222,0.369-1.834,0.369
	c-1.849,0-3.605-1.083-4.381-2.882c-0.119-0.265-1.491-3.141-5.138-5.626c-1.461,5.71-6.617,9.964-12.789,9.964
	c-6.385,0-11.727-4.533-12.966-10.542c-4.247,2.585-5.74,5.882-5.835,6.108c-1.03,2.395-3.801,3.56-6.211,2.563
	C528.055,549.754,526.877,547.042,527.835,544.619z M618.973,544.559c0.258-0.617,6.549-15.113,27.29-15.113
	c20.939,0,26.378,14.712,26.598,15.338c0.878,2.482-0.422,5.205-2.904,6.081c-0.524,0.186-1.061,0.275-1.589,0.275
	c-1.964,0-3.801-1.222-4.493-3.18c-0.071-0.18-1.355-3.284-5.264-5.795c-1.276,5.963-6.59,10.453-12.942,10.453
	c-6.173,0-11.328-4.255-12.787-9.966c-3.685,2.511-5.044,5.422-5.139,5.635c-1.07,2.378-3.872,3.483-6.255,2.453
	C619.098,549.703,617.968,546.965,618.973,544.559z M577.898,590.26c2.035-2.431,6.094-3.213,9.14-3.439
	c0.847-0.068,1.688,0.099,2.448,0.472c3.152,1.54,8.693,3.709,11.141,3.709c2.721,0,7.933-2.048,10.031-3.039
	c0.295-0.14,0.605-0.248,0.925-0.324c1.768-0.425,6.214-1.182,9.286,0.914c1.533,1.046,2.519,2.628,2.774,4.458
	c0.366,2.606-1.452,5.015-4.058,5.378c-1.682,0.248-3.317-0.451-4.337-1.686c-0.335,0.023-0.711,0.068-1.061,0.127
	c-2.026,0.915-8.613,3.703-13.558,3.703c-4.589,0-11.089-2.716-14.039-4.069c-0.751,0.116-1.477,0.276-1.871,0.42
	c-1.737,1.548-4.387,1.626-6.224,0.09C576.477,595.284,576.211,592.279,577.898,590.26z M613.063,654.233
	c-0.97,0.307-1.946,0.556-2.921,0.773c0.795,3.938,1.945,7.511,2.871,8.709c2.169,0.656,3.621,2.788,3.348,5.115
	c-0.285,2.426-2.346,4.21-4.728,4.21c-0.186,0-0.372-0.011-0.562-0.033c-6.135-0.72-9.073-8.99-10.481-17.037
	c-0.66-0.003-1.302-0.023-1.932-0.05c-1.404,8.062-4.343,16.365-10.493,17.087c-0.189,0.022-0.375,0.033-0.562,0.033
	c-2.383,0-4.443-1.784-4.728-4.21c-0.273-2.327,1.182-4.46,3.348-5.116c0.953-1.228,2.137-4.963,2.933-9.024
	c-0.968-0.216-1.603-0.387-1.711-0.417c-2.532-0.723-3.996-3.362-3.273-5.892c0.723-2.529,3.363-3.999,5.883-3.275
	c0.149,0.04,10.85,2.974,20.136,0.04c2.516-0.8,5.191,0.6,5.982,3.109C616.963,650.764,615.573,653.44,613.063,654.233z
	 M555.349,629.994c0.897-2.476,3.627-3.757,6.103-2.857c14.339,5.19,31.371,1.244,36.368-0.122c0.791-0.461,1.702-0.688,2.639-0.637
	c1.007-0.069,1.981,0.188,2.813,0.7c4.762,1.378,20.427,5.162,34.516,0.058c2.473-0.89,5.206,0.382,6.103,2.857
	c0.897,2.474-0.382,5.208-2.857,6.103c-6.528,2.364-13.214,3.169-19.289,3.169c-9.698,0-17.826-2.046-21.313-3.079
	c-3.656,1.012-12.364,3.079-22.511,3.079c-6.317,0-13.183-0.804-19.714-3.169C555.73,635.202,554.452,632.469,555.349,629.994z
	 M565.305,710.354c-0.912,1.409-2.445,2.176-4.005,2.176c-0.887,0-1.784-0.247-2.584-0.765
	c-30.154-19.504-36.766-77.653-37.032-80.119c-0.282-2.615,1.607-4.966,4.223-5.25c2.634-0.289,4.967,1.609,5.253,4.224
	c0.062,0.558,6.391,56.104,32.732,73.143C566.102,705.193,566.732,708.144,565.305,710.354z M596.712,707.669
	c-0.661,2.006-2.522,3.278-4.527,3.278c-0.493,0-0.996-0.078-1.489-0.24c-36.294-11.939-40.827-57.137-41.004-59.056
	c-0.239-2.619,1.691-4.933,4.306-5.175c2.631-0.242,4.939,1.683,5.184,4.303c0.04,0.408,4.179,40.904,34.491,50.875
	C596.176,702.475,597.535,705.168,596.712,707.669z M678.127,631.646c-0.267,2.467-6.878,60.615-37.032,80.119
	c-0.8,0.518-1.697,0.765-2.584,0.765c-1.561,0-3.093-0.768-4.005-2.176c-1.427-2.211-0.797-5.161,1.415-6.59
	c26.381-17.067,32.67-72.583,32.732-73.142c0.282-2.617,2.612-4.514,5.25-4.226C676.52,626.679,678.409,629.031,678.127,631.646z
	 M650.114,651.65c-0.177,1.919-4.707,47.117-41.001,59.056c-0.493,0.163-0.996,0.24-1.489,0.24c-2.004,0-3.866-1.272-4.527-3.278
	c-0.822-2.501,0.537-5.194,3.037-6.016c30.309-9.97,34.448-50.467,34.488-50.875c0.242-2.62,2.6-4.541,5.181-4.303
	C648.423,646.717,650.353,649.032,650.114,651.65z M546.149,414.744c0,6.29-5.099,11.39-11.39,11.39
	c-6.29,0-11.39-5.099-11.39-11.39c0-6.29,5.099-11.39,11.39-11.39C541.05,403.354,546.149,408.453,546.149,414.744z
	 M650.528,414.744c0-6.29,5.099-11.39,11.39-11.39c6.29,0,11.39,5.099,11.39,11.39c0,6.29-5.099,11.39-11.39,11.39
	C655.627,426.133,650.528,421.034,650.528,414.744z M597.903,415.411c-6.29,0-11.39-5.099-11.39-11.39
	c0-6.29,5.099-11.39,11.39-11.39c6.291,0,11.39,5.099,11.39,11.39C609.293,410.312,604.194,415.411,597.903,415.411z
	 M641.262,864.562c-0.825,1.691-2.522,2.674-4.285,2.674c-0.701,0-1.415-0.155-2.088-0.484
	c-85.765-41.872-125.642-100.337-127.299-102.804c-1.464-2.187-0.881-5.144,1.303-6.612c2.181-1.461,5.141-0.884,6.612,1.3
	c0.394,0.583,40.244,58.871,123.566,99.552C641.436,859.343,642.417,862.197,641.262,864.562z M512.626,506.434
	c0.347-0.093,25.928-7.229,62.653-40.116c1.961-1.761,4.977-1.587,6.729,0.372c1.756,1.961,1.592,4.973-0.369,6.729
	c-38.733,34.682-65.477,41.942-66.597,42.234c-0.403,0.105-0.81,0.157-1.207,0.157c-2.116,0-4.049-1.421-4.607-3.563
	C508.565,509.703,510.085,507.104,512.626,506.434z M475.439,527.772c14.247-66.48,78.756-77.378,79.404-77.481
	c2.612-0.4,5.039,1.368,5.448,3.967c0.41,2.598-1.362,5.035-3.959,5.448c-2.392,0.383-58.723,10.096-71.573,70.064
	c-0.481,2.237-2.457,3.768-4.654,3.768c-0.332,0-0.667-0.036-1.005-0.107C476.528,532.879,474.887,530.346,475.439,527.772z
	 M431.478,631.397l-0.679-0.543c-2.746-2.198-4.356-5.315-4.657-9.011c-1.098-13.543,16.472-33.444,18.479-35.669
	c1.762-1.958,4.778-2.11,6.726-0.346c1.955,1.761,2.11,4.775,0.351,6.729c-6.519,7.234-16.639,21.374-16.056,28.516
	c0.112,1.365,0.624,1.948,1.114,2.338l0.676,0.541c14.902,11.912,30.309,24.231,10.164,58.221c-0.89,1.502-2.476,2.336-4.102,2.336
	c-0.828,0-1.663-0.214-2.426-0.665c-2.265-1.342-3.013-4.266-1.669-6.529C455.319,650.453,446.346,643.279,431.478,631.397z
	 M487.517,602.966c2.485,0.864,3.798,3.58,2.935,6.067c-3.301,9.488,1.309,13.059,1.359,13.091c2.153,1.513,2.674,4.485,1.16,6.64
	c-0.928,1.32-2.405,2.026-3.903,2.026c-0.946,0-1.902-0.281-2.736-0.866c-0.434-0.306-10.577-7.662-4.883-24.025
	C482.314,603.416,485.023,602.093,487.517,602.966z M619.315,473.418c-1.961-1.754-2.125-4.769-0.369-6.728
	c1.753-1.959,4.759-2.135,6.729-0.371c36.79,32.948,62.402,40.048,62.657,40.116c2.538,0.676,4.055,3.281,3.385,5.822
	c-0.565,2.136-2.488,3.552-4.598,3.552c-0.4,0-0.804-0.051-1.207-0.155C684.792,515.362,658.044,508.102,619.315,473.418z
	 M640.66,454.258c0.41-2.602,2.876-4.368,5.448-3.967c0.648,0.102,65.16,11,79.407,77.481c0.552,2.574-1.089,5.107-3.661,5.659
	c-0.338,0.071-0.673,0.107-1.005,0.107c-2.197,0-4.173-1.531-4.654-3.768c-12.891-60.154-70.984-69.971-71.57-70.062
	C642.026,459.298,640.251,456.858,640.66,454.258z M748.208,594.982c-1.883-1.838-1.917-4.856-0.081-6.737
	c1.843-1.882,4.859-1.917,6.739-0.084c2.1,2.051,20.524,20.418,19.875,33.578c-0.18,3.708-1.768,6.86-4.586,9.115
	c-1.064,0.852-2.128,1.683-3.177,2.507c-14.111,11.062-22.627,17.739-7.713,42.909c1.343,2.265,0.596,5.188-1.669,6.529
	c-0.763,0.451-1.598,0.666-2.426,0.666c-1.626,0-3.214-0.835-4.102-2.336c-19.18-32.366-4.331-44.01,10.031-55.269
	c1.024-0.804,2.063-1.616,3.103-2.448c0.493-0.396,0.962-0.929,1.021-2.139C765.536,614.911,755.462,602.07,748.208,594.982z
	 M716.075,601.297c7.809,13.65,2.274,24.935-1.744,28.997c-0.934,0.942-2.159,1.413-3.388,1.413c-1.21,0-2.423-0.459-3.351-1.378
	c-1.858-1.84-1.886-4.831-0.071-6.703c0.686-0.732,6.239-7.179,0.282-17.598c-1.306-2.283-0.515-5.195,1.768-6.503
	C711.862,598.224,714.769,599.013,716.075,601.297z M563.338,160.227c-1.024-1.022-1.533-2.268-1.533-3.737v-39.397
	c0-1.446,0.509-2.679,1.533-3.703c1.024-1.044,2.271-1.567,3.735-1.567c1.446,0,2.681,0.523,3.705,1.567
	c1.024,1.024,1.533,2.257,1.533,3.703v39.397c0,1.469-0.509,2.715-1.533,3.737c-1.024,1.022-2.259,1.534-3.705,1.534
	C565.609,161.761,564.362,161.249,563.338,160.227z M586.123,119.495c-0.645-1.311-0.735-2.656-0.267-4.036
	c0.444-1.378,1.309-2.389,2.6-3.034c1.312-0.645,2.656-0.735,4.036-0.267c1.381,0.444,2.392,1.323,3.037,2.634l15.01,29.957
	l15.01-30.024c0.645-1.289,1.657-2.167,3.037-2.634c1.381-0.445,2.715-0.346,4.002,0.299c1.291,0.645,2.169,1.657,2.634,3.036
	c0.469,1.379,0.369,2.713-0.298,4.002l-19.683,39.431c-0.447,0.89-1.089,1.59-1.936,2.102c-0.844,0.534-1.768,0.8-2.768,0.8
	c-0.999,0-1.924-0.267-2.767-0.8c-0.847-0.512-1.489-1.212-1.936-2.102L586.123,119.495z M355.633,387.862
	c0-2.428,1.969-4.397,4.397-4.397c5.617,0,10.188-4.571,10.188-10.188c0-2.428,1.969-4.397,4.396-4.397
	c2.429,0,4.397,1.969,4.397,4.397c0,5.618,4.57,10.188,10.189,10.188c2.428,0,4.397,1.969,4.397,4.397
	c0,2.428-1.969,4.397-4.397,4.397c-5.618,0-10.189,4.57-10.189,10.188c0,2.428-1.969,4.397-4.397,4.397
	c-2.428,0-4.396-1.969-4.396-4.397c0-5.618-4.571-10.188-10.188-10.188C357.601,392.258,355.633,390.29,355.633,387.862z
	 M465.12,238.77c0-2.428,1.969-4.397,4.396-4.397c5.618,0,10.188-4.571,10.188-10.188c0-2.428,1.969-4.397,4.397-4.397
	c2.428,0,4.397,1.969,4.397,4.397c0,5.618,4.57,10.188,10.189,10.188c2.428,0,4.396,1.969,4.396,4.397
	c0,2.428-1.969,4.397-4.396,4.397c-5.619,0-10.189,4.57-10.189,10.188c0,2.428-1.969,4.397-4.397,4.397
	c-2.428,0-4.397-1.969-4.397-4.397c0-5.618-4.57-10.188-10.188-10.188C467.088,243.166,465.12,241.198,465.12,238.77z
	 M696.058,238.77c0-2.428,1.969-4.397,4.397-4.397c5.617,0,10.188-4.571,10.188-10.188c0-2.428,1.969-4.397,4.397-4.397
	s4.397,1.969,4.397,4.397c0,5.618,4.571,10.188,10.189,10.188c2.429,0,4.397,1.969,4.397,4.397c0,2.428-1.969,4.397-4.397,4.397
	c-5.618,0-10.189,4.57-10.189,10.188c0,2.428-1.969,4.397-4.397,4.397s-4.397-1.969-4.397-4.397c0-5.618-4.571-10.188-10.188-10.188
	C698.027,243.166,696.058,241.198,696.058,238.77z M806.264,387.862c0-2.428,1.969-4.397,4.397-4.397
	c5.617,0,10.188-4.571,10.188-10.188c0-2.428,1.969-4.397,4.397-4.397c2.428,0,4.397,1.969,4.397,4.397
	c0,5.618,4.57,10.188,10.189,10.188c2.428,0,4.396,1.969,4.396,4.397c0,2.428-1.969,4.397-4.396,4.397
	c-5.619,0-10.189,4.57-10.189,10.188c0,2.428-1.969,4.397-4.397,4.397c-2.428,0-4.397-1.969-4.397-4.397
	c0-5.618-4.57-10.188-10.188-10.188C808.233,392.258,806.264,390.29,806.264,387.862z M356.936,1062.01
	c1.024,1.024,1.536,2.259,1.536,3.704s-0.512,2.681-1.536,3.701c-1.042,1.024-2.29,1.536-3.736,1.536h-11.175v34.159
	c0,1.468-0.512,2.715-1.533,3.735c-1.024,1.024-2.259,1.536-3.704,1.536s-2.693-0.512-3.736-1.536
	c-1.024-1.021-1.533-2.268-1.533-3.735v-34.159h-11.144c-1.468,0-2.712-0.512-3.736-1.536c-1.024-1.021-1.533-2.256-1.533-3.701
	s0.509-2.681,1.533-3.704c1.024-1.042,2.268-1.567,3.736-1.567H353.2C354.646,1060.443,355.893,1060.967,356.936,1062.01z
	 M408.879,1062.01c1.021,1.024,1.533,2.259,1.533,3.704v39.397c0,1.468-0.512,2.715-1.533,3.735
	c-1.049,1.024-2.293,1.536-3.739,1.536s-2.681-0.512-3.701-1.536c-1.024-1.021-1.536-2.268-1.536-3.735v-14.446h-22.351v14.446
	c0,1.468-0.512,2.715-1.536,3.735c-1.021,1.024-2.256,1.536-3.701,1.536c-1.468,0-2.715-0.512-3.736-1.536
	c-1.024-1.021-1.536-2.268-1.536-3.735v-39.397c0-1.446,0.512-2.681,1.536-3.704c1.021-1.042,2.268-1.567,3.736-1.567
	c1.446,0,2.681,0.524,3.701,1.567c1.024,1.024,1.536,2.259,1.536,3.704v14.443h22.351v-14.443c0-1.446,0.512-2.681,1.536-3.704
	c1.021-1.042,2.256-1.567,3.701-1.567S407.831,1060.967,408.879,1062.01z M433.427,1070.951v9.205h21.017
	c1.446,0,2.693,0.512,3.736,1.536c1.024,1.024,1.539,2.268,1.539,3.736c0,1.446-0.515,2.681-1.539,3.704
	c-1.042,1.024-2.29,1.533-3.736,1.533h-21.017v9.208h27.588c1.446,0,2.693,0.512,3.739,1.533c1.021,1.024,1.536,2.259,1.536,3.704
	c0,1.468-0.515,2.715-1.536,3.735c-1.046,1.024-2.293,1.536-3.739,1.536H428.19c-1.464,0-2.712-0.512-3.736-1.536
	c-1.024-1.021-1.533-2.268-1.533-3.735v-39.397c0-1.446,0.509-2.681,1.533-3.704c1.024-1.042,2.271-1.567,3.736-1.567h32.825
	c1.446,0,2.693,0.524,3.739,1.567c1.021,1.024,1.536,2.259,1.536,3.704s-0.515,2.681-1.536,3.701
	c-1.046,1.024-2.293,1.536-3.739,1.536H433.427z M517.556,1070.951v9.205h21.017c1.446,0,2.693,0.512,3.735,1.536
	c1.024,1.024,1.539,2.268,1.539,3.736c0,1.446-0.515,2.681-1.539,3.704c-1.042,1.024-2.29,1.533-3.735,1.533h-21.017v9.208h27.588
	c1.446,0,2.693,0.512,3.739,1.533c1.021,1.024,1.536,2.259,1.536,3.704c0,1.468-0.515,2.715-1.536,3.735
	c-1.046,1.024-2.293,1.536-3.739,1.536h-32.825c-1.464,0-2.712-0.512-3.736-1.536c-1.024-1.021-1.533-2.268-1.533-3.735v-39.397
	c0-1.446,0.509-2.681,1.533-3.704c1.024-1.042,2.271-1.567,3.736-1.567h32.825c1.446,0,2.693,0.524,3.739,1.567
	c1.021,1.024,1.536,2.259,1.536,3.704s-0.515,2.681-1.536,3.701c-1.046,1.024-2.293,1.536-3.739,1.536H517.556z M609.331,1062.779
	c0.599,0.887,0.9,1.868,0.9,2.935v39.397c0,1.468-0.524,2.715-1.57,3.735c-1.024,1.024-2.259,1.536-3.704,1.536
	s-2.678-0.512-3.698-1.536c-1.024-1.021-1.539-2.268-1.539-3.735v-26.719l-10.741,10.741c-1.021,1.024-2.265,1.533-3.736,1.533
	c-1.446,0-2.681-0.509-3.701-1.533l-10.744-10.741v26.719c0,1.468-0.509,2.715-1.533,3.735c-1.024,1.024-2.259,1.536-3.704,1.536
	c-1.464,0-2.712-0.512-3.735-1.536c-1.024-1.021-1.533-2.268-1.533-3.735v-39.397c0-1.067,0.298-2.048,0.9-2.935
	c0.577-0.869,1.359-1.514,2.336-1.936c0.977-0.4,1.989-0.5,3.034-0.301c1.046,0.223,1.945,0.714,2.702,1.468l15.978,15.981
	l16.016-15.981c0.754-0.754,1.644-1.244,2.668-1.468c1.042-0.198,2.054-0.099,3.034,0.301
	C607.959,1061.265,608.75,1061.91,609.331,1062.779z M647.66,1060.443h-19.683c-1.471,0-2.715,0.524-3.736,1.567
	c-1.024,1.024-1.536,2.259-1.536,3.704v39.397c0,1.468,0.512,2.715,1.536,3.735c1.021,1.024,2.265,1.536,3.736,1.536
	c1.446,0,2.681-0.512,3.701-1.536c1.021-1.021,1.536-2.268,1.536-3.735v-7.874h14.446c5.07,0,9.407-1.799,13.006-5.402
	c3.605-3.58,5.405-7.908,5.405-12.978s-1.799-9.407-5.405-13.009C657.067,1062.245,652.729,1060.443,647.66,1060.443z
	 M653.229,1084.429c-1.536,1.533-3.391,2.302-5.569,2.302h-14.446v-15.78h14.446c2.178,0,4.033,0.779,5.569,2.336
	c1.554,1.533,2.336,3.391,2.336,5.569C655.565,1081.013,654.783,1082.871,653.229,1084.429z M686.451,1070.951v9.205h21.017
	c1.446,0,2.69,0.512,3.735,1.536c1.024,1.024,1.536,2.268,1.536,3.736c0,1.446-0.512,2.681-1.536,3.704
	c-1.046,1.024-2.29,1.533-3.735,1.533h-21.017v9.208h27.588c1.446,0,2.69,0.512,3.739,1.533c1.021,1.024,1.533,2.259,1.533,3.704
	c0,1.468-0.512,2.715-1.533,3.735c-1.049,1.024-2.293,1.536-3.739,1.536h-32.825c-1.468,0-2.715-0.512-3.736-1.536
	c-1.024-1.021-1.536-2.268-1.536-3.735v-39.397c0-1.446,0.512-2.681,1.536-3.704c1.021-1.042,2.268-1.567,3.736-1.567h32.825
	c1.446,0,2.69,0.524,3.739,1.567c1.021,1.024,1.533,2.259,1.533,3.704s-0.512,2.681-1.533,3.701
	c-1.049,1.024-2.293,1.536-3.739,1.536H686.451z M770.181,1087.829c1.582-2.78,2.37-5.771,2.37-8.973
	c0-5.07-1.799-9.407-5.405-13.009c-3.602-3.602-7.939-5.405-13.009-5.405h-19.683c-1.468,0-2.715,0.524-3.736,1.567
	c-1.024,1.024-1.536,2.259-1.536,3.704v39.397c0,1.468,0.512,2.715,1.536,3.735c1.021,1.024,2.268,1.536,3.736,1.536
	c1.446,0,2.681-0.512,3.701-1.536c1.024-1.021,1.536-2.268,1.536-3.735v-7.874h12.277l11.61,11.61
	c1.021,1.024,2.256,1.536,3.701,1.536s2.69-0.512,3.739-1.536c1.021-1.021,1.533-2.268,1.533-3.735c0-1.446-0.512-2.681-1.533-3.704
	l-7.043-7.037C766.6,1092.7,768.67,1090.522,770.181,1087.829z M759.706,1084.429c-1.533,1.533-3.391,2.302-5.569,2.302h-14.446
	v-15.78h14.446c2.178,0,4.036,0.779,5.569,2.336c1.557,1.533,2.336,3.391,2.336,5.569
	C762.043,1081.013,761.264,1082.871,759.706,1084.429z M804.743,1060.443c-6.875,0-12.758,2.448-17.647,7.338
	c-4.871,4.871-7.307,10.754-7.307,17.647c0,6.872,2.436,12.755,7.307,17.647c4.89,4.871,10.772,7.307,17.647,7.307
	c6.894,0,12.776-2.436,17.644-7.307c4.893-4.893,7.338-10.775,7.338-17.647c0-6.894-2.445-12.776-7.338-17.647
	C817.52,1062.891,811.637,1060.443,804.743,1060.443z M814.982,1095.635c-2.848,2.826-6.261,4.238-10.239,4.238
	c-3.984,0-7.384-1.412-10.207-4.238c-2.826-2.823-4.238-6.227-4.238-10.207c0-3.981,1.412-7.381,4.238-10.208
	c2.823-2.845,6.224-4.269,10.207-4.269c3.977,0,7.39,1.424,10.239,4.269c2.823,2.826,4.238,6.227,4.238,10.208
	C819.22,1089.408,817.805,1092.812,814.982,1095.635z M880.601,1087.829c1.576-2.78,2.367-5.771,2.367-8.973
	c0-5.07-1.803-9.407-5.405-13.009c-3.602-3.602-7.94-5.405-13.009-5.405h-19.683c-1.468,0-2.712,0.524-3.735,1.567
	c-1.024,1.024-1.533,2.259-1.533,3.704v39.397c0,1.468,0.509,2.715,1.533,3.735c1.024,1.024,2.268,1.536,3.735,1.536
	c1.446,0,2.681-0.512,3.704-1.536c1.021-1.021,1.533-2.268,1.533-3.735v-7.874h12.277l11.607,11.61
	c1.024,1.024,2.259,1.536,3.704,1.536s2.693-0.512,3.736-1.536c1.024-1.021,1.536-2.268,1.536-3.735
	c0-1.446-0.512-2.681-1.536-3.704l-7.037-7.037C877.021,1092.7,879.087,1090.522,880.601,1087.829z M870.127,1084.429
	c-1.536,1.533-3.394,2.302-5.572,2.302h-14.446v-15.78h14.446c2.178,0,4.036,0.779,5.572,2.336c1.554,1.533,2.333,3.391,2.333,5.569
	C872.46,1081.013,871.681,1082.871,870.127,1084.429z M342.087,812.19c-0.174-0.639-4.102-15.739,7.592-24.085
	c8.296-5.92,13.003-2.485,14.241-1.281c2.864,2.761,3.087,7.381,0.543,11.231c-4.635,7.021-18.789,15.662-19.388,16.028
	c-0.258,0.155-0.543,0.23-0.822,0.23c-0.537,0-1.061-0.273-1.362-0.763c-0.09-0.152-0.155-0.316-0.192-0.481
	C342.41,812.863,342.186,812.559,342.087,812.19z M836.387,798.055c-2.544-3.853-2.321-8.473,0.543-11.234
	c1.238-1.195,5.932-4.641,14.238,1.284c11.694,8.346,7.769,23.446,7.595,24.085c-0.099,0.369-0.323,0.673-0.611,0.878
	c-0.037,0.164-0.099,0.326-0.192,0.481c-0.301,0.49-0.822,0.763-1.359,0.763c-0.282,0-0.568-0.074-0.825-0.23
	C855.176,813.716,841.019,805.076,836.387,798.055z"/>
</svg>
