<?xml version="1.0" encoding="utf-8"?>
<!-- Generator: Adobe Illustrator 23.0.3, SVG Export Plug-In . SVG Version: 6.00 Build 0)  -->
<svg version="1.1" id="Capa_1" xmlns="http://www.w3.org/2000/svg" xmlns:xlink="http://www.w3.org/1999/xlink" x="0px" y="0px"
	 viewBox="0 0 1200 1200" enable-background="new 0 0 1200 1200" xml:space="preserve">
<path fill="#2E2E2E" d="M484.884,1064.5h-13.108c-1.468,0-2.715,0.524-3.736,1.567c-1.024,1.024-1.536,2.259-1.536,3.704v39.396
	c0,1.468,0.512,2.715,1.536,3.735c1.021,1.024,2.268,1.536,3.736,1.536h13.108c6.894,0,12.776-2.435,17.647-7.307
	c4.893-4.893,7.341-10.775,7.341-17.647c0-6.894-2.448-12.776-7.341-17.647C497.66,1066.948,491.778,1064.5,484.884,1064.5z
	 M495.125,1099.692c-2.823,2.826-6.236,4.238-10.242,4.238h-7.871v-28.922h7.871c4.005,0,7.418,1.424,10.242,4.269
	c2.826,2.827,4.238,6.227,4.238,10.208S497.952,1096.869,495.125,1099.692z M534.922,1075.008v9.205h21.017
	c1.446,0,2.69,0.512,3.735,1.536c1.024,1.024,1.536,2.268,1.536,3.735c0,1.446-0.512,2.681-1.536,3.704
	c-1.046,1.024-2.29,1.533-3.735,1.533h-21.017v9.208h27.588c1.446,0,2.693,0.512,3.739,1.533c1.021,1.024,1.533,2.259,1.533,3.704
	c0,1.468-0.512,2.715-1.533,3.735c-1.046,1.024-2.293,1.536-3.739,1.536h-32.825c-1.468,0-2.712-0.512-3.736-1.536
	c-1.024-1.021-1.533-2.268-1.533-3.735v-39.396c0-1.446,0.509-2.681,1.533-3.704c1.024-1.042,2.268-1.567,3.736-1.567h32.825
	c1.446,0,2.693,0.524,3.739,1.567c1.021,1.024,1.533,2.259,1.533,3.704s-0.512,2.681-1.533,3.701
	c-1.046,1.024-2.293,1.536-3.739,1.536H534.922z M608.044,1067.401c-0.444-0.887-1.089-1.601-1.933-2.135
	c-0.847-0.512-1.768-0.766-2.771-0.766c-0.999,0-1.924,0.255-2.768,0.766c-0.847,0.534-1.489,1.247-1.936,2.135l-19.714,39.431
	c-0.645,1.291-0.735,2.625-0.267,4.005c0.444,1.378,1.322,2.389,2.634,3.034c1.291,0.645,2.625,0.735,4.002,0.267
	c1.381-0.444,2.392-1.322,3.037-2.634l3.469-6.941h23.052l3.503,6.941c0.444,0.912,1.101,1.632,1.967,2.166
	c0.844,0.512,1.756,0.769,2.737,0.769c0.822,0,1.601-0.189,2.333-0.568c1.291-0.645,2.169-1.657,2.637-3.034
	c0.465-1.381,0.366-2.715-0.301-4.005L608.044,1067.401z M597.07,1094.055l6.27-12.541l6.273,12.541H597.07z M668.693,1066.066
	c1.021,1.024,1.533,2.259,1.533,3.704s-0.512,2.681-1.533,3.701c-1.046,1.024-2.293,1.536-3.739,1.536h-11.175v34.159
	c0,1.468-0.512,2.715-1.533,3.735c-1.024,1.024-2.259,1.536-3.704,1.536s-2.69-0.512-3.735-1.536
	c-1.024-1.021-1.533-2.268-1.533-3.735v-34.159h-11.144c-1.467,0-2.712-0.512-3.735-1.536c-1.024-1.021-1.533-2.255-1.533-3.701
	s0.509-2.681,1.533-3.704c1.024-1.042,2.268-1.567,3.735-1.567h32.825C666.4,1064.5,667.647,1065.024,668.693,1066.066z
	 M725.302,1066.066c1.021,1.024,1.533,2.259,1.533,3.704v39.396c0,1.468-0.512,2.715-1.533,3.735
	c-1.046,1.024-2.293,1.536-3.739,1.536s-2.681-0.512-3.701-1.536c-1.024-1.021-1.536-2.268-1.536-3.735v-14.446h-22.351v14.446
	c0,1.468-0.512,2.715-1.533,3.735c-1.024,1.024-2.259,1.536-3.704,1.536c-1.468,0-2.712-0.512-3.736-1.536
	c-1.024-1.021-1.533-2.268-1.533-3.735v-39.396c0-1.446,0.509-2.681,1.533-3.704c1.024-1.042,2.268-1.567,3.736-1.567
	c1.446,0,2.681,0.524,3.704,1.567c1.021,1.024,1.533,2.259,1.533,3.704v14.443h22.351v-14.443c0-1.446,0.512-2.681,1.536-3.704
	c1.021-1.042,2.256-1.567,3.701-1.567S724.257,1065.024,725.302,1066.066z M911.797,60.831C904.813,53.847,895.525,50,885.648,50
	H600H314.352c-9.879,0-19.165,3.847-26.149,10.832c-6.985,6.984-10.831,16.271-10.831,26.149V600v513.019
	c0,9.878,3.847,19.165,10.831,26.15c6.984,6.984,16.271,10.831,26.149,10.831H600h285.647c9.878,0,19.165-3.847,26.15-10.831
	c6.985-6.985,10.831-16.272,10.831-26.15V600V86.981C922.628,77.103,918.782,67.816,911.797,60.831z M913.097,600v513.019
	c0,7.58-3.072,14.443-8.04,19.41c-4.968,4.968-11.83,8.04-19.41,8.04H600H314.352c-7.58,0-14.442-3.072-19.41-8.04
	c-4.968-4.967-8.04-11.83-8.04-19.41V600V86.981c0-7.58,3.072-14.442,8.04-19.41c4.967-4.968,11.83-8.04,19.41-8.04H600h285.647
	c7.58,0,14.443,3.072,19.41,8.04c4.967,4.967,8.04,11.83,8.04,19.41V600z M897.214,833.464L897.192,600V265.913v-6.11V86.981
	c0-3.089-1.203-5.993-3.387-8.177c-2.184-2.184-5.088-3.387-8.177-3.387H599.98H314.333c-3.089,0-5.993,1.203-8.177,3.387
	c-2.185,2.185-3.388,5.089-3.388,8.178V600v428.592c0.083,4.429,3.685,7.997,8.134,7.997h577.919c4.501,0,8.411-3.911,8.411-8.411
	l-0.018-193.125V833.464z M887.666,650.716l-23.607-6.572c-2.535-0.707-4.018-3.335-3.314-5.87c0.704-2.538,3.338-4.012,5.87-3.314
	l21.049,5.86L887.666,650.716z M419.635,587.764c2.786,5.409,6.184,10.183,10.256,14.111c2.487,2.398,5.51,4.785,9.123,6.837
	l-61.984,21.297C385.539,614.546,407.813,596.3,419.635,587.764z M387.512,420.122c0-5.618-4.571-10.188-10.189-10.188
	c-2.428,0-4.397-1.969-4.397-4.397c0-2.428,1.969-4.397,4.397-4.397c5.618,0,10.189-4.571,10.189-10.188
	c0-2.428,1.969-4.397,4.397-4.397s4.397,1.969,4.397,4.397c0,5.618,4.571,10.188,10.188,10.188c2.428,0,4.397,1.969,4.397,4.397
	c0,2.428-1.969,4.397-4.397,4.397c-5.617,0-10.188,4.57-10.188,10.188c0,2.428-1.969,4.397-4.397,4.397
	S387.512,422.55,387.512,420.122z M499.392,301.031c-5.617,0-10.188,4.57-10.188,10.188c0,2.428-1.969,4.397-4.396,4.397
	c-2.429,0-4.397-1.969-4.397-4.397c0-5.618-4.571-10.188-10.189-10.188c-2.428,0-4.397-1.969-4.397-4.397
	c0-2.428,1.969-4.397,4.397-4.397c5.618,0,10.189-4.571,10.189-10.189c0-2.428,1.969-4.397,4.397-4.397
	c2.428,0,4.396,1.969,4.396,4.397c0,5.618,4.571,10.189,10.188,10.189c2.429,0,4.397,1.969,4.397,4.397
	C503.789,299.062,501.821,301.031,499.392,301.031z M515.659,393.782c-6.016,9.217-8.387,18.69-9.295,26.432l-38.743-45.197
	C498.517,377.99,511.48,389.088,515.659,393.782z M501.111,428.73c-1.839-0.348-3.758-0.615-5.839-0.706
	c-6.84-0.296-14.494,0.035-22.401,2.25c-11.33-16.171-13.33-37.663-13.395-50.116L501.111,428.73z M494.855,437.549
	c16.372,0.711,20.95,12.288,22.053,16.311c-0.053,0.046-0.105,0.086-0.158,0.132c-25.32,21.945-35.363,41.289-29.853,57.5
	c2.59,7.62,8.334,13.26,14.874,17.293c-8.914,3.529-20.741,10.347-27.446,23.062c-7.297,13.847-6.687,31.146,1.764,51.47
	c-16.188,3.945-29.797,1.131-39.581-8.307c-17.058-16.45-20.983-50.392-10.242-88.582
	C443.967,443.503,472.231,436.569,494.855,437.549z M741.762,365.495c0.008,0.177,0.016,0.402,0.024,0.588
	c-1.622-0.249-3.327,0.326-4.432,1.695l-42.01,52.011c-0.57-6.439-2.322-14.614-6.695-22.895
	C695.666,390.179,719.978,368.301,741.762,365.495z M704.431,296.634c0-2.428,1.969-4.397,4.397-4.397
	c5.617,0,10.188-4.571,10.188-10.189c0-2.428,1.969-4.397,4.396-4.397c2.429,0,4.397,1.969,4.397,4.397
	c0,5.618,4.571,10.189,10.189,10.189c2.429,0,4.397,1.969,4.397,4.397c0,2.428-1.969,4.397-4.397,4.397
	c-5.618,0-10.189,4.57-10.189,10.188c0,2.428-1.969,4.397-4.397,4.397c-2.428,0-4.396-1.969-4.396-4.397
	c0-5.618-4.571-10.188-10.188-10.188C706.4,301.031,704.431,299.062,704.431,296.634z M741.988,377.209
	c-0.084,15.101-1.724,37.26-9.467,51.747c-10.975-4.583-20.576-5.305-26.78-5.063c-0.542,0.02-1.032,0.089-1.559,0.123
	L741.988,377.209z M706.094,433.417c31.001-1.191,58.76,24.839,75.976,71.31c10.397,28.078,10.434,54.416,0.096,74.161
	c-7.145,13.655-19.018,23.222-33.429,26.957c-5.656-5.423-11.046-9.057-13.829-10.756c0.546-2.05,1.05-4.135,1.508-6.257
	c3.537-16.391,1.346-30.675-6.503-42.459c-8.992-13.501-23.253-20.411-32.565-23.686c7.486-4.944,14.495-11.942,16.347-21.403
	c2.839-14.511-7.158-30.489-29.713-47.494c-1.091-0.822-2.162-1.586-3.238-2.364C681.148,448.741,684.338,434.222,706.094,433.417z
	 M679.968,531.104c1.483-0.512,3.292-1.194,5.303-2.041c0.368,0.175,0.754,0.322,1.174,0.4c0.239,0.043,23.809,4.589,35.537,22.193
	c6.367,9.559,8.088,21.389,5.119,35.165c-7.297,33.824-25.069,52.424-39.446,55.849c-7.313,1.756-13.664-0.382-18.342-6.162
	c-0.378-0.467-0.832-0.832-1.323-1.116c-1.81-5.275-4.537-9.7-7.716-12.42c3.119-9.824,10.263-19.059,10.355-19.178
	c0.472-0.602,0.776-1.288,0.918-1.995c8.455-13.158,12.91-28.32,12.91-44.05C684.457,548.42,682.863,539.461,679.968,531.104z
	 M704.345,499.436c-2.332,11.977-19.003,19.846-28.002,22.849c-13.081-27.012-40.62-45.756-72.499-46.157
	c-0.544-1.814-1.389-4.367-2.57-7.322c1.053-4.285,5.968-20.853,20.073-26.317c13.744-5.318,33.424,1.219,56.895,18.913
	C697.358,475.81,706.383,488.962,704.345,499.436z M602.806,485.633c39.766,0,72.119,32.351,72.119,72.116
	c0,14.802-4.465,29.034-12.91,41.159c-0.316,0.453-0.546,0.946-0.686,1.455c-3.757,5.367-12.032,18.575-12.032,30.778
	c0,2.148-1.564,4.326-4.239,6.382l-0.676-5.849c-0.304-2.615-2.665-4.496-5.281-4.188c-2.615,0.301-4.489,2.668-4.188,5.281
	l1.112,9.63c-2.659,1.07-5.605,2.042-8.769,2.88v-8.861c0-2.631-2.135-4.766-4.766-4.766s-4.766,2.135-4.766,4.766v10.858
	c-2.866,0.454-5.801,0.794-8.768,0.996v-9.568c0-2.631-2.135-4.766-4.766-4.766c-2.631,0-4.766,2.135-4.766,4.766v9.665
	c-2.954-0.151-5.893-0.432-8.768-0.839v-12.31c0-2.631-2.135-4.766-4.766-4.766s-4.766,2.135-4.766,4.766v10.466
	c-3.066-0.753-5.96-1.626-8.605-2.6c0.46-7.432,0.675-11.076,0.675-11.076c0.155-2.628-1.849-4.883-4.474-5.039
	c-2.659-0.146-4.887,1.852-5.039,4.474c0,0.004-0.141,2.387-0.435,7.17c-3.613-2.366-5.77-4.939-5.77-7.471
	c0-9.131-4.62-18.795-8.495-25.292c-0.146-0.245-0.313-0.478-0.503-0.692c-11.476-13.139-17.796-29.974-17.796-47.407
	C530.687,517.984,563.041,485.633,602.806,485.633z M541.012,611.092c1.812,3.071,3.76,6.886,5.137,10.845
	c-2.463,2.944-14.182,15.94-27.91,14.454c-11.374-1.232-21.892-11.991-31.262-31.981c-9.224-19.68-10.654-35.85-4.251-48.059
	c9.208-17.551,32.04-21.563,32.27-21.603c0.016-0.003,0.031-0.01,0.047-0.013c3.228,1.001,6.261,1.664,8.858,2.031
	c-1.783,6.7-2.747,13.73-2.747,20.984C521.156,577.339,528.205,596.265,541.012,611.092z M526.977,527.532
	c-9.067-0.704-26.892-6.847-31.058-19.104c-4.083-12.013,5.281-28.345,27.073-47.231c17.424-15.1,32.509-20.744,44.814-16.8
	c15.26,4.899,23.196,23.452,26.158,32.192C563.467,479.889,537.969,500.05,526.977,527.532z M439.801,618.521
	c-2.712,6.391-5.257,15.304-5.134,25.919c-12.424-1.724-33.15-5.192-47.858-7.712L439.801,618.521z M435.67,788.352
	c5.618,0,10.189-4.571,10.189-10.188c0-2.428,1.969-4.397,4.397-4.397c2.428,0,4.396,1.969,4.396,4.397
	c0,5.618,4.571,10.188,10.188,10.188c2.429,0,4.397,1.969,4.397,4.397s-1.969,4.397-4.397,4.397c-5.617,0-10.188,4.57-10.188,10.188
	c0,2.428-1.969,4.397-4.396,4.397c-2.429,0-4.397-1.969-4.397-4.397c0-5.618-4.57-10.188-10.189-10.188
	c-2.428,0-4.397-1.969-4.397-4.397S433.242,788.352,435.67,788.352z M453.135,613.769c2.897,0.536,5.972,0.882,9.323,0.882
	c5.282,0,11.182-0.806,17.669-2.551c10.533,20.905,23.015,32.273,37.144,33.773c9.329,0.993,17.61-2.529,23.958-6.785
	c-1.613,9.885-1.502,22.509,5.461,33.331c7.029,10.917,19.528,17.694,37.228,20.271c-1.414,5.933,0.742,15.441,5.849,25.035
	c-4.059,6.153-12.969,16.041-29.485,18.729c-15.68,2.563-42.465-0.99-80.8-32.413C422.665,657.47,450.303,617.548,453.135,613.769z
	 M554.729,667.292c-5.537-8.573-5.386-19.117-3.927-27.387c8.266,11.962,32.9,17.778,51.543,18.114
	c0.152,0.016,0.307,0.022,0.462,0.022l0.673-0.006l0.493,0.006c0.155,0,0.31-0.006,0.462-0.022
	c20.595-0.371,48.518-7.424,53.588-22.071c2.486,5.465,3.972,13.557,1.623,21.621c-5.029,17.272-25.671,26.785-58.121,26.785
	C577.784,684.353,562.039,678.613,554.729,667.292z M593.142,694.781c0.23-0.361,0.385-0.744,0.507-1.133
	c2.546,0.144,5.154,0.237,7.876,0.237c50.004,0,63.612-21.085,67.273-33.651c1.022-3.509,1.469-7.126,1.489-10.689
	c3.847,2.109,8.115,3.237,12.624,3.237c2.268,0,4.598-0.276,6.953-0.838c17.611-4.199,33.23-22.188,42.097-47.387
	c7.595,5.114,25.134,19.087,26.598,39.988c1.561,22.292-15.016,46.43-49.272,71.75c-49.576,36.638-79.755,28.395-96.341,15.035
	C596.04,717.715,591.727,697.958,593.142,694.781z M743.38,788.352c5.617,0,10.188-4.571,10.188-10.188
	c0-2.428,1.969-4.397,4.396-4.397c2.429,0,4.397,1.969,4.397,4.397c0,5.618,4.571,10.188,10.189,10.188
	c2.428,0,4.397,1.969,4.397,4.397s-1.969,4.397-4.397,4.397c-5.618,0-10.189,4.57-10.189,10.188c0,2.428-1.969,4.397-4.397,4.397
	c-2.428,0-4.396-1.969-4.396-4.397c0-5.618-4.571-10.188-10.188-10.188c-2.428,0-4.397-1.969-4.397-4.397
	S740.951,788.352,743.38,788.352z M769.126,645.23c-0.346-0.089-0.691-0.13-1.034-0.142c-0.02-0.429,0-0.86-0.031-1.289
	c-0.802-11.196-5.236-20.55-10.677-28.058l65.156,18.269C810.893,640.699,789.317,650.438,769.126,645.23z M766.842,608.493
	c7.266-4.282,13.575-10.05,18.659-17.073c0.294,0.254,0.61,0.487,0.972,0.668c0.326,0.162,28.516,14.47,39.433,32.966
	L766.842,608.493z M798.709,336.818c-0.841,0.602-1.815,0.894-2.777,0.894c-1.483,0-2.944-0.689-3.875-1.986
	c-1.533-2.138-1.046-5.116,1.092-6.652l94.511-67.855v11.736L798.709,336.818z M835.294,405.537c0,2.428-1.969,4.397-4.397,4.397
	c-5.618,0-10.189,4.57-10.189,10.188c0,2.428-1.969,4.397-4.396,4.397c-2.429,0-4.397-1.969-4.397-4.397
	c0-5.618-4.571-10.188-10.188-10.188c-2.428,0-4.396-1.969-4.396-4.397c0-2.428,1.969-4.397,4.396-4.397
	c5.617,0,10.188-4.571,10.188-10.188c0-2.428,1.969-4.397,4.397-4.397c2.428,0,4.396,1.969,4.396,4.397
	c0,5.618,4.571,10.188,10.189,10.188C833.326,401.14,835.294,403.109,835.294,405.537z M822.491,494.444
	c-0.31-2.615,1.561-4.983,4.173-5.29l60.997-7.185v9.594l-59.88,7.053c-0.189,0.025-0.379,0.034-0.565,0.034
	C824.833,498.651,822.776,496.868,822.491,494.444z M837.337,535.604c5.617,0,10.188-4.571,10.188-10.188
	c0-2.428,1.969-4.397,4.397-4.397c2.428,0,4.396,1.969,4.396,4.397c0,5.618,4.571,10.188,10.189,10.188
	c2.428,0,4.397,1.969,4.397,4.397s-1.969,4.397-4.397,4.397c-5.618,0-10.189,4.57-10.189,10.188c0,2.428-1.969,4.397-4.396,4.397
	c-2.429,0-4.397-1.969-4.397-4.397c0-5.618-4.571-10.188-10.188-10.188c-2.428,0-4.397-1.969-4.397-4.397
	S834.909,535.604,837.337,535.604z M771.199,234.743L885.572,89.49c0.562-0.715,1.294-1.21,2.089-1.505v14.259L778.688,240.638
	c-0.94,1.194-2.336,1.818-3.748,1.818c-1.033,0-2.073-0.332-2.944-1.021C769.927,239.807,769.57,236.809,771.199,234.743z
	 M673.648,220.971l69.906-136.023h10.715l-72.145,140.379c-0.844,1.644-2.513,2.588-4.241,2.588c-0.735,0-1.477-0.168-2.175-0.527
	C673.365,226.183,672.444,223.31,673.648,220.971z M646.761,117.093c0-1.446,0.509-2.681,1.533-3.704
	c1.024-1.042,2.268-1.567,3.736-1.567c1.446,0,2.681,0.524,3.704,1.567c1.021,1.024,1.533,2.259,1.533,3.704v39.397
	c0,1.468-0.512,2.715-1.533,3.736c-1.024,1.024-2.259,1.536-3.704,1.536c-1.468,0-2.712-0.512-3.736-1.536
	c-1.024-1.021-1.533-2.268-1.533-3.736V117.093z M619.039,117.093c0-1.446,0.512-2.681,1.536-3.704
	c1.021-1.042,2.268-1.567,3.735-1.567c1.446,0,2.681,0.524,3.701,1.567c1.024,1.024,1.536,2.259,1.536,3.704v39.397
	c0,1.468-0.512,2.715-1.536,3.736c-1.021,1.024-2.256,1.536-3.701,1.536c-1.468,0-2.715-0.512-3.735-1.536
	c-1.024-1.021-1.536-2.268-1.536-3.736V117.093z M591.318,117.093c0-1.446,0.512-2.681,1.536-3.704
	c1.021-1.042,2.268-1.567,3.736-1.567c1.446,0,2.681,0.524,3.701,1.567c1.024,1.024,1.536,2.259,1.536,3.704v39.397
	c0,1.468-0.512,2.715-1.536,3.736c-1.021,1.024-2.256,1.536-3.701,1.536c-1.468,0-2.715-0.512-3.736-1.536
	c-1.024-1.021-1.536-2.268-1.536-3.736V117.093z M585.415,256.385c5.617,0,10.188-4.571,10.188-10.189
	c0-2.428,1.969-4.397,4.397-4.397c2.429,0,4.397,1.969,4.397,4.397c0,5.618,4.57,10.189,10.189,10.189
	c2.428,0,4.397,1.969,4.397,4.397c0,2.428-1.969,4.397-4.397,4.397c-5.618,0-10.189,4.57-10.189,10.188
	c0,2.428-1.969,4.397-4.397,4.397c-2.428,0-4.397-1.969-4.397-4.397c0-5.618-4.57-10.188-10.188-10.188
	c-2.429,0-4.397-1.969-4.397-4.397C581.018,258.354,582.986,256.385,585.415,256.385z M534.643,120.463
	c-0.934-1.114-1.334-2.392-1.201-3.838s0.757-2.634,1.868-3.568c1.111-0.934,2.389-1.334,3.838-1.201
	c1.443,0.133,2.634,0.757,3.568,1.868l12.376,14.877l12.376-14.877c0.934-1.111,2.122-1.734,3.568-1.868
	c1.446-0.133,2.724,0.267,3.838,1.201c1.111,0.934,1.734,2.122,1.868,3.568c0.133,1.446-0.267,2.724-1.201,3.838l-13.611,16.344
	l13.611,16.347c0.934,1.111,1.334,2.389,1.201,3.835c-0.133,1.446-0.757,2.625-1.868,3.537c-0.98,0.822-2.1,1.235-3.369,1.235
	c-1.623,0-2.969-0.636-4.036-1.902l-12.376-14.846l-12.376,14.846c-1.067,1.266-2.414,1.902-4.036,1.902
	c-1.291,0-2.414-0.413-3.369-1.235c-1.111-0.912-1.734-2.091-1.868-3.537s0.267-2.724,1.201-3.835l13.611-16.347L534.643,120.463z
	 M604.625,369.336c33.117,0,56.613,7.884,69.827,23.428c12.126,14.265,11.874,31.18,11.444,36.49
	c-7.567,4.479-11.688,10.962-13.53,16.471c-21.555-13.716-39.865-17.81-54.532-12.094c-12.137,4.732-18.882,15.038-22.477,23.166
	c-5.322-8.855-13.247-17.804-24.599-21.462c-13.578-4.378-29.004-0.259-45.939,12.204c-1.776-4.233-4.849-8.893-9.623-12.615
	c0.085-0.355,0.141-0.721,0.141-1.102l-0.006-1.244c-0.047-7.933-0.155-26.515,14.492-41.249
	C544.329,376.736,569.497,369.336,604.625,369.336z M445.055,84.947h9.33l68.126,132.849c1.201,2.342,0.276,5.215-2.066,6.416
	c-0.695,0.357-1.44,0.524-2.172,0.524c-1.731,0-3.4-0.946-4.244-2.591L445.407,88.329C444.849,87.242,444.767,86.044,445.055,84.947
	z M312.299,86.981c0-0.559,0.201-1.043,0.596-1.438c0.395-0.395,0.878-0.595,1.437-0.595h4.187l123.905,156.649
	c1.632,2.063,1.281,5.06-0.782,6.695c-0.875,0.692-1.917,1.027-2.954,1.027c-1.405,0-2.802-0.621-3.742-1.809L312.299,92.45V86.981z
	 M312.299,248.666l107.204,77.237c2.135,1.539,2.619,4.517,1.08,6.652c-0.931,1.294-2.389,1.979-3.869,1.979
	c-0.965,0-1.939-0.292-2.783-0.9l-101.632-73.223V248.666z M312.299,478.667l71.62,7.044c2.622,0.258,4.536,2.591,4.278,5.209
	c-0.242,2.46-2.318,4.3-4.738,4.3c-0.155,0-0.313-0.006-0.472-0.022l-70.69-6.952V478.667z M375.279,540.001
	c0,2.428-1.969,4.397-4.397,4.397c-5.617,0-10.188,4.57-10.188,10.188c0,2.428-1.969,4.397-4.397,4.397s-4.397-1.969-4.397-4.397
	c0-5.618-4.571-10.188-10.189-10.188c-2.428,0-4.397-1.969-4.397-4.397s1.969-4.397,4.397-4.397c5.618,0,10.189-4.571,10.189-10.188
	c0-2.428,1.969-4.397,4.397-4.397s4.397,1.969,4.397,4.397c0,5.618,4.571,10.188,10.188,10.188
	C373.31,535.604,375.279,537.573,375.279,540.001z M312.299,650.243l24.446-7.604c2.516-0.779,5.184,0.624,5.966,3.137
	c0.782,2.513-0.624,5.184-3.137,5.966l-27.275,8.484V650.243z M382.716,789.921l-68.849,51.689c-0.483,0.364-1.017,0.595-1.567,0.75
	v-11.489l64.695-48.57c2.104-1.579,5.098-1.154,6.671,0.949C385.248,785.354,384.822,788.342,382.716,789.921z M400.003,704.59
	c-5.617,0-10.188,4.57-10.188,10.188c0,2.428-1.969,4.397-4.397,4.397s-4.397-1.969-4.397-4.397c0-5.618-4.571-10.188-10.189-10.188
	c-2.429,0-4.397-1.969-4.397-4.397c0-2.428,1.969-4.397,4.397-4.397c5.618,0,10.189-4.571,10.189-10.188
	c0-2.428,1.969-4.397,4.397-4.397s4.397,1.969,4.397,4.397c0,5.618,4.571,10.188,10.188,10.188c2.428,0,4.397,1.969,4.397,4.397
	C404.401,702.621,402.432,704.59,400.003,704.59z M488.566,844.397l-68.358,182.661H410.03l69.608-185.999
	c0.921-2.463,3.673-3.711,6.134-2.795C488.238,839.187,489.488,841.933,488.566,844.397z M571.435,856.217
	c-5.617,0-10.188,4.57-10.188,10.188c0,2.428-1.969,4.397-4.397,4.397c-2.428,0-4.397-1.969-4.397-4.397
	c0-5.618-4.57-10.188-10.189-10.188c-2.428,0-4.396-1.969-4.396-4.397s1.969-4.397,4.396-4.397c5.619,0,10.189-4.571,10.189-10.189
	c0-2.428,1.969-4.397,4.397-4.397c2.428,0,4.397,1.969,4.397,4.397c0,5.618,4.57,10.189,10.188,10.189
	c2.428,0,4.397,1.969,4.397,4.397S573.863,856.217,571.435,856.217z M570.384,743.703c9.031-2.965,16.882-8.129,23.001-15.131
	l0.653,64.545C576.533,778.315,571.514,751.628,570.384,743.703z M601.336,1026.868c0,0.065-0.016,0.125-0.019,0.189h-9.493
	c-0.003-0.064-0.019-0.125-0.019-0.189V900.293c0-2.631,2.135-4.766,4.766-4.766s4.766,2.135,4.766,4.766V1026.868z M603.56,792.16
	l-0.576-56.925c0.168,0.16,0.323,0.332,0.493,0.49c5.179,4.83,12.477,10.016,22.074,13.232
	C617.903,770.88,609.263,784.65,603.56,792.16z M665.956,856.217c-5.619,0-10.189,4.57-10.189,10.188
	c0,2.428-1.969,4.397-4.397,4.397s-4.397-1.969-4.397-4.397c0-5.618-4.57-10.188-10.188-10.188c-2.428,0-4.397-1.969-4.397-4.397
	s1.969-4.397,4.397-4.397c5.618,0,10.188-4.571,10.188-10.189c0-2.428,1.969-4.397,4.397-4.397s4.397,1.969,4.397,4.397
	c0,5.618,4.57,10.189,10.189,10.189c2.428,0,4.397,1.969,4.397,4.397S668.383,856.217,665.956,856.217z M780.996,1027.058
	l-76.009-191.727c-0.971-2.448,0.227-5.215,2.674-6.187c2.442-0.974,5.215,0.227,6.187,2.674l76.631,193.294
	c0.254,0.64,0.352,1.3,0.326,1.945H780.996z M818.405,714.778c0-5.618-4.571-10.188-10.188-10.188c-2.428,0-4.397-1.969-4.397-4.397
	c0-2.428,1.969-4.397,4.397-4.397c5.617,0,10.188-4.571,10.188-10.188c0-2.428,1.969-4.397,4.397-4.397s4.397,1.969,4.397,4.397
	c0,5.618,4.571,10.188,10.189,10.188c2.429,0,4.397,1.969,4.397,4.397c0,2.428-1.969,4.397-4.397,4.397
	c-5.618,0-10.189,4.57-10.189,10.188c0,2.428-1.969,4.397-4.397,4.397S818.405,717.206,818.405,714.778z M825.506,789.921
	c-2.107-1.579-2.532-4.567-0.949-6.671c1.576-2.104,4.573-2.529,6.671-0.949l56.454,42.385l0.001,11.916L825.506,789.921z
	 M558.564,555.094c3.794-0.307,7.884,0.745,12.528,3.177c8.948,4.685,14.815,12.28,15.693,20.316
	c0.217,1.998,0.062,3.562-0.484,4.924c-0.838,2.082-2.622,3.708-5.454,4.973c-3.298,1.474-6.869,2.184-10.49,2.184
	c-8.25,0-16.76-3.683-22.916-10.403c-0.766-0.841-1.551-1.775-2.131-2.926c-0.186-0.372-0.347-0.748-0.49-1.129
	c-1.471-3.915-0.738-8.641,2.014-12.963C549.777,558.618,554.385,555.416,558.564,555.094z M593.542,614.657
	c-3.037-6.878,7.418-30.812,8.619-33.52c0.509-1.148,2.597-1.148,3.106,0c1.201,2.709,11.656,26.642,8.619,33.52
	c-0.608,1.374-1.585,1.945-2.296,2.184c-1.436,0.478-2.743,0.717-3.909,0.717c-1.126,0-2.125-0.223-2.988-0.67
	c-0.379-0.195-0.701-0.422-0.977-0.658c-0.282,0.239-0.608,0.465-0.99,0.664c-1.75,0.906-4.068,0.884-6.888-0.053
	C595.128,616.602,594.15,616.031,593.542,614.657z M620.718,583.513c-0.543-1.353-0.698-2.963-0.481-4.927
	c0.875-8.036,6.742-15.631,15.693-20.316c4.648-2.432,8.746-3.487,12.525-3.177c4.182,0.323,8.786,3.521,11.731,8.151
	c2.752,4.325,3.487,9.05,2.017,12.969c-0.14,0.375-0.304,0.748-0.487,1.117c-0.596,1.179-1.415,2.144-2.141,2.935
	c-6.152,6.72-14.663,10.403-22.909,10.403c-3.621,0-7.192-0.71-10.49-2.184C623.339,587.218,621.555,585.592,620.718,583.513z"/>
</svg>
