<?xml version="1.0" encoding="utf-8"?>
<!-- Generator: Adobe Illustrator 23.0.3, SVG Export Plug-In . SVG Version: 6.00 Build 0)  -->
<svg version="1.1" id="Capa_1" xmlns="http://www.w3.org/2000/svg" xmlns:xlink="http://www.w3.org/1999/xlink" x="0px" y="0px"
	 viewBox="0 0 1200 1200" enable-background="new 0 0 1200 1200" xml:space="preserve">
<path fill="#2E2E2E" d="M911.797,60.832C904.812,53.847,895.526,50,885.648,50H600H314.352c-9.878,0-19.165,3.847-26.149,10.832
	c-6.985,6.984-10.831,16.271-10.831,26.149V600v513.019c0,9.878,3.846,19.164,10.831,26.149
	c6.985,6.985,16.271,10.832,26.149,10.832H600h285.648c9.878,0,19.165-3.847,26.149-10.831c6.985-6.985,10.831-16.272,10.831-26.15
	V600V86.981C922.628,77.103,918.782,67.816,911.797,60.832z M913.097,600v513.019c0,7.58-3.072,14.443-8.04,19.41
	c-4.967,4.968-11.83,8.04-19.41,8.04H600H314.352c-7.58,0-14.443-3.072-19.41-8.04c-4.967-4.967-8.04-11.83-8.04-19.41V600V86.981
	c0-7.58,3.072-14.442,8.04-19.41c4.967-4.968,11.829-8.04,19.41-8.04H600h285.648c7.58,0,14.443,3.072,19.41,8.04
	c4.967,4.967,8.04,11.83,8.04,19.41V600z M402.842,1066.068c1.021,1.024,1.536,2.255,1.536,3.701v39.397
	c0,1.471-0.515,2.715-1.536,3.739c-1.046,1.021-2.293,1.533-3.739,1.533s-2.681-0.512-3.701-1.533
	c-1.021-1.024-1.536-2.268-1.536-3.739v-14.443h-22.351v14.443c0,1.471-0.509,2.715-1.533,3.739
	c-1.024,1.021-2.259,1.533-3.704,1.533c-1.464,0-2.712-0.512-3.736-1.533c-1.024-1.024-1.533-2.268-1.533-3.739v-39.397
	c0-1.446,0.509-2.677,1.533-3.701c1.024-1.046,2.271-1.567,3.736-1.567c1.446,0,2.681,0.521,3.704,1.567
	c1.024,1.024,1.533,2.255,1.533,3.701v14.446h22.351v-14.446c0-1.446,0.515-2.677,1.536-3.701c1.021-1.046,2.256-1.567,3.701-1.567
	S401.797,1065.022,402.842,1066.068z M427.195,1066.068c1.021,1.024,1.533,2.255,1.533,3.701v39.397
	c0,1.471-0.512,2.715-1.533,3.739c-1.024,1.021-2.259,1.533-3.704,1.533c-1.468,0-2.712-0.512-3.736-1.533
	c-1.024-1.024-1.533-2.268-1.533-3.739v-39.397c0-1.446,0.509-2.677,1.533-3.701c1.024-1.046,2.268-1.567,3.736-1.567
	C424.936,1064.501,426.171,1065.022,427.195,1066.068z M453.114,1075.006v9.208h21.017c1.446,0,2.687,0.512,3.736,1.536
	c1.024,1.021,1.533,2.268,1.533,3.735c0,1.446-0.509,2.681-1.533,3.701c-1.049,1.024-2.29,1.536-3.736,1.536h-21.017v9.205h27.588
	c1.446,0,2.69,0.512,3.736,1.536c1.024,1.024,1.533,2.259,1.533,3.701c0,1.471-0.509,2.715-1.533,3.739
	c-1.046,1.021-2.29,1.533-3.736,1.533h-32.825c-1.471,0-2.715-0.512-3.736-1.533c-1.024-1.024-1.536-2.268-1.536-3.739v-39.397
	c0-1.446,0.512-2.677,1.536-3.701c1.021-1.046,2.265-1.567,3.736-1.567h32.825c1.446,0,2.69,0.521,3.736,1.567
	c1.024,1.024,1.533,2.255,1.533,3.701s-0.509,2.681-1.533,3.704c-1.046,1.024-2.29,1.533-3.736,1.533H453.114z M538.177,1091.887
	c1.579-2.78,2.367-5.771,2.367-8.973c0-5.073-1.799-9.407-5.405-13.012c-3.599-3.602-7.936-5.401-13.006-5.401h-19.683
	c-1.471,0-2.715,0.521-3.736,1.567c-1.024,1.024-1.536,2.255-1.536,3.701v39.397c0,1.471,0.512,2.715,1.536,3.739
	c1.021,1.021,2.265,1.533,3.736,1.533c1.446,0,2.681-0.512,3.701-1.533c1.021-1.024,1.536-2.268,1.536-3.739v-7.871h12.274
	l11.61,11.61c1.024,1.021,2.259,1.533,3.704,1.533s2.69-0.512,3.736-1.533c1.024-1.024,1.533-2.268,1.533-3.739
	c0-1.443-0.509-2.678-1.533-3.701l-7.04-7.04C534.596,1096.758,536.666,1094.577,538.177,1091.887z M527.703,1088.484
	c-1.536,1.536-3.391,2.302-5.569,2.302h-14.446v-15.78h14.446c2.178,0,4.033,0.779,5.569,2.336c1.554,1.536,2.336,3.391,2.336,5.572
	C530.039,1085.071,529.257,1086.929,527.703,1088.484z M574.071,1064.501c-6.872,0-12.755,2.445-17.647,7.338
	c-4.871,4.871-7.303,10.754-7.303,17.647c0,6.872,2.432,12.755,7.303,17.647c4.893,4.868,10.775,7.303,17.647,7.303
	c6.894,0,12.776-2.436,17.647-7.303c4.89-4.893,7.338-10.775,7.338-17.647c0-6.894-2.448-12.776-7.338-17.647
	C586.847,1066.946,580.965,1064.501,574.071,1064.501z M584.312,1099.693c-2.848,2.823-6.261,4.235-10.242,4.235
	c-3.984,0-7.384-1.412-10.208-4.235c-2.823-2.823-4.238-6.227-4.238-10.208s1.415-7.384,4.238-10.208
	c2.823-2.848,6.224-4.272,10.208-4.272c3.981,0,7.393,1.424,10.242,4.272c2.823,2.823,4.235,6.227,4.235,10.208
	S587.136,1096.87,584.312,1099.693z M635.216,1064.501h-19.683c-1.464,0-2.712,0.521-3.736,1.567
	c-1.024,1.024-1.533,2.255-1.533,3.701v39.397c0,1.471,0.509,2.715,1.533,3.739c1.024,1.021,2.271,1.533,3.736,1.533
	c1.446,0,2.681-0.512,3.704-1.533c1.024-1.024,1.533-2.268,1.533-3.739v-7.871h14.446c5.07,0,9.407-1.803,13.012-5.405
	c3.602-3.58,5.405-7.905,5.405-12.975c0-5.073-1.803-9.407-5.405-13.012C644.623,1066.3,640.286,1064.501,635.216,1064.501z
	 M640.788,1088.484c-1.533,1.536-3.394,2.302-5.572,2.302h-14.446v-15.78h14.446c2.178,0,4.04,0.779,5.572,2.336
	c1.557,1.536,2.333,3.391,2.333,5.572C643.122,1085.071,642.346,1086.929,640.788,1088.484z M706.672,1066.068
	c1.021,1.024,1.536,2.255,1.536,3.701v39.397c0,1.471-0.515,2.715-1.536,3.739c-1.046,1.021-2.293,1.533-3.739,1.533
	s-2.681-0.512-3.701-1.533c-1.021-1.024-1.536-2.268-1.536-3.739v-14.443h-22.351v14.443c0,1.471-0.509,2.715-1.533,3.739
	c-1.024,1.021-2.259,1.533-3.704,1.533c-1.464,0-2.712-0.512-3.736-1.533c-1.024-1.024-1.533-2.268-1.533-3.739v-39.397
	c0-1.446,0.509-2.677,1.533-3.701c1.024-1.046,2.271-1.567,3.736-1.567c1.446,0,2.681,0.521,3.704,1.567
	c1.024,1.024,1.533,2.255,1.533,3.701v14.446h22.351v-14.446c0-1.446,0.515-2.677,1.536-3.701c1.021-1.046,2.256-1.567,3.701-1.567
	S705.626,1065.022,706.672,1066.068z M747.768,1067.402c-0.444-0.891-1.089-1.601-1.933-2.135c-0.847-0.512-1.768-0.766-2.771-0.766
	s-1.924,0.254-2.771,0.766c-0.844,0.534-1.489,1.244-1.933,2.135l-19.717,39.431c-0.645,1.291-0.732,2.625-0.267,4.002
	c0.447,1.381,1.325,2.392,2.637,3.034c1.291,0.645,2.625,0.735,4.002,0.267c1.378-0.444,2.389-1.322,3.034-2.634l3.472-6.937h23.049
	l3.506,6.937c0.444,0.912,1.098,1.635,1.967,2.169c0.844,0.512,1.756,0.766,2.736,0.766c0.819,0,1.601-0.189,2.333-0.568
	c1.291-0.642,2.169-1.654,2.637-3.034c0.465-1.378,0.366-2.712-0.301-4.002L747.768,1067.402z M736.795,1094.056l6.27-12.544
	l6.27,12.544H736.795z M819.758,1066.068c1.024,1.024,1.533,2.255,1.533,3.701v39.397c0,1.114-0.323,2.125-0.968,3.037
	c-0.62,0.912-1.455,1.557-2.501,1.933c-0.577,0.202-1.179,0.301-1.799,0.301c-1.647,0-2.991-0.633-4.04-1.902l-23.549-28.255v24.886
	c0,1.471-0.515,2.715-1.536,3.739c-1.021,1.021-2.256,1.533-3.701,1.533c-1.471,0-2.715-0.512-3.735-1.533
	c-1.024-1.024-1.536-2.268-1.536-3.739v-39.397c0-1.111,0.32-2.122,0.965-3.034c0.624-0.89,1.458-1.523,2.504-1.902
	c1.046-0.379,2.1-0.422,3.168-0.133c1.067,0.289,1.958,0.856,2.668,1.7l23.555,28.255v-24.886c0-1.446,0.509-2.677,1.533-3.701
	c1.024-1.046,2.259-1.567,3.704-1.567S818.712,1065.022,819.758,1066.068z M872.998,1066.068c1.024,1.024,1.533,2.255,1.533,3.701
	s-0.509,2.681-1.533,3.704c-1.046,1.024-2.29,1.533-3.736,1.533h-11.175v34.159c0,1.471-0.515,2.715-1.536,3.739
	c-1.021,1.021-2.256,1.533-3.701,1.533s-2.693-0.512-3.736-1.533c-1.024-1.024-1.536-2.268-1.536-3.739v-34.159h-11.141
	c-1.471,0-2.715-0.509-3.735-1.533c-1.024-1.024-1.536-2.259-1.536-3.704s0.512-2.677,1.536-3.701
	c1.021-1.046,2.265-1.567,3.735-1.567h32.825C870.708,1064.501,871.952,1065.022,872.998,1066.068z M897.192,86.981
	c0-3.089-1.203-5.993-3.387-8.177c-2.184-2.184-5.088-3.387-8.178-3.387H599.98H314.332c-3.089,0-5.993,1.203-8.177,3.387
	c-2.184,2.185-3.387,5.089-3.387,8.178V600v428.592c0.083,4.429,3.685,7.997,8.134,7.997h577.919c4.5,0,8.411-3.911,8.411-8.411
	L897.192,600V86.981z M887.661,153.037v94.375h-37.557c-6.034-9.595-22.649-39.592-31.766-91.31
	c9.978,7.321,29.718,24.934,43.379,57.506c0.754,1.798,2.504,2.921,4.39,2.921c0.338,0,0.683-0.037,1.024-0.112
	c2.249-0.493,3.822-2.524,3.742-4.825C870.862,211.239,869.985,179.226,887.661,153.037z M853.337,256.943h34.325v24.019h-34.325
	V256.943z M887.066,85.543c0.396,0.395,0.596,0.879,0.596,1.438v50.816c-0.251,0.188-0.488,0.402-0.705,0.644
	c-16.016,17.899-22.062,39.919-24.318,55.178c-19.826-35.991-44.966-49.492-46.166-50.122c-0.04-0.021-0.084-0.03-0.124-0.05
	c-2.459-17.336-4.028-36.817-4.155-58.499h73.435C886.187,84.947,886.67,85.148,887.066,85.543z M802.659,84.947
	c0.563,100.192,30.813,154.361,39.714,168.128c0.193,1.012,0.709,1.902,1.433,2.578v771.405h-75.107
	c-0.048-9.74-0.658-52.424-7.219-112.114c26.922-3.23,55.469-10.592,69.174-33.696c13.22-22.289,3.289-58.803-2.048-78.421
	c-6.211-22.847-15.482-45.08-24.448-66.581l-3.323-7.984c-4.862-11.72-10.75-25.52-17.548-39.015
	c-18.485-36.671-42.921-62.985-76.9-82.814c-0.621-0.362-1.234-0.718-1.847-1.072l30.097-88.866l37.344,13.099
	c0.869,0.306,1.756,0.45,2.628,0.45c3.279,0,6.348-2.046,7.496-5.315c1.452-4.14-0.726-8.672-4.868-10.124l-37.505-13.156
	l5.08-14.998l44.333,15.504c0.869,0.304,1.753,0.447,2.622,0.447c3.283,0,6.354-2.049,7.496-5.322
	c1.449-4.14-0.732-8.672-4.874-10.119l-44.48-15.556l5.298-15.645l20.321,6.774c0.835,0.278,1.682,0.41,2.513,0.41
	c3.326,0,6.425-2.104,7.536-5.433c1.387-4.161-0.863-8.659-5.023-10.046l-20.252-6.751l8.258-24.38
	c1.405-4.154-0.822-8.662-4.977-10.069c-4.151-1.412-8.662,0.822-10.071,4.975l-8.281,24.451l-21.29-7.097
	c-4.173-1.39-8.659,0.861-10.049,5.023c-1.387,4.161,0.862,8.659,5.023,10.046l21.22,7.073l-5.224,15.424l-40.16-14.045
	l11.257-35.462c0.611-1.925-0.059-4.027-1.669-5.245L603.564,335.31c-1.71-1.288-4.071-1.281-5.768,0.019L495.641,413.43
	c-1.598,1.219-2.256,3.312-1.647,5.226l29.631,93.347c-1.634,12.233-1.286,25.642,1.112,40.018
	c2.303,13.83,6.126,26.1,11.321,36.832c-0.032,0.009-0.064,0.008-0.095,0.018c-1.414,0.416-2.83,0.835-4.247,1.275
	c-22.296,1.734-50.284,9.779-69.94,23.673c-3.477-15.333-6.183-25.458-6.635-27.13c-0.605-2.223-2.668-3.7-5.001-3.504l-6.196,0.522
	c-0.389-7.49,0.984-10.035,1.315-10.532c0.137-0.093,0.267-0.192,0.394-0.299c25.091-21.329,16.704-51.233,16.335-52.496
	c-0.007-0.024-0.02-0.043-0.027-0.067c0.033-0.51,0.006-1.03-0.134-1.551c-0.282-1.053-0.59-2.457-0.943-4.072
	c-2.007-9.148-5.042-22.971-13.416-26.761c-1.931-0.873-4.825-1.486-8.38-0.314c-0.374-2.167-0.776-4.428-1.179-6.697
	c-0.763-4.288-1.526-8.577-2.091-12.176c-0.093-0.597-0.171-1.238-0.248-1.894c-0.282-2.381-0.605-5.08-1.759-7.533
	c-1.821-3.878-5.47-6.636-10.009-7.564c-3.957-0.812-7.979-0.072-11.172,1.946c-0.482-1.056-1.012-2.081-1.654-2.983
	c-1.958-2.752-5.073-4.519-8.774-4.98c-4.427-0.54-9.171,0.807-12.379,3.535c-6.45,5.492-5.091,14.551-4.192,20.545l0.223,1.506
	c0.664,4.767,1.567,9.509,2.448,14.104c-5.219,0.047-10.816,2.354-14.204,6.009c-1.664,1.792-2.499,3.783-2.895,5.782
	c-2.774-0.316-5.758,0.132-8.669,1.518c-3.045,1.449-5.057,3.546-6.339,5.976V255.653c0.724-0.676,1.24-1.566,1.433-2.578
	c8.901-13.767,39.15-67.936,39.713-168.127H599.98H802.659z M332.87,216.418c0.341,0.074,0.686,0.112,1.024,0.112
	c1.886,0,3.636-1.123,4.39-2.921c13.648-32.543,33.365-50.153,43.351-57.486c-9.129,51.612-25.733,81.677-31.75,91.29h-37.585
	v-94.437c17.719,26.2,16.84,58.263,16.829,58.618C329.048,213.894,330.621,215.924,332.87,216.418z M312.299,256.943h34.365v24.019
	h-34.365V256.943z M356.195,526.336c0.076,0.284,0.154,0.579,0.223,0.833c1.378,4.318,4.873,7.596,9.331,9.157
	c0.79,5.874,4.226,26.971,13.96,37.788c0.714,1.019,4.507,6.728,6.29,14.473l-5.952,0.501c-2.203,0.185-3.987,1.862-4.313,4.047
	c-1.142,7.66-27.346,188.19,21.039,239.6c8.743,9.286,19.394,13.977,31.715,13.977c1.458,0,2.938-0.068,4.443-0.199
	c0.028-0.003,0.054-0.009,0.082-0.011c-7.625,79.618-9.056,161.142-9.295,180.555h-67.523V526.336z M372.216,507.657
	c0.019,0.066,0.041,0.148,0.06,0.212c1.396,4.838,2.541,9.668,3.478,13.76c0.17,0.737,0.397,1.448,0.668,2.134
	c0.007,0.22,0.008,0.44,0.046,0.663c0.065,0.382,0.053,0.821-0.465,1.433c-1.033,1.226-3.031,1.958-4.368,1.958
	c-2.485,0-5.392-1.216-6.072-3.34c-2.758-10.189-2.426-15.474,1.067-17.137C368.401,506.495,370.822,506.154,372.216,507.657z
	 M409.994,499.106c0.326,2.391,2.37,4.122,4.716,4.122c0.214,0,0.431-0.014,0.652-0.043c2.606-0.357,4.434-2.758,4.077-5.366
	c-1.153-8.44-2.249-17.552-3.41-28.378c0.019-0.273,0.026-0.55-0.003-0.831c-0.326-3.087,0.453-5.851,1.154-6.477
	c1.126-1.004,2.926-1.404,4.713-1.042c0.738,0.15,2.538,0.675,3.292,2.28c0.496,1.058,0.723,2.944,0.921,4.609
	c0.093,0.78,0.186,1.54,0.298,2.246c0.571,3.649,1.347,8.008,2.122,12.362c0.745,4.193,1.488,8.376,2.048,11.905
	c-5.375,8.957-3.304,23.145-1.213,30.724c-14.007,9.407-15.515,22.116-15.575,22.698c-0.267,2.598,1.61,4.902,4.204,5.198
	c0.183,0.02,0.36,0.029,0.54,0.029c2.373,0,4.43-1.79,4.731-4.201c0.056-0.434,1.474-10.705,14.486-17.688
	c2.321-1.244,3.193-4.134,1.945-6.453c-0.228-0.425-0.526-0.783-0.851-1.106c-2.383-7.74-4.137-23.092,2.197-26.591
	c1.616-0.892,2.252-0.6,2.498-0.493c4.021,1.82,6.835,14.646,8.036,20.122c0.394,1.789,0.738,3.341,1.052,4.508
	c0.013,0.049,0.038,0.091,0.053,0.139c-0.04,0.55,0.001,1.114,0.164,1.675c0.071,0.25,6.999,24.934-13.049,42.29
	c-2.391,1.539-6.058,6.073-5.341,19.162l-38.861,3.273c-2.248-11.174-8.066-19.139-8.343-19.511
	c-0.099-0.133-0.205-0.262-0.32-0.385c-6.666-7.243-10.216-22.82-11.484-31.068c3.045-0.81,5.908-2.513,7.845-4.81
	c0.141-0.167,0.23-0.358,0.361-0.53c1.402,0.653,2.913,1.091,4.507,1.24v0.002c0.441,0.04,0.881,0.06,1.319,0.06
	c1.3,0,2.603-0.178,3.888-0.535c7.902-2.192,11.843-10.24,10.037-20.502c-0.208-1.174-0.391-2.342-0.574-3.523
	c-0.627-4.016-1.278-8.169-2.892-13.324c-0.203-0.648-0.455-1.184-0.693-1.748c0.034-0.401,0.036-0.809-0.036-1.224
	c-0.468-2.681-0.98-5.353-1.492-8.026c-0.872-4.559-1.775-9.274-2.42-13.893l-0.236-1.601c-0.621-4.143-1.471-9.817,0.946-11.877
	c1.16-0.988,3.276-1.564,5.023-1.331c0.72,0.088,1.685,0.343,2.184,1.044c1.409,1.981,2.532,6.528,2.873,9.801
	C407.434,478.939,408.675,489.448,409.994,499.106z M701.583,614.663c32.76,19.117,55.331,43.442,73.19,78.872
	c6.661,13.219,12.463,26.819,17.257,38.377l3.332,8c8.849,21.222,17.998,43.166,24.048,65.415
	c4.61,16.956,14.207,52.238,3.047,71.055c-15.479,26.099-56.296,29.074-86.1,31.246c-2.864,0.208-5.634,0.41-8.281,0.624
	c-29.409,2.373-61.015,2.349-93.934-0.068c-0.003,0-0.009,0-0.012,0l16.453-69.405c10.003-3.928,53.882-19.714,116.12-21.026
	c2.631-0.056,4.722-2.234,4.666-4.865s-2.218-4.691-4.865-4.666c-9.826,0.207-19.169,0.767-28.017,1.566l13.146-16.3
	c1.651-2.048,1.331-5.048-0.72-6.702c-2.045-1.651-5.045-1.331-6.702,0.72l-11.259,13.96c-3.301-59.031-7.527-97.879-13.543-124.947
	c-4.342-19.541-9.343-34.634-14.53-46.315c-1.637-4.054-3.318-7.696-5.04-10.971l1.58-4.665
	C701.476,614.6,701.528,614.631,701.583,614.663z M626.07,900.861c-15.77-0.135-40.084-2.02-47.212-6.887
	c-0.102-0.07-0.214-0.113-0.32-0.174c-0.096-0.055-0.18-0.125-0.282-0.174c-2.683-1.306-3.76-3.893-4.112-6.496
	c0.379,0.091,0.756,0.183,1.146,0.238c0.227,0.031,0.45,0.047,0.673,0.047c2.336,0,4.378-1.719,4.713-4.099
	c0.366-2.606-1.446-5.017-4.052-5.386c-0.921-0.13-1.806-0.779-2.147-1.579c-0.137-0.32-0.307-0.613-0.501-0.885
	c-2.673-4.057-2.713-7.362-1.991-9.742c1.367,0.798,2.894,1.343,4.506,1.57c0.227,0.031,0.45,0.047,0.673,0.047
	c2.336,0,4.378-1.719,4.713-4.099c0.366-2.606-1.446-5.017-4.052-5.386c-0.921-0.13-1.803-0.776-2.141-1.573
	c-0.056-0.131-0.135-0.242-0.201-0.365c-0.078-0.151-0.101-0.318-0.196-0.463c-1.567-2.387-1.369-4.86-0.605-6.948
	c1.316,1.111,2.839,1.997,4.514,2.57c0.509,0.177,1.03,0.258,1.542,0.258c1.983,0,3.832-1.244,4.508-3.224
	c0.853-2.488-0.475-5.2-2.966-6.05c-1.411-0.483-2.557-1.729-2.88-3.112c-0.673-4.044,0.605-5.844,1.636-6.844
	c4.417-4.273,15.94-4.57,25.637-3.54c0.102,0.688,0.259,1.403,0.552,2.159c1.418,3.658,4.849,6.506,10.195,8.47
	c3.329,1.222,6.55,1.691,9.537,1.691c5.844,0,10.757-1.795,13.89-3.308c0.059,0.105,0.107,0.191,0.157,0.283L626.07,900.861z
	 M662.174,820.263l0.104,4.311c-7.041,2.212-12.111,4.106-14.981,5.242c-2.754-4.294-7.509-10.558-13.789-14.73L660.26,736.1
	C660.661,758.441,661.38,787.875,662.174,820.263z M615.023,820.146c-2.992-0.543-8.654-1.397-15.016-1.569
	c0.961-1.574,2.315-3.154,4.22-3.995c3.583-1.589,8.208-0.131,12.065,1.813L615.023,820.146z M664.048,588.143
	c2.661-5.854,5.024-12.224,7.077-19.231c4.604-15.727,6.689-30.9,6.193-45.096c-0.152-4.376-0.621-8.677-1.266-12.891
	c0.02-0.054,0.06-0.094,0.078-0.149l4.229-13.321l39.286,13.78l-29.315,86.554C683.288,594.462,675.175,591.353,664.048,588.143z
	 M685.166,482.309l4.776-15.047l39.872,13.944l-5.074,14.984L685.166,482.309z M532.781,515.5
	c10.065-1.468,39.171-5.405,61.878-5.405c23.021,0,59.675,2.676,72.176,3.645c0.473,3.412,0.837,6.877,0.958,10.407v0.002
	c0.459,13.178-1.495,27.337-5.814,42.085c-4.558,15.553-10.574,27.787-18.395,37.398c-1.049,1.29-2.142,2.514-3.255,3.703
	c-0.073,0.041-0.151,0.066-0.223,0.112c-0.683,0.435-1.197,1.024-1.568,1.684c-8.352,8.266-18.242,13.782-28.48,15.671
	c-17.632,3.253-38.062-4.559-52.039-19.9c-12.029-13.203-20.064-31.522-23.881-54.446C532.043,537.897,531.602,526.19,532.781,515.5
	z M476.487,696.888c-3.284-27.052-8.175-52.944-12.458-72.857c11.867-9.371,28.29-16.216,44.389-20.294
	C496.204,616.603,484.996,641.982,476.487,696.888z M470.719,748.059c-1.353,14.825-2.525,30.57-3.545,46.74
	c-2.305,11.05-5.826,20.593-10.908,27.869c-6.128,8.774-14.033,13.468-24.166,14.353c-11.315,0.99-20.601-2.55-28.382-10.816
	c-41.624-44.218-22.593-201.626-19.072-227.939l62.29-5.246C451.442,610.682,469.636,685.653,470.719,748.059z M388.58,494.938
	c0.416,0.006,1.387,0.023,2.256,2.805c1.405,4.48,1.998,8.276,2.572,11.946c0.192,1.243,0.385,2.47,0.602,3.704
	c0.347,1.964,1.136,8.464-3.199,9.666c-0.593,0.168-1.188,0.23-1.762,0.168c-1.955-0.183-3.528-1.651-4.005-3.729
	c-0.965-4.215-2.147-9.207-3.608-14.273c-1.073-3.711-1.474-6.097-0.351-7.308C382.732,496.138,385.918,494.82,388.58,494.938z
	 M442.782,844.49c8.489-2.802,15.635-8.26,21.296-16.365c0.202-0.29,0.389-0.601,0.586-0.897
	c-2.718,54.743-4.131,121.073-4.208,197.621c-0.002,0.828-0.004,1.565-0.005,2.209H433.25
	C433.494,1007.345,434.958,924.533,442.782,844.49z M540.069,707.591c0-55.174,15.646-84.871,18.169-89.294
	c12.755,10.786,28.285,16.789,43.455,16.789c3.394-0.002,6.773-0.301,10.096-0.914c10.654-1.966,20.928-7.168,29.861-14.917
	c7.659,14.762,12.963,36.999,16.707,72.94L619.37,807.311c-7.174-3.338-13.559-3.847-18.999-1.447
	c-6.87,3.041-9.904,9.798-11.044,13.233c-5.786,0.806-11.236,2.602-14.912,6.151c-2.476,2.395-5.147,6.534-4.688,13.059
	c-3.453,4.226-7.009,11.563-4.114,19.078c-3.27,4.657-5.752,12.572-0.621,21.656c-1.44,7.176-0.831,18.324,9.094,23.155
	c0.002,0.001,0.003,0.001,0.005,0.002c2.901,1.816,6.966,3.242,11.649,4.343c-0.197,0.377-0.387,0.76-0.524,1.177l-38.506,116.66
	c-0.294,0.89-0.389,1.792-0.368,2.679h-14.19C533.037,997.978,540.069,765.456,540.069,707.591z M600.3,912.695
	c0.413-1.252,0.463-2.526,0.265-3.744c8.902,0.978,17.674,1.306,23.254,1.404l-0.247,1.04c-0.32,1.346-0.034,2.767,0.776,3.891
	c0.813,1.123,2.073,1.837,3.45,1.955c1.883,0.164,3.767,0.31,5.65,0.45c10.464,0.769,20.78,1.27,30.958,1.56
	c1.296,47.602,2.775,83.708,3.531,100.777c0.001,2.268,0.002,4.64,0.002,7.03H562.552L600.3,912.695z M737.998,928.835l-0.031-1.081
	c-0.079-3.27-0.163-6.582-0.254-9.967c-0.002-0.095-0.029-0.184-0.038-0.278l-0.012-0.419c4.578-0.334,9.398-0.701,14.338-1.154
	c6.518,59.286,7.119,101.577,7.166,111.122h-19.621C739.517,981.814,738.942,961.615,737.998,928.835z M312.895,85.543
	c0.395-0.395,0.879-0.595,1.437-0.595h73.475c-0.127,21.673-1.705,41.159-4.175,58.507c-0.034,0.017-0.07,0.024-0.104,0.042
	c-1.201,0.63-26.341,14.131-46.166,50.122c-2.256-15.258-8.302-37.279-24.318-55.178c-0.228-0.255-0.479-0.477-0.745-0.672V86.981
	C312.299,86.422,312.5,85.938,312.895,85.543z M312.299,600V290.493h34.365v736.564h-34.365V600z M853.337,1027.058V290.493h34.325
	v309.508l0.04,427.057H853.337z M572.262,119.496c-0.645-1.311-0.735-2.656-0.267-4.036c0.444-1.378,1.312-2.389,2.603-3.034
	c1.309-0.645,2.656-0.735,4.033-0.267c1.381,0.444,2.392,1.323,3.037,2.634l15.013,29.957l15.01-30.024
	c0.645-1.289,1.657-2.167,3.034-2.634c1.381-0.445,2.715-0.346,4.002,0.299c1.291,0.645,2.172,1.657,2.637,3.036
	c0.465,1.379,0.366,2.713-0.298,4.002l-19.683,39.431c-0.447,0.89-1.092,1.59-1.936,2.102c-0.844,0.534-1.768,0.8-2.768,0.8
	c-1.002,0-1.924-0.267-2.771-0.8c-0.847-0.512-1.489-1.212-1.933-2.102L572.262,119.496z M544.33,312.643l-2.351,2.351
	c-0.785,0.785-0.785,2.056,0,2.841l7.97,7.97c0.392,0.392,0.906,0.589,1.42,0.589c0.514,0,1.029-0.196,1.421-0.589l46.994-46.994
	l46.995,46.994c0.392,0.392,0.907,0.589,1.42,0.589c0.514,0,1.029-0.196,1.421-0.589l7.969-7.97c0.377-0.377,0.589-0.888,0.589-1.42
	c0-0.532-0.212-1.044-0.589-1.421l-2.135-2.136l18.399-18.399c0.785-0.785,0.785-2.056,0-2.841l-7.539-7.539
	c-0.785-0.785-2.056-0.785-2.84,0l-5.959,5.959l-5.558-5.559l6.199-6.2c0.785-0.785,0.785-2.056,0-2.841l-7.539-7.539
	c-0.753-0.754-2.087-0.754-2.841,0l-18.64,18.641l-18.426-18.426l23.332-23.555c4.064,2.471,8.599,3.947,13.264,4.217
	c0.527,0.03,1.05,0.046,1.571,0.046c6.542,0,12.513-2.396,16.95-6.833c4.791-4.79,7.2-11.368,6.788-18.521
	c-0.41-7.067-3.535-13.858-8.8-19.124c-10.93-10.933-27.822-11.838-37.647-2.014c-8.079,8.081-8.886,20.934-2.84,31.328
	l-23.349,23.725l-23.732-23.731c6.042-10.393,5.234-23.243-2.845-31.322c-9.824-9.824-26.712-8.919-37.645,2.014
	c-5.266,5.266-8.39,12.057-8.8,19.124c-0.413,7.153,1.996,13.731,6.787,18.521c4.437,4.438,10.408,6.833,16.95,6.833
	c0.52,0,1.044-0.016,1.571-0.046c4.665-0.27,9.201-1.746,13.267-4.219L588.973,268l-18.324,18.324l-18.425-18.425
	c-0.785-0.785-2.056-0.785-2.841,0l-7.539,7.539c-0.785,0.785-0.785,2.056,0,2.841l6.201,6.2l-5.559,5.558l-5.958-5.959
	c-0.753-0.754-2.087-0.754-2.84,0l-7.539,7.539c-0.785,0.785-0.785,2.056,0,2.841L544.33,312.643z M637.53,213.73
	c1.844-1.844,4.313-2.748,6.897-2.748c3.089,0,6.341,1.295,8.871,3.825c4.643,4.645,5.125,11.717,1.077,15.768
	c-4.049,4.051-11.122,3.571-15.768-1.075C633.962,224.854,633.479,217.781,637.53,213.73z M560.962,229.499
	c-2.28,2.28-5.201,3.632-8.223,3.806c-2.93,0.178-5.613-0.799-7.545-2.731c-1.931-1.931-2.901-4.609-2.731-7.544
	c0.175-3.023,1.528-5.942,3.808-8.223c2.529-2.53,5.779-3.825,8.871-3.825c2.581,0,5.053,0.905,6.896,2.748
	C566.089,217.781,565.607,224.854,560.962,229.499z M400.162,347.52c5.617,0,10.187-4.571,10.187-10.188
	c0-2.428,1.969-4.397,4.397-4.397c2.429,0,4.397,1.969,4.397,4.397c0,5.618,4.57,10.188,10.189,10.188
	c2.428,0,4.396,1.969,4.396,4.397s-1.969,4.397-4.396,4.397c-5.619,0-10.189,4.57-10.189,10.188c0,2.428-1.969,4.397-4.397,4.397
	c-2.429,0-4.397-1.969-4.397-4.397c0-5.618-4.57-10.188-10.187-10.188c-2.429,0-4.397-1.969-4.397-4.397
	S397.733,347.52,400.162,347.52z M477.369,244.584c2.429,0,4.397,1.969,4.397,4.397c0,2.428-1.969,4.397-4.397,4.397
	c-5.618,0-10.189,4.57-10.189,10.188c0,2.428-1.969,4.397-4.397,4.397c-2.428,0-4.396-1.969-4.396-4.397
	c0-5.618-4.571-10.188-10.188-10.188c-2.429,0-4.397-1.969-4.397-4.397c0-2.428,1.969-4.397,4.397-4.397
	c5.617,0,10.188-4.571,10.188-10.188c0-2.428,1.969-4.397,4.396-4.397c2.429,0,4.397,1.969,4.397,4.397
	C467.18,240.013,471.751,244.584,477.369,244.584z M434.652,143.757c0-2.428,1.969-4.397,4.396-4.397
	c5.617,0,10.189-4.571,10.189-10.188c0-2.428,1.969-4.397,4.396-4.397s4.396,1.969,4.396,4.397c0,5.618,4.571,10.188,10.19,10.188
	c2.428,0,4.397,1.969,4.397,4.397c0,2.428-1.969,4.397-4.397,4.397c-5.619,0-10.19,4.57-10.19,10.188
	c0,2.428-1.969,4.397-4.396,4.397s-4.396-1.969-4.396-4.397c0-5.618-4.572-10.188-10.189-10.188
	C436.62,148.154,434.652,146.185,434.652,143.757z M767.349,351.917c0-2.428,1.969-4.397,4.396-4.397
	c5.619,0,10.189-4.571,10.189-10.188c0-2.428,1.969-4.397,4.397-4.397s4.397,1.969,4.397,4.397c0,5.618,4.57,10.188,10.187,10.188
	c2.429,0,4.397,1.969,4.397,4.397s-1.969,4.397-4.397,4.397c-5.617,0-10.187,4.57-10.187,10.188c0,2.428-1.969,4.397-4.397,4.397
	s-4.397-1.969-4.397-4.397c0-5.618-4.57-10.188-10.189-10.188C769.317,356.314,767.349,354.345,767.349,351.917z M804.347,597.998
	c2.428,0,4.397,1.969,4.397,4.397s-1.969,4.397-4.397,4.397c-5.617,0-10.188,4.57-10.188,10.188c0,2.428-1.969,4.397-4.396,4.397
	c-2.429,0-4.397-1.969-4.397-4.397c0-5.618-4.571-10.188-10.189-10.188c-2.428,0-4.397-1.969-4.397-4.397s1.969-4.397,4.397-4.397
	c5.618,0,10.189-4.571,10.189-10.188c0-2.428,1.969-4.397,4.397-4.397c2.428,0,4.396,1.969,4.396,4.397
	C794.159,593.427,798.73,597.998,804.347,597.998z M719.312,248.981c0-2.428,1.969-4.397,4.397-4.397
	c5.618,0,10.189-4.571,10.189-10.188c0-2.428,1.969-4.397,4.397-4.397c2.428,0,4.396,1.969,4.396,4.397
	c0,5.618,4.571,10.188,10.188,10.188c2.429,0,4.397,1.969,4.397,4.397c0,2.428-1.969,4.397-4.397,4.397
	c-5.617,0-10.188,4.57-10.188,10.188c0,2.428-1.969,4.397-4.396,4.397c-2.429,0-4.397-1.969-4.397-4.397
	c0-5.618-4.571-10.188-10.189-10.188C721.28,253.378,719.312,251.409,719.312,248.981z M728.461,143.757
	c0-2.428,1.969-4.397,4.397-4.397c5.618,0,10.19-4.571,10.19-10.188c0-2.428,1.969-4.397,4.396-4.397
	c2.428,0,4.396,1.969,4.396,4.397c0,5.618,4.571,10.188,10.189,10.188c2.428,0,4.396,1.969,4.396,4.397
	c0,2.428-1.969,4.397-4.396,4.397c-5.618,0-10.189,4.57-10.189,10.188c0,2.428-1.969,4.397-4.396,4.397
	c-2.428,0-4.396-1.969-4.396-4.397c0-5.618-4.572-10.188-10.19-10.188C730.43,148.154,728.461,146.185,728.461,143.757z
	 M611.599,592.559c0.884,3.538,0.062,7.272-2.259,10.245c-2.392,3.062-6.112,4.964-9.708,4.964c-3.425,0-6.888-1.694-9.255-4.533
	c-2.436-2.915-3.447-6.694-2.78-10.37c2.091-11.487,8.439-13.201,12.035-13.201C608.373,579.663,610.554,588.372,611.599,592.559z
	 M584.25,563.74c1.663-2.215,4.75-2.909,7.046-3.099c0.953-0.074,1.858,0.119,2.674,0.563c2.197,1.191,5.032,2.299,5.951,2.322
	c0.98,0,3.593-0.987,5.271-1.869c0.313-0.166,0.645-0.296,0.99-0.388c1.322-0.352,4.66-0.98,7.245,0.759
	c1.449,0.976,2.367,2.474,2.584,4.221c0.326,2.611-1.526,4.994-4.136,5.319c-1.253,0.16-2.473-0.192-3.422-0.893
	c-1.914,0.898-5.529,2.383-8.538,2.383c-2.941,0-6.689-1.581-8.945-2.681c-1.654,1.277-4.015,1.348-5.768,0.036
	C583.099,568.833,582.671,565.845,584.25,563.74z M549.461,523.942c1.564-2.116,4.548-2.56,6.661-0.996
	c1.927,1.412,8.008,5.062,13.046,5.062c5.833,0,11.445-4.769,11.498-4.817c1.986-1.734,4.992-1.531,6.726,0.448
	s1.533,4.99-0.447,6.725c-0.841,0.734-8.467,7.175-17.778,7.175c-9.094,0-17.759-6.222-18.715-6.931
	C548.338,529.041,547.894,526.056,549.461,523.942z M612.366,523.942c1.564-2.116,4.545-2.557,6.655-1.001
	c1.92,1.41,8.011,5.066,13.056,5.066c5.842,0,11.455-4.779,11.511-4.828c1.979-1.711,4.992-1.506,6.714,0.478
	c1.722,1.983,1.523,4.977-0.45,6.706c-0.841,0.734-8.467,7.175-17.775,7.175c-9.094,0-17.759-6.222-18.718-6.931
	C611.243,529.041,610.799,526.058,612.366,523.942z"/>
</svg>
