<?xml version="1.0" encoding="utf-8"?>
<!-- Generator: Adobe Illustrator 23.0.3, SVG Export Plug-In . SVG Version: 6.00 Build 0)  -->
<svg version="1.1" id="Capa_1" xmlns="http://www.w3.org/2000/svg" xmlns:xlink="http://www.w3.org/1999/xlink" x="0px" y="0px"
	 viewBox="0 0 1200 1200" enable-background="new 0 0 1200 1200" xml:space="preserve">
<path fill="#2E2E2E" d="M387.866,1076.375c-0.912,0.887-1.365,1.967-1.365,3.236c0,1.266,0.453,2.358,1.365,3.267
	c0.89,0.891,1.97,1.334,3.239,1.334h13.143c4.157,0,7.716,1.48,10.673,4.437c2.96,2.96,4.437,6.518,4.437,10.676
	c0,4.161-1.477,7.719-4.437,10.676c-2.957,2.957-6.515,4.437-10.673,4.437h-22.984c-1.471,0-2.715-0.512-3.736-1.536
	c-1.024-1.021-1.536-2.268-1.536-3.735c0-1.446,0.512-2.681,1.536-3.704c1.021-1.021,2.265-1.533,3.736-1.533h22.984
	c1.266,0,2.346-0.444,3.236-1.334c0.909-0.912,1.368-2.001,1.368-3.27c0-1.266-0.459-2.346-1.368-3.236
	c-0.89-0.912-1.97-1.368-3.236-1.368h-13.143c-4.161,0-7.719-1.477-10.676-4.437c-2.957-2.935-4.437-6.494-4.437-10.673
	c0-4.161,1.48-7.719,4.437-10.676c2.957-2.957,6.515-4.437,10.676-4.437h22.984c1.446,0,2.69,0.524,3.736,1.567
	c1.024,1.024,1.533,2.259,1.533,3.704s-0.509,2.681-1.533,3.701c-1.046,1.024-2.29,1.536-3.736,1.536h-22.984
	C389.836,1075.006,388.756,1075.462,387.866,1076.375z M468.027,1064.498h-32.825c-1.467,0-2.715,0.524-3.736,1.567
	c-1.024,1.024-1.536,2.259-1.536,3.704s0.512,2.681,1.536,3.701c1.021,1.024,2.268,1.536,3.736,1.536h11.141v34.159
	c0,1.468,0.512,2.715,1.536,3.735c1.046,1.024,2.29,1.536,3.736,1.536s2.681-0.512,3.701-1.536c1.024-1.021,1.536-2.268,1.536-3.735
	v-34.159h11.175c1.446,0,2.69-0.512,3.739-1.536c1.021-1.021,1.533-2.256,1.533-3.701s-0.512-2.681-1.533-3.704
	C470.717,1065.022,469.473,1064.498,468.027,1064.498z M521.336,1098.424l7.04,7.037c1.024,1.024,1.533,2.259,1.533,3.704
	c0,1.468-0.509,2.715-1.533,3.735c-1.046,1.024-2.29,1.536-3.735,1.536s-2.681-0.512-3.704-1.536l-11.61-11.61h-12.274v7.874
	c0,1.468-0.515,2.715-1.536,3.735c-1.021,1.024-2.256,1.536-3.701,1.536c-1.471,0-2.715-0.512-3.736-1.536
	c-1.024-1.021-1.536-2.268-1.536-3.735v-39.397c0-1.446,0.512-2.681,1.536-3.704c1.021-1.042,2.265-1.567,3.736-1.567h19.683
	c5.07,0,9.407,1.803,13.006,5.405c3.605,3.602,5.405,7.94,5.405,13.009c0,3.202-0.788,6.193-2.367,8.973
	C526.03,1094.577,523.961,1096.755,521.336,1098.424z M519.403,1082.912c0-2.178-0.782-4.036-2.336-5.569
	c-1.536-1.557-3.391-2.336-5.569-2.336h-14.446v15.78h14.446c2.178,0,4.033-0.77,5.569-2.302
	C518.621,1086.926,519.403,1085.068,519.403,1082.912z M582.546,1075.006c1.446,0,2.693-0.512,3.739-1.536
	c1.021-1.021,1.536-2.256,1.536-3.701s-0.515-2.681-1.536-3.704c-1.046-1.042-2.293-1.567-3.739-1.567h-32.825
	c-1.464,0-2.712,0.524-3.736,1.567c-1.024,1.024-1.533,2.259-1.533,3.704v39.397c0,1.468,0.509,2.715,1.533,3.735
	c1.024,1.024,2.271,1.536,3.736,1.536h32.825c1.446,0,2.693-0.512,3.739-1.536c1.021-1.021,1.536-2.268,1.536-3.735
	c0-1.446-0.515-2.681-1.536-3.704c-1.046-1.021-2.293-1.533-3.739-1.533h-27.588v-9.208h21.017c1.446,0,2.693-0.509,3.735-1.533
	c1.024-1.024,1.539-2.259,1.539-3.704c0-1.468-0.515-2.712-1.539-3.736c-1.042-1.024-2.29-1.536-3.735-1.536h-21.017v-9.205H582.546
	z M640.459,1064.498c-1.446,0-2.681,0.524-3.704,1.567c-1.021,1.024-1.533,2.259-1.533,3.704v24.886L611.67,1066.4
	c-0.711-0.844-1.601-1.412-2.668-1.7c-1.067-0.292-2.125-0.245-3.168,0.133c-1.049,0.375-1.88,1.011-2.504,1.899
	c-0.645,0.912-0.965,1.924-0.965,3.037v39.397c0,1.468,0.509,2.715,1.533,3.735c1.024,1.024,2.268,1.536,3.736,1.536
	c1.446,0,2.681-0.512,3.704-1.536c1.021-1.021,1.533-2.268,1.533-3.735v-24.886l23.552,28.255c1.046,1.266,2.392,1.902,4.036,1.902
	c0.62,0,1.222-0.102,1.799-0.301c1.049-0.379,1.88-1.024,2.504-1.936c0.645-0.909,0.968-1.924,0.968-3.034v-39.397
	c0-1.446-0.512-2.681-1.536-3.704C643.152,1065.022,641.905,1064.498,640.459,1064.498z M704.741,1084.212h-19.515
	c-1.446,0-2.681,0.512-3.701,1.536c-1.024,1.046-1.536,2.29-1.536,3.736s0.512,2.681,1.536,3.704
	c1.021,1.024,2.256,1.533,3.701,1.533h13.474c-1.067,2.737-2.811,4.949-5.237,6.64c-2.466,1.713-5.212,2.569-8.237,2.569
	c-3.981,0-7.384-1.412-10.207-4.238c-2.826-2.823-4.235-6.227-4.235-10.207s1.409-7.381,4.235-10.208
	c2.823-2.845,6.227-4.269,10.207-4.269c4.002,0,7.418,1.412,10.242,4.235c1.024,1.046,2.256,1.557,3.701,1.536
	c1.468,0,2.715-0.512,3.739-1.536c1.021-1.021,1.533-2.255,1.533-3.701c0-1.468-0.521-2.715-1.57-3.735
	c-4.868-4.871-10.75-7.307-17.644-7.307c-6.872,0-12.755,2.448-17.647,7.338c-4.868,4.871-7.307,10.754-7.307,17.647
	c0,6.872,2.439,12.755,7.307,17.647c4.893,4.871,10.775,7.307,17.647,7.307c6.894,0,12.776-2.436,17.644-7.307
	c4.896-4.893,7.341-10.775,7.341-17.647v-0.031c0-1.471-0.546-2.724-1.632-3.77C707.509,1084.658,706.231,1084.168,704.741,1084.212
	z M758.881,1064.498h-32.825c-1.468,0-2.715,0.524-3.735,1.567c-1.024,1.024-1.536,2.259-1.536,3.704s0.512,2.681,1.536,3.701
	c1.021,1.024,2.268,1.536,3.735,1.536h11.141v34.159c0,1.468,0.512,2.715,1.536,3.735c1.046,1.024,2.29,1.536,3.736,1.536
	s2.681-0.512,3.701-1.536c1.024-1.021,1.536-2.268,1.536-3.735v-34.159h11.175c1.446,0,2.69-0.512,3.739-1.536
	c1.021-1.021,1.533-2.256,1.533-3.701s-0.512-2.681-1.533-3.704C761.571,1065.022,760.327,1064.498,758.881,1064.498z
	 M815.494,1064.498c-1.446,0-2.681,0.524-3.704,1.567c-1.024,1.024-1.533,2.259-1.533,3.704v14.443h-22.351v-14.443
	c0-1.446-0.515-2.681-1.536-3.704c-1.021-1.042-2.256-1.567-3.701-1.567c-1.471,0-2.715,0.524-3.735,1.567
	c-1.024,1.024-1.536,2.259-1.536,3.704v39.397c0,1.468,0.512,2.715,1.536,3.735c1.021,1.024,2.265,1.536,3.735,1.536
	c1.446,0,2.681-0.512,3.701-1.536c1.021-1.021,1.536-2.268,1.536-3.735v-14.446h22.351v14.446c0,1.468,0.509,2.715,1.533,3.735
	c1.024,1.024,2.259,1.536,3.704,1.536s2.69-0.512,3.736-1.536c1.024-1.021,1.533-2.268,1.533-3.735v-39.397
	c0-1.446-0.509-2.681-1.533-3.704C818.184,1065.022,816.94,1064.498,815.494,1064.498z M897.212,600l0.04,428.177
	c0,4.501-3.911,8.411-8.411,8.411h-0.02H310.922h-0.02c-4.448,0-8.05-3.568-8.133-7.997V600V86.981c0-3.089,1.202-5.993,3.387-8.178
	c2.184-2.184,5.087-3.387,8.177-3.387h0.019H599.98H600h285.628h0.019c3.089,0,5.993,1.203,8.178,3.387
	c2.184,2.184,3.387,5.088,3.387,8.177V600z M887.7,1027.058l-0.04-427.057V86.981c0-0.559-0.2-1.042-0.596-1.438
	c-0.396-0.395-0.879-0.596-1.437-0.596H600h-0.02H314.352c-0.558,0-1.042,0.2-1.437,0.595c-0.395,0.396-0.596,0.88-0.596,1.439V600
	v427.057H887.7z M922.628,86.981V600v513.019c0,9.878-3.847,19.165-10.832,26.15c-6.985,6.985-16.271,10.831-26.149,10.831H600
	H314.352c-9.877,0-19.163-3.846-26.149-10.832c-6.985-6.985-10.831-16.271-10.831-26.149V600V86.981
	c0-9.878,3.846-19.164,10.831-26.149C295.188,53.847,304.475,50,314.352,50H600h285.647c9.878,0,19.165,3.847,26.148,10.831
	C918.781,67.816,922.628,77.102,922.628,86.981z M913.097,86.981c0-7.58-3.072-14.442-8.04-19.41
	c-4.967-4.968-11.829-8.04-19.41-8.04H600H314.352c-7.58,0-14.442,3.072-19.41,8.04c-4.967,4.967-8.04,11.83-8.04,19.41V600v513.019
	c0,7.58,3.072,14.443,8.04,19.41c4.968,4.968,11.83,8.04,19.41,8.04H600h285.647c7.58,0,14.443-3.072,19.41-8.04
	c4.968-4.967,8.04-11.83,8.04-19.41V600V86.981z M550.404,158.857c0.444,0.89,1.086,1.59,1.933,2.102
	c0.847,0.534,1.768,0.8,2.771,0.8c0.999,0,1.924-0.267,2.768-0.8c0.844-0.512,1.489-1.212,1.936-2.102l19.683-39.431
	c0.664-1.289,0.763-2.623,0.298-4.002s-1.347-2.391-2.637-3.036c-1.288-0.645-2.622-0.745-4.002-0.299
	c-1.378,0.467-2.389,1.345-3.034,2.634l-15.01,30.024l-15.013-29.957c-0.645-1.311-1.657-2.19-3.037-2.634
	c-1.378-0.468-2.724-0.379-4.033,0.267c-1.291,0.645-2.159,1.657-2.603,3.034c-0.469,1.381-0.379,2.726,0.267,4.036L550.404,158.857
	z M598.571,161.759c1.446,0,2.681-0.512,3.701-1.534c1.024-1.022,1.536-2.268,1.536-3.737v-39.397c0-1.446-0.512-2.679-1.536-3.703
	c-1.021-1.044-2.256-1.567-3.701-1.567c-1.468,0-2.715,0.523-3.736,1.567c-1.024,1.024-1.536,2.257-1.536,3.703v39.397
	c0,1.469,0.512,2.715,1.536,3.737C595.857,161.248,597.104,161.759,598.571,161.759z M626.293,161.759
	c1.446,0,2.681-0.512,3.704-1.534c1.021-1.022,1.533-2.268,1.533-3.737v-39.397c0-1.446-0.512-2.679-1.533-3.703
	c-1.024-1.044-2.259-1.567-3.704-1.567c-1.468,0-2.712,0.523-3.735,1.567c-1.024,1.024-1.533,2.257-1.533,3.703v39.397
	c0,1.469,0.509,2.715,1.533,3.737C623.581,161.248,624.825,161.759,626.293,161.759z M654.011,161.759
	c1.446,0,2.681-0.512,3.704-1.534s1.533-2.268,1.533-3.737v-39.397c0-1.446-0.509-2.679-1.533-3.703
	c-1.024-1.044-2.259-1.567-3.704-1.567c-1.464,0-2.712,0.523-3.736,1.567c-1.024,1.024-1.533,2.257-1.533,3.703v39.397
	c0,1.469,0.509,2.715,1.533,3.737C651.3,161.248,652.547,161.759,654.011,161.759z M824.357,376.998
	c5.617,0,10.188,4.57,10.188,10.188c0,2.428,1.969,4.397,4.397,4.397s4.396-1.969,4.396-4.397c0-5.618,4.571-10.188,10.19-10.188
	c2.428,0,4.396-1.969,4.396-4.397s-1.969-4.397-4.396-4.397c-5.619,0-10.19-4.571-10.19-10.188c0-2.428-1.969-4.397-4.396-4.397
	s-4.397,1.969-4.397,4.397c0,5.618-4.571,10.188-10.188,10.188c-2.428,0-4.396,1.969-4.396,4.397S821.929,376.998,824.357,376.998z
	 M820.821,482.195c5.617,0,10.188,4.57,10.188,10.188c0,2.428,1.969,4.397,4.397,4.397c2.428,0,4.396-1.969,4.396-4.397
	c0-5.618,4.571-10.188,10.189-10.188c2.429,0,4.397-1.969,4.397-4.397c0-2.428-1.969-4.397-4.397-4.397
	c-5.618,0-10.189-4.571-10.189-10.188c0-2.428-1.969-4.397-4.396-4.397c-2.429,0-4.397,1.969-4.397,4.397
	c0,5.618-4.571,10.188-10.188,10.188c-2.428,0-4.396,1.969-4.396,4.397C816.425,480.227,818.394,482.195,820.821,482.195z
	 M382.131,486.788c2.429,0,4.397-1.969,4.397-4.397c0-5.618,4.571-10.188,10.189-10.188c2.429,0,4.397-1.969,4.397-4.397
	s-1.969-4.397-4.397-4.397c-5.618,0-10.189-4.571-10.189-10.188c0-2.428-1.969-4.397-4.397-4.397c-2.428,0-4.396,1.969-4.396,4.397
	c0,5.618-4.571,10.188-10.188,10.188c-2.429,0-4.397,1.969-4.397,4.397s1.969,4.397,4.397,4.397c5.617,0,10.188,4.57,10.188,10.188
	C377.734,484.819,379.703,486.788,382.131,486.788z M374.483,570.588c-5.619,0-10.19-4.571-10.19-10.189
	c0-2.428-1.969-4.397-4.397-4.397c-2.428,0-4.396,1.969-4.396,4.397c0,5.618-4.571,10.189-10.188,10.189
	c-2.428,0-4.397,1.969-4.397,4.397s1.969,4.397,4.397,4.397c5.617,0,10.188,4.57,10.188,10.188c0,2.428,1.969,4.397,4.396,4.397
	c2.429,0,4.397-1.969,4.397-4.397c0-5.618,4.571-10.188,10.19-10.188c2.428,0,4.396-1.969,4.396-4.397
	S376.911,570.588,374.483,570.588z M845.771,560.399c0-2.428-1.969-4.397-4.396-4.397c-2.428,0-4.396,1.969-4.396,4.397
	c0,5.618-4.572,10.189-10.189,10.189c-2.428,0-4.396,1.969-4.396,4.397s1.969,4.397,4.396,4.397c5.617,0,10.189,4.57,10.189,10.188
	c0,2.428,1.969,4.397,4.396,4.397c2.428,0,4.396-1.969,4.396-4.397c0-5.618,4.571-10.188,10.19-10.188
	c2.428,0,4.397-1.969,4.397-4.397s-1.969-4.397-4.397-4.397C850.342,570.588,845.771,566.017,845.771,560.399z M383.297,959.668
	c-5.618,0-10.189-4.571-10.189-10.189c0-2.428-1.969-4.397-4.397-4.397c-2.428,0-4.396,1.969-4.396,4.397
	c0,5.618-4.571,10.189-10.188,10.189c-2.429,0-4.397,1.969-4.397,4.397s1.969,4.397,4.397,4.397c5.617,0,10.188,4.57,10.188,10.188
	c0,2.428,1.969,4.397,4.396,4.397c2.429,0,4.397-1.969,4.397-4.397c0-5.618,4.571-10.188,10.189-10.188
	c2.429,0,4.397-1.969,4.397-4.397S385.725,959.668,383.297,959.668z M354.125,859.025c0-5.618,4.571-10.188,10.189-10.188
	c2.429,0,4.397-1.969,4.397-4.397s-1.969-4.397-4.397-4.397c-5.618,0-10.189-4.571-10.189-10.188c0-2.428-1.969-4.397-4.396-4.397
	c-2.429,0-4.397,1.969-4.397,4.397c0,5.618-4.571,10.188-10.188,10.188c-2.428,0-4.396,1.969-4.396,4.397s1.969,4.397,4.396,4.397
	c5.617,0,10.188,4.57,10.188,10.188c0,2.428,1.969,4.397,4.397,4.397C352.157,863.422,354.125,861.453,354.125,859.025z
	 M869.685,840.043c-5.619,0-10.19-4.571-10.19-10.188c0-2.428-1.969-4.397-4.396-4.397c-2.429,0-4.397,1.969-4.397,4.397
	c0,5.618-4.571,10.188-10.188,10.188c-2.428,0-4.396,1.969-4.396,4.397s1.969,4.397,4.396,4.397c5.617,0,10.188,4.57,10.188,10.188
	c0,2.428,1.969,4.397,4.397,4.397c2.428,0,4.396-1.969,4.396-4.397c0-5.618,4.571-10.188,10.19-10.188
	c2.428,0,4.396-1.969,4.396-4.397S872.113,840.043,869.685,840.043z M850.703,959.668c-5.619,0-10.19-4.571-10.19-10.189
	c0-2.428-1.969-4.397-4.396-4.397c-2.428,0-4.397,1.969-4.397,4.397c0,5.618-4.571,10.189-10.188,10.189
	c-2.428,0-4.396,1.969-4.396,4.397s1.969,4.397,4.396,4.397c5.617,0,10.188,4.57,10.188,10.188c0,2.428,1.969,4.397,4.397,4.397
	c2.428,0,4.396-1.969,4.396-4.397c0-5.618,4.571-10.188,10.19-10.188c2.428,0,4.396-1.969,4.396-4.397
	S853.131,959.668,850.703,959.668z M828.402,231.09c5.617,0,10.187,4.57,10.187,10.188c0,2.428,1.969,4.397,4.397,4.397
	s4.397-1.969,4.397-4.397c0-5.618,4.57-10.188,10.189-10.188c2.428,0,4.396-1.969,4.396-4.397s-1.969-4.397-4.396-4.397
	c-5.619,0-10.189-4.571-10.189-10.189c0-2.428-1.969-4.397-4.397-4.397s-4.397,1.969-4.397,4.397c0,5.618-4.57,10.189-10.187,10.189
	c-2.429,0-4.397,1.969-4.397,4.397S825.974,231.09,828.402,231.09z M352.008,231.09c5.617,0,10.188,4.57,10.188,10.188
	c0,2.428,1.969,4.397,4.396,4.397c2.429,0,4.397-1.969,4.397-4.397c0-5.618,4.57-10.188,10.189-10.188
	c2.428,0,4.397-1.969,4.397-4.397s-1.969-4.397-4.397-4.397c-5.619,0-10.189-4.571-10.189-10.189c0-2.428-1.969-4.397-4.397-4.397
	c-2.428,0-4.396,1.969-4.396,4.397c0,5.618-4.571,10.189-10.188,10.189c-2.429,0-4.397,1.969-4.397,4.397
	S349.579,231.09,352.008,231.09z M426.497,278.144c5.617,0,10.188,4.57,10.188,10.188c0,2.428,1.969,4.397,4.396,4.397
	c2.429,0,4.397-1.969,4.397-4.397c0-5.618,4.571-10.188,10.189-10.188c2.429,0,4.397-1.969,4.397-4.397s-1.969-4.397-4.397-4.397
	c-5.618,0-10.189-4.571-10.189-10.188c0-2.428-1.969-4.397-4.397-4.397c-2.428,0-4.396,1.969-4.396,4.397
	c0,5.618-4.571,10.188-10.188,10.188c-2.429,0-4.397,1.969-4.397,4.397S424.068,278.144,426.497,278.144z M747.378,278.144
	c5.617,0,10.188,4.57,10.188,10.188c0,2.428,1.969,4.397,4.396,4.397c2.429,0,4.397-1.969,4.397-4.397
	c0-5.618,4.571-10.188,10.189-10.188c2.429,0,4.397-1.969,4.397-4.397s-1.969-4.397-4.397-4.397
	c-5.618,0-10.189-4.571-10.189-10.188c0-2.428-1.969-4.397-4.397-4.397c-2.428,0-4.396,1.969-4.396,4.397
	c0,5.618-4.571,10.188-10.188,10.188c-2.429,0-4.397,1.969-4.397,4.397S744.949,278.144,747.378,278.144z M387.087,155.27
	c5.617,0,10.188,4.57,10.188,10.188c0,2.428,1.969,4.397,4.397,4.397c2.428,0,4.396-1.969,4.396-4.397
	c0-5.618,4.571-10.188,10.189-10.188c2.429,0,4.397-1.969,4.397-4.397c0-2.428-1.969-4.397-4.397-4.397
	c-5.618,0-10.189-4.571-10.189-10.188c0-2.428-1.969-4.397-4.396-4.397c-2.429,0-4.397,1.969-4.397,4.397
	c0,5.618-4.571,10.188-10.188,10.188c-2.428,0-4.396,1.969-4.396,4.397C382.691,153.302,384.659,155.27,387.087,155.27z
	 M783.742,155.27c5.617,0,10.187,4.57,10.187,10.188c0,2.428,1.969,4.397,4.397,4.397s4.397-1.969,4.397-4.397
	c0-5.618,4.57-10.188,10.189-10.188c2.428,0,4.396-1.969,4.396-4.397c0-2.428-1.969-4.397-4.396-4.397
	c-5.619,0-10.189-4.571-10.189-10.188c0-2.428-1.969-4.397-4.397-4.397s-4.397,1.969-4.397,4.397c0,5.618-4.57,10.188-10.187,10.188
	c-2.429,0-4.397,1.969-4.397,4.397C779.345,153.302,781.314,155.27,783.742,155.27z M343.988,354.351
	c5.617,0,10.188,4.57,10.188,10.188c0,2.428,1.969,4.397,4.397,4.397c2.428,0,4.396-1.969,4.396-4.397
	c0-5.618,4.571-10.188,10.19-10.188c2.428,0,4.396-1.969,4.396-4.397s-1.969-4.397-4.396-4.397c-5.619,0-10.19-4.571-10.19-10.188
	c0-2.428-1.969-4.397-4.396-4.397c-2.429,0-4.397,1.969-4.397,4.397c0,5.618-4.571,10.188-10.188,10.188
	c-2.428,0-4.396,1.969-4.396,4.397S341.561,354.351,343.988,354.351z M517.433,214.747c0-11.357,7.322-20.977,19.59-25.733
	c17.553-6.803,46.008-3.485,68.911,18.931c22.908-22.417,51.376-25.732,68.911-18.931c12.268,4.756,19.59,14.376,19.59,25.733
	s-7.322,20.978-19.59,25.734c-5.222,2.024-11.414,3.157-18.138,3.157c-15.862,0-34.685-6.312-50.772-22.048
	c-16.088,15.736-34.913,22.048-50.775,22.048c-6.723,0-12.913-1.132-18.138-3.157C524.758,235.725,517.433,226.104,517.433,214.747z
	 M612.594,214.747c19.882,19.471,44.071,22.565,58.804,16.847c8.585-3.328,13.505-9.468,13.505-16.847
	c0-7.378-4.921-13.518-13.502-16.845C656.648,192.185,632.477,195.276,612.594,214.747z M526.964,214.747
	c0,7.379,4.924,13.519,13.505,16.847c14.729,5.715,38.919,2.627,58.802-16.847c-19.882-19.472-44.069-22.559-58.802-16.846
	C531.888,201.229,526.964,207.369,526.964,214.747z M831.693,685.519c-3.689,37.519-20.077,138.847-39.595,207.203
	c-5.46,19.107-42.548,37.911-64.774,46.494c-2.083,3.304-4.617,6.582-7.795,9.75c-18.231,18.172-39.902,16.779-50.507,14.61
	c-0.469,8.358-2.935,23.003-13.636,34.702c-10.322,11.287-25.643,17.008-45.54,17.008c-19.832,0-35.121-5.709-45.443-16.968
	c-10.735-11.709-13.233-26.384-13.716-34.746c-10.602,2.166-32.282,3.568-50.522-14.607c-2.562-2.553-4.71-5.179-6.548-7.831
	c-22.535-8.684-64.189-29.174-69.682-48.412c-19.528-68.387-35.909-169.699-39.595-207.203c-6.27-63.814,20.52-87.381,23.595-89.854
	c13.22-12.494,29.374-18.482,46.703-21.02c-14.183-15.757-11.179-36.391-5.886-48.894c-6.469-4.095-17.449-13.986-17.449-33.899
	c0-19.649,11.464-31.178,18.898-36.589c-6.826-6.813-16.295-21.25-8.486-44.767c5.479-16.49,16.025-23.598,22.916-26.583
	c-4.089-7.809-9.187-22.928-0.729-40.687c9.24-19.388,26.719-24.849,34.907-26.369c0.937-9.022,6.643-29.388,37.408-47.24
	c33.314-19.336,69.416-16.827,69.416-16.827s36.112-2.512,69.418,16.827c30.762,17.849,36.471,38.218,37.405,47.24
	c8.188,1.52,25.668,6.981,34.907,26.369c8.461,17.759,3.363,32.878-0.726,40.687c6.891,2.985,17.436,10.093,22.916,26.583
	c7.812,23.518-1.66,37.954-8.489,44.767c7.434,5.411,18.901,16.94,18.901,36.589c0,19.912-10.98,29.803-17.449,33.899
	c5.231,12.357,8.218,32.657-5.407,48.341c18.949,2.149,36.684,8.051,50.987,21.572C811.173,598.141,837.964,621.712,831.693,685.519
	z M467.389,573.36c10.45-0.605,21.16-0.275,31.786,0.408c13.592,0.881,26.775-3.946,37.063-13.592
	c10.117-9.488,14.647-20.868,14.647-27.936v-36.102c-14.909-16.773-21.325-35.806-24.054-48.197
	c-1.702-6.095-2.332-9.989-2.332-9.989c-7.366-8.423-20.328-37.363-1.836-45.797c45.766-20.874,81.092-72.305,82.968-71.862
	c1.875-0.443,42.169,58.613,82.971,71.861c19.701,6.397,5.525,34.575-1.841,42.998c-3.272,27.651-14.681,46.924-23.901,58.405
	l2.286,38.682c0,7.068,4.53,18.448,14.647,27.936c10.285,9.646,23.465,14.477,37.063,13.592c9.109-0.586,18.275-0.899,27.29-0.602
	c23.783-17.554,8.592-45.948,7.918-47.172c-0.664-1.21-0.773-2.647-0.295-3.943c0.475-1.294,1.489-2.318,2.78-2.808
	c0.62-0.245,15.882-6.519,15.882-27.39c0-22.245-18.752-31.333-19.549-31.708c-1.61-0.757-2.671-2.352-2.74-4.13
	c-0.071-1.775,0.847-3.447,2.392-4.328c0.751-0.441,18.854-11.442,9.969-38.187c-6.466-19.469-21.25-22.106-21.876-22.208
	c-1.672-0.276-3.093-1.421-3.698-3.003c-0.608-1.582-0.344-3.372,0.717-4.694c0.509-0.642,12.612-16.326,3.109-36.266
	c-9.646-20.244-30.958-21.513-31.172-21.526c-1.309-0.062-2.535-0.664-3.388-1.66c-0.853-0.996-1.257-2.299-1.117-3.605
	c0.074-0.872,1.536-22.745-32.813-42.676c-33.827-19.636-95.469-19.611-129.266-0.003c-34.783,20.185-32.838,42.459-32.816,42.679
	c0.14,1.306-0.264,2.609-1.117,3.605c-0.853,0.996-2.079,1.598-3.388,1.66c-0.863,0.05-21.603,1.44-31.172,21.526
	c-9.5,19.94,2.603,35.624,3.124,36.282c1.055,1.337,1.325,3.14,0.698,4.722c-0.63,1.582-2.045,2.715-3.729,2.966
	c-0.59,0.096-15.373,2.733-21.839,22.202c-8.886,26.744,9.218,37.746,9.99,38.202c1.53,0.897,2.448,2.578,2.361,4.35
	c-0.087,1.772-1.139,3.357-2.749,4.102c-0.782,0.366-19.531,9.454-19.531,31.699c0,21.116,15.724,27.331,15.882,27.39
	c1.291,0.49,2.305,1.514,2.78,2.808c0.478,1.297,0.369,2.733-0.295,3.943C458.533,527.219,443.352,555.898,467.389,573.36z
	 M739.898,648.98c-0.189,10.353-8.408,18.156-8.759,18.482c-0.057,0.053-0.132,0.07-0.191,0.12c2.259,1.97,4.417,3.796,6.449,5.475
	c3.949-4.61,11.545-14.959,11.494-26.327c-0.031-7.176-1.374-14.621-7.595-20.523c-18.515-17.565-40.583-4.749-48.302,1.1
	c2.107,2.829,4.282,5.582,6.496,8.263c3.021-2.789,10.188-8.469,18.683-8.651c5.485-0.056,10.58,2.032,14.92,6.401
	C737.713,637.966,740.003,643.234,739.898,648.98z M726.336,640.042c-2.467-2.479-4.992-3.63-7.961-3.593
	c-5.605,0.119-10.856,4.635-12.666,6.361c6.14,6.854,12.409,13.086,18.309,18.548c0.194-0.286,0.337-0.598,0.6-0.845
	c0.133-0.13,5.665-5.504,5.752-11.749C730.413,645.667,729.091,642.815,726.336,640.042z M589.641,399.395
	c-1.597-2.038-4.494-2.346-6.456-0.695c-0.071,0.062-7.254,6.013-14.917,6.013c-7.837,0-16.526-6.097-16.72-6.236
	c-2.079-1.492-4.942-0.956-6.387,1.21c-1.444,2.163-0.925,5.132,1.163,6.63c0.449,0.323,11.159,7.927,21.944,7.927
	c10.989,0,20.33-7.825,20.724-8.157C590.951,404.424,591.238,401.434,589.641,399.395z M587.101,441.703
	c-1.582,2.105-1.157,5.091,0.949,6.672c1.824,1.373,4.319,1.23,5.982-0.209c0.102-0.029,0.22-0.059,0.348-0.088
	c2.544,1.269,7.077,3.253,10.543,3.253c3.67,0,8.203-1.989,10.217-2.971c0.996,0.914,2.386,1.399,3.813,1.218
	c2.612-0.326,4.465-2.707,4.139-5.318c-0.227-1.812-1.176-3.368-2.681-4.379c-2.755-1.86-6.41-1.165-7.853-0.779
	c-0.344,0.092-0.676,0.222-0.99,0.386c-1.796,0.945-5.194,2.311-6.646,2.311c-1.294,0-4.961-1.503-7.44-2.851
	c-0.816-0.444-1.747-0.634-2.674-0.563C592.27,438.596,588.873,439.342,587.101,441.703z M576.617,476.136
	c1.212,0.212,2.63,0.336,4.192,0.399c0.016,0.109,0.015,0.217,0.04,0.327c1.238,5.51,7.843,15.929,23.98,15.929
	c16.14,0,22.723-10.426,23.949-15.938c0.022-0.097,0.019-0.192,0.034-0.289c0.493-0.031,0.995-0.055,1.461-0.102l1.024-0.11
	c0.524-0.062,1.049-0.129,1.57-0.225c2.588-0.482,4.294-2.972,3.81-5.56c-0.484-2.589-3-4.278-5.56-3.81
	c-0.31,0.059-0.627,0.093-1.002,0.137l-0.788,0.085c-0.543,0.054-1.127,0.089-1.727,0.116c-6.518-7.436-16.8-6.544-22.899-4.525
	c-8.707-2.994-18.012-1.124-22.864,4.458c-1.383-0.035-2.629-0.115-3.57-0.281c-2.575-0.442-5.063,1.274-5.519,3.869
	C572.292,473.209,574.024,475.68,576.617,476.136z M642.23,414.244c10.989,0,20.329-7.825,20.724-8.157
	c1.958-1.663,2.245-4.654,0.648-6.692c-1.596-2.038-4.494-2.346-6.456-0.695c-0.071,0.062-7.254,6.013-14.917,6.013
	c-7.836,0-16.526-6.097-16.721-6.236c-2.077-1.492-4.942-0.956-6.387,1.21c-1.444,2.163-0.924,5.132,1.163,6.63
	C620.734,406.64,631.445,414.244,642.23,414.244z M520.604,635.083c2.071-2.523,4.108-5.108,6.083-7.76
	c-7.75-5.83-29.254-19.51-47.68-2.031c-6.233,5.914-8.187,14.291-8.206,21.482c-0.03,11.416,7.542,21.703,11.487,26.289
	c2.173-1.795,4.49-3.76,6.918-5.885c-1.488-1.481-8.296-8.773-8.468-18.197c-0.105-5.746,2.184-11.014,6.804-15.659
	c4.344-4.368,9.45-6.481,14.92-6.401C510.486,627.092,517.323,632.169,520.604,635.083z M502.228,636.449
	c-0.059-0.003-0.121-0.003-0.183-0.003c-2.805,0-5.34,1.179-7.744,3.596c-2.771,2.786-4.089,5.653-4.033,8.765
	c0.115,6.264,5.684,11.641,5.74,11.694c0.102,0.096,0.142,0.226,0.234,0.329c5.874-5.465,12.089-11.68,18.171-18.504
	C511.891,640.045,507.026,636.537,502.228,636.449z M776.331,741.58c-0.233-0.562-0.357-1.173-0.363-1.781
	c-0.396-43.655-16.893-64.288-23.894-71.091c-2.474,4.371-5.183,7.914-7.227,10.316c5.47,4.239,8.939,6.614,9.053,6.69
	c2.178,1.477,2.746,4.44,1.269,6.618c-0.922,1.362-2.42,2.094-3.95,2.094c-0.918,0-1.846-0.264-2.665-0.819
	c-1.595-1.08-39.328-26.856-65.927-64.344c-0.23-0.325-0.399-0.671-0.538-1.026c-0.024-0.061-0.039-0.122-0.06-0.184
	c-0.182-0.528-0.275-1.072-0.267-1.618c0.001-0.058,0.009-0.111,0.012-0.169c0.028-0.553,0.145-1.097,0.361-1.609
	c0.023-0.054,0.052-0.102,0.077-0.156c0.238-0.513,0.564-0.985,0.984-1.395c0.019-0.019,0.025-0.045,0.045-0.064
	c2.094-1.979,4.744-4.081,7.813-6.058c-27.46-30.277-78.674-7.112-79.203-6.861c-0.038,0.017-0.078,0.023-0.116,0.04
	c-0.168,0.073-0.343,0.124-0.519,0.177c-0.119,0.036-0.235,0.08-0.354,0.105c-0.202,0.044-0.409,0.063-0.616,0.081
	c-0.097,0.008-0.193,0.026-0.289,0.028c-0.214,0.005-0.428-0.017-0.643-0.042c-0.092-0.011-0.185-0.012-0.275-0.028
	c-0.185-0.032-0.366-0.089-0.549-0.144c-0.124-0.037-0.249-0.068-0.37-0.115c-0.043-0.017-0.088-0.022-0.131-0.041
	c-0.588-0.246-56.721-23.513-79.704,6.572c3.221,2.043,5.993,4.231,8.167,6.285c0.019,0.019,0.026,0.045,0.045,0.064
	c0.42,0.41,0.746,0.882,0.984,1.394c0.026,0.054,0.054,0.103,0.078,0.157c0.216,0.513,0.333,1.055,0.361,1.608
	c0.003,0.058,0.012,0.112,0.012,0.169c0.009,0.545-0.085,1.089-0.267,1.617c-0.021,0.063-0.036,0.124-0.06,0.186
	c-0.139,0.354-0.307,0.701-0.538,1.025c-26.598,37.488-64.332,63.265-65.927,64.344c-0.819,0.552-1.747,0.819-2.665,0.819
	c-1.53,0-3.028-0.732-3.95-2.094c-1.477-2.178-0.909-5.141,1.269-6.618c0.113-0.076,3.583-2.451,9.053-6.69
	c-2.092-2.458-4.877-6.116-7.396-10.626c-7.102,5.981-24.153,25.228-22.391,71.174c0.028,0.732-0.115,1.461-0.413,2.131
	c-0.177,0.4-17.818,41.115-0.58,90.896c17.697,51.109,47.137,56.182,48.382,56.371c1.421,0.217,2.687,1.067,3.41,2.308
	c0.726,1.241,0.872,2.746,0.363,4.089c-0.394,1.067-9.565,26.679,10.67,46.846c20.251,20.176,45.803,11.082,46.886,10.682
	c1.536-0.558,3.251-0.304,4.545,0.683c1.297,0.99,2.004,2.572,1.862,4.198c-0.016,0.189-1.502,20.263,11.303,34.162
	c8.445,9.168,21.352,13.816,38.36,13.816c17.108,0,30.064-4.679,38.506-13.909c12.789-13.983,11.175-33.858,11.157-34.057
	c-0.146-1.632,0.558-3.227,1.862-4.216c1.303-0.993,3.031-1.247,4.558-0.67c1.07,0.397,26.633,9.491,46.874-10.688
	c20.235-20.167,11.064-45.779,10.664-46.858c-0.5-1.356-0.363-2.87,0.378-4.111c0.742-1.238,2.004-2.082,3.435-2.28
	c1.21-0.183,30.65-5.256,48.347-56.365C792.89,782.748,776.499,741.986,776.331,741.58z M580.673,726.07
	c-0.084-0.462-2.208-11.34-17.351-15.498c-0.005-0.001-0.009-0.004-0.014-0.005c-3.86-1.061-8.523-1.598-13.862-1.598
	c-11.027,0-20.88,5.616-27.033,15.41c-1.402,2.228-0.732,5.169,1.499,6.568c0.788,0.496,1.663,0.732,2.532,0.732
	c1.582,0,3.134-0.788,4.036-2.231c1.647-2.618,4.672-6.354,9.379-8.716c-0.108,0.562-0.2,1.137-0.2,1.817
	c0,6.71,5.439,12.148,12.148,12.148c6.709,0,12.149-5.439,12.149-12.148c0-0.594-0.05-1.175-0.133-1.747
	c6.261,2.658,7.403,6.715,7.49,7.056c0.453,2.249,2.435,3.819,4.663,3.819c0.282,0,0.565-0.025,0.85-0.074
	C579.417,731.136,581.139,728.66,580.673,726.07z M634.404,801.891c7.245,0,10.543,4.266,10.543,8.228
	c0,2.541-1.294,7.334-9.959,10.899c-3.729,1.536-8.399,2.631-13.8,3.255c-3.081,5.684-5.51,12.041-6.767,16.335
	c-0.15,0.478-0.36,0.89-0.614,1.276c-0.051,0.078-0.099,0.154-0.155,0.228c-2.249,2.991-7.288,2.16-8.36-1.466
	c-1.28-4.329-3.715-10.689-6.799-16.376c-5.395-0.624-10.059-1.719-13.785-3.252c-8.665-3.565-9.959-8.358-9.959-10.899
	c0-3.962,3.298-8.228,10.543-8.228c7.846,0,14.166,6.103,18.898,13.307c1.744,0.099,3.63,0.152,5.659,0.152
	c2.029,0,3.915-0.053,5.659-0.152C620.237,807.993,626.557,801.891,634.404,801.891z M670.248,708.968
	c-30.114,0-31.134,17.03-31.165,17.756c-0.105,2.631,1.939,4.93,4.567,5.032c0.068,0.003,0.133,0.006,0.202,0.006
	c2.541,0,4.645-1.933,4.744-4.496c0.216-1.842,2.16-4.676,7.296-6.622c-0.098,0.621-0.153,1.256-0.153,1.905
	c0,6.71,5.44,12.148,12.149,12.148s12.148-5.439,12.148-12.148c0-0.681-0.092-1.255-0.2-1.817c4.707,2.362,7.732,6.098,9.379,8.716
	c1.399,2.234,4.344,2.898,6.568,1.499c2.231-1.399,2.901-4.341,1.499-6.568C691.128,714.584,681.274,708.968,670.248,708.968z
	 M736.28,712.344c-0.8,1.753-2.532,2.789-4.34,2.789c-0.661,0-1.331-0.136-1.973-0.428c-2.318-1.057-4.549-2.148-6.732-3.256
	c1.566,9.442,2.357,24.855,2.357,46.115c0,45.452-36.828,69.953-46.882,75.796c-0.982,13.437-8.705,25.032-19.857,31.525
	c0.015,0.225,0.033,0.449,0.016,0.68c-0.087,1.139-2.361,28.038-19.372,38.128c-4.201,2.491-8.858,3.739-13.927,3.739
	c-4.862,0-10.125-1.209-15.721-3.498c-5.596,2.289-10.859,3.498-15.721,3.498c-5.07,0-9.723-1.247-13.927-3.739
	c-17.011-10.09-19.286-36.989-19.372-38.128c-0.018-0.231,0.001-0.455,0.016-0.68c-11.152-6.493-18.875-18.088-19.857-31.525
	c-10.055-5.843-46.882-30.344-46.882-75.796c0-23.247,1.999-37.912,4.279-47.094c-2.774,1.451-5.654,2.867-8.654,4.235
	c-0.639,0.292-1.312,0.428-1.973,0.428c-1.809,0-3.54-1.036-4.341-2.789c-1.089-2.395-0.034-5.222,2.361-6.314
	c43.352-19.76,61.667-50.631,61.847-50.941c0.002-0.004,0.006-0.007,0.009-0.012c0.147-0.253,0.323-0.492,0.52-0.718
	c0.014-0.016,0.024-0.037,0.039-0.053c0.107-0.12,0.24-0.222,0.361-0.333c0.113-0.103,0.219-0.218,0.34-0.309
	c0.009-0.007,0.016-0.016,0.025-0.022c31.341-23.143,53.191-14.643,60.934-10.097c7.747-4.544,29.598-13.036,60.929,10.097
	c0.005,0.004,0.008,0.008,0.012,0.011c0.195,0.145,0.372,0.318,0.545,0.494c0.052,0.053,0.115,0.097,0.164,0.151
	c0.053,0.059,0.092,0.131,0.143,0.193c0.152,0.188,0.301,0.378,0.421,0.584c0.002,0.004,0.006,0.008,0.009,0.012
	c0.18,0.31,18.495,31.181,61.847,50.941C736.314,707.122,737.369,709.949,736.28,712.344z M648.808,869.04
	c-3.336,0.881-6.823,1.396-10.436,1.396c-14.113,0-23.754-5.405-28.525-8.913c-4.772,3.507-14.412,8.913-28.525,8.913
	c-3.602,0-7.078-0.512-10.404-1.387c1.224,7.025,4.762,20.9,14.162,26.456c5.876,3.472,13.546,3.127,22.813-1.049
	c0.05-0.022,0.102-0.03,0.152-0.051c0.138-0.057,0.28-0.098,0.424-0.141c0.157-0.048,0.313-0.099,0.472-0.129
	c0.143-0.028,0.289-0.038,0.434-0.053c0.158-0.016,0.315-0.036,0.473-0.035c0.157,0,0.314,0.02,0.472,0.035
	c0.147,0.015,0.292,0.025,0.436,0.053c0.157,0.03,0.31,0.08,0.464,0.127c0.147,0.045,0.294,0.087,0.436,0.146
	c0.048,0.02,0.099,0.027,0.146,0.048c9.277,4.176,16.956,4.517,22.835,1.036C643.435,890.275,647.416,877.062,648.808,869.04z
	 M716.06,757.564c0-40.492-3.056-49.201-3.528-50.302c-0.472-0.658-0.693-1.42-0.787-2.196c-3.044-1.847-5.94-3.723-8.667-5.614
	c-0.278-0.082-0.579-0.173-0.958-0.288c-30.868-9.426-47.423-5.076-55.874,0.233c-0.788,0.496-1.663,0.732-2.532,0.732
	c-1.582,0-3.134-0.788-4.036-2.231c-1.402-2.228-0.732-5.169,1.499-6.568c8.045-5.063,21.901-9.476,44.452-5.833
	c-12.632-11.633-19.336-21.645-21.242-24.705c-31.95-23.153-50.709-8.482-51.497-7.844c-0.016,0.012-0.033,0.02-0.048,0.032
	c-1.733,1.407-4.264,1.444-6.042-0.035c-0.85-0.69-19.596-15.273-51.493,7.847c-1.905,3.059-8.61,13.072-21.242,24.705
	c22.55-3.643,36.402,0.77,44.452,5.833c2.231,1.399,2.901,4.341,1.499,6.568c-0.903,1.443-2.454,2.231-4.036,2.231
	c-0.869,0-1.744-0.236-2.532-0.732c-8.451-5.312-25.01-9.658-55.874-0.233c-0.379,0.115-0.681,0.206-0.959,0.288
	c-1.726,1.197-3.526,2.386-5.378,3.569c-1.341,2.133-7.603,14.255-7.603,54.544c0,34.988,25.559,56.48,37.769,64.754
	c1.138-8.567,3.915-16.971,7.36-24.954c-29.204-14.176-31.217-39.392-31.286-40.488c-0.164-2.628,1.827-4.89,4.455-5.057
	c2.665-0.174,4.877,1.821,5.054,4.434c0.072,0.93,1.931,20.818,25.799,32.485c2.622-5.274,5.382-10.309,7.964-15.002
	c5.383-9.792,10.468-19.041,10.468-24.16c0-2.631,2.135-4.766,4.766-4.766s4.766,2.135,4.766,4.766
	c0,7.564-5.141,16.915-11.647,28.752c-8.346,15.178-18.733,34.069-18.733,52.142c0,18.799,16.068,30.436,30.954,30.436
	c16.41,0,24.994-8.79,25.078-8.88c0.026-0.028,0.064-0.037,0.092-0.064c0.027-0.027,0.036-0.065,0.064-0.091
	c0.211-0.201,0.474-0.292,0.709-0.447c0.266-0.176,0.51-0.388,0.8-0.505c0.288-0.117,0.589-0.136,0.89-0.194
	c0.3-0.058,0.589-0.152,0.894-0.152c0.307,0,0.596,0.095,0.899,0.154c0.299,0.058,0.598,0.078,0.883,0.194
	c0.292,0.118,0.537,0.33,0.805,0.507c0.234,0.154,0.495,0.245,0.704,0.444c0.028,0.027,0.036,0.064,0.064,0.091
	c0.027,0.027,0.064,0.036,0.091,0.064c0.335,0.341,8.889,8.88,25.078,8.88c14.886,0,30.954-11.638,30.954-30.436
	c0-18.079-10.341-36.97-18.653-52.151c-6.478-11.833-11.594-21.181-11.594-28.742c0-2.631,2.135-4.766,4.766-4.766
	s4.766,2.135,4.766,4.766c0,5.122,5.063,14.374,10.425,24.166c2.435,4.449,5.031,9.206,7.519,14.181
	c22.359-11.775,24.071-30.824,24.137-31.673c0.195-2.612,2.442-4.586,5.079-4.415c2.615,0.18,4.595,2.423,4.43,5.042
	c-0.068,1.075-1.989,25.346-29.594,39.656c3.593,8.225,6.511,16.909,7.684,25.768C690.5,813.99,716.06,792.436,716.06,757.564z
	 M604.829,483.259c9.106,0,12.676-4.362,13.971-6.826c-2.906-0.185-5.757-0.439-8.222-0.666c-2.436-0.227-4.735-0.439-5.765-0.439
	c-0.863,0-3.137,0.185-5.544,0.382c-2.922,0.238-5.775,0.453-8.493,0.615C592.057,478.838,595.611,483.259,604.829,483.259z"/>
</svg>
