<?xml version="1.0" encoding="utf-8"?>
<!-- Generator: Adobe Illustrator 23.0.3, SVG Export Plug-In . SVG Version: 6.00 Build 0)  -->
<svg version="1.1" id="Capa_1" xmlns="http://www.w3.org/2000/svg" xmlns:xlink="http://www.w3.org/1999/xlink" x="0px" y="0px"
	 viewBox="0 0 1200 1200" enable-background="new 0 0 1200 1200" xml:space="preserve">
<path fill="#2E2E2E" d="M885.67,59.489c7.58,0,14.444,3.072,19.411,8.04c4.968,4.968,8.04,11.831,8.04,19.411V600v513.059
	c0,7.581-3.073,14.444-8.04,19.411c-4.968,4.968-11.831,8.04-19.411,8.04H600H314.331c-7.581,0-14.444-3.073-19.412-8.04
	c-4.968-4.968-8.04-11.831-8.04-19.411V600V86.941c0-7.581,3.073-14.444,8.04-19.411c4.968-4.968,11.831-8.04,19.412-8.04H600
	H885.67 M885.67,50H600H314.331c-9.867,0-19.143,3.842-26.121,10.819c-6.978,6.978-10.82,16.254-10.82,26.122V600v513.059
	c0,9.867,3.843,19.144,10.82,26.121c6.979,6.977,16.255,10.82,26.122,10.82H600h285.67c9.867,0,19.144-3.842,26.121-10.82
	c6.977-6.978,10.82-16.254,10.82-26.121V600V86.941c0-9.867-3.843-19.144-10.82-26.121C904.814,53.842,895.538,50,885.67,50
	L885.67,50z M433.028,1066.495H400.2c-1.468,0-2.715,0.524-3.736,1.567c-1.024,1.024-1.536,2.259-1.536,3.705
	s0.512,2.681,1.536,3.702c1.021,1.024,2.268,1.536,3.736,1.536h11.142v34.162c0,1.468,0.512,2.715,1.536,3.736
	c1.043,1.024,2.29,1.536,3.736,1.536c1.446,0,2.681-0.512,3.702-1.536c1.024-1.021,1.536-2.268,1.536-3.736v-34.162h11.176
	c1.446,0,2.69-0.512,3.736-1.536c1.024-1.021,1.536-2.256,1.536-3.702s-0.512-2.681-1.536-3.705
	C435.718,1067.02,434.474,1066.495,433.028,1066.495z M489.642,1066.495c-1.446,0-2.681,0.524-3.705,1.567
	c-1.021,1.024-1.533,2.259-1.533,3.705v14.444h-22.353v-14.444c0-1.446-0.512-2.681-1.536-3.705
	c-1.021-1.042-2.256-1.567-3.702-1.567c-1.468,0-2.715,0.524-3.736,1.567c-1.024,1.024-1.536,2.259-1.536,3.705v39.4
	c0,1.468,0.512,2.715,1.536,3.736c1.021,1.024,2.268,1.536,3.736,1.536c1.446,0,2.681-0.512,3.702-1.536
	c1.024-1.021,1.536-2.268,1.536-3.736v-14.447h22.353v14.447c0,1.468,0.512,2.715,1.533,3.736c1.024,1.024,2.259,1.536,3.705,1.536
	s2.69-0.512,3.736-1.536c1.024-1.021,1.536-2.268,1.536-3.736v-39.4c0-1.446-0.512-2.681-1.536-3.705
	C492.332,1067.02,491.088,1066.495,489.642,1066.495z M550.194,1077.005c1.446,0,2.69-0.512,3.736-1.536
	c1.024-1.021,1.536-2.256,1.536-3.702s-0.512-2.681-1.536-3.705c-1.046-1.042-2.29-1.567-3.736-1.567h-32.828
	c-1.468,0-2.715,0.524-3.736,1.567c-1.024,1.024-1.536,2.259-1.536,3.705v39.4c0,1.468,0.512,2.715,1.536,3.736
	c1.021,1.024,2.268,1.536,3.736,1.536h32.828c1.446,0,2.69-0.512,3.736-1.536c1.024-1.021,1.536-2.268,1.536-3.736
	c0-1.446-0.512-2.681-1.536-3.705c-1.046-1.021-2.29-1.533-3.736-1.533h-27.59v-9.209h21.018c1.446,0,2.69-0.509,3.736-1.533
	c1.024-1.024,1.536-2.259,1.536-3.705c0-1.468-0.512-2.712-1.536-3.736c-1.046-1.024-2.29-1.536-3.736-1.536h-21.018v-9.206H550.194
	z M618.049,1077.005h22.986c1.446,0,2.69-0.512,3.736-1.536c1.024-1.021,1.536-2.256,1.536-3.702s-0.512-2.681-1.536-3.705
	c-1.046-1.042-2.29-1.567-3.736-1.567h-22.986c-4.161,0-7.72,1.48-10.677,4.437c-2.957,2.957-4.437,6.516-4.437,10.677
	c0,4.179,1.48,7.738,4.437,10.674c2.957,2.96,6.516,4.437,10.677,4.437h13.144c1.269,0,2.346,0.456,3.236,1.368
	c0.912,0.891,1.368,1.97,1.368,3.236c0,1.269-0.456,2.358-1.368,3.27c-0.891,0.891-1.967,1.334-3.236,1.334h-22.986
	c-1.468,0-2.715,0.512-3.736,1.533c-1.024,1.024-1.536,2.259-1.536,3.705c0,1.468,0.512,2.715,1.536,3.736
	c1.021,1.024,2.268,1.536,3.736,1.536h22.986c4.158,0,7.717-1.48,10.677-4.437c2.957-2.957,4.437-6.516,4.437-10.677
	c0-4.158-1.48-7.717-4.437-10.677c-2.96-2.957-6.519-4.437-10.677-4.437h-13.144c-1.269,0-2.349-0.444-3.236-1.334
	c-0.912-0.909-1.368-2.001-1.368-3.267c0-1.269,0.456-2.349,1.368-3.236C615.7,1077.461,616.78,1077.005,618.049,1077.005z
	 M700.252,1071.767c0-1.446-0.512-2.681-1.536-3.705c-1.046-1.042-2.29-1.567-3.736-1.567h-32.828c-1.468,0-2.715,0.524-3.736,1.567
	c-1.024,1.024-1.536,2.259-1.536,3.705s0.512,2.681,1.536,3.702c1.021,1.024,2.268,1.536,3.736,1.536h11.142v34.162
	c0,1.468,0.512,2.715,1.536,3.736c1.043,1.024,2.29,1.536,3.736,1.536s2.681-0.512,3.702-1.536c1.024-1.021,1.536-2.268,1.536-3.736
	v-34.162h11.176c1.446,0,2.69-0.512,3.736-1.536C699.74,1074.448,700.252,1073.213,700.252,1071.767z M728.174,1069.396
	c-0.444-0.887-1.089-1.601-1.936-2.135c-0.844-0.512-1.766-0.766-2.768-0.766c-0.999,0-1.924,0.255-2.768,0.766
	c-0.847,0.534-1.492,1.247-1.936,2.135l-19.715,39.434c-0.645,1.291-0.735,2.625-0.267,4.006c0.444,1.378,1.322,2.389,2.634,3.035
	c1.291,0.645,2.625,0.735,4.003,0.267c1.381-0.444,2.392-1.322,3.038-2.634l3.469-6.941h23.054l3.5,6.941
	c0.447,0.912,1.102,1.632,1.97,2.166c0.844,0.512,1.756,0.77,2.737,0.77c0.822,0,1.601-0.189,2.333-0.568
	c1.291-0.645,2.169-1.657,2.637-3.035c0.465-1.381,0.366-2.715-0.301-4.006L728.174,1069.396z M717.2,1096.053l6.271-12.542
	l6.271,12.542H717.2z M802.704,1093.884c1.579-2.78,2.367-5.771,2.367-8.973c0-5.07-1.8-9.408-5.405-13.01
	c-3.602-3.602-7.94-5.405-13.01-5.405h-19.684c-1.468,0-2.712,0.524-3.736,1.567c-1.024,1.024-1.533,2.259-1.533,3.705v39.4
	c0,1.468,0.509,2.715,1.533,3.736c1.024,1.024,2.268,1.536,3.736,1.536c1.446,0,2.681-0.512,3.705-1.536
	c1.021-1.021,1.533-2.268,1.533-3.736v-7.875h12.278l11.611,11.611c1.021,1.024,2.256,1.536,3.702,1.536
	c1.446,0,2.693-0.512,3.739-1.536c1.021-1.021,1.533-2.268,1.533-3.736c0-1.446-0.512-2.681-1.533-3.705l-7.04-7.037
	C799.123,1098.755,801.19,1096.577,802.704,1093.884z M792.229,1090.483c-1.536,1.533-3.394,2.302-5.573,2.302H772.21v-15.781
	h14.447c2.178,0,4.037,0.779,5.573,2.336c1.555,1.533,2.333,3.391,2.333,5.57C794.562,1087.067,793.784,1088.926,792.229,1090.483z
	 M522.347,156.955c0.133,1.446,0.757,2.625,1.871,3.536c0.956,0.824,2.079,1.235,3.367,1.235c1.626,0,2.969-0.635,4.037-1.902
	l12.377-14.845l12.377,14.845c1.07,1.268,2.414,1.902,4.037,1.902c1.269,0,2.392-0.411,3.37-1.235
	c1.114-0.911,1.734-2.09,1.871-3.536c0.133-1.446-0.27-2.724-1.204-3.837l-13.609-16.347l13.609-16.347
	c0.934-1.112,1.337-2.391,1.204-3.837c-0.137-1.446-0.757-2.636-1.871-3.57c-1.111-0.934-2.389-1.334-3.835-1.201
	s-2.634,0.757-3.571,1.868l-12.377,14.88l-12.377-14.88c-0.934-1.111-2.122-1.734-3.568-1.868s-2.724,0.267-3.835,1.201
	c-1.114,0.934-1.738,2.124-1.871,3.57c-0.133,1.446,0.267,2.724,1.201,3.837l13.612,16.347l-13.612,16.347
	C522.614,154.231,522.214,155.509,522.347,156.955z M596.542,158.823c0.447,0.891,1.089,1.59,1.936,2.102
	c0.844,0.534,1.769,0.801,2.768,0.801c1.002,0,1.924-0.267,2.771-0.801c0.844-0.512,1.489-1.212,1.933-2.102l19.684-39.434
	c0.667-1.289,0.766-2.623,0.301-4.003c-0.469-1.379-1.347-2.391-2.637-3.036c-1.288-0.645-2.622-0.745-4.003-0.299
	c-1.378,0.467-2.389,1.345-3.035,2.634l-15.015,30.026l-15.011-29.959c-0.645-1.311-1.657-2.191-3.038-2.634
	c-1.378-0.469-2.724-0.379-4.034,0.267c-1.291,0.645-2.16,1.657-2.603,3.035c-0.469,1.381-0.379,2.726,0.267,4.037L596.542,158.823z
	 M644.716,161.726c1.446,0,2.681-0.512,3.705-1.534c1.021-1.022,1.533-2.268,1.533-3.737v-39.4c0-1.446-0.512-2.679-1.533-3.703
	c-1.024-1.044-2.259-1.567-3.705-1.567c-1.468,0-2.712,0.523-3.736,1.567c-1.024,1.024-1.533,2.257-1.533,3.703v39.4
	c0,1.469,0.509,2.715,1.533,3.737C642.004,161.214,643.249,161.726,644.716,161.726z M672.44,161.726
	c1.446,0,2.681-0.512,3.702-1.534c1.024-1.022,1.536-2.268,1.536-3.737v-39.4c0-1.446-0.512-2.679-1.536-3.703
	c-1.021-1.044-2.256-1.567-3.702-1.567c-1.468,0-2.715,0.523-3.736,1.567c-1.024,1.024-1.536,2.257-1.536,3.703v39.4
	c0,1.469,0.512,2.715,1.536,3.737C669.725,161.214,670.972,161.726,672.44,161.726z M897.216,600V86.941
	c0-3.089-1.203-5.993-3.388-8.178c-2.184-2.185-5.089-3.388-8.178-3.388H599.98H314.31c-3.089,0-5.993,1.203-8.177,3.387
	c-2.185,2.185-3.388,5.089-3.388,8.178V600v428.625c0.083,4.429,3.685,7.998,8.134,7.998h577.964c4.501,0,8.412-3.911,8.412-8.412
	L897.216,600z M887.712,907.762c-18.975-33.459-86.77-61.079-175.29-74.105h175.283L887.712,907.762z M312.277,600V86.941
	c0-0.559,0.201-1.043,0.596-1.438c0.395-0.395,0.878-0.595,1.437-0.595h285.67h285.67c0.559,0,1.043,0.2,1.438,0.596
	c0.395,0.395,0.596,0.879,0.596,1.438v513.06l0.021,224.124H312.277V600z M312.277,833.657h172.251
	c-84.303,12.406-149.81,38.048-172.251,69.365V833.657z M312.277,1027.091V950.61c28.69,40.036,127.776,70.793,246.513,76.481
	H312.277z M394.554,989.373c-50.81-17.317-81.145-40.702-81.145-62.557c0-21.854,30.335-45.24,81.145-62.557
	c55.136-18.791,127.557-29.139,203.921-29.139s148.785,10.349,203.921,29.139c50.81,17.317,81.145,40.703,81.145,62.557
	c0,21.855-30.335,45.24-81.145,62.557c-55.136,18.791-127.557,29.14-203.921,29.14S449.69,1008.164,394.554,989.373z
	 M638.16,1027.091c123.388-5.91,225.556-38.894,249.556-81.228l0.007,81.228H638.16z M753.774,682.23l-28.159-119.035l115.931-5.913
	c1.961-0.099,3.658-1.392,4.279-3.253c0.621-1.862,0.037-3.914-1.471-5.169l-92.547-77.017l92.336-68.358c0,0,0,0,0.001,0
	c0.353-0.262,0.649-0.58,0.915-0.923c0.057-0.074,0.112-0.145,0.164-0.221c0.237-0.346,0.438-0.714,0.577-1.111
	c0.015-0.043,0.02-0.087,0.034-0.13c0.116-0.365,0.182-0.745,0.208-1.135c0.005-0.09,0.015-0.177,0.016-0.267
	c0.004-0.39-0.024-0.784-0.121-1.181c-0.008-0.033-0.025-0.062-0.033-0.095c-0.005-0.018-0.002-0.036-0.007-0.054
	c-0.013-0.047-0.044-0.083-0.059-0.129c-0.117-0.376-0.278-0.724-0.475-1.048c-0.044-0.072-0.081-0.145-0.129-0.214
	c-0.24-0.351-0.518-0.666-0.836-0.937c-0.051-0.044-0.107-0.078-0.161-0.12c-0.302-0.236-0.628-0.434-0.977-0.592
	c-0.061-0.028-0.117-0.062-0.18-0.087c-0.396-0.159-0.812-0.26-1.243-0.308c-0.035-0.004-0.065-0.022-0.101-0.025L722.71,384.14
	l31.874-114.287c0.531-1.913-0.177-3.955-1.778-5.127c-1.607-1.174-3.767-1.227-5.427-0.138l-102.043,66.871l-40.873-108.8
	c-0.008-0.022-0.025-0.037-0.033-0.059c-0.157-0.4-0.369-0.768-0.623-1.107c-0.056-0.075-0.116-0.142-0.176-0.214
	c-0.256-0.303-0.539-0.58-0.863-0.812c-0.026-0.018-0.047-0.042-0.073-0.06c-0.344-0.237-0.728-0.414-1.129-0.554
	c-0.092-0.032-0.184-0.059-0.278-0.086c-0.413-0.116-0.839-0.199-1.288-0.199c-0.449,0-0.876,0.082-1.288,0.199
	c-0.095,0.027-0.185,0.054-0.278,0.086c-0.402,0.141-0.785,0.317-1.129,0.554c-0.026,0.018-0.048,0.042-0.074,0.061
	c-0.323,0.231-0.606,0.508-0.861,0.811c-0.061,0.072-0.121,0.139-0.177,0.214c-0.254,0.339-0.465,0.706-0.622,1.107
	c-0.009,0.021-0.025,0.037-0.033,0.059l-39.763,105.85L454.29,263.656c-1.654-1.057-3.782-0.991-5.374,0.164
	c-1.586,1.156-2.299,3.166-1.8,5.064l30.172,114.729L358.246,394.91c-0.034,0.003-0.063,0.02-0.097,0.024
	c-0.421,0.049-0.829,0.148-1.216,0.303c-0.066,0.027-0.125,0.062-0.19,0.092c-0.331,0.15-0.64,0.335-0.929,0.556
	c-0.065,0.049-0.131,0.092-0.194,0.144c-0.311,0.263-0.588,0.565-0.825,0.905c-0.045,0.065-0.079,0.135-0.121,0.201
	c-0.191,0.305-0.347,0.634-0.468,0.987c-0.018,0.054-0.055,0.097-0.072,0.152c-0.009,0.028-0.004,0.057-0.012,0.085
	c-0.015,0.054-0.042,0.102-0.056,0.157c-0.09,0.366-0.123,0.73-0.127,1.091c-0.001,0.077,0.011,0.151,0.014,0.228
	c0.014,0.359,0.067,0.709,0.159,1.049c0.023,0.085,0.039,0.169,0.066,0.253c0.127,0.386,0.299,0.752,0.518,1.092
	c0.045,0.07,0.099,0.131,0.148,0.199c0.215,0.298,0.462,0.57,0.742,0.813c0.039,0.034,0.062,0.079,0.102,0.112l86.385,70.186
	l-86.475,73.903c-1.461,1.25-2.029,3.258-1.44,5.089c0.593,1.831,2.228,3.126,4.148,3.284l110.206,9.029l-22.328,117.58
	c-0.08,0.416-0.086,0.834-0.055,1.251c0.007,0.098,0.017,0.192,0.03,0.289c0.109,0.797,0.415,1.557,0.908,2.214
	c0.062,0.083,0.127,0.16,0.195,0.24c0.23,0.269,0.489,0.515,0.786,0.733c0.04,0.029,0.065,0.071,0.106,0.099
	c0.012,0.008,0.025,0.01,0.036,0.018c0.013,0.009,0.022,0.02,0.035,0.029c0.154,0.103,0.326,0.146,0.486,0.228
	c0.244,0.124,0.479,0.266,0.737,0.346c0.234,0.073,0.473,0.086,0.712,0.122c0.211,0.032,0.417,0.088,0.63,0.091
	c0.024,0,0.047,0.01,0.07,0.01c0.402,0,0.8-0.056,1.187-0.156c0.076-0.019,0.146-0.06,0.221-0.084
	c0.332-0.103,0.652-0.234,0.956-0.408c0.041-0.023,0.087-0.03,0.127-0.054l99.579-60.996l42.129,102.527
	c0.732,1.781,2.464,2.945,4.387,2.954c0.006,0,0.016,0,0.022,0c1.914,0,3.646-1.148,4.391-2.914l43.242-102.547l99.544,60.975
	c0.042,0.025,0.089,0.033,0.131,0.057c0.251,0.143,0.515,0.247,0.784,0.341c0.123,0.043,0.238,0.104,0.363,0.137
	c0.387,0.102,0.784,0.16,1.186,0.162c0.008,0,0.016,0.003,0.024,0.003c0.001,0,0.001,0,0.002,0c0.001,0,0.001,0,0.002,0
	c0.471,0,0.943-0.077,1.403-0.22c0.161-0.05,0.304-0.149,0.46-0.216c0.26-0.112,0.528-0.199,0.771-0.362
	c0.033-0.022,0.058-0.052,0.091-0.074c0.021-0.015,0.047-0.019,0.068-0.034c0.051-0.037,0.083-0.091,0.133-0.13
	c0.282-0.221,0.531-0.467,0.75-0.736c0.06-0.073,0.122-0.141,0.177-0.217c0.24-0.332,0.437-0.686,0.582-1.062
	c0.026-0.068,0.04-0.139,0.064-0.208c0.112-0.334,0.183-0.676,0.219-1.026c0.009-0.093,0.024-0.182,0.029-0.275
	c0.018-0.41-0.015-0.82-0.104-1.226C753.775,682.281,753.78,682.255,753.774,682.23z M459.435,278.256l77.778,99.67l-50.311,4.774
	L459.435,278.256z M378.197,409.359l205.32,50.502l-97.432,37.154l-33.631-27.324c-0.005-0.005-0.012-0.01-0.017-0.014
	L378.197,409.359z M370.495,547.249L480,504.353l-9.699,51.073L370.495,547.249z M595.236,589.305l-128.449,78.679l128.449-193.2
	V589.305z M595.236,446.9l-49.227-65.286l16.606-44.202c0.004-0.009,0.007-0.019,0.011-0.028l32.611-86.809V446.9z M828.881,548.383
	l-117.752-46.426l32.791-24.276L828.881,548.383z M741.993,279.513l-78.892,99.234l-14.33-38.145L741.993,279.513z M661.776,388.199
	l150.722,13.633l-202.746,49.869L661.776,388.199z M638.576,622.109l-39.049,92.599l0.475-117.144l38.949,23.858
	C638.812,621.641,638.68,621.864,638.576,622.109z M610.937,466.849l90.759,36.645l36.676,155.036L610.937,466.849z M603.05,893.651
	c-106.76,0-193.306,15.749-193.306,35.176s86.546,35.176,193.306,35.176c106.76,0,193.306-15.749,193.306-35.176
	S709.81,893.651,603.05,893.651z M731.438,945.466c-35.127,5.807-80.723,9.005-128.388,9.005c-47.666,0-93.261-3.198-128.388-9.005
	c-39.998-6.612-51.581-13.96-54.615-16.639c3.034-2.679,14.617-10.027,54.615-16.639c35.127-5.807,80.723-9.005,128.388-9.005
	c47.665,0,93.261,3.198,128.388,9.005c39.998,6.612,51.581,13.96,54.615,16.639C783.019,931.506,771.436,938.854,731.438,945.466z
	 M845.414,925.164c0-35.552-97.592-67.549-245.414-67.549c-147.821,0-245.413,31.998-245.413,67.549S452.179,995.89,600,995.89
	C747.822,995.89,845.414,960.715,845.414,925.164z M775.328,964.751c-45.13,13.934-107.396,21.607-175.328,21.607
	c-67.932,0-130.198-7.674-175.328-21.607c-44.695-13.799-60.554-29.95-60.554-39.587c0-9.422,15.818-25.014,60.398-37.952
	c44.584-12.939,106.905-20.065,175.483-20.065s130.899,7.126,175.483,20.065c44.58,12.938,60.398,28.531,60.398,37.952
	C835.882,934.801,820.023,950.952,775.328,964.751z M600,917.093c-29.932,0-54.198,4.883-54.198,10.907
	c0,6.024,24.265,10.908,54.198,10.908c29.933,0,54.198-4.883,54.198-10.908C654.198,921.977,629.933,917.093,600,917.093z
	 M406.5,622.107c-5.619,0-10.19-4.571-10.19-10.189c0-2.428-1.969-4.397-4.397-4.397c-2.428,0-4.397,1.969-4.397,4.397
	c0,5.618-4.571,10.189-10.189,10.189c-2.428,0-4.397,1.969-4.397,4.397s1.969,4.397,4.397,4.397c5.618,0,10.189,4.571,10.189,10.189
	c0,2.428,1.969,4.397,4.397,4.397c2.428,0,4.397-1.969,4.397-4.397c0-5.618,4.571-10.189,10.19-10.189
	c2.428,0,4.397-1.969,4.397-4.397S408.928,622.107,406.5,622.107z M822.673,630.902c2.429,0,4.397-1.969,4.397-4.397
	s-1.969-4.397-4.397-4.397c-5.618,0-10.19-4.571-10.19-10.189c0-2.428-1.969-4.397-4.397-4.397s-4.397,1.969-4.397,4.397
	c0,5.618-4.571,10.189-10.189,10.189c-2.428,0-4.397,1.969-4.397,4.397s1.969,4.397,4.397,4.397c5.618,0,10.189,4.571,10.189,10.189
	c0,2.428,1.969,4.397,4.397,4.397s4.397-1.969,4.397-4.397C812.483,635.472,817.055,630.902,822.673,630.902z M847.927,139.293
	c-5.619,0-10.19-4.571-10.19-10.189c0-2.428-1.969-4.397-4.397-4.397c-2.429,0-4.397,1.969-4.397,4.397
	c0,5.618-4.571,10.189-10.189,10.189c-2.428,0-4.397,1.969-4.397,4.397c0,2.428,1.969,4.397,4.397,4.397
	c5.618,0,10.189,4.57,10.189,10.189c0,2.428,1.969,4.397,4.397,4.397c2.428,0,4.397-1.969,4.397-4.397
	c0-5.618,4.571-10.189,10.19-10.189c2.428,0,4.397-1.969,4.397-4.397C852.324,141.262,850.355,139.293,847.927,139.293z
	 M352.074,148.087c5.618,0,10.189,4.57,10.189,10.189c0,2.428,1.969,4.397,4.397,4.397s4.397-1.969,4.397-4.397
	c0-5.618,4.571-10.189,10.19-10.189c2.428,0,4.397-1.969,4.397-4.397c0-2.428-1.969-4.397-4.397-4.397
	c-5.619,0-10.19-4.571-10.19-10.189c0-2.428-1.969-4.397-4.397-4.397s-4.397,1.969-4.397,4.397c0,5.618-4.571,10.189-10.189,10.189
	c-2.428,0-4.397,1.969-4.397,4.397C347.677,146.119,349.645,148.087,352.074,148.087z M737.542,212.498
	c5.618,0,10.188,4.57,10.188,10.189c0,2.428,1.969,4.397,4.397,4.397c2.428,0,4.397-1.969,4.397-4.397
	c0-5.618,4.571-10.189,10.19-10.189c2.428,0,4.397-1.969,4.397-4.397c0-2.428-1.969-4.397-4.397-4.397
	c-5.619,0-10.19-4.571-10.19-10.189c0-2.428-1.969-4.397-4.397-4.397c-2.428,0-4.397,1.969-4.397,4.397
	c0,5.618-4.571,10.189-10.188,10.189c-2.428,0-4.397,1.969-4.397,4.397C733.145,210.529,735.114,212.498,737.542,212.498z
	 M433.285,212.498c5.618,0,10.189,4.57,10.189,10.189c0,2.428,1.969,4.397,4.397,4.397s4.397-1.969,4.397-4.397
	c0-5.618,4.571-10.189,10.19-10.189c2.428,0,4.397-1.969,4.397-4.397c0-2.428-1.969-4.397-4.397-4.397
	c-5.619,0-10.19-4.571-10.19-10.189c0-2.428-1.969-4.397-4.397-4.397s-4.397,1.969-4.397,4.397c0,5.618-4.571,10.189-10.189,10.189
	c-2.428,0-4.397,1.969-4.397,4.397C428.888,210.529,430.857,212.498,433.285,212.498z M814.178,316.691
	c5.618,0,10.189,4.571,10.189,10.189c0,2.428,1.969,4.397,4.397,4.397s4.397-1.969,4.397-4.397c0-5.618,4.571-10.189,10.19-10.189
	c2.429,0,4.397-1.969,4.397-4.397s-1.969-4.397-4.397-4.397c-5.618,0-10.19-4.571-10.19-10.189c0-2.428-1.969-4.397-4.397-4.397
	s-4.397,1.969-4.397,4.397c0,5.618-4.571,10.189-10.189,10.189c-2.428,0-4.397,1.969-4.397,4.397S811.75,316.691,814.178,316.691z
	 M375.632,297.708c0-2.428-1.969-4.397-4.397-4.397s-4.397,1.969-4.397,4.397c0,5.618-4.571,10.189-10.189,10.189
	c-2.428,0-4.397,1.969-4.397,4.397s1.969,4.397,4.397,4.397c5.618,0,10.189,4.571,10.189,10.189c0,2.428,1.969,4.397,4.397,4.397
	s4.397-1.969,4.397-4.397c0-5.618,4.571-10.189,10.19-10.189c2.428,0,4.397-1.969,4.397-4.397s-1.969-4.397-4.397-4.397
	C380.203,307.897,375.632,303.326,375.632,297.708z M381.247,758.564c-5.619,0-10.19-4.571-10.19-10.189
	c0-2.428-1.969-4.397-4.397-4.397s-4.397,1.969-4.397,4.397c0,5.618-4.571,10.189-10.189,10.189c-2.428,0-4.397,1.969-4.397,4.397
	c0,2.428,1.969,4.397,4.397,4.397c5.618,0,10.189,4.57,10.189,10.189c0,2.428,1.969,4.397,4.397,4.397s4.397-1.969,4.397-4.397
	c0-5.618,4.571-10.189,10.19-10.189c2.428,0,4.397-1.969,4.397-4.397C385.644,760.533,383.675,758.564,381.247,758.564z
	 M847.927,758.564c-5.619,0-10.19-4.571-10.19-10.189c0-2.428-1.969-4.397-4.397-4.397c-2.429,0-4.397,1.969-4.397,4.397
	c0,5.618-4.571,10.189-10.189,10.189c-2.428,0-4.397,1.969-4.397,4.397c0,2.428,1.969,4.397,4.397,4.397
	c5.618,0,10.189,4.57,10.189,10.189c0,2.428,1.969,4.397,4.397,4.397c2.428,0,4.397-1.969,4.397-4.397
	c0-5.618,4.571-10.189,10.19-10.189c2.428,0,4.397-1.969,4.397-4.397C852.324,760.533,850.355,758.564,847.927,758.564z
	 M736.424,738.81c-35.996-22.663-87.648,47.802-89.83,50.812c-1.176,1.623-1.21,3.807-0.087,5.464
	c0.9,1.331,2.389,2.098,3.947,2.098c0.385,0,0.773-0.047,1.157-0.143c20.91-5.228,89.392-23.885,92.687-44.494
	C744.879,748.906,743.986,743.569,736.424,738.81z M663.07,784.123c14.63-17.264,38.593-40.237,57.585-40.237
	c3.798,0,7.403,0.922,10.692,2.991c1.424,0.897,3.782,2.634,3.537,4.164C733.489,759.788,698.743,774.039,663.07,784.123z
	 M463.832,738.81c-7.562,4.76-8.455,10.097-7.875,13.736c3.295,20.609,71.774,39.266,92.684,44.494
	c0.385,0.096,0.773,0.143,1.157,0.143c1.558,0,3.047-0.766,3.947-2.098c1.123-1.657,1.089-3.841-0.087-5.464
	C551.477,786.612,499.856,716.133,463.832,738.81z M465.371,751.041c-0.245-1.53,2.113-3.267,3.537-4.164
	c3.286-2.068,6.879-2.986,10.674-2.986c18.98,0,42.952,22.972,57.591,40.23C501.503,774.036,466.767,759.788,465.371,751.041z"/>
</svg>
