<?xml version="1.0" encoding="utf-8"?>
<!-- Generator: Adobe Illustrator 23.0.3, SVG Export Plug-In . SVG Version: 6.00 Build 0)  -->
<svg version="1.1" id="Capa_1" xmlns="http://www.w3.org/2000/svg" xmlns:xlink="http://www.w3.org/1999/xlink" x="0px" y="0px"
	 viewBox="0 0 1200 1200" enable-background="new 0 0 1200 1200" xml:space="preserve">
<path fill="#2E2E2E" d="M911.797,60.832C904.812,53.847,895.526,50,885.648,50H600H314.352c-9.878,0-19.165,3.847-26.149,10.832
	c-6.985,6.984-10.831,16.271-10.831,26.149V600v513.019c0,9.878,3.846,19.164,10.831,26.149
	c6.985,6.985,16.271,10.832,26.149,10.832H600h285.648c9.878,0,19.165-3.847,26.149-10.831c6.985-6.985,10.831-16.272,10.831-26.15
	V600V86.981C922.628,77.103,918.782,67.816,911.797,60.832z M913.097,600v513.019c0,7.58-3.072,14.443-8.04,19.41
	c-4.967,4.968-11.83,8.04-19.41,8.04H600H314.352c-7.58,0-14.443-3.072-19.41-8.04c-4.967-4.967-8.04-11.83-8.04-19.41V600V86.981
	c0-7.58,3.072-14.442,8.04-19.41c4.967-4.968,11.829-8.04,19.41-8.04H600h285.648c7.58,0,14.443,3.072,19.41,8.04
	c4.967,4.967,8.04,11.83,8.04,19.41V600z M897.192,476.393c1.299-1.119,1.965-2.888,1.55-4.675c-0.238-1.033-0.802-1.897-1.55-2.537
	V258.638c1.332-1.594,1.525-3.925,0.296-5.728c-0.088-0.13-0.198-0.235-0.296-0.353V86.981c0-2.377-0.726-4.636-2.05-6.55
	c-0.223-0.921-0.715-1.787-1.482-2.459c-0.76-0.668-1.672-1.043-2.607-1.147c-1.657-0.888-3.493-1.408-5.426-1.408H599.98H314.332
	c-3.089,0-5.993,1.203-8.177,3.387c-2.184,2.185-3.387,5.089-3.387,8.178v384.363c-0.04,0.126-0.097,0.243-0.127,0.374
	c-0.204,0.879-0.135,1.752,0.127,2.551V600v428.592c0.083,4.429,3.685,7.997,8.134,7.997h577.919c4.5,0,8.411-3.911,8.411-8.411
	l-0.012-132.614c0.92-1.504,0.92-3.347-0.001-4.873l-0.016-180.087c0.068-0.092,0.154-0.162,0.215-0.261
	c1.073-1.711,0.918-3.834-0.216-5.364L897.192,600V476.393z M738.544,84.947l-52.039,91.866c-1.3,2.29-0.493,5.198,1.796,6.495
	c0.742,0.42,1.548,0.621,2.346,0.621c1.66,0,3.273-0.87,4.148-2.418l54.701-96.563h131.714l-127.06,144.96
	c-1.734,1.979-1.536,4.99,0.444,6.725c0.903,0.793,2.023,1.182,3.137,1.182c1.325,0,2.643-0.549,3.587-1.624L887.661,92.046V253.84
	l-99.262,67.622c-2.175,1.482-2.737,4.446-1.253,6.622c0.922,1.353,2.417,2.082,3.94,2.082c0.925,0,1.858-0.268,2.681-0.827
	l93.895-63.965v204.021l-59.599,13.819c-2.563,0.596-4.161,3.155-3.565,5.72c0.509,2.201,2.47,3.691,4.638,3.691
	c0.354,0,0.717-0.04,1.08-0.124l57.446-13.32v120.821l0.009,98.606l-28.322-17.754c-2.234-1.396-5.172-0.724-6.568,1.506
	c-1.399,2.231-0.726,5.172,1.505,6.57l33.386,20.928l0.016,170.261l-68.871-74.375c-1.79-1.933-4.803-2.048-6.736-0.258
	c-1.93,1.787-2.045,4.803-0.258,6.736l75.865,81.929v0.043c-18.156-16.933-45.08-12.202-60.389-5.71
	c-18.221-17.688-37.73-26.648-58.04-26.648c-0.031,0-0.065,0-0.093,0c-19.96,0.026-35.961,8.713-45.322,15.387
	c-10.152-34.373-14.518-70.659-8.918-77.802c7.822-9.981,32.248-25.919,46.142-33.12c16.946-8.79,40.383-50.043,40.616-50.457
	c6.562-11.718,34.504-65.747,35.593-67.86c0.171-0.301,4.226-7.415,5.684-13.52c1.238-5.183,0.428-9.019-2.408-11.407
	c-4.061-3.416-9.844-1.474-11.498-0.807c-5.111,1.631-9.554,4.524-13.488,8.143c0.084-17.083-2.815-27.679-8.789-32.212
	c-3.227-2.451-6.77-2.6-9.029-1.95c-5.755,1.227-8.929,5.634-10.527,10.389c-0.775-0.221-1.561-0.295-2.349-0.302
	c-3.334-6.933-7.228-14.136-11.789-21.411c-10.165-16.214-24.568-34.051-44.58-49.584c25.872-62.529,24.768-108.346-3.373-136.148
	c-12.781-12.625-25.852-20.795-39.052-24.443c1.167-6.028,1.79-12.201,1.79-18.422c0-54.729-33.371-89.258-34.789-90.701
	c-1.492-1.512-3.798-1.855-5.647-0.858c-1.865,0.999-2.848,3.106-2.414,5.177c3.295,15.77-0.074,30.337-3.484,39.791
	c-3.524-9.424-10.117-23.758-22.202-41.885c-20.57-30.854-17.554-63.645-17.523-63.964c0.214-2.074-0.946-4.047-2.864-4.869
	c-1.908-0.821-4.142-0.306-5.501,1.283c-0.99,1.157-24.259,28.669-25.534,55.482c-0.484,10.131,1.905,20.157,4.012,29.004
	c3.922,16.455,4.7,22.937-2.758,25.753c-2.361,0.889-4.229,0.8-6.035-0.296c-6.267-3.787-10.22-18.375-11.241-26.681
	c-0.242-1.956-1.663-3.565-3.574-4.043c-1.911-0.479-3.922,0.268-5.057,1.882c-22.296,31.732-30.717,61.046-26.332,91.806
	c-15.279,3.259-30.427,11.838-45.236,25.721c-30.926,28.996-31.933,74.444-3.158,138.821c-10.545,8.569-20.285,18.333-29.118,29.41
	c-6.466,8.109-11.07,15.511-11.222,15.756c-5.128,7.976-9.447,15.887-13.093,23.475c-0.856,0.018-1.715,0.112-2.569,0.371
	c-0.273,0.084-0.54,0.177-0.804,0.282c-0.773-3.112-2.063-6.252-4.198-8.323c-1.57-1.522-3.462-2.403-5.523-2.584
	c-2.718-0.883-7.375-1.255-11.61,1.761c-6.314,4.492-9.308,14.504-9.083,30.414c-3.515-2.864-7.36-5.138-11.605-6.457
	c-1.142-0.424-7.03-2.339-10.673,1.309c-2.404,2.405-2.777,5.926-1.101,10.463c3.338,9.069,5.305,12.603,5.38,12.714
	c1.157,2.352,28.413,57.759,35,69.518c0.233,0.414,23.67,41.668,40.619,50.457c13.893,7.204,38.32,23.142,46.138,33.12
	c6.767,8.631,3.909,39.393-6.643,71.558c-0.129,0.391-0.186,0.785-0.212,1.177c-4.545,3.255-8.111,6.62-10.501,9.142
	c-14.34-13.251-30.079-19.959-46.846-19.959c-0.016,0-0.031,0-0.043,0c-25.95,0.016-46.368,16.115-53.153,22.19
	c-13.579-5.372-29.783-8.095-43.867-0.295l65.753-71.011c1.787-1.933,1.672-4.949-0.258-6.736c-1.933-1.79-4.945-1.669-6.736,0.258
	l-70.267,75.887V710.745l34.798-21.816c2.231-1.398,2.904-4.339,1.505-6.57c-1.396-2.231-4.337-2.902-6.568-1.506l-29.735,18.641
	V600V478.85l58.868,13.65c0.363,0.084,0.723,0.124,1.08,0.124c2.169,0,4.13-1.489,4.638-3.691c0.596-2.564-1.002-5.124-3.565-5.72
	l-61.021-14.149V264.404l95.32,64.935c0.822,0.56,1.756,0.827,2.681,0.827c1.523,0,3.019-0.729,3.94-2.082
	c1.483-2.176,0.921-5.141-1.253-6.622L312.299,252.87V90.423L440.066,236.19c0.943,1.075,2.259,1.624,3.587,1.624
	c1.114,0,2.234-0.389,3.137-1.182c1.979-1.734,2.178-4.745,0.444-6.725l-127.06-144.96h131.715l54.701,96.563
	c0.875,1.548,2.488,2.418,4.148,2.418c0.797,0,1.604-0.2,2.346-0.621c2.29-1.297,3.096-4.206,1.796-6.495l-52.04-91.866H599.98
	H738.544z M662.64,873.196c-4-11.678-12.622-41.193-12.622-78.604c0-41.199,16.099-50.141,34.038-56.299
	c4.387-1.508,8.011-2.392,11.206-3.172c13.698-3.343,21.355-6.196,45.54-34.279c16.419-19.067,27.16-19.092,27.129-19.098
	c0.233,0.019,0.456,0.022,0.683,0.003c0.285-0.009,0.751,0.006,1.185,0.062c-0.102,0.219-0.239,0.476-0.416,0.776
	c-6.311,10.699-32.307,42.19-32.568,42.507c-0.49,0.594-0.831,1.3-0.99,2.055c-0.025,0.115-2.454,11.574-5.907,20.469
	c-0.953,2.454,0.264,5.215,2.718,6.168c2.454,0.946,5.215-0.267,6.168-2.718c3.106-8.002,5.361-17.517,6.093-20.797
	c2.055-2.499,7.943-9.692,14.266-17.71c0.083-0.049,0.172-0.081,0.254-0.136c3.022-2.052,29.741-20.384,37.132-32.209
	c1.827-2.926,3.711-6.936,5.895-11.579c0.029-0.063,0.061-0.13,0.092-0.193c0.487-0.594,0.819-1.303,0.976-2.073
	c6.438-13.628,15.172-30.91,28.59-35.086c0.158-0.048,0.316-0.107,0.469-0.172c0.323-0.14,0.881-0.301,1.393-0.399
	c-0.037,0.38-0.118,0.886-0.273,1.536c-1.135,4.758-4.651,10.935-4.781,11.175c-0.292,0.56-29.056,56.181-35.54,67.762
	c-8.793,15.701-26.533,41.385-36.688,46.65c-11.225,5.82-39.21,22.888-49.257,35.704c-10.201,13.017-0.866,57.005,6.263,82.648
	C696.906,862.042,676.169,866.312,662.64,873.196z M492.574,793.537c-10.043-12.81-38.028-29.881-49.253-35.701
	c-10.158-5.265-27.898-30.95-36.691-46.65c-6.463-11.538-34.482-68.494-34.892-69.312c-0.019-0.031-1.7-3.064-4.601-10.856
	c14.197,4.803,24.048,24.917,30.591,38.278c2.144,4.376,3.996,8.155,5.724,10.92c7.016,11.225,32.71,29.201,38.022,32.848
	c6.098,7.798,11.666,14.748,13.62,17.178c0.726,3.252,2.988,12.798,6.1,20.821c0.949,2.457,3.72,3.67,6.165,2.721
	c2.454-0.953,3.673-3.714,2.721-6.165c-3.45-8.898-5.883-20.359-5.907-20.474c-0.155-0.735-0.481-1.424-0.952-2.009
	c-0.133-0.164-6.86-8.515-14.323-18.059c-0.178-0.283-0.383-0.552-0.623-0.797c-5.755-7.372-11.839-15.322-15.625-20.716
	c-0.047-0.077-0.102-0.147-0.154-0.221c-0.758-1.083-1.43-2.071-1.97-2.911c0.546-0.303,1.387-0.621,2.063-0.759
	c0.289-0.054,0.571-0.137,0.844-0.242c0.053-0.028,8.681-0.281,25.779,19.424c24.377,28.099,31.597,30.812,45.605,34.27
	c3.171,0.783,6.77,1.671,11.126,3.168c17.939,6.159,34.038,15.1,34.038,56.299c0,36.368-6.166,64.853-9.307,76.997
	c-11.589-7.927-23.532-11.367-35.649-10.121c-5.428,0.558-10.418,2.015-14.919,3.938
	C497.922,838.476,502.575,806.293,492.574,793.537z M395.833,605.712c1.489-1.125,3.041-0.602,3.233-0.529
	c0.602,0.276,1.253,0.424,1.911,0.436c1.201,1.174,2.347,6.502,2.381,11.13c-0.287,2.994-0.503,10.813-0.374,20.34
	c-1.659,5.299-2.936,10.05-3.894,14.05c-2.273-4.055-4.8-8.134-7.628-11.95C389.1,613.042,394.189,606.95,395.833,605.712z
	 M544.797,296.326c2.212,7.958,6.273,17.741,13.391,22.05c4.309,2.609,9.271,2.977,14.346,1.063
	c16.006-6.044,12.274-21.72,8.662-36.877c-2.057-8.634-4.182-17.562-3.767-26.344c0.661-13.895,8.579-28.637,14.995-38.433
	c1.089,13.614,5.212,34.688,18.978,55.336c20.88,31.322,24.507,50.716,24.538,50.893c0.335,1.958,1.852,3.503,3.804,3.875
	c1.961,0.382,3.931-0.504,4.964-2.2c0.534-0.88,10.834-18.086,11.2-41.066c9.441,13.986,22.429,39.144,22.429,71.687
	c0,5.619-0.563,11.191-1.616,16.626c-4.771-0.544-9.554-0.531-14.341,0.106c-6.557,0.867-12.685,2.799-18.361,5.386
	c-0.557-9.941-4.464-19.567-11.492-27.252c-15.131-16.548-18.702-38.532-18.736-38.745c-0.261-1.703-1.418-3.134-3.031-3.74
	c-1.613-0.603-3.431-0.296-4.747,0.813c-9.711,8.172-13.98,22.225-10.62,34.966l0.518,1.916c1.294,4.719,4.322,15.767,1.827,20.012
	c-0.316,0.538-0.81,1.129-2.06,1.435c-3.59,0.878-4.893-0.287-5.383-0.726c-4.064-3.641-3.974-15.553-3.295-20.753
	c0.223-1.716-0.5-3.421-1.889-4.451c-1.399-1.035-3.239-1.227-4.809-0.51c-0.67,0.306-16.484,7.707-21.721,28.61
	c-0.016,0.062-0.773,3.13-1.294,7.002c-5.491-2.234-11.363-3.909-17.592-4.742c-4.454-0.597-8.904-0.727-13.347-0.42
	C522.776,346.637,528.69,322.313,544.797,296.326z M605.105,343.865l-0.496-1.823c-1.654-6.28-0.791-12.972,2.11-18.451
	c2.709,8.928,8.216,22.469,18.78,34.017c6.615,7.233,9.739,16.632,8.962,26.016c-15.225,9.666-26.11,23.282-31.45,30.903
	c-6.123-8.269-18.832-23.244-36.591-33.123c0.188-2.801,0.683-6.191,1.409-9.084c1.995-7.969,5.858-13.414,9.336-16.921
	c0.304,6.464,1.799,14.343,6.764,18.797c2.526,2.266,7.009,4.612,14.017,2.895c3.484-0.852,6.255-2.878,8.011-5.861
	C610.491,363.517,607.118,351.215,605.105,343.865z M603.231,503.735c8.417,0,14.824,0.811,15.119,0.842
	c64.909,5.186,114.187,33.812,146.463,85.084c21.405,34.003,27.836,67.25,29.074,74.774c-0.022,0.048-0.046,0.098-0.068,0.145
	c-1.792,3.81-3.356,7.108-4.745,9.525c-2.377-13.404-9.554-43.603-29.293-74.148c-23.327-36.098-69.133-78.921-155.535-81.269
	c-0.327-0.071-0.666-0.114-1.015-0.114c-1.091,0-2.145,0.037-3.224,0.049c-1.084-0.013-2.143-0.049-3.239-0.049
	c-0.35,0-0.688,0.043-1.016,0.114c-86.41,2.361-132.48,45.418-156.033,81.712c-19.048,29.352-26.619,58.387-29.401,72.663
	c-1.191-2.172-2.533-4.908-4.029-7.959c-0.068-0.14-0.143-0.291-0.213-0.432c1.156-7.137,7.674-41.685,30.174-76.686
	c0.047-0.071,4.52-7.255,10.617-14.903C483.561,527.068,536.169,503.735,603.231,503.735z M801.321,606.036
	c1.513,1.447,6.238,8.369,4.204,36.495c-1.71,2.614-3.283,5.317-4.756,8.031c-0.921-3.792-2.114-8.215-3.646-13.132
	c-0.196-11.045-0.884-17.494-1.79-21.258c0-0.051,0.023-0.096,0.022-0.148c-0.056-2.024,0.534-9.736,4.483-10.491
	c0.14-0.026,0.276-0.059,0.413-0.098C800.297,605.471,800.738,605.479,801.321,606.036z M752.51,677.757
	c-14.556-43.977-52.933-111.065-151.459-111.852c-0.127-0.01-0.249-0.038-0.379-0.038c-0.228,0-0.444,0.014-0.672,0.015
	c-0.228-0.001-0.444-0.015-0.672-0.015c-0.13,0-0.252,0.028-0.379,0.038c-98.176,0.784-136.627,67.394-151.298,111.376
	c-3.719-2.46-6.857-3.87-9.423-4.599c14.315-46.734,53.929-119.203,161.775-119.507c109.352,0.308,147.887,74.162,161.278,120.359
	C758.859,674.342,755.908,675.658,752.51,677.757z M600.012,528.182c68.03,0.801,119.038,26.535,151.559,76.633
	c17.834,27.472,25.038,55.272,27.693,68.862c-1.921-0.573-4.566-0.859-6.612-1.001c-0.631-0.156-1.231-0.261-1.798-0.329
	c-13.711-48.562-53.89-127.893-169.816-128.681c-0.123-0.009-0.242-0.037-0.368-0.037c-0.219,0-0.426,0.015-0.645,0.015
	c-0.237-0.001-0.461-0.015-0.699-0.015c-0.14,0-0.271,0.029-0.408,0.041c-119.49,0.869-158.944,88.981-170.716,129.291
	c-2.836,0.282-5.793,1.077-8.522,2.035c2.645-13.429,9.921-41.497,28.033-69.409C480.558,554.978,531.811,528.983,600.012,528.182z
	 M519.039,729.278c-4.759-1.635-8.572-2.577-11.939-3.407c-11.495-2.837-17.266-4.261-40.69-31.262
	c-3.915-4.514-7.501-8.154-10.768-11.085c7.323-23.24,21.806-54.276,49.929-77.148C547.49,672.07,597.887,727.02,598.4,727.58
	c0.94,1.019,2.221,1.536,3.506,1.536c0.093,0,0.183-0.046,0.276-0.051c0.099,0.006,0.193,0.051,0.292,0.051
	c1.35,0,2.687-0.568,3.63-1.674c0.481-0.565,47.645-56.145,86.882-122.201c29.148,23.038,44.011,54.836,51.436,78.489
	c-3.365,2.87-6.985,6.414-10.843,10.893c-23.263,27.014-29.049,28.426-40.576,31.238c-3.394,0.828-7.245,1.768-12.044,3.418
	c-24.293,8.343-40.473,22.644-40.473,65.314c0,24.673,3.537,45.854,7.218,61.231c-9.356-8.799-21.893-13.986-37.543-15.453
	c-28.561-2.692-46.868,10.017-57.443,21.637c3.188-15.257,6.793-38.823,6.793-67.416
	C559.513,751.922,543.333,737.621,519.039,729.278z M312.299,1027.058V910.19l0.304-0.601c4.471-8.895,16.344-32.527,54.199-16.109
	c1.809,0.791,3.922,0.372,5.302-1.039c0.211-0.217,21.389-21.554,48.729-21.572c15.652,0.022,30.306,6.95,43.771,20.688
	c0.971,0.993,2.327,1.508,3.711,1.421c1.384-0.09,2.659-0.776,3.497-1.883c0.133-0.18,13.856-18.054,34.187-20.145
	c12.091-1.26,24.296,3.413,36.219,13.841c1.157,1.015,2.727,1.402,4.223,1.055c1.495-0.351,2.73-1.399,3.317-2.817
	c0.155-0.375,15.916-37.24,59.517-33.17c8.436,0.791,34.11,3.199,44.432,33.083c0.49,1.418,1.623,2.526,3.053,2.982
	c1.427,0.459,2.991,0.208,4.22-0.658c0.033-0.024,0.099-0.07,0.17-0.12c0.311-0.061,0.62-0.152,0.925-0.277
	c0.804-0.336,1.452-0.88,1.944-1.53c8.581-5.005,33.305-16.291,50.288,7.496c0.819,1.145,2.104,1.868,3.509,1.976
	c1.13,0.089,2.221-0.239,3.123-0.881c0.348,0.081,0.696,0.167,1.06,0.167c0.49,0,0.993-0.074,1.486-0.239
	c2.117-0.694,3.403-2.733,3.252-4.86c7.621-5.896,23.125-15.633,42.52-15.633c0.006,0,0.019,0,0.025,0
	c18.535,0.006,36.564,8.808,53.594,26.161c1.436,1.464,3.658,1.846,5.498,0.94c1.641-0.8,40.436-19.304,58.837,10.052
	c0.142,0.226,0.309,0.425,0.48,0.619l0.011,117.92H312.299z M462.396,968.569c0.987,2.439-0.192,5.219-2.631,6.205
	c-2.457,0.984-5.219-0.192-6.205-2.631c-0.189-0.45-5.215-11.867-21.461-13.723c-19.369-2.246-25.41,13.571-25.655,14.244
	c-0.503,1.371-1.607,2.436-2.994,2.888c-1.393,0.453-2.91,0.242-4.123-0.565c-12.556-8.371-24.557-10.837-35.692-7.328
	c-11.653,3.677-18.712,12.823-19.711,15.156c-0.521,2.147-2.451,3.639-4.626,3.639c-0.261,0-0.524-0.022-0.791-0.065
	c-2.594-0.431-4.35-2.888-3.915-5.485c0.686-4.114,9.05-15.172,21.929-20.75c9.668-4.182,24.811-6.618,43.554,4.092
	c5.011-7.939,15.73-17.269,33.104-15.296C455.238,951.471,462.113,967.871,462.396,968.569z M867.114,980.905
	c0.434,2.597-1.322,5.054-3.915,5.485c-0.267,0.043-0.531,0.065-0.791,0.065c-2.175,0-4.105-1.492-4.626-3.639
	c-0.999-2.336-8.057-11.48-19.708-15.156c-11.117-3.509-23.13-1.046-35.692,7.328c-1.213,0.807-2.733,1.018-4.123,0.565
	c-1.387-0.453-2.491-1.517-2.994-2.888c-0.242-0.648-6.444-16.447-25.658-14.244c-16.487,1.883-21.414,13.605-21.461,13.723
	c-0.99,2.439-3.754,3.615-6.205,2.631c-2.442-0.987-3.618-3.766-2.631-6.205c0.282-0.698,7.161-17.098,29.217-19.618
	c17.343-1.995,28.097,7.359,33.108,15.296c18.746-10.707,33.886-8.275,43.551-4.092
	C858.064,965.733,866.429,976.791,867.114,980.905z M704.937,1000.346c0.757,2.522-0.673,5.178-3.193,5.935
	c-2.522,0.748-5.181-0.67-5.935-3.193c-0.037-0.118-4.313-13.493-18.237-20.784c-12.044-6.314-28.007-0.568-28.171-0.512
	c-2.367,0.869-4.998-0.254-6.007-2.563c-0.168-0.366-4.539-9.696-15.957-10.896c-12.277-1.325-22.944,7.902-23.052,7.995
	c-1.855,1.626-4.641,1.561-6.422-0.133c-0.217-0.199-6.618-5.833-20.775-4.8c-17.499,1.25-20.79,17.337-20.821,17.499
	c-0.261,1.365-1.104,2.547-2.311,3.236c-1.21,0.692-2.662,0.822-3.965,0.354c-29.527-10.496-40.833,14.613-41.302,15.69
	c-0.779,1.799-2.538,2.876-4.381,2.876c-0.627,0-1.263-0.124-1.874-0.385c-2.411-1.036-3.537-3.819-2.51-6.236
	c0.143-0.332,13.912-31.628,48.53-22.401c3.382-8.29,11.793-18.985,27.954-20.139c12.336-0.9,20.424,2.482,24.622,4.964
	c4.924-3.413,15.293-9.249,27.306-8.002c11.74,1.238,18.42,8.34,21.529,12.835c6.556-1.688,20.288-3.977,32.031,2.172
	C699.581,983.071,704.726,999.648,704.937,1000.346z M520.169,931.962c-12.904-11.712-25.345-17.108-37.026-16.074
	c-14.405,1.294-22.996,12.271-23.08,12.382c-1.598,2.079-4.589,2.488-6.674,0.894c-2.088-1.589-2.501-4.561-0.921-6.655
	c0.444-0.586,11.045-14.353,29.658-16.096c13.493-1.281,27.371,4.043,41.345,15.777c7.009-5.209,24.011-14.954,43.855-5.699
	c2.383,1.114,3.416,3.95,2.302,6.335c-1.117,2.386-3.946,3.413-6.336,2.302c-19.549-9.131-35.943,6.1-36.632,6.751
	c-0.922,0.875-2.107,1.312-3.295,1.312C522.22,933.191,521.075,932.784,520.169,931.962z M739.937,928.267
	c-0.137-0.174-8.715-11.089-23.077-12.379c-11.628-1.021-24.116,4.359-37.029,16.074c-0.909,0.825-2.057,1.235-3.202,1.235
	c-1.191,0-2.38-0.444-3.301-1.328c-0.676-0.642-17.07-15.87-36.617-6.742c-2.383,1.111-5.222,0.084-6.336-2.302
	c-1.114-2.386-0.081-5.222,2.302-6.335c19.838-9.258,36.84,0.49,43.855,5.699c13.974-11.737,27.846-17.067,41.345-15.777
	c18.609,1.744,29.211,15.51,29.654,16.096c1.585,2.1,1.17,5.088-0.931,6.677C744.51,930.761,741.528,930.358,739.937,928.267z
	 M558.402,119.495c-0.645-1.311-0.735-2.656-0.267-4.036c0.444-1.378,1.312-2.389,2.603-3.034c1.309-0.645,2.656-0.735,4.033-0.267
	c1.381,0.444,2.392,1.323,3.037,2.634l15.01,29.957l15.013-30.024c0.645-1.289,1.657-2.167,3.034-2.634
	c1.381-0.445,2.715-0.346,4.002,0.299c1.291,0.645,2.169,1.657,2.637,3.036c0.465,1.379,0.366,2.713-0.301,4.002l-19.683,39.431
	c-0.444,0.89-1.089,1.59-1.933,2.102c-0.847,0.534-1.768,0.8-2.771,0.8c-0.999,0-1.924-0.267-2.768-0.8
	c-0.847-0.512-1.489-1.212-1.936-2.102L558.402,119.495z M622.551,160.227c-1.024-1.022-1.536-2.268-1.536-3.737v-39.397
	c0-1.446,0.512-2.679,1.536-3.703c1.021-1.044,2.268-1.567,3.735-1.567c1.446,0,2.681,0.523,3.701,1.567
	c1.024,1.024,1.536,2.257,1.536,3.703v39.397c0,1.469-0.512,2.715-1.536,3.737c-1.021,1.022-2.256,1.534-3.701,1.534
	C624.819,161.761,623.571,161.249,622.551,160.227z M385.39,1066.145c1.021,1.024,1.533,2.259,1.533,3.704s-0.512,2.681-1.533,3.701
	c-1.046,1.024-2.293,1.536-3.739,1.536h-11.175v34.159c0,1.468-0.512,2.715-1.533,3.735c-1.024,1.024-2.259,1.536-3.704,1.536
	s-2.69-0.512-3.736-1.536c-1.024-1.021-1.533-2.268-1.533-3.735v-34.159h-11.144c-1.468,0-2.712-0.512-3.736-1.536
	c-1.024-1.021-1.533-2.256-1.533-3.701s0.509-2.681,1.533-3.704c1.024-1.042,2.268-1.567,3.736-1.567h32.825
	C383.097,1064.578,384.344,1065.103,385.39,1066.145z M438.664,1066.145c1.021,1.024,1.533,2.259,1.533,3.704v39.397
	c0,1.468-0.512,2.715-1.533,3.735c-1.046,1.024-2.293,1.536-3.739,1.536s-2.681-0.512-3.701-1.536
	c-1.024-1.021-1.536-2.268-1.536-3.735v-14.446h-22.351v14.446c0,1.468-0.512,2.715-1.533,3.735
	c-1.024,1.024-2.259,1.536-3.704,1.536c-1.468,0-2.712-0.512-3.736-1.536c-1.024-1.021-1.533-2.268-1.533-3.735v-39.397
	c0-1.446,0.509-2.681,1.533-3.704c1.024-1.042,2.268-1.567,3.736-1.567c1.446,0,2.681,0.524,3.704,1.567
	c1.021,1.024,1.533,2.259,1.533,3.704v14.443h22.351v-14.443c0-1.446,0.512-2.681,1.536-3.704c1.021-1.042,2.256-1.567,3.701-1.567
	S437.618,1065.103,438.664,1066.145z M464.549,1075.087v9.205h21.017c1.446,0,2.69,0.512,3.736,1.536
	c1.024,1.024,1.536,2.268,1.536,3.736c0,1.446-0.512,2.681-1.536,3.704c-1.046,1.024-2.29,1.533-3.736,1.533h-21.017v9.208h27.588
	c1.446,0,2.69,0.512,3.736,1.533c1.024,1.024,1.536,2.259,1.536,3.704c0,1.468-0.512,2.715-1.536,3.735
	c-1.046,1.024-2.29,1.536-3.736,1.536h-32.825c-1.467,0-2.715-0.512-3.736-1.536c-1.024-1.021-1.536-2.268-1.536-3.735v-39.397
	c0-1.446,0.512-2.681,1.536-3.704c1.021-1.042,2.268-1.567,3.736-1.567h32.825c1.446,0,2.69,0.524,3.736,1.567
	c1.024,1.024,1.536,2.259,1.536,3.704s-0.512,2.681-1.536,3.701c-1.046,1.024-2.29,1.536-3.736,1.536H464.549z M576.099,1105.542
	c1.024,1.024,1.536,2.259,1.536,3.704c0,1.468-0.512,2.715-1.536,3.735c-1.046,1.024-2.29,1.536-3.735,1.536h-26.254
	c-1.468,0-2.712-0.512-3.735-1.536c-1.024-1.021-1.533-2.268-1.533-3.735v-39.397c0-1.446,0.509-2.681,1.533-3.704
	c1.024-1.042,2.268-1.567,3.735-1.567c1.446,0,2.681,0.524,3.704,1.567c1.021,1.024,1.533,2.259,1.533,3.704v34.159h21.017
	C573.809,1104.009,575.053,1104.521,576.099,1105.542z M609.858,1064.578c-6.872,0-12.755,2.448-17.647,7.338
	c-4.868,4.871-7.303,10.753-7.303,17.647c0,6.872,2.436,12.755,7.303,17.647c4.893,4.871,10.775,7.307,17.647,7.307
	c6.894,0,12.776-2.436,17.647-7.307c4.893-4.893,7.338-10.775,7.338-17.647c0-6.894-2.445-12.776-7.338-17.647
	C622.634,1067.026,616.752,1064.578,609.858,1064.578z M620.1,1099.771c-2.848,2.826-6.261,4.238-10.242,4.238
	c-3.981,0-7.384-1.412-10.207-4.238c-2.823-2.823-4.235-6.227-4.235-10.207c0-3.981,1.412-7.381,4.235-10.208
	c2.823-2.845,6.227-4.269,10.207-4.269c3.981,0,7.393,1.424,10.242,4.269c2.823,2.826,4.238,6.227,4.238,10.208
	C624.338,1093.544,622.923,1096.948,620.1,1099.771z M691.754,1068.181c0.469,1.381,0.369,2.715-0.298,4.002l-19.683,39.431
	c-0.447,0.891-1.089,1.592-1.936,2.104c-0.844,0.534-1.768,0.8-2.768,0.8c-1.002,0-1.924-0.267-2.771-0.8
	c-0.844-0.512-1.489-1.213-1.933-2.104l-19.717-39.362c-0.645-1.312-0.732-2.656-0.267-4.036c0.447-1.378,1.312-2.389,2.603-3.034
	c1.312-0.645,2.656-0.735,4.036-0.267c1.378,0.444,2.389,1.322,3.034,2.634l15.013,29.955l15.01-30.024
	c0.645-1.288,1.657-2.166,3.037-2.634c1.378-0.444,2.712-0.344,4.002,0.301C690.41,1065.792,691.288,1066.803,691.754,1068.181z
	 M712.435,1075.087v9.205h21.017c1.446,0,2.69,0.512,3.735,1.536c1.024,1.024,1.536,2.268,1.536,3.736
	c0,1.446-0.512,2.681-1.536,3.704c-1.046,1.024-2.29,1.533-3.735,1.533h-21.017v9.208h27.588c1.446,0,2.693,0.512,3.739,1.533
	c1.021,1.024,1.533,2.259,1.533,3.704c0,1.468-0.512,2.715-1.533,3.735c-1.046,1.024-2.293,1.536-3.739,1.536h-32.825
	c-1.468,0-2.712-0.512-3.735-1.536c-1.024-1.021-1.533-2.268-1.533-3.735v-39.397c0-1.446,0.509-2.681,1.533-3.704
	c1.024-1.042,2.268-1.567,3.735-1.567h32.825c1.446,0,2.693,0.524,3.739,1.567c1.021,1.024,1.533,2.259,1.533,3.704
	s-0.512,2.681-1.533,3.701c-1.046,1.024-2.293,1.536-3.739,1.536H712.435z M797.502,1091.965c1.579-2.78,2.367-5.771,2.367-8.973
	c0-5.07-1.799-9.407-5.405-13.009c-3.602-3.602-7.94-5.405-13.009-5.405h-19.683c-1.468,0-2.712,0.524-3.735,1.567
	c-1.024,1.024-1.533,2.259-1.533,3.704v39.397c0,1.468,0.509,2.715,1.533,3.735c1.024,1.024,2.268,1.536,3.735,1.536
	c1.446,0,2.681-0.512,3.704-1.536c1.021-1.021,1.533-2.268,1.533-3.735v-7.874h12.277l11.61,11.61
	c1.021,1.024,2.256,1.536,3.701,1.536s2.693-0.512,3.739-1.536c1.021-1.021,1.533-2.268,1.533-3.735
	c0-1.446-0.512-2.681-1.533-3.704l-7.04-7.037C793.922,1096.836,795.988,1094.658,797.502,1091.965z M787.028,1088.564
	c-1.536,1.533-3.394,2.302-5.572,2.302H767.01v-15.78h14.446c2.178,0,4.036,0.779,5.572,2.336c1.554,1.533,2.333,3.391,2.333,5.569
	C789.361,1085.149,788.582,1087.007,787.028,1088.564z M820.318,1076.455c-0.912,0.887-1.368,1.967-1.368,3.236
	c0,1.266,0.456,2.358,1.368,3.267c0.887,0.891,1.967,1.334,3.236,1.334h13.143c4.157,0,7.716,1.48,10.676,4.437
	c2.957,2.96,4.437,6.518,4.437,10.676c0,4.161-1.48,7.719-4.437,10.676c-2.96,2.957-6.518,4.437-10.676,4.437h-22.984
	c-1.468,0-2.715-0.512-3.735-1.536c-1.024-1.021-1.536-2.268-1.536-3.735c0-1.446,0.512-2.681,1.536-3.704
	c1.021-1.021,2.268-1.533,3.735-1.533h22.984c1.269,0,2.346-0.444,3.236-1.334c0.912-0.912,1.368-2.001,1.368-3.27
	c0-1.266-0.456-2.346-1.368-3.236c-0.89-0.912-1.967-1.368-3.236-1.368h-13.143c-4.161,0-7.719-1.477-10.676-4.437
	c-2.957-2.935-4.437-6.494-4.437-10.673c0-4.161,1.48-7.719,4.437-10.676c2.957-2.957,6.515-4.437,10.676-4.437h22.984
	c1.446,0,2.69,0.524,3.736,1.567c1.024,1.024,1.536,2.259,1.536,3.704s-0.512,2.681-1.536,3.701
	c-1.046,1.024-2.29,1.536-3.736,1.536h-22.984C822.285,1075.087,821.206,1075.543,820.318,1076.455z"/>
</svg>
