<?xml version="1.0" encoding="utf-8"?>
<!-- Generator: Adobe Illustrator 23.0.3, SVG Export Plug-In . SVG Version: 6.00 Build 0)  -->
<svg version="1.1" id="Capa_1" xmlns="http://www.w3.org/2000/svg" xmlns:xlink="http://www.w3.org/1999/xlink" x="0px" y="0px"
	 viewBox="0 0 1200 1200" enable-background="new 0 0 1200 1200" xml:space="preserve">
<path fill="#2E2E2E" d="M885.67,59.489c7.581,0,14.444,3.072,19.412,8.041c4.968,4.968,8.04,11.831,8.04,19.411V600v513.059
	c0,7.581-3.073,14.444-8.04,19.411c-4.968,4.968-11.831,8.04-19.412,8.04H600H314.33c-7.581,0-14.443-3.073-19.411-8.04
	c-4.968-4.968-8.04-11.831-8.04-19.411V600V86.941c0-7.58,3.072-14.443,8.04-19.411c4.968-4.968,11.831-8.041,19.411-8.041H600
	H885.67 M885.67,50H600H314.33c-9.868,0-19.144,3.843-26.121,10.82c-6.977,6.977-10.819,16.253-10.819,26.121V600v513.059
	c0,9.867,3.842,19.144,10.82,26.121c6.977,6.977,16.254,10.82,26.121,10.82H600h285.67c9.867,0,19.144-3.842,26.121-10.819
	c6.977-6.978,10.82-16.254,10.82-26.121V600V86.941c0-9.867-3.843-19.144-10.82-26.121C904.814,53.843,895.537,50,885.67,50
	L885.67,50z M585.538,352.025h9.781v29.987c0,1.288,0.45,2.383,1.348,3.279c0.918,0.899,2.01,1.348,3.28,1.348
	c1.269,0,2.353-0.449,3.252-1.348c0.896-0.896,1.345-1.991,1.345-3.279v-29.987h9.811c1.269,0,2.361-0.449,3.279-1.345
	c0.899-0.899,1.348-1.983,1.348-3.252c0-1.269-0.449-2.353-1.348-3.249c-0.918-0.918-2.01-1.378-3.279-1.378h-28.816
	c-1.288,0-2.38,0.46-3.279,1.378c-0.899,0.896-1.348,1.98-1.348,3.249c0,1.269,0.449,2.353,1.348,3.252
	C583.158,351.576,584.25,352.025,585.538,352.025z M819.974,564.383c-0.469-0.741-1.092-1.307-1.874-1.697l-34.615-17.309
	c-1.131-0.566-2.302-0.643-3.514-0.234c-1.209,0.392-2.097,1.163-2.664,2.315c-0.566,1.13-0.645,2.302-0.234,3.514
	c0.389,1.209,1.16,2.097,2.312,2.664l6.093,3.048v20.234l-6.093,3.075c-0.801,0.392-1.435,0.967-1.904,1.729
	c-0.45,0.741-0.673,1.542-0.673,2.399c0,0.722,0.166,1.405,0.498,2.051c0.567,1.133,1.454,1.904,2.664,2.312
	c1.212,0.411,2.383,0.324,3.514-0.261l34.615-17.279c0.782-0.392,1.406-0.956,1.874-1.7c0.449-0.741,0.675-1.552,0.675-2.43
	C820.649,565.935,820.423,565.126,819.974,564.383z M794.701,572.32v-11.012l11.011,5.507L794.701,572.32z M611.068,735.928
	c-1.267,0-2.35,0.449-3.249,1.348c-0.899,0.896-1.348,1.991-1.348,3.279v6.91h-10.775l-10.192-10.189
	c-0.899-0.899-1.983-1.348-3.252-1.348c-1.266,0-2.361,0.449-3.279,1.348c-0.896,0.896-1.345,1.991-1.345,3.279
	c0,1.269,0.449,2.353,1.345,3.249l6.18,6.18c-2.304,1.465-4.118,3.377-5.447,5.739c-1.387,2.44-2.078,5.066-2.078,7.879
	c0,4.451,1.579,8.258,4.742,11.42c3.165,3.162,6.97,4.745,11.423,4.745h17.276c1.288,0,2.383-0.46,3.282-1.378
	c0.896-0.896,1.345-1.98,1.345-3.249v-34.585c0-1.288-0.45-2.383-1.345-3.279C613.451,736.377,612.356,735.928,611.068,735.928z
	 M606.47,770.542h-12.678c-1.915,0-3.543-0.684-4.892-2.051c-1.367-1.345-2.051-2.977-2.051-4.889c0-1.896,0.684-3.524,2.051-4.892
	c1.348-1.348,2.977-2.021,4.892-2.021h12.678V770.542z M404.322,540.876c-6.033,0-11.197,2.149-15.492,6.444
	c-4.276,4.273-6.414,9.44-6.414,15.492c0,6.03,2.138,11.194,6.414,15.489c4.295,4.276,9.459,6.414,15.492,6.414
	c6.052,0,11.216-2.138,15.492-6.414c4.295-4.295,6.441-9.459,6.441-15.489c0-6.052-2.146-11.219-6.441-15.492
	C415.538,543.025,410.374,540.876,404.322,540.876z M413.313,571.773c-2.5,2.479-5.496,3.718-8.991,3.718
	c-3.495,0-6.482-1.239-8.961-3.718c-2.481-2.481-3.72-5.466-3.72-8.961c0-3.497,1.239-6.482,3.72-8.963
	c2.479-2.498,5.466-3.748,8.961-3.748c3.495,0,6.49,1.25,8.991,3.748c2.479,2.481,3.718,5.466,3.718,8.963
	C417.03,566.307,415.791,569.292,413.313,571.773z M386.72,1064.534h-32.828c-1.468,0-2.712,0.524-3.736,1.567
	c-1.024,1.024-1.533,2.259-1.533,3.705s0.509,2.681,1.533,3.702c1.024,1.024,2.268,1.536,3.736,1.536h11.145v34.162
	c0,1.468,0.509,2.715,1.533,3.736c1.046,1.024,2.29,1.536,3.736,1.536c1.446,0,2.681-0.512,3.705-1.536
	c1.021-1.021,1.533-2.268,1.533-3.736v-34.162h11.176c1.446,0,2.693-0.512,3.739-1.536c1.021-1.021,1.533-2.256,1.533-3.702
	s-0.512-2.681-1.533-3.705C389.413,1065.058,388.166,1064.534,386.72,1064.534z M443.334,1064.534c-1.446,0-2.681,0.524-3.702,1.567
	c-1.024,1.024-1.536,2.259-1.536,3.705v14.444h-22.353v-14.444c0-1.446-0.512-2.681-1.533-3.705
	c-1.024-1.042-2.259-1.567-3.705-1.567c-1.468,0-2.712,0.524-3.736,1.567c-1.024,1.024-1.533,2.259-1.533,3.705v39.4
	c0,1.468,0.509,2.715,1.533,3.736c1.024,1.024,2.268,1.536,3.736,1.536c1.446,0,2.681-0.512,3.705-1.536
	c1.021-1.021,1.533-2.268,1.533-3.736v-14.447h22.353v14.447c0,1.468,0.512,2.715,1.536,3.736c1.021,1.024,2.256,1.536,3.702,1.536
	c1.446,0,2.693-0.512,3.739-1.536c1.021-1.021,1.533-2.268,1.533-3.736v-39.4c0-1.446-0.512-2.681-1.533-3.705
	C446.027,1065.058,444.78,1064.534,443.334,1064.534z M503.885,1075.043c1.446,0,2.693-0.512,3.739-1.536
	c1.021-1.021,1.533-2.256,1.533-3.702s-0.512-2.681-1.533-3.705c-1.046-1.042-2.293-1.567-3.739-1.567h-32.828
	c-1.468,0-2.712,0.524-3.736,1.567c-1.024,1.024-1.533,2.259-1.533,3.705v39.4c0,1.468,0.509,2.715,1.533,3.736
	c1.024,1.024,2.268,1.536,3.736,1.536h32.828c1.446,0,2.693-0.512,3.739-1.536c1.021-1.021,1.533-2.268,1.533-3.736
	c0-1.446-0.512-2.681-1.533-3.705c-1.046-1.021-2.293-1.533-3.739-1.533h-27.59v-9.209h21.018c1.446,0,2.69-0.509,3.736-1.533
	c1.024-1.024,1.536-2.259,1.536-3.705c0-1.468-0.512-2.712-1.536-3.736c-1.046-1.024-2.29-1.536-3.736-1.536h-21.018v-9.206H503.885
	z M622.05,1065.102c-1.313-0.645-1.967-0.968-1.967-0.968s-0.689,0.223-2.07,0.667c-1.356,0.469-2.367,1.347-3.035,2.634
	l-15.011,30.026l-3.972-7.94l8.676-17.382c0.667-1.288,0.766-2.622,0.298-4.003c-0.465-1.378-1.344-2.389-2.634-3.035
	s-2.625-0.745-4.003-0.301c-1.381,0.469-2.392,1.347-3.038,2.634l-5.169,10.345l-5.138-10.277c-0.667-1.313-1.679-2.191-3.038-2.634
	c-1.378-0.469-2.724-0.379-4.037,0.267c-1.288,0.645-2.166,1.657-2.634,3.035c-0.444,1.381-0.344,2.724,0.301,4.037l8.672,17.314
	l-3.969,7.94l-15.015-29.958c-0.645-1.313-1.657-2.191-3.035-2.634c-1.381-0.469-2.724-0.379-4.037,0.267
	c-1.291,0.645-2.156,1.657-2.603,3.035c-0.465,1.381-0.379,2.724,0.267,4.037l19.718,39.365c0.444,0.891,1.089,1.592,1.933,2.104
	c0.847,0.534,1.769,0.801,2.771,0.801c0.999,0,1.924-0.267,2.768-0.801c0.847-0.512,1.489-1.213,1.936-2.104l5.138-10.307
	l5.169,10.307c0.447,0.891,1.089,1.592,1.936,2.104c0.844,0.534,1.769,0.801,2.768,0.801c0.98,0,1.89-0.267,2.737-0.801
	c0.844-0.512,1.489-1.213,1.936-2.104l19.715-39.434c0.645-1.288,0.745-2.622,0.301-4.003
	C624.219,1066.759,623.341,1065.747,622.05,1065.102z M676.297,1064.534c-1.446,0-2.681,0.524-3.702,1.567
	c-1.024,1.024-1.536,2.259-1.536,3.705v14.444h-22.353v-14.444c0-1.446-0.512-2.681-1.533-3.705
	c-1.024-1.042-2.259-1.567-3.705-1.567c-1.468,0-2.712,0.524-3.736,1.567c-1.024,1.024-1.533,2.259-1.533,3.705v39.4
	c0,1.468,0.509,2.715,1.533,3.736c1.024,1.024,2.268,1.536,3.736,1.536c1.446,0,2.681-0.512,3.705-1.536
	c1.021-1.021,1.533-2.268,1.533-3.736v-14.447h22.353v14.447c0,1.468,0.512,2.715,1.536,3.736c1.021,1.024,2.256,1.536,3.702,1.536
	c1.446,0,2.693-0.512,3.739-1.536c1.021-1.021,1.533-2.268,1.533-3.736v-39.4c0-1.446-0.512-2.681-1.533-3.705
	C678.99,1065.058,677.742,1064.534,676.297,1064.534z M736.848,1075.043c1.446,0,2.69-0.512,3.736-1.536
	c1.024-1.021,1.536-2.256,1.536-3.702s-0.512-2.681-1.536-3.705c-1.046-1.042-2.29-1.567-3.736-1.567H704.02
	c-1.468,0-2.715,0.524-3.736,1.567c-1.024,1.024-1.536,2.259-1.536,3.705v39.4c0,1.468,0.512,2.715,1.536,3.736
	c1.021,1.024,2.268,1.536,3.736,1.536h32.828c1.446,0,2.69-0.512,3.736-1.536c1.024-1.021,1.536-2.268,1.536-3.736
	c0-1.446-0.512-2.681-1.536-3.705c-1.046-1.021-2.29-1.533-3.736-1.533h-27.59v-9.209h21.018c1.446,0,2.69-0.509,3.736-1.533
	c1.024-1.024,1.536-2.259,1.536-3.705c0-1.468-0.512-2.712-1.536-3.736c-1.046-1.024-2.29-1.536-3.736-1.536h-21.018v-9.206H736.848
	z M794.762,1075.043c1.446,0,2.693-0.512,3.739-1.536c1.021-1.021,1.533-2.256,1.533-3.702s-0.512-2.681-1.533-3.705
	c-1.046-1.042-2.293-1.567-3.739-1.567h-32.828c-1.468,0-2.712,0.524-3.736,1.567c-1.024,1.024-1.533,2.259-1.533,3.705v39.4
	c0,1.468,0.509,2.715,1.533,3.736c1.024,1.024,2.268,1.536,3.736,1.536h32.828c1.446,0,2.693-0.512,3.739-1.536
	c1.021-1.021,1.533-2.268,1.533-3.736c0-1.446-0.512-2.681-1.533-3.705c-1.046-1.021-2.293-1.533-3.739-1.533h-27.59v-9.209h21.018
	c1.446,0,2.69-0.509,3.736-1.533c1.024-1.024,1.536-2.259,1.536-3.705c0-1.468-0.512-2.712-1.536-3.736
	c-1.046-1.024-2.29-1.536-3.736-1.536h-21.018v-9.206H794.762z M846.105,1103.968h-21.018v-34.162c0-1.446-0.512-2.681-1.533-3.705
	c-1.024-1.042-2.259-1.567-3.705-1.567c-1.468,0-2.712,0.524-3.736,1.567c-1.024,1.024-1.533,2.259-1.533,3.705v39.4
	c0,1.468,0.509,2.715,1.533,3.736c1.024,1.024,2.268,1.536,3.736,1.536h26.256c1.446,0,2.69-0.512,3.736-1.536
	c1.024-1.021,1.536-2.268,1.536-3.736c0-1.446-0.512-2.681-1.536-3.705C848.795,1104.48,847.551,1103.968,846.105,1103.968z
	 M578.348,156.955c0.133,1.446,0.757,2.625,1.868,3.536c0.956,0.824,2.079,1.235,3.37,1.235c1.623,0,2.969-0.635,4.037-1.902
	L600,144.978l12.377,14.845c1.067,1.268,2.414,1.902,4.037,1.902c1.269,0,2.389-0.411,3.37-1.235
	c1.111-0.911,1.734-2.09,1.868-3.536s-0.267-2.724-1.201-3.837l-13.612-16.347l13.612-16.347c0.934-1.112,1.334-2.391,1.201-3.837
	c-0.133-1.446-0.757-2.636-1.868-3.57c-1.114-0.934-2.392-1.334-3.838-1.201s-2.634,0.757-3.568,1.868L600,128.564l-12.377-14.88
	c-0.934-1.111-2.125-1.734-3.568-1.868c-1.449-0.133-2.727,0.267-3.838,1.201c-1.111,0.934-1.734,2.124-1.868,3.57
	c-0.133,1.446,0.267,2.724,1.201,3.837l13.612,16.347l-13.612,16.347C578.615,154.23,578.215,155.509,578.348,156.955z
	 M850.198,985.564c-0.901-0.65-1.942-0.963-2.972-0.963c-1.58,0-3.137,0.735-4.133,2.116c-1.377,1.908-4.143,3.966-6.958,3.966
	c-0.275,0-0.651,0.023-1.103,0.06c-0.406,0.034-0.802,0.062-1.17,0.062c-0.687,0-1.272-0.097-1.63-0.427
	c-0.323-0.298-1.378-1.613-1.378-6.05c0-4.92,3.068-11.073,6.315-17.583c4.584-9.188,9.778-19.601,9.778-31.93
	c0-12.779-7.766-25.671-25.117-25.671c-6.604,0-12.224,2.25-16.255,6.504c-4.478,4.725-6.912,11.991-6.51,19.439
	c0.185,3.448,0.984,6.65,2.049,9.657c-0.448-0.031-0.897-0.069-1.354-0.069c-10.707,0-19.418,8.711-19.418,19.416
	c0,10.709,8.711,19.419,19.418,19.419c10.706,0,19.417-8.711,19.417-19.419c0-3.023-0.715-5.875-1.952-8.429
	c-0.814-1.986-1.796-3.984-2.812-6.03c-2.411-4.854-4.904-9.874-5.184-15.092c-0.197-3.638,0.681-8.671,3.733-11.891
	c2.12-2.24,5.021-3.327,8.868-3.327c13.861,0,14.938,11.858,14.938,15.493c0,9.933-4.426,18.806-8.707,27.388
	c-3.797,7.614-7.385,14.807-7.385,22.126c0,6.136,1.571,10.695,4.665,13.542c2.881,2.651,6.284,3.111,8.593,3.111
	c0.804,0,1.476-0.056,1.946-0.093l0.255-0.027c6.87,0,12.49-4.413,15.215-8.194C852.993,990.388,852.478,987.208,850.198,985.564z
	 M799.76,973.332c-5.095,0-9.239-4.145-9.239-9.241c0-5.092,4.145-9.237,9.239-9.237c3.594,0,6.682,2.084,8.208,5.088
	c0.614,1.564,1.03,2.99,1.03,4.15C808.999,969.187,804.855,973.332,799.76,973.332z M423.806,913.933
	c-8.889,0-13.846,7.421-18.637,14.599c-5.217,7.813-10.145,15.192-19.78,15.192c-9.637,0-14.565-7.38-19.781-15.192
	c-4.792-7.178-9.748-14.599-18.637-14.599c-2.679,0-4.85,2.173-4.85,4.85c0,2.678,2.171,4.85,4.85,4.85
	c3.453,0,6.296,3.887,10.571,10.285c3.238,4.849,6.921,10.356,12.116,14.28c-8.644,5.312-14.441,14.828-14.441,25.698
	c0,16.639,13.536,30.173,30.173,30.173c16.637,0,30.173-13.534,30.173-30.173c0-10.87-5.797-20.386-14.441-25.698
	c5.195-3.924,8.878-9.431,12.116-14.28c4.274-6.398,7.118-10.285,10.571-10.285c2.679,0,4.85-2.173,4.85-4.85
	C428.656,916.105,426.485,913.933,423.806,913.933z M405.86,973.897c0,11.289-9.184,20.472-20.472,20.472
	c-11.288,0-20.472-9.183-20.472-20.472c0-11.289,9.184-20.472,20.472-20.472C396.676,953.425,405.86,962.608,405.86,973.897z
	 M844.733,560.678c0-134.946-109.787-244.732-244.732-244.732S355.269,425.732,355.269,560.678s109.787,244.733,244.732,244.733
	S844.733,695.624,844.733,560.678z M600.001,795.88c-129.689,0-235.2-105.511-235.2-235.201s105.511-235.2,235.2-235.2
	s235.2,105.51,235.2,235.2S729.69,795.88,600.001,795.88z M762.846,561.237c0-88.564-72.051-160.616-160.614-160.616
	s-160.617,72.052-160.617,160.616s72.054,160.616,160.617,160.616S762.846,649.8,762.846,561.237z M451.146,561.237
	c0-83.308,67.778-151.084,151.086-151.084s151.082,67.776,151.082,151.084s-67.775,151.084-151.082,151.084
	S451.146,644.544,451.146,561.237z M614.473,688.862c0-2.633-2.135-4.766-4.766-4.766h-5.498v-64.477
	c12.862-1.156,24.502-6.51,33.617-14.655l46.393,46.393l-3.907,3.908c-1.862,1.862-1.862,4.879,0,6.739
	c0.931,0.931,2.15,1.396,3.37,1.396s2.439-0.465,3.37-1.396l7.23-7.232c0.017-0.016,0.039-0.021,0.055-0.037
	s0.021-0.039,0.037-0.055l7.23-7.232c1.862-1.862,1.862-4.879,0-6.739c-1.862-1.862-4.878-1.862-6.739,0l-3.907,3.908
	l-46.533-46.533c7.283-9.014,11.906-20.227,12.784-32.473h65.49v5.49c0,2.633,2.135,4.766,4.766,4.766
	c2.631,0,4.766-2.133,4.766-4.766v-20.583c0-2.633-2.135-4.766-4.766-4.766c-2.631,0-4.766,2.133-4.766,4.766v5.56h-65.547
	c-1.098-12.092-5.869-23.135-13.217-31.983l47.005-47.005l3.343,3.343c0.931,0.931,2.15,1.396,3.37,1.396
	c1.219,0,2.439-0.465,3.37-1.396c1.862-1.862,1.862-4.879,0-6.739l-6.581-6.58c-0.045-0.048-0.059-0.112-0.106-0.159
	s-0.111-0.061-0.159-0.106l-7.71-7.709c-1.862-1.862-4.878-1.862-6.739,0s-1.862,4.879,0,6.739l4.472,4.472l-46.96,46.96
	c-9.026-7.851-20.447-12.994-33.032-14.125v-65.66h5.498c2.631,0,4.766-2.133,4.766-4.766s-2.135-4.766-4.766-4.766h-20.584
	c-2.631,0-4.766,2.133-4.766,4.766s2.135,4.766,4.766,4.766h5.554v65.609c-12.224,0.888-23.417,5.51-32.417,12.783l-45.653-45.654
	l3.907-3.907c1.862-1.86,1.862-4.878,0-6.739s-4.878-1.862-6.739,0l-14.555,14.554c-1.862,1.86-1.862,4.878,0,6.739
	c0.931,0.931,2.15,1.396,3.37,1.396c1.219,0,2.439-0.465,3.37-1.396l3.908-3.908l45.514,45.514
	c-8.134,9.102-13.486,20.721-14.652,33.561H476.13v-5.56c0-2.633-2.135-4.766-4.766-4.766s-4.766,2.133-4.766,4.766v20.583
	c0,2.633,2.135,4.766,4.766,4.766s4.766-2.133,4.766-4.766v-5.49h64.541c0.932,12.999,6.108,24.816,14.177,34.093l-44.999,44.999
	l-4.472-4.472c-1.862-1.862-4.878-1.862-6.739,0c-1.862,1.86-1.862,4.878,0,6.739l14.552,14.555c0.931,0.931,2.15,1.396,3.37,1.396
	c1.219,0,2.439-0.465,3.37-1.396c1.862-1.86,1.862-4.878,0-6.739l-3.342-3.343l45.045-45.045
	c9.103,7.561,20.54,12.363,33.044,13.272v64.426h-5.554c-2.631,0-4.766,2.133-4.766,4.766s2.135,4.766,4.766,4.766h20.584
	C612.338,693.628,614.473,691.495,614.473,688.862z M637.625,591.285l-25.674-25.673h35.725
	C646.852,575.236,643.225,584.052,637.625,591.285z M647.587,556.08h-35.635l25.196-25.195
	C642.806,537.955,646.556,546.609,647.587,556.08z M604.208,512.747c9.964,1.072,19.028,5.151,26.295,11.302l-26.295,26.295V512.747
	z M604.208,571.347l26.88,26.88c-7.365,6.438-16.64,10.731-26.88,11.833V571.347z M562.117,529.256l26.824,26.824h-38.648
	C551.404,545.863,555.691,536.607,562.117,529.256z M561.585,592.967c-6.366-7.523-10.493-16.978-11.382-27.356h38.738
	L561.585,592.967z M594.677,610.138c-9.883-0.858-18.924-4.658-26.256-10.527l26.256-26.256V610.138z M594.677,548.337
	l-25.618-25.618c7.219-5.59,16.015-9.216,25.618-10.05V548.337z M737.885,425.521c3.225,3.012,11.159,1.004,14.171-4.016
	c3.012-5.02,1.506-12.216,1.506-12.216s-2.914-13.838-7.934-13.613c-5.02,0.226-9.538,5.246-7.029,11.27
	c2.51,6.024,5.234,8.813,3.584,10.208C740.533,418.548,734.66,422.509,737.885,425.521z M755.377,700.992
	c-5.522,3.849-14.224,15.061-14.224,15.061s-19.244-22.591-23.093-23.762c-3.849-1.171-6.024,0.837-6.694,4.518
	c-0.669,3.681,17.069,18.575,18.24,20.081c1.171,1.506,9.538,7.53,9.538,9.036s1.339,5.522,5.857,5.69
	c4.518,0.167,3.012-5.522,3.012-9.204c0-3.681,9.706-11.379,14.893-14.224c5.188-2.845,7.865-8.534,6.024-11.379
	C767.091,693.963,760.9,697.143,755.377,700.992z M732.735,673.286c-2.488,2.035-2.459,6.788,4.57,12.478
	c7.028,5.69,10.543,9.538,13.555,7.028c3.012-2.51-0.168-8.702-5.188-14.224C740.651,673.046,736.416,670.274,732.735,673.286z
	 M461.805,405.377c0,0,19.244,22.591,23.093,23.762c3.849,1.171,6.024-0.837,6.694-4.518c0.669-3.681-17.069-18.575-18.24-20.081
	c-1.171-1.506-9.539-7.53-9.539-9.036c0-1.506-1.338-5.522-5.857-5.69c-4.518-0.167-3.012,5.522-3.012,9.204
	c0,3.681-9.706,11.379-14.894,14.224c-5.188,2.845-7.865,8.534-6.024,11.379c1.841,2.845,8.032-0.335,13.555-4.184
	S461.805,405.377,461.805,405.377z M452.099,428.638c-3.012,2.51,0.167,8.702,5.188,14.224c5.02,5.522,9.255,8.294,12.937,5.282
	c2.488-2.035,2.459-6.788-4.57-12.478C458.625,429.976,455.111,426.128,452.099,428.638z M450.231,697.006
	c-4.016,4.686-6.694,5.522-6.359,16.901s2.508,11.332,5.355,11.379c5.857,0.097,5.689-6.247,5.689-13.164s4.581-10.636,9.26-16.067
	c3.583-4.158,15.841-12.27,9.817-17.625C469.34,674.295,454.247,692.321,450.231,697.006z M897.215,600V86.941
	c0-3.089-1.203-5.993-3.388-8.178c-2.184-2.185-5.089-3.388-8.178-3.388H599.98H314.31c-3.089,0-5.993,1.203-8.177,3.387
	c-2.185,2.185-3.388,5.089-3.388,8.178V600v88.615c-0.122,0.525-0.173,1.075-0.105,1.642c0.02,0.163,0.071,0.314,0.105,0.471v74.039
	c-0.182,0.746-0.161,1.489,0,2.19v55.202c-0.089,0.388-0.148,0.786-0.137,1.203c0.009,0.336,0.058,0.664,0.137,0.981v204.283
	c0.083,4.429,3.685,7.998,8.135,7.998h234.337c0.004,0,0.007,0.001,0.011,0.001c0.003,0,0.007-0.001,0.01-0.001h343.606
	c4.501,0,8.412-3.911,8.412-8.412L897.215,600z M736.049,84.907H885.65c0.559,0,1.043,0.2,1.438,0.596
	c0.396,0.395,0.596,0.879,0.596,1.437v219.21c-41.193,17.224-73.158,18.402-94.994,3.469c-33.631-22.993-32.549-77.434-32.536-77.98
	c0.037-1.302-0.462-2.563-1.378-3.486c-0.915-0.925-2.215-1.513-3.472-1.412c-24.612,0.408-43.7-6.102-56.834-19.47
	c-14.99-15.26-18.393-35.859-18.043-45.624c1.918-53.162,35.596-70.867,55.5-76.691C735.97,84.944,736.006,84.921,736.049,84.907z
	 M312.277,86.941c0-0.559,0.201-1.043,0.596-1.438c0.395-0.395,0.878-0.595,1.437-0.595h213.627
	c0.968,4.303,1.314,7.85,1.394,10.205c0.878,26.74-5.694,47.681-19.535,62.238c-19.768,20.789-48.112,21.523-48.385,21.527
	c-2.411,0.034-4.418,1.863-4.673,4.26c-4.592,43.036-19.684,72.324-44.861,87.047c-41.099,24.041-96.557,1.608-99.6,0.342V86.941z
	 M312.277,694.371c6.766,0.344,19.593,2.879,24.571,16.755c0.58,1.612,1.989,2.791,3.674,3.087
	c0.146,0.025,14.652,2.678,20.233,12.63c3.019,5.385,2.926,12.242-0.273,20.381c-7.856,19.973-37.645,16.666-48.205,14.807V694.371z
	 M543.86,1027.091H312.277V828.013c60.354,1.535,74.287,64.684,74.868,67.442c0.388,1.846,1.831,3.292,3.674,3.683
	c1.852,0.379,3.751-0.338,4.853-1.871c26.377-36.536,70.999-28.53,78.113-25.536c20.345,8.564,33.836,20.77,40.098,36.287
	c9.122,22.595-0.264,44.985-0.354,45.199c-0.773,1.775-0.391,3.841,0.965,5.228c1.35,1.381,3.416,1.806,5.203,1.083
	c31.605-12.88,47.194,12.067,47.343,12.321C579.758,993.714,560.511,1016.524,543.86,1027.091z M559.671,1027.091
	c17.9-15.897,27.813-39.056,15.609-60.032c-4.791-8.229-22.402-25.924-50.064-19.309c2.389-9.833,4.35-26.237-2.448-43.182
	c-7.227-18.012-22.464-32.018-45.286-41.624c-12.604-5.303-55.447-9.11-83.658,21.53c-6.77-19.688-28.069-64.902-81.548-66.028
	v-46.725c3.986,0.648,9.572,1.314,15.765,1.314c15.26,0,34.119-4.04,41.308-22.325c4.31-10.959,4.204-20.576-0.313-28.588
	c-6.144-10.889-18.679-15.253-24.205-16.699c-6.919-15.703-22.063-20.275-32.555-20.654V600V280.766
	c8.568,3.198,29.954,10.135,54.386,10.135c16.302,0,33.942-3.095,49.98-12.461c27.153-15.855,43.666-46.232,49.115-90.317
	c9.476-0.977,32.877-5.272,50.855-24.11c15.728-16.481,23.212-39.767,22.244-69.216c-0.079-2.392-0.372-5.798-1.165-9.889h62.288
	h112.466c-18.75,11.186-39.991,33.307-41.545,76.396c-0.506,14.02,4.633,36.221,20.77,52.649
	c14.146,14.399,33.973,21.898,58.994,22.323c0.478,14.88,4.642,59.3,36.604,81.187c11.757,8.05,25.856,12.073,42.201,12.073
	c17.005,0,36.47-4.413,58.214-13.121v52.009c-14.019,2.671-23.758,9.869-28.16,21.059c-4.31,10.959-4.204,20.578,0.313,28.589
	c7.847,13.908,26.126,17.171,26.901,17.303c0.27,0.047,0.54,0.068,0.807,0.068c0.048,0,0.09-0.023,0.138-0.025v164.584
	l0.022,233.921c-3.82-4.529-8.541-8.17-14.181-10.843c-15.232-7.22-34.438-5.849-46.722-1.285
	c-31.878,11.84-36.79,43.284-37.29,57.905c-23.581-8.877-47.337-8.917-67.576,0.012c-20.165,8.902-34.842,25.887-42.453,49.124
	c-10.747,32.819-1.717,70.404,22.902,98.256H559.671z M887.684,378.088v47.752c-2.895-0.657-14.665-3.808-19.543-12.451
	c-3.041-5.391-2.957-12.261,0.251-20.42C871.398,385.327,877.882,380.335,887.684,378.088z M715.536,1027.091
	c-26.918-25.781-37.518-63.154-26.993-95.289c6.742-20.593,19.622-35.592,37.24-43.368c19.687-8.691,43.359-7.707,66.652,2.78
	c1.548,0.692,3.363,0.515,4.75-0.487c1.381-0.999,2.122-2.662,1.942-4.359c-0.043-0.425-4.08-42.611,30.994-55.637
	c10.066-3.742,26.672-5.036,39.319,0.962c8.362,3.962,14.208,10.655,17.376,19.895c0.2,0.587,0.51,1.103,0.891,1.547l0.016,173.956
	H715.536z M343.066,136.581c0.752,0,1.512-0.205,2.191-0.632l16.154-10.204l3.73,8.396c0.501,1.125,1.478,1.969,2.668,2.296
	c0.359,0.099,0.727,0.148,1.093,0.148c0.839,0,1.67-0.257,2.374-0.754l13.856-9.781l3.332,8.002c0.48,1.152,1.461,2.025,2.661,2.371
	c0.372,0.108,0.754,0.16,1.135,0.16c0.842,0,1.676-0.258,2.378-0.752l13.957-9.853l3.625,8.163c0.683,1.532,2.186,2.443,3.764,2.443
	c0.558,0,1.126-0.112,1.669-0.354c2.077-0.924,3.011-3.357,2.09-5.433l-5.663-12.744c-0.501-1.125-1.479-1.969-2.668-2.296
	c-0.359-0.1-0.727-0.149-1.093-0.149c-0.84,0-1.672,0.258-2.374,0.755l-13.859,9.784l-3.332-8.005
	c-0.479-1.152-1.46-2.025-2.661-2.371c-0.372-0.107-0.756-0.16-1.137-0.16c-0.84,0-1.672,0.256-2.374,0.752l-13.955,9.854
	L367,118.053c-0.488-1.09-1.423-1.918-2.567-2.266c-0.389-0.117-0.79-0.175-1.188-0.175c-0.771,0-1.537,0.215-2.203,0.633
	l-20.178,12.744c-1.921,1.214-2.497,3.756-1.283,5.677C340.366,135.907,341.703,136.581,343.066,136.581z M368.899,168.663
	c0.84,0,1.672-0.258,2.377-0.753l13.856-9.781l3.332,8.002c0.482,1.152,1.461,2.025,2.661,2.371
	c0.372,0.107,0.754,0.159,1.135,0.159c0.842,0,1.676-0.257,2.378-0.751l13.957-9.851l3.625,8.16
	c0.683,1.532,2.186,2.443,3.764,2.443c0.558,0,1.126-0.112,1.669-0.354c2.077-0.924,3.011-3.357,2.09-5.433l-5.663-12.742
	c-0.501-1.125-1.479-1.969-2.668-2.296c-0.358-0.098-0.726-0.147-1.091-0.147c-0.841,0-1.673,0.256-2.375,0.752l-13.859,9.781
	l-3.332-8.002c-0.483-1.152-1.46-2.025-2.661-2.371c-0.372-0.107-0.756-0.16-1.137-0.16c-0.84,0-1.672,0.256-2.374,0.752
	l-13.955,9.851l-3.625-8.16c-0.488-1.093-1.423-1.918-2.567-2.266c-0.389-0.117-0.79-0.175-1.188-0.175
	c-0.771,0-1.537,0.215-2.203,0.633l-20.178,12.742c-1.921,1.214-2.497,3.756-1.283,5.677c0.783,1.242,2.122,1.917,3.485,1.917
	c0.752,0,1.512-0.205,2.191-0.634l16.154-10.202l3.73,8.393c0.501,1.125,1.478,1.969,2.668,2.296
	C368.168,168.614,368.534,168.663,368.899,168.663z M781.974,116.286c0.202,0.104,4.938,2.706,4.938,13.178v40.593
	c0,2.745,2.225,4.972,4.972,4.972c2.746,0,4.971-2.227,4.971-4.972v-33.442c0-12.822,7.652-17.674,9.283-17.746
	c0.917,0,1.319,0.058,1.418,0.058c0.021,0,0.029-0.003,0.024-0.009c0.157,0.174,1.369,1.811,1.369,10.546v40.593
	c0,2.745,2.225,4.972,4.972,4.972s4.972-2.227,4.972-4.972v-33.442c0-12.822,7.649-17.674,9.281-17.746
	c0.917,0,1.319,0.058,1.418,0.058c0.022,0,0.029-0.003,0.024-0.009c0.154,0.171,1.369,1.801,1.369,10.546v37.227
	c0,16.459,8.944,20.236,18.088,21.108l-0.078,0.072c-2.01,1.871-2.125,5.017-0.254,7.028c0.979,1.052,2.308,1.586,3.642,1.586
	c1.212,0,2.426-0.44,3.384-1.33l9.045-8.413c1.02-0.949,1.594-2.282,1.586-3.674c-0.008-1.392-0.6-2.716-1.631-3.651l-9.046-8.206
	c-0.952-0.862-2.148-1.287-3.339-1.287c-1.354,0-2.703,0.549-3.683,1.631c-1.611,1.774-1.611,4.35-0.254,6.215
	c-5.643-0.778-7.515-3.248-7.515-11.077v-37.227c0-12.68-2.133-20.539-12.756-20.539c-3.57,0-7.856,2.055-11.479,5.948
	c-1.828-3.813-5.042-5.948-10.557-5.948c-3.789,0-8.385,2.314-12.138,6.686c-2.948-5.995-7.213-8.073-7.924-8.382
	c-0.648-0.279-1.33-0.412-2.004-0.412c-1.936,0-3.802,1.097-4.611,2.966C778.37,112.304,779.453,115.195,781.974,116.286z"/>
</svg>
