<?xml version="1.0" encoding="utf-8"?>
<!-- Generator: Adobe Illustrator 23.0.3, SVG Export Plug-In . SVG Version: 6.00 Build 0)  -->
<svg version="1.1" id="Capa_1" xmlns="http://www.w3.org/2000/svg" xmlns:xlink="http://www.w3.org/1999/xlink" x="0px" y="0px"
	 viewBox="0 0 1200 1200" enable-background="new 0 0 1200 1200" xml:space="preserve">
<path fill="#2E2E2E" d="M413.396,1066.066c1.024,1.024,1.536,2.255,1.536,3.701s-0.512,2.681-1.536,3.704
	c-1.046,1.024-2.29,1.533-3.736,1.533h-11.176v34.159c0,1.471-0.512,2.715-1.536,3.739c-1.021,1.021-2.256,1.533-3.701,1.533
	s-2.693-0.512-3.736-1.533c-1.024-1.024-1.536-2.268-1.536-3.739v-34.159h-11.141c-1.467,0-2.715-0.509-3.736-1.533
	c-1.024-1.024-1.536-2.259-1.536-3.704s0.512-2.677,1.536-3.701c1.021-1.046,2.268-1.567,3.736-1.567h32.825
	C411.107,1064.5,412.351,1065.021,413.396,1066.066z M466.27,1064.5c-1.446,0-2.681,0.521-3.704,1.567
	c-1.021,1.024-1.533,2.255-1.533,3.701v14.446h-22.351v-14.446c0-1.446-0.512-2.677-1.536-3.701
	c-1.021-1.046-2.256-1.567-3.701-1.567c-1.468,0-2.715,0.521-3.736,1.567c-1.024,1.024-1.536,2.255-1.536,3.701v39.397
	c0,1.471,0.512,2.715,1.536,3.739c1.021,1.021,2.268,1.533,3.736,1.533c1.446,0,2.681-0.512,3.701-1.533
	c1.024-1.024,1.536-2.268,1.536-3.739v-14.443h22.351v14.443c0,1.471,0.512,2.715,1.533,3.739c1.024,1.021,2.259,1.533,3.704,1.533
	s2.69-0.512,3.736-1.533c1.024-1.024,1.536-2.268,1.536-3.739v-39.397c0-1.446-0.512-2.677-1.536-3.701
	C468.96,1065.021,467.716,1064.5,466.27,1064.5z M526.817,1075.005c1.446,0,2.69-0.509,3.735-1.533
	c1.024-1.024,1.536-2.259,1.536-3.704s-0.512-2.677-1.536-3.701c-1.046-1.046-2.29-1.567-3.735-1.567h-32.825
	c-1.468,0-2.715,0.521-3.736,1.567c-1.024,1.024-1.536,2.255-1.536,3.701v39.397c0,1.471,0.512,2.715,1.536,3.739
	c1.021,1.021,2.268,1.533,3.736,1.533h32.825c1.446,0,2.69-0.512,3.735-1.533c1.024-1.024,1.536-2.268,1.536-3.739
	c0-1.443-0.512-2.678-1.536-3.701c-1.046-1.024-2.29-1.536-3.735-1.536h-27.588v-9.205h21.017c1.446,0,2.69-0.512,3.736-1.536
	c1.024-1.021,1.536-2.256,1.536-3.701c0-1.468-0.512-2.715-1.536-3.735c-1.046-1.024-2.29-1.536-3.736-1.536h-21.017v-9.208H526.817
	z M618.219,1071.837c4.893,4.871,7.338,10.754,7.338,17.647c0,6.872-2.445,12.755-7.338,17.647
	c-4.871,4.868-10.754,7.303-17.647,7.303H587.46c-1.468,0-2.712-0.512-3.735-1.533c-1.024-1.024-1.533-2.268-1.533-3.739v-39.397
	c0-1.446,0.509-2.677,1.533-3.701c1.024-1.046,2.268-1.567,3.735-1.567h13.112C607.466,1064.5,613.348,1066.944,618.219,1071.837z
	 M615.048,1089.485c0-3.981-1.412-7.384-4.235-10.208c-2.826-2.848-6.239-4.272-10.242-4.272h-7.874v28.922h7.874
	c4.002,0,7.415-1.412,10.242-4.235C613.637,1096.869,615.048,1093.465,615.048,1089.485z M678.198,1075.005
	c1.446,0,2.69-0.509,3.736-1.533c1.024-1.024,1.536-2.259,1.536-3.704s-0.512-2.677-1.536-3.701
	c-1.046-1.046-2.29-1.567-3.736-1.567h-32.825c-1.468,0-2.715,0.521-3.735,1.567c-1.024,1.024-1.536,2.255-1.536,3.701v39.397
	c0,1.471,0.512,2.715,1.536,3.739c1.021,1.021,2.268,1.533,3.735,1.533h32.825c1.446,0,2.69-0.512,3.736-1.533
	c1.024-1.024,1.536-2.268,1.536-3.739c0-1.443-0.512-2.678-1.536-3.701c-1.046-1.024-2.29-1.536-3.736-1.536H650.61v-9.205h21.017
	c1.446,0,2.69-0.512,3.735-1.536c1.024-1.021,1.536-2.256,1.536-3.701c0-1.468-0.512-2.715-1.536-3.735
	c-1.046-1.024-2.29-1.536-3.735-1.536H650.61v-9.208H678.198z M741.078,1065.064c-1.291-0.645-2.625-0.745-4.002-0.298
	c-1.381,0.465-2.392,1.343-3.037,2.634l-15.01,30.024l-15.013-29.958c-0.645-1.309-1.657-2.19-3.034-2.634
	c-1.381-0.469-2.724-0.379-4.036,0.267c-1.291,0.645-2.156,1.657-2.603,3.034c-0.465,1.381-0.378,2.727,0.267,4.036l19.717,39.365
	c0.444,0.89,1.089,1.589,1.933,2.1c0.847,0.534,1.768,0.8,2.771,0.8c0.999,0,1.924-0.267,2.767-0.8
	c0.847-0.512,1.489-1.21,1.936-2.1l19.683-39.431c0.667-1.291,0.766-2.625,0.298-4.002
	C743.247,1066.721,742.369,1065.71,741.078,1065.064z M762.495,1064.5c-1.468,0-2.715,0.521-3.736,1.567
	c-1.024,1.024-1.536,2.255-1.536,3.701v39.397c0,1.471,0.512,2.715,1.536,3.739c1.021,1.021,2.268,1.533,3.736,1.533
	c1.446,0,2.681-0.512,3.701-1.533c1.024-1.024,1.536-2.268,1.536-3.739v-39.397c0-1.446-0.512-2.677-1.536-3.701
	C765.176,1065.021,763.941,1064.5,762.495,1064.5z M816.468,1103.927h-21.017v-34.159c0-1.446-0.512-2.677-1.533-3.701
	c-1.024-1.046-2.259-1.567-3.705-1.567c-1.467,0-2.712,0.521-3.735,1.567c-1.024,1.024-1.533,2.255-1.533,3.701v39.397
	c0,1.471,0.509,2.715,1.533,3.739c1.024,1.021,2.268,1.533,3.735,1.533h26.254c1.446,0,2.69-0.512,3.736-1.533
	c1.024-1.024,1.536-2.268,1.536-3.739c0-1.443-0.512-2.678-1.536-3.701C819.158,1104.439,817.913,1103.927,816.468,1103.927z
	 M922.628,86.981V600v513.019c0,9.878-3.847,19.165-10.832,26.149c-6.985,6.985-16.271,10.832-26.149,10.832H600H314.352
	c-9.877,0-19.164-3.846-26.149-10.832c-6.985-6.985-10.831-16.271-10.831-26.149V600V86.981c0-9.878,3.846-19.164,10.831-26.149
	C295.188,53.847,304.475,50,314.352,50H600h285.647c9.878,0,19.165,3.847,26.148,10.831
	C918.781,67.816,922.628,77.103,922.628,86.981z M913.097,86.981c0-7.58-3.072-14.442-8.04-19.41
	c-4.967-4.968-11.829-8.04-19.41-8.04H600H314.352c-7.58,0-14.442,3.072-19.41,8.04c-4.967,4.967-8.04,11.83-8.04,19.41V600v513.019
	c0,7.58,3.072,14.443,8.04,19.41c4.968,4.968,11.83,8.04,19.41,8.04H600h285.647c7.58,0,14.443-3.072,19.41-8.04
	c4.968-4.967,8.04-11.83,8.04-19.41V600V86.981z M545.414,156.989c0.133,1.446,0.757,2.625,1.871,3.537
	c0.956,0.822,2.079,1.235,3.366,1.235c1.623,0,2.969-0.636,4.036-1.902l12.376-14.846l12.376,14.846
	c1.067,1.266,2.414,1.902,4.036,1.902c1.269,0,2.392-0.413,3.369-1.235c1.114-0.912,1.734-2.091,1.871-3.537
	c0.13-1.446-0.27-2.724-1.204-3.835l-13.608-16.347l13.608-16.344c0.934-1.114,1.334-2.392,1.204-3.838
	c-0.136-1.446-0.757-2.634-1.871-3.568s-2.392-1.334-3.838-1.201c-1.446,0.133-2.631,0.757-3.568,1.868l-12.376,14.877
	l-12.376-14.877c-0.934-1.111-2.122-1.734-3.568-1.868c-1.446-0.133-2.724,0.267-3.835,1.201c-1.114,0.934-1.737,2.122-1.871,3.568
	c-0.133,1.446,0.267,2.724,1.201,3.838l13.611,16.344l-13.611,16.347C545.681,154.265,545.281,155.544,545.414,156.989z
	 M619.603,158.857c0.444,0.89,1.089,1.592,1.933,2.104c0.847,0.534,1.768,0.8,2.771,0.8c1.002,0,1.924-0.267,2.771-0.8
	c0.844-0.512,1.489-1.213,1.933-2.104l19.683-39.431c0.667-1.288,0.766-2.622,0.301-4.002c-0.469-1.378-1.347-2.389-2.637-3.034
	c-1.291-0.645-2.625-0.745-4.002-0.301c-1.378,0.468-2.389,1.347-3.034,2.634l-15.013,30.024l-15.013-29.955
	c-0.645-1.312-1.657-2.19-3.034-2.634c-1.378-0.468-2.724-0.379-4.033,0.267c-1.291,0.645-2.159,1.657-2.606,3.034
	c-0.465,1.381-0.378,2.724,0.267,4.036L619.603,158.857z M557.831,473.924c-2.6-0.295-4.992,1.542-5.309,4.154
	s1.542,4.989,4.154,5.309c0.673,0.081,16.475,2.19,18.457,18.457c0.295,2.417,2.352,4.188,4.725,4.188
	c0.192,0,0.388-0.012,0.583-0.034c2.612-0.32,4.471-2.696,4.154-5.309C582.294,481.82,566.08,474.932,557.831,473.924z
	 M609.268,606.621c-1.635,0.378-3.139,0.613-4.576,0.787v-41.865c0-2.631-2.135-4.766-4.766-4.766s-4.766,2.135-4.766,4.766v41.812
	c-2.179-0.338-3.454-0.788-3.537-0.82c-2.417-0.987-5.181,0.149-6.202,2.553c-1.024,2.426,0.112,5.222,2.535,6.245
	c0.261,0.109,4.666,1.92,12.069,1.92c3.252,0,7.08-0.351,11.39-1.343c2.563-0.593,4.161-3.152,3.571-5.718
	C614.397,607.633,611.853,606.047,609.268,606.621z M641.256,483.384c2.603-0.329,4.452-2.699,4.136-5.305
	c-0.32-2.612-2.718-4.452-5.309-4.154c-8.25,1.008-24.464,7.896-26.766,26.766c-0.316,2.612,1.542,4.989,4.154,5.309
	c0.195,0.022,0.391,0.034,0.583,0.034c2.373,0,4.43-1.772,4.725-4.188C624.738,485.77,640.539,483.48,641.256,483.384z
	 M899.995,246.588c2.758,2.263,3.165,6.371,0.902,9.13c-0.976,1.189-2.3,1.913-3.705,2.202v146.618
	c0.007,0.123,0.032,0.241,0.029,0.366c-0.006,0.283-0.023,0.562-0.029,0.844V600l0.04,428.177c0,4.501-3.911,8.411-8.411,8.411
	H310.902c-4.449,0-8.051-3.568-8.134-7.997V600V404.948c-0.001-0.03-0.002-0.06-0.003-0.091c0-0.013,0.003-0.025,0.003-0.038
	V257.912c-1.391-0.295-2.699-1.016-3.665-2.194c-2.263-2.759-1.857-6.867,0.902-9.13l2.763-2.266V86.981
	c0-3.089,1.203-5.993,3.388-8.178c2.183-2.184,5.087-3.387,8.177-3.387h191.309l5.104-4.186c2.759-2.263,6.867-1.857,9.13,0.902
	c0.797,0.973,1.246,2.115,1.394,3.283h78.711h78.75c0.149-1.168,0.597-2.311,1.395-3.283c2.263-2.759,6.371-3.165,9.129-0.902
	l5.105,4.186h191.268c3.089,0,5.993,1.203,8.178,3.387c2.184,2.184,3.387,5.088,3.387,8.177v157.308L899.995,246.588z
	 M862.873,593.755c-1.724,2.239-40.54,52.311-73.742,70.758c6.017,3.718,11.717,7.388,16.963,10.954
	c28.615-3.112,60.674-1.204,81.575,16.433l-0.009-91.899V467.392c-28.09,97.367-109.663,160.044-133.589,176.697
	c8.631,4.793,17.246,9.717,25.499,14.632c0.08-0.042,0.148-0.097,0.231-0.134c32.078-14.585,75.089-70.087,75.52-70.646
	c1.607-2.085,4.601-2.473,6.683-0.869C864.089,588.679,864.477,591.67,862.873,593.755z M705.98,84.947l20.844,17.095
	c8.043-5.095,18.813-4.768,26.551,1.579l21.328,17.491c8.13,6.667,10.388,17.911,6.169,27.057l28.381,23.276
	c8.101-5.502,19.217-5.32,27.151,1.185l21.327,17.491c8.088,6.633,10.366,17.796,6.235,26.917l23.696,19.434V86.981
	c0-0.559-0.2-1.042-0.596-1.438c-0.396-0.395-0.879-0.596-1.438-0.596H705.98z M844.023,209.074
	c2.263-2.759,6.371-3.165,9.129-0.902l1.21,0.992c0.799-2.423,0.103-5.202-1.98-6.911l-26.829-22.003
	c-1.949-1.599-4.579-1.817-6.729-0.81c2.021,2.34,2.148,5.879,0.123,8.347c-2,2.439-5.439,3.031-8.116,1.575
	c-0.464,2.243,0.271,4.665,2.156,6.211l26.829,22.003c1.669,1.369,3.842,1.734,5.782,1.18l-0.672-0.551
	C842.166,215.941,841.761,211.833,844.023,209.074z M312.299,236.505l23.736-19.467c-4.131-9.121-1.854-20.284,6.234-26.917
	l21.328-17.491c7.932-6.506,19.05-6.687,27.151-1.185l28.38-23.276c-4.22-9.147-1.961-20.39,6.169-27.058l21.328-17.491
	c7.739-6.347,18.508-6.674,26.551-1.579l20.845-17.095H314.333c-0.558,0-1.042,0.2-1.436,0.594
	c-0.397,0.397-0.597,0.881-0.597,1.439V236.505z M355.074,218.204l-0.672,0.551c1.939,0.554,4.112,0.188,5.781-1.18l26.829-22.003
	c1.886-1.546,2.62-3.968,2.156-6.211c-2.677,1.456-6.116,0.864-8.116-1.575c-2.024-2.468-1.898-6.006,0.123-8.347
	c-2.149-1.007-4.78-0.788-6.729,0.81l-26.829,22.003c-2.083,1.709-2.78,4.487-1.98,6.911l1.209-0.992
	c2.759-2.263,6.867-1.857,9.13,0.902C358.239,211.833,357.833,215.941,355.074,218.204z M312.299,404.755
	c3.041,146.617,135.974,229.879,137.314,230.704c0.395,0.242,0.723,0.545,1.019,0.872c30.353-15.752,59.076-28.929,69.799-33.765
	c-5.892-12.356-11.79-22.081-17.295-31.134c-12.717-20.908-22.76-37.423-22.76-72.085c0-6.751,0.327-12.878,0.884-18.499
	c-10.476,6.778-21.65,9.362-32.571,9.362c-33.843,0.003-65.232-24.644-65.675-25.001c-0.061-0.049-0.104-0.114-0.162-0.166
	c-0.192-0.17-0.372-0.351-0.533-0.546c-0.079-0.096-0.153-0.197-0.224-0.299c-0.139-0.2-0.26-0.41-0.366-0.628
	c-0.049-0.1-0.103-0.197-0.146-0.301c-0.116-0.286-0.202-0.583-0.261-0.887c-0.009-0.046-0.028-0.089-0.036-0.136
	c-0.051-0.319-0.072-0.648-0.057-0.984c0.002-0.029,0.011-0.056,0.012-0.085c0.002-0.028-0.005-0.055-0.003-0.083
	c0.008-0.093,0.043-0.179,0.057-0.271c0.033-0.238,0.078-0.473,0.146-0.701c0.044-0.145,0.099-0.286,0.157-0.424
	c0.069-0.169,0.15-0.331,0.237-0.491c0.094-0.167,0.188-0.334,0.301-0.488c0.056-0.078,0.123-0.146,0.184-0.221
	c0.299-0.359,0.661-0.654,1.049-0.915c0.109-0.076,0.178-0.193,0.296-0.259c5.972-3.338,11.113-8.988,17.07-15.531
	c9.646-10.598,21.65-23.787,42.301-31.327c25.167-9.191,49.343-0.912,60.479,4.175c1.139-3.733,3.262-6.696,6.444-8.745
	c0.861-0.553,1.799-1.003,2.773-1.406c5.046-43.872-24.755-77.967-55.954-87.985c-7.03-2.256-13.622-4.02-19.818-5.391
	c-20.79-2.59-37.26,1.285-48.948,11.552c-19.196,16.853-19.506,45.751-19.506,46.039c-0.006,1.942-1.188,3.692-2.991,4.415
	c-0.577,0.23-1.179,0.341-1.778,0.341c-1.272,0-2.516-0.509-3.431-1.461c-22.219-23.11-12.067-53.733-11.287-55.965
	c0-0.001,0-0.002,0-0.002c0.002-0.007,0.005-0.013,0.007-0.019c0.009-0.027,0.024-0.069,0.03-0.086
	c0.002-0.007,0.007-0.012,0.009-0.019c9.091-27.221,29.145-42.361,48.894-50.779c0.668-0.503,1.461-0.855,2.342-0.959
	c0.009-0.001,0.022,0,0.031-0.001c17.591-7.04,34.565-8.919,42.926-9.405c0.309-0.018,0.576-0.03,0.861-0.044
	c2.75-0.139,4.409-0.128,4.527-0.128c12.063,0,23.482,0.898,34.238,2.687c0.018,0.003,0.035,0.007,0.052,0.01
	c32.195,5.363,58.453,18.712,78.29,39.883c27.981,29.862,36.859,68.294,39.544,93.547c2.685-25.252,11.563-63.685,39.544-93.547
	c19.791-21.122,45.976-34.453,78.107-39.841c0.097-0.016,0.189-0.038,0.286-0.054c10.767-1.787,22.2-2.685,34.284-2.685
	c0.09,0.001,1.713-0.01,4.426,0.128c0.296,0.015,0.574,0.028,0.895,0.047c8.317,0.487,25.281,2.364,42.873,9.402
	c0.017,0.002,0.037-0.001,0.054,0.001c0.886,0.104,1.675,0.458,2.334,0.964c19.78,8.43,39.879,23.599,48.949,50.899
	c0.047,0.143,0.032,0.29,0.065,0.435c1.447,4.417,9.827,33.419-11.433,55.533c-0.915,0.956-2.163,1.464-3.435,1.464
	c-0.599,0-1.204-0.112-1.781-0.344c-1.803-0.726-2.985-2.476-2.985-4.421c0-0.282-0.31-29.18-19.506-46.033
	c-11.662-10.245-28.099-14.121-48.815-11.564c-6.212,1.372-12.821,3.14-19.87,5.403c-31.395,10.08-61.372,44.537-55.859,88.802
	c0.361,0.196,0.74,0.369,1.083,0.59c3.182,2.049,5.305,5.012,6.444,8.745c11.134-5.086,35.307-13.36,60.479-4.175
	c20.651,7.539,32.655,20.728,42.301,31.327c5.665,6.222,10.6,11.611,16.206,14.999c2.152,0.365,3.93,2.17,4.036,4.47
	c0.111,2.35-1.507,4.371-3.729,4.863c-6.061,4.486-34.279,24.084-64.465,24.084c-11.532,0.003-23.348-2.863-34.323-10.524
	c0.587,5.929,0.93,12.443,0.93,19.661c0,34.243-10.015,49.536-22.695,68.899c-6.387,9.754-13.285,20.32-20.084,34.863
	c10.508,5.115,39.234,19.281,69.623,35.83c18.206-12.056,139.717-97.611,142.956-233.384V253.252l-32.226-26.43
	c-8.034,5.041-18.755,4.697-26.467-1.628l-21.328-17.491c-7.873-6.456-10.259-17.21-6.571-26.19l-28.799-23.619
	c-8.019,4.951-18.661,4.58-26.329-1.709l-4.712-3.864l10.415-7.976l5.428,4.451c1.595,1.308,3.678,1.648,5.526,1.095
	c-2.387-2.318-2.669-6.131-0.523-8.748v0c2.263-2.759,6.371-3.165,9.13-0.902l0.147,0.121c0.963-2.367,0.358-5.188-1.716-6.888
	l-27.391-22.464c-1.67-1.37-3.87-1.66-5.78-0.992c2.398,2.317,2.684,6.138,0.534,8.759c-2.263,2.759-6.371,3.165-9.13,0.902
	l-0.001-0.001c-0.829,2.317-0.194,5.01,1.811,6.654l6.026,4.942l-11.093,7.419c-8.063-6.612-10.353-17.726-6.274-26.831
	L685.52,84.947h-85.54h-85.5l-32.818,26.914c4.078,9.105,1.789,20.219-6.274,26.831l-11.094-7.419l6.027-4.942
	c2.004-1.644,2.64-4.337,1.81-6.654l-0.001,0.001c-2.759,2.263-6.867,1.857-9.129-0.902c-2.15-2.621-1.864-6.442,0.534-8.759
	c-1.91-0.668-4.109-0.377-5.779,0.992l-27.391,22.464c-2.073,1.7-2.679,4.521-1.716,6.888l0.147-0.121
	c2.759-2.262,6.868-1.857,9.129,0.902v0c2.147,2.617,1.865,6.43-0.523,8.748c1.848,0.554,3.932,0.213,5.527-1.095l5.428-4.451
	l10.414,7.976l-4.711,3.864c-7.669,6.289-18.31,6.66-26.329,1.709l-28.8,23.619c3.688,8.98,1.302,19.734-6.57,26.19l-21.328,17.491
	c-7.712,6.325-18.433,6.669-26.467,1.628l-32.267,26.463V404.755z M641.749,722.797c-0.059-1.682,0.773-3.267,2.19-4.176
	c1.412-0.906,3.205-1.002,4.707-0.248c0.555,0.279,10.145,5.228,16.617,17.654c2.328-14.337,4.004-36.393-0.742-61.126
	c-2.896,10.151-9.07,14.64-16.824,16.623c-2.61,4.7-16.014,25.612-48.169,25.612c-28.999,0-43.624-19.176-47.593-25.367
	c-10.7-2.442-18.587-9.368-19.296-29.015c-7.649,23.647-14.272,53.992-8.163,72.886c1.694-6.059,4.983-12.987,11.296-18.799
	c1.396-1.281,3.425-1.62,5.16-0.847c1.737,0.769,2.848,2.498,2.833,4.399c-0.003,0.484-0.096,44.506,22.9,69.277
	c0.084-7.564,0.633-17.514,2.628-24.827c1.325-4.856,4.911-6.168,7.614-5.796c8.461,1.132,18.997,22.683,23.8,40.417
	c4.449-10.006,9.782-23.269,10.992-31.755c0.23-1.595,1.247-2.966,2.705-3.646c1.467-0.679,3.168-0.577,4.533,0.273
	c0.428,0.267,7.732,4.911,12.873,14.12C636.313,765.24,642.453,743.187,641.749,722.797z M599.529,702.857
	c16.563,0,27.104-5.149,33.239-9.782c-1.852,0.027-3.728,0.028-5.613,0.028c-14.731,0-23.421-7.385-28.164-15.507
	c-4.678,8.122-13.25,15.504-27.782,15.504c-1.308,0-2.61-0.001-3.903-0.01C573.786,697.819,584.241,702.857,599.529,702.857z
	 M639.602,608.799c2.038-1.666,5.045-1.35,6.702,0.695c2.491,3.067,6.344,8.268,10.01,14.923c2.643-7.72,5.364-14.61,8.11-20.823
	c0.036-0.091,0.056-0.185,0.099-0.274c0.025-0.051,0.06-0.092,0.086-0.142c7.778-17.507,15.732-29.69,22.584-40.155
	c12.271-18.74,21.138-32.276,21.138-63.677c0-45.803-13.72-61.059-18.698-65.086c-17.245,14.436-61.588,20.976-89.663,20.976
	c-28.068,0-72.393-6.538-89.647-20.966c-5.367,3.938-20.417,19.081-20.417,65.075c0,31.991,8.963,46.731,21.371,67.13
	c6.004,9.874,12.882,21.214,19.743,36.319c0.04,0.078,0.093,0.145,0.129,0.227c0.029,0.065,0.039,0.133,0.064,0.199
	c3.243,7.174,6.48,15.186,9.617,24.316c4.044-8.148,8.634-14.489,11.453-18.015c1.638-2.054,4.641-2.392,6.698-0.748
	c2.057,1.644,2.392,4.641,0.748,6.698c-5.296,6.624-17.61,24.206-17.61,44.327c0,23.769,8.517,23.769,29.09,23.769
	c16.333,0,21.11-12.373,22.47-18.322c-3.63-1.431-7.341-4.248-11.114-7.793c-6.103,0.996-25.227,3.143-28.432-8.538
	c-2.069-7.53,2.19-11.095,4.117-12.277c5.749-3.525,15.153-1.756,19.413,2.122c1.086,0.987,2.435,2.442,4.145,4.285
	c3.475,3.748,12.711,13.707,16.735,13.707c0.141,0,0.275,0.029,0.413,0.042c0.138-0.012,0.271-0.042,0.413-0.042
	c4.024,0,13.263-9.959,16.742-13.71c1.706-1.84,3.056-3.295,4.142-4.282c4.254-3.878,13.661-5.647,19.41-2.122
	c1.93,1.182,6.19,4.747,4.12,12.277c-3.214,11.675-22.339,9.534-28.432,8.538c-3.774,3.544-7.485,6.36-11.115,7.792
	c1.381,6.061,6.23,18.326,22.92,18.326c22.019,0,29.636-1.151,29.636-23.772c0-20.102-12.506-37.675-17.883-44.299
	C637.247,613.459,637.557,610.456,639.602,608.799z M450.934,455.039c16.586-3.685,42.843-19.563,47.211-22.251
	c2.284-2.701,4.423-4.61,6.167-5.925c-0.239-0.494-0.451-0.992-0.64-1.495c-5.823-3.105-31.497-15.394-57.367-5.946
	c-18.448,6.736-29.115,18.451-38.522,28.789c-2.854,3.134-5.644,6.158-8.52,8.942C414.576,457.512,439.34,457.617,450.934,455.039z
	 M403.623,466.786c-0.289-0.005-0.565-0.011-0.85-0.016c0.641,0.363,1.302,0.729,1.978,1.098
	C404.271,467.425,403.896,467.062,403.623,466.786z M409.397,288.452c-1.91,2.352-3.863,4.772-5.01,9.126
	c6.437,0.048,13.502,0.564,21.26,1.72c1.118-8.986,8.964-18.525,15.507-26.468l2.308-2.814c1.151-1.421,1.697-2.684,1.502-3.466
	c-0.223-0.881-1.267-1.712-2.067-2.223c-6.635,0.427-18.37,1.755-31.206,5.836c0.929,1.567,1.653,3.469,2.027,5.794
	C414.681,281.933,411.873,285.396,409.397,288.452z M435.051,300.959c1.071,0.216,2.183,0.474,3.278,0.714
	c0.042,0.005,0.081,0.006,0.123,0.011c0.332,0.042,0.651,0.119,0.955,0.224c5.235,1.176,10.739,2.635,16.508,4.389
	c4.997-8.6,9.97-13.263,14.798-17.768c2.566-2.398,5.222-4.877,7.961-8.02c4.68-5.373,2.322-11.347,0.78-14.088
	c-8.019-1.248-16.442-1.972-25.246-2.192c0.669,2.672,0.634,6.881-3.343,11.787l-2.355,2.873
	C443.159,285.388,435.349,294.887,435.051,300.959z M465.17,309.422c8.189,3.249,15.738,7.662,22.477,13.026
	c3.027-8.046,10.318-20.203,27.796-27.984c3.462-1.542,7.803-4.161,8.821-7.877c0.701-2.572-0.338-5.054-0.994-6.275
	c-9.981-5.184-20.972-9.124-32.936-11.818c1.268,5.54,0.786,12.238-4.474,18.276c-3.062,3.515-5.898,6.165-8.644,8.724
	C472.908,299.518,469.076,303.142,465.17,309.422z M495.419,329.419c4.01,4.02,7.65,8.397,10.864,13.077
	c5.436-10.331,16.165-22.099,33.478-22.643c7.018-0.22,11.836-1.989,14.322-5.259c2.622-3.447,2.058-7.961,1.883-9.002
	c-0.583-0.651-1.144-1.314-1.746-1.956c-6.101-6.502-12.879-12.204-20.313-17.111c-0.084,0.789-0.19,1.588-0.406,2.414
	c-1.561,5.948-6.329,10.735-14.179,14.232C501.422,311.14,496.634,324.305,495.419,329.419z M512.319,352.586
	c2.332,4.51,4.296,9.217,5.879,14.069c5.322-6.714,15.84-13.418,36.636-13.418c9.966,0,17.154-2.141,20.787-6.19
	c2.12-2.356,2.546-4.837,2.624-5.986c-3.66-8.548-8.266-17.09-14.052-25.204c-0.595,1.513-1.408,3.04-2.522,4.504
	c-4.309,5.668-11.582,8.703-21.613,9.016C521.588,329.961,514.142,347.36,512.319,352.586z M592.188,416.598
	c0.017-0.261,0.579-10.446-1.097-25.394c-0.115,0.082-0.2,0.173-0.318,0.254c-6.726,4.62-16.32,5.479-28.503,2.541
	c-24.536-5.891-34.62,3.192-38.321,8.637c10.795,0.049,24.464,3.759,38.668,7.639c10.263,2.803,20.78,5.666,29.591,6.877
	C592.199,416.967,592.176,416.786,592.188,416.598z M589.246,378.513c-1.405-7.873-3.442-16.459-6.384-25.288
	c-0.055,0.064-0.091,0.128-0.148,0.192c-5.572,6.205-14.951,9.351-27.88,9.351c-32.078,0-32.552,17.244-32.552,17.418
	c-0.005,0.709-0.174,1.374-0.455,1.977c0.394,2.717,0.669,5.459,0.82,8.222c7.56-6.011,20.475-10.803,41.851-5.651
	c9.202,2.212,16.363,1.858,20.716-1.024C587.846,381.971,588.871,379.68,589.246,378.513z M512.247,418.8
	c-0.214,1.322-0.23,3.394,2.1,6.134c10.577,12.426,52.809,20.772,85.622,20.772c32.813,0,75.048-8.346,85.625-20.772
	c2.33-2.74,2.315-4.812,2.1-6.134c-0.493-3.044-1.874-4.247-2.867-4.887c-7.341-4.731-27.346,0.735-44.994,5.554
	c-14.076,3.847-28.634,7.822-39.812,7.822c-0.017,0-0.034-0.005-0.051-0.005c-0.017,0-0.034,0.005-0.051,0.005
	c-11.179,0-25.736-3.974-39.812-7.822c-17.651-4.818-37.647-10.282-44.994-5.554C514.121,414.553,512.741,415.757,512.247,418.8z
	 M609.349,416.598c0.007,0.105-0.011,0.205-0.012,0.309c8.472-1.319,18.335-3.995,27.988-6.632
	c14.919-4.077,29.253-7.983,40.278-7.636c-3.676-5.429-13.751-14.553-38.339-8.64c-12.184,2.935-21.774,2.079-28.5-2.541
	c-0.118-0.081-0.203-0.172-0.318-0.254C608.769,406.152,609.332,416.336,609.349,416.598z M711.199,268.503
	c-11.968,2.695-22.959,6.633-32.937,11.815c-0.645,1.202-1.692,3.689-0.988,6.269c1.015,3.717,5.355,6.335,8.821,7.877
	c17.476,7.782,24.767,19.938,27.793,27.984c6.74-5.365,14.288-9.778,22.478-13.027c-3.907-6.283-7.739-9.906-12.047-13.927
	c-2.743-2.563-5.578-5.212-8.641-8.724C710.418,280.735,709.933,274.041,711.199,268.503z M747.328,264.231
	c-8.804,0.223-17.225,0.948-25.241,2.196c-1.571,2.793-3.888,8.73,0.776,14.083c2.74,3.143,5.392,5.622,7.961,8.017
	c4.825,4.508,9.798,9.171,14.794,17.771c5.717-1.739,11.175-3.189,16.367-4.36c0.324-0.117,0.662-0.208,1.019-0.253
	c0.083-0.01,0.16-0.011,0.242-0.022c1.081-0.237,2.18-0.492,3.238-0.705c-0.295-6.067-8.099-15.56-13.448-22.055l-2.364-2.885
	C746.695,271.111,746.66,266.903,747.328,264.231z M787.818,275.958c0.376-2.34,1.104-4.255,2.043-5.827
	c-12.866-4.084-24.615-5.392-31.219-5.808c-0.849,0.538-1.865,1.379-2.073,2.24c-0.189,0.782,0.36,2.038,1.505,3.453l2.318,2.826
	c6.539,7.938,14.378,17.472,15.497,26.454c7.757-1.156,14.822-1.672,21.26-1.719c-1.148-4.354-3.101-6.773-5.008-9.125
	C789.661,285.396,786.857,281.933,787.818,275.958z M668.037,288.939c-0.216-0.826-0.323-1.624-0.406-2.413
	c-7.434,4.906-14.212,10.608-20.313,17.11c-0.603,0.642-1.163,1.305-1.747,1.957c-0.18,1.059-0.755,5.596,1.927,9.064
	c2.501,3.23,7.303,4.977,14.278,5.197c17.312,0.544,28.04,12.313,33.476,22.644c3.213-4.681,6.854-9.058,10.864-13.079
	c-1.216-5.118-6.007-18.28-23.901-26.247C674.366,299.674,669.595,294.887,668.037,288.939z M639.863,320.362
	c-1.112-1.465-1.925-2.99-2.519-4.503c-5.61,7.867-10.121,16.137-13.726,24.425c0.037,1.256,0.404,4.196,2.861,6.885
	c3.624,3.971,10.617,6.069,20.226,6.069c20.49,0,31.169,6.517,36.735,13.117c1.567-4.749,3.498-9.358,5.783-13.778
	c-1.823-5.317-9.169-22.613-27.744-23.198C651.445,329.065,644.172,326.03,639.863,320.362z M619.224,353.358
	c-0.157-0.178-0.261-0.359-0.41-0.538c-3.016,8.972-5.098,17.703-6.523,25.696c0.376,1.169,1.408,3.46,4.032,5.194
	c4.359,2.882,11.523,3.233,20.713,1.024c21.371-5.149,34.29-0.348,41.854,5.667c0.181-3.345,0.541-6.661,1.078-9.937
	c-0.002-0.025-0.009-0.048-0.011-0.074c-0.059-0.847-1.66-17.623-33.253-17.623C633.999,362.768,624.753,359.603,619.224,353.358z
	 M700.591,431.833c0.432,0.12,0.858,0.282,1.258,0.532c0.295,0.186,29.872,18.668,47.895,22.674
	c11.414,2.538,35.595,2.476,50.954,2.131c-2.884-2.788-5.681-5.819-8.539-8.959c-9.407-10.338-20.074-22.053-38.522-28.789
	c-25.852-9.448-51.522,2.828-57.367,5.943c-0.188,0.505-0.402,1.006-0.642,1.501C697.048,428.016,698.754,429.622,700.591,431.833z
	 M799.543,282.448c2.425,2.993,5.91,7.325,7.407,15.425c13.124,0.949,23.037,3.922,30.125,7.093
	c-9.311-15.652-23.454-25.301-37.496-31.255c-0.942,0.225-1.937,1.17-2.353,3.76C796.965,279.098,797.368,279.765,799.543,282.448z
	 M841.115,355.921c0.941-1.808,1.679-3.629,2.308-5.444l-2.321,5.378C841.105,355.876,841.111,355.899,841.115,355.921z
	 M404.312,277.472c-0.407-2.524-1.385-3.482-2.294-3.742c-14.064,5.957-28.23,15.602-37.546,31.234
	c7.086-3.17,16.994-6.141,30.115-7.09c1.495-8.1,4.979-12.433,7.407-15.425C404.169,279.765,404.573,279.098,404.312,277.472z
	 M312.299,689.36c19.617-16.99,49.356-19.774,76.826-17.448c5.246-3.56,10.95-7.189,16.974-10.836
	c-32.405-18.888-68.084-62.948-69.706-64.96c-1.647-2.051-1.325-5.051,0.726-6.702c2.051-1.651,5.048-1.325,6.702,0.726
	c0.403,0.504,40.043,49.455,71.837,65.283c8.251-4.777,16.867-9.526,25.503-14.118c-17.938-12.138-100.524-72.571-128.862-172.743
	V600V689.36z M887.7,1027.058l-0.03-321.561c-36.072-44.143-140-7.123-141.054-6.741c-2.47,0.903-5.206-0.382-6.106-2.854
	c-0.897-2.473,0.382-5.206,2.854-6.106c1.942-0.704,22.449-7.992,48.444-12.338c-14.788-9.491-32.15-19.48-49.175-28.796
	c-0.005-0.003-0.011-0.006-0.016-0.009c-30.815-16.862-60.43-31.482-71.383-36.816c-3.007,7.22-5.969,15.359-8.835,24.705
	c27.174,60.568,8.883,117.205,8.076,119.624c-0.704,2.116-2.758,3.456-5.008,3.233c-2.218-0.227-3.984-1.967-4.244-4.182
	c-1.319-11.16-5.969-18.448-10.059-22.832c-1.644,30.703-14.548,60.541-15.156,61.927c-0.853,1.945-2.907,3.099-4.986,2.814
	c-2.104-0.276-3.77-1.908-4.089-4.005c-1.092-7.145-4.545-12.438-7.623-15.879c-4.775,16.831-15.96,39.083-16.515,40.182
	c-0.822,1.632-2.485,2.619-4.254,2.619c-0.366,0-0.735-0.04-1.104-0.13c-2.147-0.512-3.661-2.429-3.661-4.635
	c0-14.3-10.27-36.412-16.087-44.237c-2.187,12.066-1.334,28.932-1.325,29.118c0.096,1.834-0.869,3.559-2.482,4.437
	c-1.61,0.878-3.583,0.754-5.073-0.326c-24.582-17.803-31.699-51.217-33.75-70.109c-3.36,7.971-2.761,15.392-2.752,15.497
	c0.18,1.998-0.909,3.894-2.724,4.744c-1.818,0.853-3.965,0.472-5.389-0.94c-28.296-28.218,3.352-106.158,8.88-119.073
	c-2.847-8.664-5.767-16.294-8.712-23.138c-16.818,7.584-78.832,36.098-120.475,62.397c28.254,4.19,51.214,12.352,53.276,13.099
	c2.473,0.9,3.751,3.63,2.854,6.106c-0.9,2.473-3.633,3.754-6.106,2.854c-1.06-0.384-106.072-37.766-141.614,7.378v323.974h59.118
	c-19.395-15.419-26.518-46.964-28.741-75.011c-1.868-14.014-5.274-29.223-6.981-36.415l-9.823,1.57
	c-2.249,0.36-4.449-0.931-5.228-3.075c-0.782-2.147,0.068-4.542,2.026-5.718l22.875-13.726c1.551-0.928,3.5-0.903,5.02,0.074
	c1.526,0.974,2.364,2.73,2.169,4.53c-0.059,0.549-2.659,25.519-0.382,53.234c0.351,2.823,0.639,5.6,0.841,8.259
	c0.006,0.087,0.009,0.174,0.012,0.261c3.67,30.774,14.12,62.21,41.146,65.672c0.432,0.055,0.833,0.185,1.217,0.344h411.403
	c0.384-0.16,0.785-0.289,1.217-0.344c27.027-3.462,37.476-34.904,41.146-65.685c0.003-0.084,0.006-0.164,0.012-0.248
	c0.202-2.653,0.487-5.42,0.841-8.234c2.28-27.725-0.323-52.71-0.382-53.259c-0.195-1.799,0.642-3.556,2.169-4.53
	c1.523-0.977,3.472-1.002,5.02-0.074l22.872,13.726c1.958,1.176,2.808,3.574,2.026,5.718c-0.779,2.147-3.003,3.431-5.228,3.075
	l-9.82-1.57c-1.706,7.195-5.116,22.413-6.984,36.437c-2.225,28.039-9.35,59.573-28.74,74.989H887.7z M640.399,526.682
	c-2.707,5.751-4.092,12.197-4.092,19.318c0,2.631-2.135,4.766-4.766,4.766s-4.766-2.135-4.766-4.766
	c0-16.617,6.519-30.833,18.854-41.109c13.977-11.65,29.943-6.875,36.43-2.724c2.215,1.418,2.864,4.365,1.446,6.584
	c-1.418,2.215-4.353,2.854-6.565,1.458c-0.095-0.06-0.544-0.326-1.237-0.669c-0.973,3.85-3.099,9.207-7.767,13.374
	c-5.727,5.113-11.504,6.829-16.478,6.829C646.867,529.742,642.965,528.28,640.399,526.682z M649.315,514.446
	c0.959,2.139,3.099,3.635,5.595,3.635c3.391,0,6.14-2.749,6.14-6.14c0-1.528-0.579-2.908-1.502-3.983
	c-0.324,0.097-0.645,0.174-0.972,0.29c-2.246,0.798-4.557,2.057-6.847,3.964c-0.641,0.534-1.202,1.112-1.803,1.668
	C649.723,514.069,649.515,514.255,649.315,514.446z M570.868,546c0,2.631-2.135,4.766-4.766,4.766s-4.766-2.135-4.766-4.766
	c0-7.12-1.385-13.566-4.093-19.318c-2.567,1.598-6.47,3.06-11.06,3.06c-4.973,0-10.747-1.716-16.478-6.829
	c-4.668-4.168-6.794-9.525-7.767-13.375c-0.755,0.371-1.198,0.643-1.221,0.658c-2.215,1.415-5.166,0.773-6.584-1.446
	c-1.418-2.218-0.769-5.166,1.446-6.584c6.497-4.151,22.463-8.92,36.434,2.724C567.597,517.875,570.868,534.412,570.868,546z
	 M548.33,514.449c-0.2-0.192-0.41-0.379-0.614-0.569c-0.601-0.556-1.162-1.134-1.803-1.667c-2.285-1.905-4.596-3.168-6.844-3.963
	c-0.329-0.116-0.65-0.187-0.977-0.284c-0.92,1.073-1.496,2.451-1.496,3.975c0,3.391,2.749,6.14,6.14,6.14
	C545.233,518.081,547.37,516.587,548.33,514.449z M695.126,932.293c-0.617,1.995-2.463,3.354-4.551,3.354c-0.006,0-0.016,0-0.022,0
	l-62.007-0.299l-24.115,60.995c-0.717,1.818-2.476,3.013-4.43,3.013c-0.009,0-0.019,0-0.028,0c-1.964-0.012-3.723-1.229-4.424-3.065
	l-23.395-61.215l-62.748-0.303c-2.1-0.009-3.943-1.39-4.545-3.4c-0.599-2.01,0.183-4.176,1.933-5.336l49.383-32.767l-25.223-65.997
	c-0.044-0.116-0.061-0.234-0.095-0.35c-0.05-0.169-0.107-0.338-0.138-0.508c-0.03-0.168-0.036-0.339-0.048-0.509
	c-0.009-0.137-0.029-0.274-0.026-0.41c0.003-0.17,0.029-0.34,0.051-0.51c0.017-0.138,0.026-0.278,0.054-0.413
	c0.035-0.162,0.094-0.32,0.146-0.479c0.045-0.135,0.08-0.274,0.136-0.405c0.075-0.174,0.177-0.341,0.275-0.508
	c0.054-0.094,0.091-0.193,0.154-0.284c0.007-0.01,0.017-0.018,0.024-0.029c0.142-0.204,0.304-0.384,0.47-0.559
	c0.047-0.05,0.085-0.109,0.134-0.157c0.168-0.163,0.356-0.299,0.544-0.433c0.064-0.047,0.119-0.104,0.187-0.147
	c0.14-0.09,0.292-0.152,0.439-0.227c0.132-0.067,0.256-0.143,0.396-0.199c0.017-0.007,0.032-0.018,0.05-0.025
	c0.16-0.061,0.323-0.088,0.484-0.131c0.119-0.032,0.238-0.075,0.358-0.097c0.192-0.035,0.387-0.043,0.582-0.054
	c0.115-0.006,0.23-0.024,0.343-0.022c0.172,0.002,0.344,0.03,0.517,0.051c0.14,0.018,0.281,0.026,0.419,0.056
	c0.14,0.03,0.277,0.083,0.415,0.126c0.161,0.051,0.324,0.093,0.479,0.161c0.117,0.051,0.228,0.123,0.343,0.184
	c0.147,0.078,0.298,0.141,0.439,0.236l62.318,42.297l63.708-42.271l0.047-0.032l0.034-0.023c0.046-0.03,0.096-0.046,0.142-0.075
	c0.219-0.134,0.441-0.258,0.672-0.354c0.091-0.038,0.188-0.059,0.281-0.091c0.2-0.068,0.4-0.136,0.605-0.177
	c0.104-0.021,0.211-0.024,0.316-0.038c0.2-0.026,0.4-0.053,0.601-0.054c0.115,0,0.23,0.018,0.346,0.027
	c0.19,0.013,0.38,0.023,0.566,0.059c0.168,0.033,0.334,0.091,0.501,0.143c0.119,0.037,0.239,0.055,0.356,0.101
	c0.011,0.004,0.02,0.011,0.031,0.016c0.198,0.08,0.376,0.185,0.558,0.288c0.093,0.053,0.192,0.09,0.282,0.15
	c0.079,0.052,0.143,0.119,0.218,0.175c0.175,0.131,0.353,0.259,0.511,0.416c0.032,0.032,0.056,0.071,0.087,0.104
	c0.184,0.192,0.358,0.397,0.512,0.625c0.005,0.009,0.013,0.015,0.019,0.024c0.056,0.084,0.088,0.175,0.137,0.26
	c0.102,0.176,0.206,0.352,0.282,0.536c0.06,0.143,0.097,0.293,0.143,0.441c0.045,0.146,0.099,0.29,0.128,0.438
	c0.033,0.159,0.043,0.322,0.059,0.485c0.015,0.145,0.037,0.29,0.039,0.435c0.002,0.168-0.022,0.337-0.039,0.506
	c-0.013,0.138-0.017,0.277-0.043,0.413c-0.04,0.21-0.108,0.417-0.178,0.624c-0.027,0.082-0.037,0.166-0.07,0.248l-0.023,0.056
	l-0.007,0.018l-26.369,66.696l48.396,32.844C694.986,928.116,695.746,930.288,695.126,932.293z M608.924,869.707l27.853,18.902
	l20.037-50.678L608.924,869.707z M564.315,887.867l27.504-18.25l-46.553-31.594L564.315,887.867z M568.503,925.525l-8.841-23.134
	l-34.549,22.923L568.503,925.525z M618.318,935.298l-35.942-0.174l17.699,46.313L618.318,935.298z M633.186,897.692l-32.844-22.291
	l-32.54,21.59l10.924,28.584l43.352,0.21L633.186,897.692z M674.956,926.041l-33.69-22.866l-8.959,22.659L674.956,926.041z"/>
</svg>
