<?xml version="1.0" encoding="utf-8"?>
<!-- Generator: Adobe Illustrator 23.0.3, SVG Export Plug-In . SVG Version: 6.00 Build 0)  -->
<svg version="1.1" id="Capa_1" xmlns="http://www.w3.org/2000/svg" xmlns:xlink="http://www.w3.org/1999/xlink" x="0px" y="0px"
	 viewBox="0 0 1200 1200" enable-background="new 0 0 1200 1200" xml:space="preserve">
<path fill="#2E2E2E" d="M662.774,472.523c-0.429-2.585,1.316-5.029,3.898-5.461c1.02-0.17,2.168-0.398,3.354-0.647
	c4.807-1.013,10.502-2.602,13.688-4.273c-0.386-2.092,0.663-4.257,2.69-5.174c2.388-1.09,5.199-0.031,6.28,2.357l2.178,4.794
	c1.084,2.385,0.031,5.199-2.357,6.28c-0.636,0.29-1.303,0.426-1.958,0.426c-0.714,0-1.396-0.203-2.032-0.507
	c-6.794,3.702-17.84,5.696-20.282,6.104c-0.124,0.02-0.246,0.02-0.369,0.031c-0.138,0.012-0.278,0.034-0.415,0.034
	C665.171,476.486,663.163,474.842,662.774,472.523z M674.233,376.792c0.899,0,1.835-0.195,2.765-0.587
	c2.69-1.137,3.775-2.823,4.568-4.056c0.757-1.177,1.699-2.641,6.286-5.251c7.605-4.318,18.512-2.517,18.604-2.499
	c2.579,0.46,5.041-1.266,5.498-3.849c0.284-1.619-0.287-3.191-1.39-4.25c-0.42-0.442-0.93-0.812-1.523-1.075
	c-0.466-0.207-11.636-5.026-25.835,0.395c-9.909,3.784-14.128,9.869-14.731,13.928c-0.368,2.471,0.432,4.67,2.196,6.036
	C671.703,376.385,672.933,376.792,674.233,376.792z M704.696,388.688c-4.233,6.351-11.71,9.964-16.619,11.763
	c-2.341-5.812-0.85-12.06-0.815-12.201c0.649-2.53-0.871-5.109-3.398-5.767c-2.542-0.667-5.131,0.856-5.789,3.392
	c-0.117,0.445-2.507,10.022,1.675,19.179c-0.002,0.005-0.005,0.009-0.007,0.015l-1.742,5.226c-0.537,1.615-0.173,3.392,0.961,4.661
	c0.911,1.019,2.202,1.585,3.54,1.585c0.327,0,0.655-0.034,0.982-0.102c1.044-0.222,25.672-5.625,29.783-23.627
	c0.099-0.429,0.136-0.859,0.117-1.279c0.068-1.606-0.676-3.206-2.11-4.161C709.097,385.914,706.151,386.507,704.696,388.688z
	 M923.192,1112.067c0.016,9.861-3.809,19.138-10.769,26.122c-6.962,6.984-16.226,10.84-26.086,10.856l-285.419,0.478L315.439,1150
	c-9.837,0-19.092-3.825-26.059-10.769c-6.984-6.961-10.84-16.224-10.857-26.086l-0.857-512.606l-0.857-512.607
	c-0.016-9.861,3.809-19.138,10.769-26.122c6.961-6.984,16.225-10.84,26.086-10.856l285.417-0.477L884.514,50h0.048
	c9.836,0,19.09,3.824,26.058,10.769c6.985,6.961,10.84,16.225,10.856,26.086l0.858,512.606L923.192,1112.067z M913.703,1112.083
	l-0.857-512.606l-0.858-512.606c-0.012-7.574-3.094-14.426-8.065-19.381c-4.962-4.945-11.806-8.001-19.361-8.001
	c-0.015,0-0.032,0-0.047,0l-285.418,0.477L313.68,60.444c-7.574,0.013-14.426,3.094-19.381,8.066
	c-4.955,4.972-8.013,11.834-8.001,19.408l0.857,512.606l0.857,512.606c0.013,7.574,3.094,14.426,8.066,19.381
	c4.961,4.945,11.806,8.001,19.361,8.001c0.015,0,0.032,0,0.047,0l285.417-0.477l285.418-0.477
	c7.574-0.013,14.426-3.094,19.381-8.066C910.657,1126.519,913.715,1119.657,913.703,1112.083z M410.557,1066.084h-32.798
	c-1.466,0-2.71,0.524-3.732,1.565c-1.023,1.023-1.532,2.257-1.532,3.702s0.509,2.678,1.532,3.698
	c1.022,1.023,2.266,1.535,3.732,1.535h11.135v34.132c0,1.466,0.509,2.713,1.531,3.733c1.045,1.023,2.288,1.535,3.733,1.535
	c1.444,0,2.678-0.512,3.701-1.535c1.02-1.02,1.531-2.266,1.531-3.733v-34.132h11.166c1.445,0,2.691-0.512,3.736-1.535
	c1.02-1.02,1.531-2.254,1.531-3.698s-0.511-2.678-1.531-3.702C413.248,1066.608,412.001,1066.084,410.557,1066.084z
	 M467.121,1066.084c-1.445,0-2.679,0.524-3.699,1.565c-1.022,1.023-1.534,2.257-1.534,3.702v14.431h-22.333v-14.431
	c0-1.445-0.511-2.678-1.531-3.702c-1.023-1.042-2.256-1.565-3.701-1.565c-1.466,0-2.71,0.524-3.733,1.565
	c-1.022,1.023-1.531,2.257-1.531,3.702v39.365c0,1.466,0.509,2.713,1.531,3.733c1.023,1.023,2.266,1.535,3.733,1.535
	c1.445,0,2.678-0.512,3.701-1.535c1.02-1.02,1.531-2.266,1.531-3.733v-14.434h22.333v14.434c0,1.466,0.512,2.713,1.534,3.733
	c1.02,1.023,2.254,1.535,3.699,1.535c1.444,0,2.69-0.512,3.735-1.535c1.02-1.02,1.531-2.266,1.531-3.733v-39.365
	c0-1.445-0.511-2.678-1.531-3.702C469.812,1066.608,468.565,1066.084,467.121,1066.084z M527.619,1076.584
	c1.445,0,2.691-0.512,3.735-1.535c1.02-1.02,1.532-2.254,1.532-3.698s-0.512-2.678-1.532-3.702c-1.044-1.042-2.29-1.565-3.735-1.565
	H494.82c-1.466,0-2.71,0.524-3.732,1.565c-1.023,1.023-1.531,2.257-1.531,3.702v39.365c0,1.466,0.508,2.713,1.531,3.733
	c1.022,1.023,2.266,1.535,3.732,1.535h32.799c1.445,0,2.691-0.512,3.735-1.535c1.02-1.02,1.532-2.266,1.532-3.733
	c0-1.445-0.512-2.678-1.532-3.701c-1.044-1.02-2.29-1.531-3.735-1.531h-27.566v-9.201h21c1.445,0,2.688-0.509,3.733-1.532
	c1.022-1.023,1.534-2.257,1.534-3.701c0-1.466-0.512-2.709-1.534-3.732c-1.045-1.023-2.288-1.535-3.733-1.535h-21v-9.198H527.619z
	 M629.581,1066.484c-0.976-0.4-1.987-0.499-3.032-0.301c-1.022,0.223-1.912,0.713-2.666,1.466l-16,15.969l-15.969-15.969
	c-0.754-0.753-1.656-1.243-2.7-1.466c-1.046-0.198-2.056-0.099-3.032,0.301c-0.976,0.422-1.755,1.066-2.334,1.935
	c-0.598,0.887-0.899,1.866-0.899,2.933v39.365c0,1.466,0.511,2.713,1.534,3.733c1.02,1.023,2.266,1.535,3.733,1.535
	c1.445,0,2.678-0.512,3.698-1.535c1.023-1.02,1.534-2.266,1.534-3.733v-26.698l10.733,10.732c1.022,1.023,2.256,1.532,3.701,1.532
	c1.466,0,2.71-0.509,3.732-1.532l10.733-10.732v26.698c0,1.466,0.511,2.713,1.534,3.733c1.02,1.023,2.253,1.535,3.698,1.535
	s2.679-0.512,3.698-1.535c1.046-1.02,1.569-2.266,1.569-3.733v-39.365c0-1.066-0.301-2.046-0.899-2.933
	C631.37,1067.55,630.582,1066.906,629.581,1066.484z M689.912,1073.416c4.889,4.867,7.332,10.745,7.332,17.633
	c0,6.867-2.443,12.745-7.332,17.633c-4.867,4.867-10.745,7.301-17.634,7.301c-6.867,0-12.744-2.434-17.633-7.301
	c-4.864-4.889-7.297-10.767-7.297-17.633c0-6.888,2.433-12.766,7.297-17.633c4.889-4.886,10.766-7.332,17.633-7.332
	C679.167,1066.084,685.044,1068.53,689.912,1073.416z M686.746,1091.049c0-3.977-1.413-7.375-4.235-10.199
	c-2.846-2.843-6.256-4.266-10.233-4.266c-3.977,0-7.378,1.423-10.199,4.266c-2.821,2.824-4.232,6.222-4.232,10.199
	c0,3.977,1.411,7.378,4.232,10.199c2.821,2.824,6.222,4.235,10.199,4.235c3.978,0,7.388-1.411,10.233-4.235
	C685.333,1098.427,686.746,1095.026,686.746,1091.049z M751.709,1073.416c4.889,4.867,7.335,10.745,7.335,17.633
	c0,6.867-2.446,12.745-7.335,17.633c-4.864,4.867-10.742,7.301-17.63,7.301c-6.867,0-12.745-2.434-17.633-7.301
	c-4.867-4.889-7.301-10.767-7.301-17.633c0-6.888,2.434-12.766,7.301-17.633c4.888-4.886,10.766-7.332,17.633-7.332
	C740.967,1066.084,746.845,1068.53,751.709,1073.416z M748.544,1091.049c0-3.977-1.411-7.375-4.232-10.199
	c-2.846-2.843-6.256-4.266-10.233-4.266c-3.98,0-7.378,1.423-10.199,4.266c-2.824,2.824-4.235,6.222-4.235,10.199
	c0,3.977,1.411,7.378,4.235,10.199c2.822,2.824,6.219,4.235,10.199,4.235c3.978,0,7.388-1.411,10.233-4.235
	C747.133,1098.427,748.544,1095.026,748.544,1091.049z M811.64,1066.084c-1.445,0-2.679,0.524-3.699,1.565
	c-1.023,1.023-1.534,2.257-1.534,3.702v24.866l-23.533-28.233c-0.71-0.843-1.6-1.411-2.666-1.699
	c-1.066-0.292-2.121-0.245-3.165,0.133c-1.045,0.375-1.879,1.011-2.501,1.897c-0.646,0.911-0.964,1.922-0.964,3.035v39.365
	c0,1.466,0.509,2.713,1.531,3.733c1.023,1.023,2.266,1.535,3.733,1.535c1.444,0,2.678-0.512,3.701-1.535
	c1.02-1.02,1.531-2.266,1.531-3.733v-24.866l23.533,28.232c1.046,1.265,2.391,1.9,4.034,1.9c0.622,0,1.221-0.102,1.801-0.301
	c1.045-0.378,1.879-1.023,2.499-1.934c0.644-0.908,0.967-1.922,0.967-3.032v-39.365c0-1.445-0.511-2.678-1.531-3.702
	C814.331,1066.608,813.084,1066.084,811.64,1066.084z M508.568,157.346c0.133,1.445,0.756,2.623,1.866,3.533
	c0.955,0.823,2.077,1.234,3.367,1.234c1.622,0,2.967-0.634,4.033-1.9l12.366-14.832l12.366,14.832c1.066,1.266,2.412,1.9,4.033,1.9
	c1.268,0,2.387-0.411,3.367-1.234c1.11-0.91,1.733-2.088,1.866-3.533c0.134-1.445-0.266-2.722-1.199-3.833l-13.6-16.333l13.6-16.333
	c0.933-1.111,1.333-2.389,1.199-3.833c-0.133-1.445-0.756-2.633-1.866-3.567c-1.114-0.933-2.391-1.333-3.835-1.2
	c-1.445,0.133-2.633,0.756-3.565,1.866L530.2,128.98l-12.366-14.866c-0.933-1.11-2.124-1.733-3.565-1.866
	c-1.447-0.133-2.724,0.267-3.835,1.2c-1.11,0.933-1.733,2.122-1.866,3.567c-0.134,1.445,0.266,2.722,1.199,3.833l13.6,16.333
	l-13.6,16.333C508.834,154.624,508.434,155.901,508.568,157.346z M582.697,159.212c0.443,0.89,1.088,1.589,1.931,2.1
	c0.846,0.533,1.767,0.8,2.768,0.8c0.998,0,1.922-0.267,2.765-0.8c0.846-0.512,1.488-1.211,1.934-2.1l19.667-39.399
	c0.666-1.288,0.766-2.621,0.297-3.999c-0.465-1.378-1.342-2.388-2.632-3.033c-1.29-0.645-2.622-0.744-3.999-0.299
	c-1.38,0.467-2.391,1.344-3.036,2.632l-14.998,29.999l-15.001-29.933c-0.645-1.31-1.656-2.189-3.033-2.632
	c-1.379-0.468-2.721-0.378-4.033,0.267c-1.29,0.645-2.154,1.655-2.601,3.032c-0.466,1.38-0.378,2.723,0.266,4.033L582.697,159.212z
	 M630.828,162.112c1.445,0,2.679-0.512,3.699-1.533c1.022-1.021,1.534-2.266,1.534-3.734V117.48c0-1.445-0.512-2.677-1.534-3.7
	c-1.02-1.043-2.254-1.565-3.699-1.565c-1.466,0-2.712,0.522-3.732,1.565c-1.023,1.023-1.534,2.255-1.534,3.7v39.365
	c0,1.468,0.511,2.713,1.534,3.734C628.116,161.6,629.363,162.112,630.828,162.112z M658.525,162.112
	c1.445,0,2.679-0.512,3.702-1.533c1.019-1.021,1.531-2.266,1.531-3.734V117.48c0-1.445-0.512-2.677-1.531-3.7
	c-1.023-1.043-2.257-1.565-3.702-1.565c-1.466,0-2.709,0.522-3.732,1.565c-1.023,1.023-1.531,2.255-1.531,3.7v39.365
	c0,1.468,0.508,2.713,1.531,3.734S657.058,162.112,658.525,162.112z M686.224,162.112c1.445,0,2.678-0.512,3.701-1.533
	c1.02-1.021,1.531-2.266,1.531-3.734V117.48c0-1.445-0.511-2.677-1.531-3.7c-1.023-1.043-2.256-1.565-3.701-1.565
	c-1.466,0-2.71,0.522-3.733,1.565c-1.022,1.023-1.531,2.255-1.531,3.7v39.365c0,1.468,0.509,2.713,1.531,3.734
	C683.515,161.6,684.758,162.112,686.224,162.112z M896.953,600l0.039,427.833c0,4.497-3.907,8.405-8.404,8.405H311.134
	c-4.446,0-8.044-3.565-8.128-7.991V87.393c0-3.087,1.202-5.988,3.385-8.171c2.182-2.182,5.083-3.384,8.17-3.384h570.835
	c3.087,0,5.989,1.202,8.171,3.385c2.183,2.182,3.385,5.084,3.385,8.171V600z M312.53,818.341h205.636
	c9.096-35.276,23.946-58.465,23.946-58.465c2.393-39.564,13.126-61.921,19.399-71.831c-1.145-1.004-2.215-2.093-3.198-3.256
	c-4.905-5.804-7.4-13.29-8.129-20.849c-103.008-22.767-180.08-114.567-180.08-224.421c0-0.106,0.008-0.21,0.008-0.317
	s-0.008-0.211-0.008-0.317c0-2.718,0.08-5.418,0.221-8.101C374.923,307.87,475.962,209.622,600,209.622
	c126.968,0,229.896,102.928,229.896,229.896c0,110.507-77.982,202.77-181.91,224.844c-0.087,0.461-0.14,0.93-0.235,1.388
	c-1.836,8.872-6.592,17.356-13.714,23.047c6.325,10.267,16.595,32.49,18.928,71.078c0,0,14.851,23.189,23.946,58.465H887.45
	l-0.02-218.34V87.393c0-0.559-0.201-1.042-0.595-1.436c-0.396-0.396-0.879-0.596-1.438-0.596H314.562
	c-0.558,0-1.041,0.2-1.436,0.595c-0.396,0.395-0.596,0.879-0.596,1.437V818.341z M549.361,600.774
	c9.176-3.932,27.529,15.731,27.529,15.731s7.658-10.168,22.942-10.46c13.97,0.267,21.548,8.764,22.75,10.225
	c0.642-0.534,1.314-1.081,2.034-1.64c4.873-4.812,18.27-17.033,25.685-13.855c9.176,3.933,3.933,41.949-1.311,49.815
	c-0.054,0.067-0.042,0.297-0.015,0.538c96.27-22.277,168.268-108.664,168.268-211.608c0-119.789-97.455-217.244-217.244-217.244
	c-83.905,0-156.799,47.845-192.974,117.656c27.73-32.005,68.64-52.279,114.311-52.279c59.763,0,111.416,34.673,135.975,84.993
	l0.924,2.37c4.843,14.178,3.231,30.353-4.344,41.83c-14.378,21.784-25.27,14.813-21.349,26.141
	c2.049,5.922,15.923,5.892,23.092,7.407c3.344,0.706-4.358,11.328-4.358,11.328s-5.663,6.535-0.871,11.328
	c8.034,8.034-1.307,10.021,7.843,16.12c1.515,1.01-1.756,12.6-2.093,13.896c-1.071,4.119-2.493,8.138-4.207,12.027
	c-26.235,44.866-74.887,75.026-130.611,75.026c-46.546,0-88.163-21.044-115.905-54.118c28.504,57.247,81.52,100.185,145.234,115.043
	c0.032-0.208,0.049-0.389,0.005-0.455C545.428,642.723,540.185,604.707,549.361,600.774z M887.469,1026.714l-0.002-15.829
	c-0.614,0.289-1.293,0.464-2.018,0.464h-99.045c-2.629,0-4.761-2.133-4.761-4.762c0-2.629,2.133-4.762,4.761-4.762h99.045
	c0.724,0,1.403,0.174,2.018,0.464l-0.002-19.892H696.379c-2.629,0-4.762-2.133-4.762-4.762c0-2.629,2.133-4.762,4.762-4.762h191.085
	l-0.002-24.074c-0.873,0.974-2.126,1.599-3.535,1.599H726.98c-2.629,0-4.762-2.133-4.762-4.762c0-2.629,2.133-4.762,4.762-4.762
	h156.948c1.409,0,2.663,0.624,3.534,1.598l-0.002-24.07h-85.818c-2.629,0-4.761-2.133-4.761-4.762c0-2.629,2.133-4.762,4.761-4.762
	h85.817l-0.002-20.953H755.931c-2.629,0-4.761-2.133-4.761-4.762c0-2.629,2.133-4.762,4.761-4.762h131.524l-0.002-22.524
	c-0.16,0.016-0.315,0.048-0.479,0.048H726.98c-2.629,0-4.762-2.133-4.762-4.762c0-2.629,2.133-4.762,4.762-4.762h159.995
	c0.164,0,0.319,0.032,0.478,0.048l-0.002-18.587H679.151c2.805,13.196,4.67,27.776,4.67,43.266
	c0,63.116-37.713,80.232-37.713,80.232s-9.461,3.614-21.774,6.414c-12.813,5.827-30.107,15.241-62.301,28.887
	c-60.57,25.674-104.568,9.093-122.853,3.744c-18.285-5.349-15.428-24.604,5.143-20.86c10.158,1.849,46.284,14.442,80.569,1.605
	c14.095-5.278,21.613-11.901,30.255-17.883c-3.81-1.115-6.178-1.907-6.178-1.907s-37.712-17.116-37.712-80.232
	c0-15.49,1.864-30.07,4.669-43.266H312.53v18.539h159.982c2.629,0,4.762,2.133,4.762,4.762c0,2.629-2.133,4.762-4.762,4.762H312.53
	v22.476h131.03c2.629,0,4.762,2.133,4.762,4.762c0,2.629-2.133,4.762-4.762,4.762H312.53v20.953h85.319
	c2.629,0,4.762,2.133,4.762,4.762c0,2.629-2.133,4.762-4.762,4.762H312.53v23.595c0.826-0.691,1.876-1.123,3.037-1.123h156.945
	c2.629,0,4.762,2.133,4.762,4.762c0,2.629-2.133,4.762-4.762,4.762H315.568c-1.161,0-2.211-0.432-3.037-1.123v23.599h31.985
	c2.629,0,4.762,2.133,4.762,4.762c0,2.629-2.133,4.762-4.762,4.762H312.53v19.697c0.478-0.161,0.98-0.268,1.511-0.268h99.045
	c2.629,0,4.762,2.133,4.762,4.762c0,2.629-2.133,4.762-4.762,4.762h-99.045c-0.531,0-1.033-0.107-1.511-0.268v15.634H887.469z
	 M759.452,148.48c5.612,0,10.179,4.567,10.179,10.18c0,2.426,1.967,4.393,4.393,4.393c2.426,0,4.393-1.967,4.393-4.393
	c0-5.613,4.567-10.18,10.181-10.18c2.426,0,4.393-1.967,4.393-4.393c0-2.426-1.967-4.393-4.393-4.393
	c-5.614,0-10.181-4.567-10.181-10.18c0-2.426-1.968-4.393-4.393-4.393c-2.426,0-4.393,1.967-4.393,4.393
	c0,5.613-4.567,10.18-10.179,10.18c-2.426,0-4.394,1.967-4.394,4.393C755.058,146.513,757.026,148.48,759.452,148.48z
	 M411.401,147.083c5.612,0,10.179,4.566,10.179,10.18c0,2.426,1.968,4.393,4.393,4.393c2.426,0,4.393-1.967,4.393-4.393
	c0-5.613,4.568-10.18,10.181-10.18c2.426,0,4.394-1.967,4.394-4.393c0-2.426-1.968-4.393-4.394-4.393
	c-5.613,0-10.181-4.567-10.181-10.18c0-2.426-1.967-4.393-4.393-4.393c-2.426,0-4.393,1.967-4.393,4.393
	c0,5.613-4.567,10.18-10.179,10.18c-2.426,0-4.394,1.967-4.394,4.393C407.007,145.116,408.975,147.083,411.401,147.083z
	 M816.275,221.239c5.612,0,10.18,4.566,10.18,10.18c0,2.426,1.967,4.393,4.393,4.393c2.426,0,4.393-1.967,4.393-4.393
	c0-5.613,4.567-10.18,10.181-10.18c2.426,0,4.393-1.967,4.393-4.393s-1.968-4.393-4.393-4.393c-5.614,0-10.181-4.567-10.181-10.18
	c0-2.426-1.967-4.393-4.393-4.393c-2.426,0-4.393,1.967-4.393,4.393c0,5.613-4.568,10.18-10.18,10.18
	c-2.426,0-4.394,1.967-4.394,4.393S813.849,221.239,816.275,221.239z M364.758,231.419c0,2.426,1.967,4.393,4.393,4.393
	c2.426,0,4.393-1.967,4.393-4.393c0-5.613,4.567-10.18,10.181-10.18c2.426,0,4.393-1.967,4.393-4.393s-1.968-4.393-4.393-4.393
	c-5.614,0-10.181-4.567-10.181-10.18c0-2.426-1.968-4.393-4.393-4.393c-2.426,0-4.393,1.967-4.393,4.393
	c0,5.613-4.567,10.18-10.18,10.18c-2.426,0-4.393,1.967-4.393,4.393s1.967,4.393,4.393,4.393
	C360.191,221.239,364.758,225.805,364.758,231.419z M397.439,650.277c-5.614,0-10.182-4.567-10.182-10.181
	c0-2.426-1.967-4.393-4.392-4.393c-2.426,0-4.394,1.967-4.394,4.393c0,5.613-4.567,10.181-10.179,10.181
	c-2.426,0-4.393,1.967-4.393,4.393c0,2.426,1.967,4.393,4.393,4.393c5.612,0,10.179,4.567,10.179,10.18
	c0,2.426,1.968,4.393,4.394,4.393c2.426,0,4.392-1.967,4.392-4.393c0-5.613,4.568-10.18,10.182-10.18
	c2.426,0,4.393-1.967,4.393-4.393C401.832,652.244,399.864,650.277,397.439,650.277z M812.741,669.244
	c0,2.426,1.967,4.393,4.393,4.393c2.426,0,4.393-1.967,4.393-4.393c0-5.613,4.567-10.18,10.181-10.18
	c2.426,0,4.393-1.967,4.393-4.393c0-2.426-1.967-4.393-4.393-4.393c-5.614,0-10.181-4.567-10.181-10.181
	c0-2.426-1.968-4.393-4.393-4.393c-2.426,0-4.393,1.967-4.393,4.393c0,5.613-4.568,10.181-10.18,10.181
	c-2.426,0-4.393,1.967-4.393,4.393c0,2.426,1.968,4.393,4.393,4.393C808.174,659.064,812.741,663.63,812.741,669.244z
	 M747.14,724.941c-5.614,0-10.181-4.567-10.181-10.18c0-2.426-1.967-4.393-4.393-4.393c-2.426,0-4.393,1.967-4.393,4.393
	c0,5.613-4.567,10.18-10.179,10.18c-2.427,0-4.394,1.967-4.394,4.393c0,2.426,1.967,4.393,4.394,4.393
	c5.612,0,10.179,4.566,10.179,10.18c0,2.426,1.968,4.393,4.393,4.393c2.426,0,4.393-1.967,4.393-4.393
	c0-5.613,4.567-10.18,10.181-10.18c2.426,0,4.393-1.967,4.393-4.393C751.533,726.908,749.566,724.941,747.14,724.941z
	 M482.007,724.941c-5.614,0-10.181-4.567-10.181-10.18c0-2.426-1.966-4.393-4.393-4.393c-2.426,0-4.393,1.967-4.393,4.393
	c0,5.613-4.567,10.18-10.179,10.18c-2.426,0-4.394,1.967-4.394,4.393c0,2.426,1.968,4.393,4.394,4.393
	c5.612,0,10.179,4.566,10.179,10.18c0,2.426,1.968,4.393,4.393,4.393c2.427,0,4.393-1.967,4.393-4.393
	c0-5.613,4.567-10.18,10.181-10.18c2.426,0,4.394-1.967,4.394-4.393C486.401,726.908,484.433,724.941,482.007,724.941z
	 M387.558,746.078c-5.613,0-10.181-4.567-10.181-10.18c0-2.426-1.967-4.393-4.393-4.393s-4.393,1.967-4.393,4.393
	c0,5.613-4.568,10.18-10.18,10.18c-2.426,0-4.393,1.967-4.393,4.393c0,2.426,1.968,4.394,4.393,4.394
	c5.612,0,10.18,4.566,10.18,10.18c0,2.426,1.967,4.393,4.393,4.393s4.393-1.967,4.393-4.393c0-5.613,4.568-10.18,10.181-10.18
	c2.426,0,4.393-1.967,4.393-4.394C391.951,748.045,389.984,746.078,387.558,746.078z M841.59,746.078
	c-5.614,0-10.181-4.567-10.181-10.18c0-2.426-1.968-4.393-4.394-4.393c-2.426,0-4.393,1.967-4.393,4.393
	c0,5.613-4.567,10.18-10.18,10.18c-2.426,0-4.392,1.967-4.392,4.393c0,2.426,1.967,4.394,4.392,4.394
	c5.613,0,10.18,4.566,10.18,10.18c0,2.426,1.967,4.393,4.393,4.393c2.426,0,4.394-1.967,4.394-4.393
	c0-5.613,4.567-10.18,10.181-10.18c2.426,0,4.392-1.967,4.392-4.394C845.982,748.045,844.015,746.078,841.59,746.078z
	 M604.408,606.018h-1.311c0.225,0,0.434,0.023,0.656,0.027C603.975,606.04,604.182,606.018,604.408,606.018z M484.894,881.641
	c0-2.629-2.133-4.762-4.762-4.762H463.37c-2.629,0-4.762,2.133-4.762,4.762c0,2.629,2.133,4.762,4.762,4.762h16.762
	C482.761,886.403,484.894,884.27,484.894,881.641z M445.085,908.879h-24.382c-2.629,0-4.761,2.133-4.761,4.762
	c0,2.629,2.133,4.762,4.761,4.762h24.382c2.629,0,4.762-2.133,4.762-4.762C449.848,911.012,447.715,908.879,445.085,908.879z
	 M397.85,971.352h-28.951c-2.629,0-4.762,2.133-4.762,4.762c0,2.629,2.133,4.762,4.762,4.762h28.951
	c2.629,0,4.762-2.133,4.762-4.762C402.612,973.485,400.479,971.352,397.85,971.352z M719.359,886.403h16.763
	c2.629,0,4.761-2.133,4.761-4.762c0-2.629-2.133-4.762-4.761-4.762h-16.763c-2.629,0-4.761,2.133-4.761,4.762
	C714.598,884.27,716.731,886.403,719.359,886.403z M754.406,918.402h24.383c2.629,0,4.762-2.133,4.762-4.762
	c0-2.629-2.133-4.762-4.762-4.762h-24.383c-2.629,0-4.761,2.133-4.761,4.762C749.644,916.269,751.777,918.402,754.406,918.402z
	 M753.519,1001.953h-34.287c-2.629,0-4.762,2.133-4.762,4.762c0,2.629,2.133,4.762,4.762,4.762h34.287
	c2.629,0,4.762-2.133,4.762-4.762C758.281,1004.085,756.149,1001.953,753.519,1001.953z M635.174,1001.953h-65.397
	c-2.629,0-4.762,2.133-4.762,4.762c0,2.629,2.133,4.762,4.762,4.762h65.397c2.629,0,4.762-2.133,4.762-4.762
	C639.935,1004.085,637.802,1001.953,635.174,1001.953z"/>
</svg>
